<?xml version="1.0" encoding="UTF-8"?><svg id="Layer_2" xmlns="http://www.w3.org/2000/svg" viewBox="0 0 387.14 377.46"><defs><style>.cls-1{fill:#99f;}.cls-2{fill:#00005b;}</style></defs><g id="Layer_3"><g id="Layer_2-2"><g id="Surfaces"><g id="Video_Audio_Surface"><g id="Outline_no_shadow"><rect class="cls-2" width="387.14" height="377.46" rx="68.56" ry="68.56"/></g></g></g><g id="Outlined_Mnemonics_Logos"><g id="Ae"><path class="cls-1" d="m155.52,225.83h-59.99l-12.21,37.99c-.34,1.43-1.65,2.41-3.12,2.34h-30.39c-1.73,0-2.34-.95-1.82-2.86l51.94-148.97c.52-1.56,1.04-3.08,1.56-5.07.68-3.46,1.03-6.99,1.04-10.52-.13-.88.49-1.69,1.36-1.82.15-.02.3-.02.45,0h41.29c1.21,0,1.9.43,2.08,1.3l58.95,165.34c.52,1.73,0,2.6-1.56,2.6h-33.76c-1.2.13-2.31-.65-2.6-1.82l-13.24-38.51Zm-50.64-32.03h41.03c-1.04-3.46-2.25-7.36-3.64-11.69-1.39-4.33-2.86-8.96-4.41-13.89-1.56-4.93-3.12-9.87-4.67-14.8-1.56-4.93-2.99-9.7-4.29-14.28-1.3-4.59-2.47-8.78-3.51-12.6h-.26c-1.46,7.01-3.28,13.95-5.45,20.78-2.43,7.79-4.89,15.76-7.4,23.89-2.51,8.14-4.98,15.67-7.4,22.59Z"/><path class="cls-1" d="m302.26,211.04h-51.16c.63,5.06,2.31,9.94,4.93,14.31,2.9,4.33,7.01,7.71,11.82,9.74,6.51,2.82,13.55,4.2,20.65,4.05,5.63-.11,11.23-.72,16.75-1.84,4.93-.67,9.77-1.93,14.4-3.75.86-.69,1.3-.26,1.3,1.3v24.67c.04.67-.09,1.34-.39,1.95-.3.47-.7.87-1.17,1.17-5.14,2.28-10.54,3.89-16.09,4.79-7.53,1.41-15.19,2.07-22.85,1.95-12.3,0-22.6-1.9-30.91-5.71-7.85-3.46-14.79-8.71-20.26-15.32-5.11-6.23-8.9-13.43-11.17-21.17-2.24-7.63-3.38-15.55-3.38-23.5-.02-8.69,1.33-17.32,4.03-25.58,2.59-8.06,6.69-15.55,12.08-22.08,5.31-6.45,11.96-11.68,19.48-15.32,7.62-3.72,16.62-5.06,27.01-5.06,8.62-.22,17.17,1.47,25.06,4.93,6.63,2.83,12.47,7.24,17.01,12.85,4.25,5.49,7.51,11.69,9.61,18.31,2.05,6.38,3.1,13.04,3.12,19.74,0,3.81-.13,7.27-.39,10.39-.26,3.12-.48,5.37-.65,6.75-.14,1.19-1.14,2.08-2.34,2.08-1.04,0-2.81.13-5.32.39-2.51.26-5.63.43-9.35.52-3.73.09-7.66-.54-11.82-.54Zm-51.16-23.66h34.02c4.16,0,7.23-.04,9.22-.13,1.33-.13,2.62-.56,3.77-1.25v-1.56c-.05-2.03-.4-4.04-1.04-5.97-2.88-9.11-11.49-15.17-21.04-14.8-8.93-.54-17.34,4.25-21.43,12.21-1.78,3.62-2.96,7.51-3.51,11.51Z"/></g></g></g></g></svg>