<?xml version="1.0" encoding="UTF-8"?><svg id="Layer_2" xmlns="http://www.w3.org/2000/svg" viewBox="0 0 387.14 377.46"><defs><style>.cls-1{fill:#99f;}.cls-2{fill:#00005b;}</style></defs><g id="Layer_3"><g><rect class="cls-2" width="387.14" height="377.46" rx="68.56" ry="68.56"/><path class="cls-1" d="m152.15,225.83h-59.99l-12.21,37.99c-.34,1.43-1.65,2.41-3.12,2.34h-30.39c-1.73,0-2.34-.95-1.82-2.86l51.94-148.97c.52-1.56,1.04-3.33,1.56-5.32.79-3.37,1.22-6.82,1.27-10.29-.13-.88.49-1.69,1.36-1.82.15-.02.3-.02.45,0h41.29c1.21,0,1.9.43,2.08,1.3l58.72,165.36c.52,1.73,0,2.6-1.56,2.6h-33.76c-1.2.13-2.31-.65-2.6-1.82l-13.24-38.51Zm-50.64-32.03h41.03c-1.04-3.46-2.25-7.36-3.64-11.69-1.39-4.33-2.86-8.96-4.41-13.89-1.56-4.93-3.12-9.87-4.67-14.8-1.56-4.93-2.99-9.7-4.29-14.28-1.3-4.59-2.47-8.78-3.51-12.6h-.26c-1.46,7.01-3.28,13.95-5.45,20.78-2.43,7.79-4.89,15.76-7.4,23.89-2.51,8.14-4.98,15.67-7.4,22.59h0Z"/><path class="cls-1" d="m327.19,139.06v98.88c0,4.33.04,8.18.13,11.56.09,3.38.26,6.32.52,8.83.26,2.51.47,4.02.65,5.74.17,1.39-.43,2.08-1.82,2.08h-27.79c-1.32.14-2.59-.6-3.12-1.82-.37-1.32-.68-2.67-.91-4.03-.24-1.12-.37-2.26-.39-3.41-5.23,4.66-11.44,8.08-18.18,10-5.84,1.59-11.86,2.42-17.92,2.47-5.95.07-11.88-.85-17.53-2.73-5.23-1.79-9.96-4.82-13.76-8.83-4.13-4.47-7.24-9.79-9.09-15.58-2.33-7.43-3.43-15.2-3.25-22.98v-79.93c-.14-1,.55-1.93,1.56-2.08.17-.02.35-.02.52,0h30.86c1-.14,1.94.56,2.08,1.56.02.17.02.35,0,.52v75.77c0,7.1,1.56,12.68,4.67,16.75,3.12,4.07,9.39,6.1,16.66,6.1,3.73.05,7.43-.61,10.91-1.95,3.64-1.28,7.09-3.08,10.23-5.32v-91.61c0-1.21.78-1.82,2.34-1.82h30.8c.88-.12,1.69.49,1.82,1.37.02.15.02.3,0,.45Z"/></g></g></svg>