<?xml version="1.0" encoding="UTF-8"?><svg id="Layer_2" xmlns="http://www.w3.org/2000/svg" viewBox="0 0 272.72 384.95"><defs><style>.cls-1{fill:#264de4;}.cls-2{fill:#fff;}.cls-3{fill:#2965f1;}.cls-4{fill:#ebebeb;}</style></defs><g id="Layer_3"><g id="layer1"><g id="g3013"><polygon id="polygon2989" class="cls-1" points="272.72 75.65 247.88 353.99 136.19 384.95 24.82 354.03 0 75.65 272.72 75.65"/><polygon id="polygon2991" class="cls-3" points="226.61 336.26 247.84 98.41 136.36 98.41 136.36 361.28 226.61 336.26"/><polygon id="polygon2993" class="cls-4" points="56.9 201.66 59.96 235.8 136.36 235.8 136.36 201.66 56.9 201.66"/><polygon id="polygon2995" class="cls-4" points="136.36 132.56 136.24 132.56 50.75 132.56 53.85 166.7 136.36 166.7 136.36 132.56"/><polygon id="polygon2997" class="cls-4" points="136.36 325.85 136.36 290.33 136.21 290.37 98.19 280.1 95.76 252.87 77.28 252.87 61.48 252.87 66.27 306.48 136.2 325.9 136.36 325.85"/><path id="path2999" d="m64.18,0h41.35v17.29h-24.06v17.29h24.06v17.29h-41.35V0Z"/><path id="path3001" d="m113.81,0h41.35v15.04h-24.06v3.01h24.06v34.59h-41.35v-15.79h24.06v-3.01h-24.06V0Z"/><path id="path3003" d="m163.43,0h41.35v15.04h-24.06v3.01h24.06v34.59h-41.35v-15.79h24.06v-3.01h-24.06V0Z"/><polygon id="polygon3005" class="cls-2" points="178.29 235.8 174.32 280.08 136.24 290.36 136.24 325.88 206.24 306.48 206.75 300.71 214.77 210.83 215.61 201.66 221.77 132.56 136.24 132.56 136.24 166.7 184.35 166.7 181.25 201.66 136.24 201.66 136.24 235.8 178.29 235.8"/></g></g></g></svg>