<?xml version="1.0" encoding="UTF-8"?><svg id="Layer_2" xmlns="http://www.w3.org/2000/svg" viewBox="0 0 251.64 377.46"><defs><style>.cls-1{fill:#f24e1e;}.cls-2{fill:#a259ff;}.cls-3{fill:#ff7262;}.cls-4{fill:#1abcfe;}.cls-5{fill:#0acf83;}</style></defs><g id="Layer_3"><g><path id="path0_fill" class="cls-5" d="m62.91,377.46c34.73,0,62.91-28.18,62.91-62.91v-62.91h-62.91c-34.73,0-62.91,28.18-62.91,62.91s28.18,62.91,62.91,62.91Z"/><path id="path1_fill" class="cls-2" d="m0,188.73c0-34.73,28.18-62.91,62.91-62.91h62.91v125.82h-62.91c-34.73,0-62.91-28.18-62.91-62.91Z"/><path id="path1_fill-2" class="cls-1" d="m0,62.91C0,28.18,28.18,0,62.91,0h62.91v125.82h-62.91C28.18,125.82,0,97.64,0,62.91Z"/><path id="path2_fill" class="cls-3" d="m125.82,0h62.91c34.73,0,62.91,28.18,62.91,62.91s-28.18,62.91-62.91,62.91h-62.91V0Z"/><path id="path3_fill" class="cls-4" d="m251.64,188.73c0,34.73-28.18,62.91-62.91,62.91s-62.91-28.18-62.91-62.91,28.18-62.91,62.91-62.91,62.91,28.18,62.91,62.91Z"/></g></g></svg>