<?xml version="1.0" encoding="UTF-8"?><svg id="Layer_2" xmlns="http://www.w3.org/2000/svg" viewBox="0 0 272.77 384.95"><defs><style>.cls-1{fill:#fff;}.cls-2{fill:#f16529;}.cls-3{fill:#ebebeb;}.cls-4{fill:#e44d26;}</style></defs><g id="Layer_3"><g><path d="m25.41,0h17.29v17.14h15.94V0h17.29v51.88h-17.29v-17.29h-15.79v17.29h-17.44M98.79,17.29h-15.26V0h47.89v17.29h-15.34v34.59h-17.29M139.02,0h18.12l11.13,18.27L179.39,0h18.12v51.88h-17.29v-25.71l-12.1,18.65-12.1-18.65v25.71h-16.99M206.08,0h17.29v34.74h24.51v17.14h-41.8"/><path class="cls-4" d="m24.81,354.12L0,75.64h272.77l-24.81,278.34-111.8,30.98"/><path class="cls-2" d="m136.39,361.27V98.49h111.5l-21.28,237.59"/><path class="cls-3" d="m50.68,132.55h85.71v34.13h-48.27l3.16,34.96h45.11v34.06H60m1.5,17.14h34.28l2.41,27.29,38.19,10.23v35.64l-70.07-19.55"/><path class="cls-1" d="m221.8,132.55h-85.56v34.13h82.4m-3.08,34.96h-79.32v34.13h42.1l-3.98,44.36-38.12,10.23v35.49l69.92-19.4"/></g></g></svg>