<?xml version="1.0" encoding="UTF-8"?><svg id="Layer_2" xmlns="http://www.w3.org/2000/svg" viewBox="0 0 389.81 380.07"><defs><style>.cls-1{fill:#ff9a00;}.cls-2{fill:#300;}</style></defs><g id="Layer_3"><g id="Layer_2-2"><g id="Surfaces"><g id="Drawing_Surface"><g id="Outline_no_shadow"><rect class="cls-2" width="389.81" height="380.07" rx="69.03" ry="69.03"/></g></g></g><g id="Outlined_Mnemonics_Logos"><g id="Ai"><path class="cls-1" d="m188.9,228.09h-60.41l-12.29,38.18c-.35,1.44-1.66,2.42-3.14,2.35h-30.6c-1.74,0-2.35-.96-1.83-2.88l52.3-150.62c.52-1.57,1.05-3.36,1.57-5.36.68-3.49,1.03-7.04,1.05-10.59-.13-.88.49-1.7,1.37-1.83.15-.02.31-.02.46,0h41.58c1.22,0,1.92.44,2.09,1.31l59.36,167.36c.52,1.74,0,2.62-1.57,2.62h-34c-1.21.13-2.33-.65-2.61-1.83l-13.34-38.7Zm-50.99-32.95h41.32c-1.05-3.49-2.27-7.41-3.66-11.77-1.4-4.36-2.88-9.02-4.45-13.99-1.57-4.97-3.14-9.94-4.71-14.91-1.57-4.97-3.01-9.76-4.31-14.38-1.31-4.62-2.48-8.84-3.53-12.68h-.26c-1.47,7.06-3.3,14.04-5.49,20.92-2.44,7.85-4.93,15.86-7.45,24.06-2.53,8.2-5.01,15.78-7.45,22.75h0Z"/><path class="cls-1" d="m275.71,125.06c-5.39.22-10.63-1.88-14.38-5.75-3.74-4.04-5.72-9.4-5.49-14.91-.19-5.45,1.95-10.73,5.88-14.51,3.89-3.74,9.12-5.76,14.51-5.62,6.28,0,11.2,1.87,14.77,5.62,3.64,3.93,5.57,9.16,5.36,14.51.22,5.52-1.81,10.9-5.62,14.91-3.99,3.93-9.44,6.02-15.04,5.75Zm-18.04,140.95v-125c0-1.57.69-2.35,2.09-2.35h32.16c1.39,0,2.09.78,2.09,2.35v125c0,1.74-.7,2.62-2.09,2.62h-31.9c-1.57,0-2.35-.87-2.35-2.62Z"/></g></g></g></g></svg>