<?xml version="1.0" encoding="UTF-8"?><svg id="Layer_2" xmlns="http://www.w3.org/2000/svg" viewBox="0 0 387.14 377.46"><defs><style>.cls-1{fill:#49021f;}.cls-2{fill:#f36;}</style></defs><g id="Layer_3"><g><g id="Surfaces"><g id="Publishing_Surface"><g id="Outline_no_shadow"><rect class="cls-1" width="387.14" height="377.46" rx="68.56" ry="68.56"/></g></g></g><g id="Outlined_Mnemonics_Logos"><g id="Id"><path class="cls-2" d="m140.59,98.75v165.43c0,1.73-.78,2.6-2.34,2.6h-31.43c-1.39,0-2.08-.87-2.08-2.6V98.75c0-1.38.78-2.08,2.34-2.08h31.42c1-.14,1.94.56,2.08,1.56.02.17.02.35,0,.52Z"/><path class="cls-2" d="m233.57,269.37c-11.95.18-23.8-2.3-34.67-7.27-10.13-4.69-18.6-12.34-24.28-21.95-5.89-9.78-8.83-22.03-8.83-36.75-.1-11.92,2.95-23.65,8.83-34.02,6.06-10.56,14.97-19.2,25.71-24.93,11.25-6.23,24.84-9.35,40.77-9.35.86,0,1.99.04,3.38.13,1.38.09,3.03.22,4.93.39v-51.16c0-1.21.52-1.82,1.56-1.82h32.72c.75-.11,1.45.42,1.56,1.17.02.13.02.26,0,.39v153.49c0,2.95.13,6.15.39,9.61.26,3.47.48,6.58.65,9.35.07,1.1-.55,2.14-1.56,2.6-8.44,3.52-17.23,6.13-26.23,7.79-8.22,1.52-16.57,2.3-24.93,2.34Zm15.84-32.2v-70.9c-1.4-.38-2.84-.64-4.28-.78-1.77-.18-3.55-.26-5.32-.26-6.3-.06-12.53,1.36-18.18,4.16-5.5,2.74-10.2,6.85-13.63,11.95-3.55,5.19-5.33,12.03-5.32,20.52-.13,5.66.8,11.3,2.73,16.62,1.57,4.29,4.05,8.19,7.27,11.43,3.08,2.98,6.82,5.2,10.91,6.49,4.32,1.4,8.83,2.1,13.37,2.08,2.42,0,4.67-.09,6.75-.26,1.94-.15,3.85-.49,5.71-1.04Z"/></g></g></g></g></svg>