<?xml version="1.0" encoding="UTF-8"?><svg id="Layer_2" xmlns="http://www.w3.org/2000/svg" viewBox="0 0 376.72 376.72"><defs><style>.cls-1{fill:#f7df1e;}</style></defs><g id="Layer_3"><g><rect class="cls-1" width="376.72" height="376.72"/><path d="m253.06,294.31c7.59,12.39,17.46,21.5,34.92,21.5,14.67,0,24.04-7.33,24.04-17.46,0-12.14-9.63-16.44-25.77-23.5l-8.85-3.8c-25.55-10.88-42.52-24.52-42.52-53.34,0-26.55,20.23-46.76,51.84-46.76,22.51,0,38.69,7.83,50.35,28.34l-27.57,17.7c-6.07-10.88-12.62-15.17-22.78-15.17s-16.94,6.58-16.94,15.17c0,10.62,6.58,14.92,21.77,21.5l8.85,3.79c30.08,12.9,47.06,26.05,47.06,55.61,0,31.87-25.04,49.33-58.66,49.33s-54.12-15.67-64.51-36.2l28.77-16.71Zm-125.05,3.07c5.56,9.87,10.62,18.21,22.78,18.21s18.97-4.55,18.97-22.24v-120.37h35.4v120.85c0,36.66-21.49,53.34-52.86,53.34-28.34,0-44.76-14.67-53.11-32.34l28.82-17.45Z"/></g></g></svg>