<?xml version="1.0" encoding="UTF-8"?><svg id="Layer_2" xmlns="http://www.w3.org/2000/svg" viewBox="0 0 383.21 383.21"><defs><style>.cls-1{fill:#fff;}.cls-2{fill:#00ddb3;}</style></defs><g id="Layer_3"><g><path class="cls-2" d="m286.25,0H96.96C43.41,0,0,43.41,0,96.96v189.29c0,53.55,43.41,96.96,96.96,96.96h189.29c53.55,0,96.96-43.41,96.96-96.96V96.96c0-53.55-43.41-96.96-96.96-96.96Z"/><path class="cls-1" d="m291.25,85.83c-65.96,0-90.41,47.1-110.06,84.93l-12.84,24.21c-20.81,40.13-36.36,64.52-76.43,64.52-5.03,0-9.85,1.99-13.4,5.55-7.39,7.4-7.39,19.39,0,26.78,0,0,0,0,0,0,3.55,3.55,8.37,5.55,13.39,5.56,65.99,0,90.43-47.1,110.09-84.93l12.82-24.21c20.84-40.13,36.39-64.52,76.43-64.52,5.03,0,9.86-1.98,13.41-5.54,3.56-3.55,5.56-8.38,5.56-13.4-.02-10.46-8.51-18.94-18.97-18.94h0Z"/></g></g></svg>