<?xml version="1.0" encoding="UTF-8"?><svg id="Layer_2" xmlns="http://www.w3.org/2000/svg" viewBox="0 0 390.23 380.48"><defs><style>.cls-1{fill:#001e36;}.cls-2{fill:#31a8ff;}</style></defs><g id="Layer_3"><g id="Layer_2-2"><g id="Surfaces"><g id="Photo_Surface"><g id="Outline_no_shadow"><rect class="cls-1" width="390.23" height="380.48" rx="69.1" ry="69.1"/></g></g></g><g id="Outlined_Mnemonics_Logos"><g id="Ps"><path class="cls-2" d="m87.87,266.81V99.54c0-1.22.52-1.83,1.57-1.83,2.79,0,5.34-.04,9.18-.13,3.84-.09,7.98-.17,12.43-.26,4.45-.09,9.16-.17,14.14-.26,4.97-.09,9.9-.13,14.79-.13,13.26,0,24.43,1.66,33.51,4.97,8.19,2.77,15.66,7.33,21.86,13.35,5.26,5.22,9.32,11.51,11.91,18.46,2.45,6.75,3.69,13.89,3.67,21.07,0,13.96-3.23,25.48-9.69,34.56-6.5,9.11-15.64,16.01-26.18,19.76-11,4.1-23.21,5.49-36.65,5.49-3.84,0-6.55-.04-8.12-.13-1.57-.09-3.93-.13-7.07-.13v52.23c.16,1.14-.63,2.19-1.77,2.36-.2.03-.39.03-.59,0h-31.17c-1.22,0-1.83-.7-1.83-2.09Zm35.36-137.7v54.56c2.27.18,4.36.26,6.28.26h8.64c6.36-.02,12.67-1.03,18.72-2.99,5.19-1.54,9.82-4.54,13.35-8.64,3.4-4.01,5.1-9.6,5.1-16.75.14-5.06-1.18-10.06-3.8-14.4-2.75-4.19-6.73-7.44-11.39-9.29-6.08-2.37-12.58-3.48-19.11-3.27-4.19,0-7.9.04-11.13.13-3.23.09-5.46.22-6.68.39h0Z"/><path class="cls-2" d="m312.14,173.76c-4.92-2.53-10.16-4.38-15.58-5.5-5.97-1.37-12.07-2.07-18.19-2.09-3.31-.09-6.62.31-9.82,1.18-2.03.45-3.84,1.61-5.1,3.27-.85,1.33-1.31,2.87-1.31,4.45.05,1.53.6,3,1.57,4.19,1.53,1.79,3.4,3.26,5.5,4.32,3.73,2.01,7.58,3.8,11.52,5.37,8.79,2.94,17.18,6.94,25,11.91,5.33,3.36,9.73,7.99,12.83,13.48,2.6,5.2,3.9,10.94,3.8,16.75.16,7.67-2.04,15.21-6.28,21.6-4.55,6.49-10.86,11.53-18.19,14.53-7.94,3.49-17.76,5.23-29.45,5.24-7.43.08-14.84-.63-22.12-2.09-5.74-1.05-11.32-2.81-16.62-5.24-1.17-.6-1.88-1.83-1.83-3.14v-28.27c-.06-.56.19-1.12.65-1.44.46-.26,1.03-.21,1.44.13,6.26,3.69,13.06,6.39,20.16,7.98,6.25,1.57,12.67,2.4,19.11,2.49,6.11,0,10.6-.79,13.48-2.36,2.66-1.22,4.35-3.88,4.32-6.81,0-2.27-1.31-4.45-3.93-6.54-2.62-2.09-7.94-4.63-15.97-7.59-8.22-2.86-16.01-6.82-23.17-11.78-5.12-3.56-9.33-8.27-12.3-13.74-2.57-5.16-3.88-10.86-3.8-16.62-.01-6.93,1.89-13.72,5.5-19.63,4.12-6.51,10.02-11.69,17.02-14.92,7.68-3.84,17.28-5.76,28.8-5.76,6.75-.05,13.49.43,20.16,1.44,4.83.61,9.55,1.89,14.03,3.8.72.21,1.3.74,1.57,1.44.18.64.27,1.3.26,1.96v26.44c.04.63-.26,1.22-.79,1.57-.71.35-1.54.35-2.25,0Z"/></g></g></g></g></svg>