<?xml version="1.0" encoding="UTF-8"?><svg id="Layer_2" xmlns="http://www.w3.org/2000/svg" viewBox="0 0 387.14 377.46"><defs><style>.cls-1{fill:#99f;}.cls-2{fill:#00005b;}</style></defs><g id="Layer_3"><g id="Layer_2-2"><g id="Surfaces"><g id="Video_Audio_Surface"><g id="Outline_no_shadow"><path class="cls-2" d="m68.56,0h250.03c37.91,0,68.56,30.65,68.56,68.56v240.35c0,37.91-30.65,68.56-68.56,68.56H68.56c-37.91,0-68.56-30.65-68.56-68.56V68.56C0,30.65,30.65,0,68.56,0Z"/></g></g></g><g id="Outlined_Mnemonics_Logos"><g id="Pr"><path class="cls-1" d="m91.95,264.71V98.72c0-1.13.48-1.77,1.61-1.77,2.74,0,5.32,0,9.03-.16,3.87-.16,7.9-.16,12.26-.32,4.36-.16,9.03-.16,14.03-.32,5-.16,9.84-.16,14.68-.16,13.23,0,24.2,1.61,33.23,5,8.07,2.74,15.49,7.26,21.62,13.23,5.16,5.16,9.19,11.45,11.78,18.39,2.42,6.77,3.71,13.71,3.71,20.97,0,13.87-3.23,25.33-9.68,34.36-6.45,9.03-15.49,15.81-25.97,19.68-10.97,4.03-23.07,5.48-36.29,5.48-3.87,0-6.45,0-8.07-.16s-3.87-.16-6.94-.16v51.78c.16,1.13-.65,2.1-1.77,2.26h-31.29c-1.29,0-1.94-.65-1.94-2.1Zm35.17-136.63v54.2c2.26.16,4.36.32,6.29.32h8.55c6.29,0,12.58-.97,18.55-2.9,5.16-1.45,9.68-4.52,13.23-8.55,3.39-4.03,5-9.52,5-16.61.16-5-1.13-10-3.71-14.36-2.74-4.19-6.61-7.42-11.29-9.19-5.97-2.42-12.42-3.39-19.03-3.23-4.19,0-7.9,0-10.97.16-3.23-.16-5.48,0-6.61.16h0Z"/><path class="cls-1" d="m236.48,137.43h28.23c1.61,0,2.9,1.13,3.39,2.58.48,1.29.81,2.58.97,4.03.32,1.61.65,3.39.81,5,.16,1.77.32,3.71.32,5.81,4.84-5.65,10.65-10.32,17.26-13.87,7.42-4.19,15.97-6.29,24.52-6.29,1.13-.16,2.1.65,2.26,1.77v32.1c0,1.29-.81,1.77-2.58,1.77-5.81-.16-11.78.32-17.42,1.61-4.68.97-9.19,2.42-13.55,4.36-3.06,1.45-5.97,3.39-8.23,5.97v82.27c0,1.61-.65,2.26-2.1,2.26h-31.78c-1.29.16-2.42-.65-2.58-1.94v-90.01c0-3.87,0-7.9-.16-12.1-.16-4.19-.16-8.39-.32-12.58,0-3.71-.32-7.26-.65-10.97-.16-.81.32-1.61,1.13-1.77,0-.16.32-.16.48,0h0Z"/></g></g></g></g></svg>