<svg width="849" height="262" viewBox="0 0 849 262" fill="none" xmlns="http://www.w3.org/2000/svg">
<path d="M459 15H724.5C792.155 15 847 69.8451 847 137.5V137.5C847 205.155 792.155 260 724.5 260H124.5C56.8451 260 2 205.155 2 137.5V137.5C2 69.8451 56.8451 15 124.5 15H389" stroke="#4293D7" stroke-width="3" stroke-linecap="round"/>
<rect x="60" y="66" width="729.484" height="144" rx="72" fill="#173F5F"/>
<path d="M179.151 127.806C181.183 127.806 182.99 128.258 184.57 129.161C186.151 130.032 187.377 131.339 188.248 133.081C189.151 134.79 189.603 136.855 189.603 139.274V155H182.829V140.194C182.829 138.065 182.296 136.435 181.232 135.306C180.167 134.145 178.716 133.565 176.877 133.565C175.006 133.565 173.522 134.145 172.425 135.306C171.361 136.435 170.829 138.065 170.829 140.194V155H164.054V119.194H170.829V131.532C171.7 130.371 172.861 129.468 174.312 128.823C175.764 128.145 177.377 127.806 179.151 127.806ZM220.964 141.016C220.964 141.984 220.899 142.855 220.77 143.629H201.174C201.335 145.565 202.012 147.081 203.206 148.177C204.399 149.274 205.867 149.823 207.609 149.823C210.125 149.823 211.916 148.742 212.98 146.581H220.287C219.512 149.161 218.029 151.29 215.835 152.968C213.641 154.613 210.948 155.435 207.754 155.435C205.174 155.435 202.851 154.871 200.787 153.742C198.754 152.581 197.158 150.952 195.996 148.855C194.867 146.758 194.303 144.339 194.303 141.597C194.303 138.823 194.867 136.387 195.996 134.29C197.125 132.194 198.706 130.581 200.738 129.452C202.77 128.323 205.109 127.758 207.754 127.758C210.303 127.758 212.577 128.306 214.577 129.403C216.609 130.5 218.174 132.065 219.27 134.097C220.399 136.097 220.964 138.403 220.964 141.016ZM213.948 139.081C213.916 137.339 213.287 135.952 212.061 134.919C210.835 133.855 209.335 133.323 207.561 133.323C205.883 133.323 204.464 133.839 203.303 134.871C202.174 135.871 201.48 137.274 201.222 139.081H213.948ZM251.554 128.194L234.957 167.677H227.747L233.554 154.323L222.812 128.194H230.409L237.328 146.919L244.344 128.194H251.554ZM280.996 123.258C284.738 123.258 287.98 123.952 290.722 125.339C293.464 126.726 295.56 128.677 297.012 131.194C298.496 133.71 299.238 136.613 299.238 139.903C299.238 142.548 298.77 145.048 297.834 147.403C296.931 149.758 295.609 151.661 293.867 153.113C292.125 154.565 290.06 155.29 287.673 155.29C285.996 155.29 284.641 154.952 283.609 154.274C282.576 153.565 281.915 152.565 281.625 151.274C280.689 152.532 279.48 153.532 277.996 154.274C276.512 154.984 274.947 155.339 273.302 155.339C270.851 155.339 268.931 154.613 267.544 153.161C266.157 151.677 265.464 149.661 265.464 147.113C265.464 144.694 265.964 142.435 266.964 140.339C267.964 138.242 269.351 136.565 271.125 135.306C272.899 134.016 274.899 133.371 277.125 133.371C279.899 133.371 281.802 134.339 282.834 136.274L283.27 133.758H288.931L286.657 146.823C286.56 147.435 286.512 148 286.512 148.516C286.512 149.29 286.673 149.871 286.996 150.258C287.318 150.645 287.867 150.839 288.641 150.839C289.802 150.839 290.77 150.29 291.544 149.194C292.351 148.097 292.947 146.726 293.334 145.081C293.754 143.435 293.964 141.79 293.964 140.145C293.964 136.242 292.77 133.226 290.383 131.097C287.996 128.935 284.625 127.855 280.27 127.855C276.56 127.855 273.205 128.758 270.205 130.565C267.205 132.339 264.851 134.774 263.141 137.871C261.464 140.935 260.625 144.355 260.625 148.129C260.625 152.129 261.802 155.21 264.157 157.371C266.544 159.532 269.915 160.613 274.27 160.613C277.399 160.613 280.157 160.048 282.544 158.919L283.512 163.371C280.447 164.661 277.044 165.306 273.302 165.306C269.689 165.306 266.528 164.613 263.818 163.226C261.109 161.871 259.012 159.935 257.528 157.419C256.044 154.903 255.302 151.984 255.302 148.661C255.302 143.919 256.399 139.613 258.593 135.742C260.818 131.871 263.883 128.823 267.786 126.597C271.722 124.371 276.125 123.258 280.996 123.258ZM275.431 150.306C276.593 150.306 277.657 149.968 278.625 149.29C279.593 148.613 280.351 147.71 280.899 146.581C281.48 145.452 281.77 144.242 281.77 142.952C281.77 141.597 281.399 140.5 280.657 139.661C279.915 138.823 278.883 138.403 277.56 138.403C276.367 138.403 275.318 138.774 274.415 139.516C273.512 140.226 272.802 141.161 272.286 142.323C271.802 143.484 271.56 144.71 271.56 146C271.56 147.323 271.883 148.371 272.528 149.145C273.173 149.919 274.141 150.306 275.431 150.306ZM316.55 127.758C318.55 127.758 320.308 128.161 321.824 128.968C323.34 129.742 324.534 130.758 325.405 132.016V128.194H332.227V155.194C332.227 157.677 331.727 159.887 330.727 161.823C329.727 163.79 328.227 165.339 326.227 166.468C324.227 167.629 321.808 168.21 318.969 168.21C315.163 168.21 312.034 167.323 309.582 165.548C307.163 163.774 305.792 161.355 305.469 158.29H312.195C312.55 159.516 313.308 160.484 314.469 161.194C315.663 161.935 317.098 162.306 318.776 162.306C320.743 162.306 322.34 161.71 323.566 160.516C324.792 159.355 325.405 157.581 325.405 155.194V151.032C324.534 152.29 323.324 153.339 321.776 154.177C320.259 155.016 318.517 155.435 316.55 155.435C314.292 155.435 312.227 154.855 310.356 153.694C308.485 152.532 307.001 150.903 305.905 148.806C304.84 146.677 304.308 144.242 304.308 141.5C304.308 138.79 304.84 136.387 305.905 134.29C307.001 132.194 308.469 130.581 310.308 129.452C312.179 128.323 314.259 127.758 316.55 127.758ZM325.405 141.597C325.405 139.952 325.082 138.548 324.437 137.387C323.792 136.194 322.921 135.29 321.824 134.677C320.727 134.032 319.55 133.71 318.292 133.71C317.034 133.71 315.872 134.016 314.808 134.629C313.743 135.242 312.872 136.145 312.195 137.339C311.55 138.5 311.227 139.887 311.227 141.5C311.227 143.113 311.55 144.532 312.195 145.758C312.872 146.952 313.743 147.871 314.808 148.516C315.905 149.161 317.066 149.484 318.292 149.484C319.55 149.484 320.727 149.177 321.824 148.565C322.921 147.919 323.792 147.016 324.437 145.855C325.082 144.661 325.405 143.242 325.405 141.597ZM337.101 141.5C337.101 138.79 337.634 136.387 338.698 134.29C339.795 132.194 341.263 130.581 343.101 129.452C344.972 128.323 347.053 127.758 349.343 127.758C351.343 127.758 353.085 128.161 354.569 128.968C356.085 129.774 357.295 130.79 358.198 132.016V128.194H365.021V155H358.198V151.081C357.327 152.339 356.117 153.387 354.569 154.226C353.053 155.032 351.295 155.435 349.295 155.435C347.037 155.435 344.972 154.855 343.101 153.694C341.263 152.532 339.795 150.903 338.698 148.806C337.634 146.677 337.101 144.242 337.101 141.5ZM358.198 141.597C358.198 139.952 357.876 138.548 357.23 137.387C356.585 136.194 355.714 135.29 354.617 134.677C353.521 134.032 352.343 133.71 351.085 133.71C349.827 133.71 348.666 134.016 347.601 134.629C346.537 135.242 345.666 136.145 344.988 137.339C344.343 138.5 344.021 139.887 344.021 141.5C344.021 143.113 344.343 144.532 344.988 145.758C345.666 146.952 346.537 147.871 347.601 148.516C348.698 149.161 349.859 149.484 351.085 149.484C352.343 149.484 353.521 149.177 354.617 148.565C355.714 147.919 356.585 147.016 357.23 145.855C357.876 144.661 358.198 143.242 358.198 141.597ZM378.411 132.355C379.282 130.935 380.411 129.823 381.798 129.016C383.218 128.21 384.83 127.806 386.637 127.806V134.919H384.847C382.718 134.919 381.105 135.419 380.008 136.419C378.943 137.419 378.411 139.161 378.411 141.645V155H371.637V128.194H378.411V132.355ZM416.845 128.194L400.248 167.677H393.038L398.845 154.323L388.103 128.194H395.7L402.619 146.919L409.635 128.194H416.845ZM457.658 128.194L449.819 155H442.513L437.626 136.274L432.738 155H425.384L417.497 128.194H424.367L429.109 148.613L434.238 128.194H441.4L446.432 148.565L451.174 128.194H457.658ZM464.759 125C463.565 125 462.565 124.629 461.759 123.887C460.984 123.113 460.597 122.161 460.597 121.032C460.597 119.903 460.984 118.968 461.759 118.226C462.565 117.452 463.565 117.065 464.759 117.065C465.952 117.065 466.936 117.452 467.71 118.226C468.517 118.968 468.92 119.903 468.92 121.032C468.92 122.161 468.517 123.113 467.71 123.887C466.936 124.629 465.952 125 464.759 125ZM468.097 128.194V155H461.323V128.194H468.097ZM489.645 127.806C492.839 127.806 495.419 128.823 497.387 130.855C499.355 132.855 500.339 135.661 500.339 139.274V155H493.564V140.194C493.564 138.065 493.032 136.435 491.968 135.306C490.903 134.145 489.452 133.565 487.613 133.565C485.742 133.565 484.258 134.145 483.161 135.306C482.097 136.435 481.564 138.065 481.564 140.194V155H474.79V128.194H481.564V131.532C482.468 130.371 483.613 129.468 485 128.823C486.419 128.145 487.968 127.806 489.645 127.806ZM514.668 133.758V146.726C514.668 147.629 514.877 148.29 515.297 148.71C515.748 149.097 516.49 149.29 517.522 149.29H520.668V155H516.41C510.7 155 507.845 152.226 507.845 146.677V133.758H504.652V128.194H507.845V121.565H514.668V128.194H520.668V133.758H514.668ZM532.314 119.194V155H525.54V119.194H532.314ZM563.926 141.016C563.926 141.984 563.862 142.855 563.733 143.629H544.136C544.297 145.565 544.975 147.081 546.168 148.177C547.362 149.274 548.83 149.823 550.572 149.823C553.088 149.823 554.878 148.742 555.943 146.581H563.249C562.475 149.161 560.991 151.29 558.797 152.968C556.604 154.613 553.91 155.435 550.717 155.435C548.136 155.435 545.814 154.871 543.749 153.742C541.717 152.581 540.12 150.952 538.959 148.855C537.83 146.758 537.265 144.339 537.265 141.597C537.265 138.823 537.83 136.387 538.959 134.29C540.088 132.194 541.668 130.581 543.701 129.452C545.733 128.323 548.072 127.758 550.717 127.758C553.265 127.758 555.539 128.306 557.539 129.403C559.572 130.5 561.136 132.065 562.233 134.097C563.362 136.097 563.926 138.403 563.926 141.016ZM556.91 139.081C556.878 137.339 556.249 135.952 555.023 134.919C553.797 133.855 552.297 133.323 550.523 133.323C548.846 133.323 547.426 133.839 546.265 134.871C545.136 135.871 544.443 137.274 544.185 139.081H556.91ZM571.871 155.339C570.645 155.339 569.629 154.968 568.823 154.226C568.048 153.452 567.661 152.5 567.661 151.371C567.661 150.242 568.048 149.306 568.823 148.565C569.629 147.79 570.645 147.403 571.871 147.403C573.065 147.403 574.048 147.79 574.823 148.565C575.597 149.306 575.984 150.242 575.984 151.371C575.984 152.5 575.597 153.452 574.823 154.226C574.048 154.968 573.065 155.339 571.871 155.339ZM579.698 141.597C579.698 138.823 580.263 136.403 581.392 134.339C582.521 132.242 584.085 130.629 586.085 129.5C588.085 128.339 590.376 127.758 592.956 127.758C596.279 127.758 599.021 128.597 601.182 130.274C603.376 131.919 604.844 134.242 605.585 137.242H598.279C597.892 136.081 597.231 135.177 596.295 134.532C595.392 133.855 594.263 133.516 592.908 133.516C590.973 133.516 589.44 134.226 588.311 135.645C587.182 137.032 586.618 139.016 586.618 141.597C586.618 144.145 587.182 146.129 588.311 147.548C589.44 148.935 590.973 149.629 592.908 149.629C595.65 149.629 597.44 148.403 598.279 145.952H605.585C604.844 148.855 603.376 151.161 601.182 152.871C598.989 154.581 596.247 155.435 592.956 155.435C590.376 155.435 588.085 154.871 586.085 153.742C584.085 152.581 582.521 150.968 581.392 148.903C580.263 146.806 579.698 144.371 579.698 141.597ZM622.451 155.435C619.871 155.435 617.548 154.871 615.484 153.742C613.419 152.581 611.79 150.952 610.597 148.855C609.435 146.758 608.855 144.339 608.855 141.597C608.855 138.855 609.451 136.435 610.645 134.339C611.871 132.242 613.532 130.629 615.629 129.5C617.726 128.339 620.064 127.758 622.645 127.758C625.226 127.758 627.564 128.339 629.661 129.5C631.758 130.629 633.403 132.242 634.597 134.339C635.822 136.435 636.435 138.855 636.435 141.597C636.435 144.339 635.806 146.758 634.548 148.855C633.322 150.952 631.645 152.581 629.516 153.742C627.419 154.871 625.064 155.435 622.451 155.435ZM622.451 149.532C623.677 149.532 624.822 149.242 625.887 148.661C626.984 148.048 627.855 147.145 628.5 145.952C629.145 144.758 629.468 143.306 629.468 141.597C629.468 139.048 628.79 137.097 627.435 135.742C626.113 134.355 624.484 133.661 622.548 133.661C620.613 133.661 618.984 134.355 617.661 135.742C616.371 137.097 615.726 139.048 615.726 141.597C615.726 144.145 616.355 146.113 617.613 147.5C618.903 148.855 620.516 149.532 622.451 149.532ZM674.695 127.806C677.985 127.806 680.63 128.823 682.63 130.855C684.663 132.855 685.679 135.661 685.679 139.274V155H678.904V140.194C678.904 138.097 678.372 136.5 677.308 135.403C676.243 134.274 674.792 133.71 672.953 133.71C671.114 133.71 669.646 134.274 668.55 135.403C667.485 136.5 666.953 138.097 666.953 140.194V155H660.179V140.194C660.179 138.097 659.646 136.5 658.582 135.403C657.517 134.274 656.066 133.71 654.227 133.71C652.356 133.71 650.872 134.274 649.775 135.403C648.711 136.5 648.179 138.097 648.179 140.194V155H641.404V128.194H648.179V131.435C649.05 130.306 650.163 129.419 651.517 128.774C652.904 128.129 654.421 127.806 656.066 127.806C658.163 127.806 660.033 128.258 661.679 129.161C663.324 130.032 664.598 131.29 665.501 132.935C666.372 131.387 667.63 130.145 669.275 129.21C670.953 128.274 672.759 127.806 674.695 127.806Z" fill="#DDEEFC"/>
<rect x="60" y="66" width="729.484" height="144" rx="72" stroke="#72B1E4" stroke-width="6"/>
<path d="M441 5.75V23.25C441 24.2446 440.599 25.1984 439.885 25.9016C439.171 26.6049 438.202 27 437.192 27H411.808C410.798 27 409.829 26.6049 409.115 25.9016C408.401 25.1984 408 24.2446 408 23.25V5.75M441 5.75C441 4.75544 440.599 3.80161 439.885 3.09835C439.171 2.39509 438.202 2 437.192 2H411.808C410.798 2 409.829 2.39509 409.115 3.09835C408.401 3.80161 408 4.75544 408 5.75M441 5.75V6.155C441 6.79524 440.834 7.42484 440.517 7.98383C440.2 8.54281 439.743 9.01256 439.189 9.34833L426.497 17.04C425.897 17.4042 425.205 17.5971 424.5 17.5971C423.795 17.5971 423.103 17.4042 422.503 17.04L409.811 9.35C409.257 9.01423 408.8 8.54448 408.483 7.98549C408.166 7.42651 408 6.79691 408 6.15667V5.75" stroke="#4293D7" stroke-width="2.5" stroke-linecap="round" stroke-linejoin="round"/>
</svg>
