<?xml version="1.0" encoding="UTF-8"?><svg id="Layer_4" xmlns="http://www.w3.org/2000/svg" viewBox="0 0 100 100"><defs><style>.cls-1{fill:none;stroke:#4293d7;stroke-linecap:round;stroke-linejoin:round;stroke-width:5.37px;}</style></defs><path class="cls-1" d="m85.47,31.19v37.62c0,2.14-.86,4.19-2.4,5.7-1.54,1.51-3.62,2.36-5.79,2.36H22.71c-2.17,0-4.25-.85-5.79-2.36-1.54-1.51-2.4-3.56-2.4-5.7V31.19m70.94,0c0-2.14-.86-4.19-2.4-5.7-1.54-1.51-3.62-2.36-5.79-2.36H22.71c-2.17,0-4.25.85-5.79,2.36-1.54,1.51-2.4,3.56-2.4,5.7m70.94,0v.87c0,1.38-.36,2.73-1.04,3.93-.68,1.2-1.66,2.21-2.85,2.93l-27.29,16.54c-1.29.78-2.78,1.2-4.29,1.2s-3-.41-4.29-1.2l-27.29-16.53c-1.19-.72-2.17-1.73-2.85-2.93-.68-1.2-1.04-2.56-1.04-3.93v-.87"/></svg>