<?xml version="1.0" encoding="UTF-8"?><svg id="Layer_4" xmlns="http://www.w3.org/2000/svg" viewBox="0 0 100 100"><defs><style>.cls-1{fill:none;stroke:#4293d7;stroke-linecap:round;stroke-linejoin:round;stroke-width:5.37px;}</style></defs><path class="cls-1" d="m44.36,12.38h-8.46c-2.25,0-4.4.85-5.99,2.36-1.59,1.51-2.48,3.56-2.48,5.7v59.12c0,2.14.89,4.19,2.48,5.7,1.59,1.51,3.74,2.36,5.99,2.36h28.22c2.25,0,4.4-.85,5.99-2.36,1.59-1.51,2.48-3.56,2.48-5.7V20.44c0-2.14-.89-4.19-2.48-5.7-1.59-1.51-3.74-2.36-5.99-2.36h-8.46m-11.29,0v5.37h11.29v-5.37m-11.29,0h11.29m-11.29,67.18h11.29"/></svg>