<?xml version="1.0" encoding="UTF-8"?><svg id="Layer_4" xmlns="http://www.w3.org/2000/svg" viewBox="0 0 100 100"><defs><style>.cls-1{fill:none;stroke:#4293d7;stroke-linecap:round;stroke-linejoin:round;stroke-width:5.37px;}</style></defs><path class="cls-1" d="m60.75,43.55c0,2.85-1.13,5.59-3.15,7.6-2.02,2.02-4.75,3.15-7.6,3.15s-5.59-1.13-7.6-3.15c-2.02-2.02-3.15-4.75-3.15-7.6s1.13-5.59,3.15-7.6c2.02-2.02,4.75-3.15,7.6-3.15s5.59,1.13,7.6,3.15c2.02,2.02,3.15,4.75,3.15,7.6h0Z"/><path class="cls-1" d="m77.95,43.12c0,26.2-27.95,41.28-27.95,41.28,0,0-27.95-15.07-27.95-41.28,0-7.3,2.94-14.3,8.19-19.46,5.24-5.16,12.35-8.06,19.76-8.06s14.52,2.9,19.76,8.06c5.24,5.16,8.19,12.16,8.19,19.46h0Z"/></svg>