<?xml version="1.0" encoding="UTF-8"?><svg id="Layer_1" xmlns="http://www.w3.org/2000/svg" viewBox="0 0 130 130"><defs><style>.cls-1{stroke-width:1.54px;}.cls-1,.cls-2,.cls-3,.cls-4,.cls-5,.cls-6,.cls-7,.cls-8,.cls-9,.cls-10{stroke:#4293d7;}.cls-1,.cls-3{stroke-miterlimit:10;}.cls-1,.cls-6,.cls-7,.cls-8,.cls-9,.cls-10{fill:#fcfdfd;}.cls-2,.cls-4{stroke-width:2.09px;}.cls-2,.cls-4,.cls-5,.cls-6,.cls-7,.cls-8,.cls-9,.cls-10{stroke-linecap:round;stroke-linejoin:round;}.cls-2,.cls-5{fill:none;}.cls-3{fill:#fff;}.cls-3,.cls-5{stroke-width:1.8px;}.cls-11{opacity:.15;}.cls-11,.cls-12,.cls-4{fill:#4293d7;}.cls-6{stroke-width:2.7px;}.cls-7{stroke-width:1.29px;}.cls-8{stroke-width:3.6px;}.cls-9{stroke-width:3.84px;}.cls-10{stroke-width:2.68px;}</style></defs><path class="cls-10" d="m28.58,86.63s15.3,24.23,16,30.03c9.16-4.44,21.92-24.79,21.92-24.79l-37.91-5.24Z"/><path class="cls-10" d="m28.63,89.1s18.72,12.21,29.03,24.75c12.79-5.48,19.25-21.17,19.25-21.17,0,0-23.9-8.87-48.28-3.57Z"/><path class="cls-10" d="m29.02,91.38s27.25,5.47,44.53,21.8c5.29-2.67,11.7-11.11,11.7-11.11,0,0-22.01-16.76-56.23-10.69Z"/><path class="cls-9" d="m41,27.06c7.04-2.01,39.67-10.37,62.25.11-.05,22.49-18.43,80.82-18.43,80.82,0,0-21.57-21.52-56.51-17.28,4.34-23.73,12.39-54.08,11.6-61.97-.08-.76.36-1.47,1.09-1.68Z"/><path class="cls-2" d="m81.69,33.47s-2.08-7.87-14.26-4.79"/><path class="cls-2" d="m53.35,30.9s-4.68-.39-8.51,3.22"/><path class="cls-4" d="m81.21,67.63s-1.81-6.68-13.79,1.11c-11.98,7.79-20.71-4.42-20.71-4.42,0,0-2.52-3.8-6.02-1.43-3.5,2.37.97,16.66,15.39,19.01,14.37,2.34,25.85-5.34,25.13-14.26Z"/><path class="cls-1" d="m80.88,47.31c0,6.65-5.61,12.03-10.76,12.03s-7.74-5.08-7.74-11.72,2.59-12.34,7.74-12.34,10.76,5.39,10.76,12.03Z"/><path class="cls-1" d="m60.77,47.79c0,5.99-5.05,10.85-9.7,10.85-4.65,0-6.98-4.58-6.98-10.57s2.33-11.13,6.98-11.13,9.7,4.86,9.7,10.85Z"/><path class="cls-12" d="m76.91,48.4c0,3.03-1.8,5.49-4.01,5.49s-2.92-2.46-2.92-5.49.7-5.49,2.92-5.49,4.01,2.46,4.01,5.49Z"/><path class="cls-12" d="m59,47.97c0,2.86-1.82,5.18-4.06,5.18s-2.87-2.32-2.87-5.18.63-5.18,2.87-5.18,4.06,2.32,4.06,5.18Z"/><path class="cls-7" d="m70.75,79.66s4.18-5.75-10.16-4.94c-14.34.81-12.37,2.44-11.96,3.89,1.92,2.26,14.63,4.93,22.13,1.05Z"/><path class="cls-11" d="m102.31,27.96s-17.29,62.24-21.43,65.3c-4.14,3.06-23.35-11.26-49.29-4.28,21.04,2.2,51.65,14.64,53.66,18.45,7.88-16.86,17.06-79.47,17.06-79.47Z"/><path class="cls-11" d="m35.5,91.82s29.97,3.23,41.76,17.3c3.93-2.28,4.74-3.18,4.74-3.18,0,0-30.24-20.42-46.5-14.12Z"/><path class="cls-11" d="m39.57,95.57l21.2,15.53,5.95-3.51s-19.51-12.53-27.16-12.02Z"/><path class="cls-11" d="m33.75,95.55s6.59,3.88,14.87,17.63c3.15-.03,4.53-3.61,4.53-3.61,0,0-15.81-16.5-19.4-14.48"/><path class="cls-6" d="m28.58,86.63s15.3,24.23,16,30.03c9.16-4.44,21.92-24.79,21.92-24.79l-37.91-5.24Z"/><path class="cls-6" d="m28.63,89.1s18.72,12.21,29.03,24.75c12.79-5.48,19.25-21.17,19.25-21.17,0,0-23.9-8.87-48.28-3.57Z"/><path class="cls-6" d="m29.02,91.38s27.25,5.47,44.53,21.8c5.29-2.67,11.7-11.11,11.7-11.11,0,0-22.01-16.76-56.23-10.69Z"/><path class="cls-8" d="m41,27.06c7.04-2.01,39.67-10.37,62.25.11-.05,22.49-18.43,80.82-18.43,80.82,0,0-21.57-21.52-56.51-17.28,4.34-23.73,12.39-54.08,11.6-61.97-.08-.76.36-1.47,1.09-1.68Z"/><path class="cls-5" d="m81.69,33.47s-2.08-7.87-14.26-4.79"/><path class="cls-5" d="m53.35,30.9s-4.68-.39-8.51,3.22"/><path class="cls-4" d="m81.21,67.63s-1.81-6.68-13.79,1.11c-11.98,7.79-20.71-4.42-20.71-4.42,0,0-2.52-3.8-6.02-1.43-3.5,2.37.97,16.66,15.39,19.01,14.37,2.34,25.85-5.34,25.13-14.26Z"/><path class="cls-11" d="m62.18,49.85c0,5.99-5.05,10.85-9.7,10.85s-6.98-4.58-6.98-10.57,2.33-11.13,6.98-11.13,9.7,4.86,9.7,10.85Z"/><path class="cls-3" d="m60.77,47.79c0,5.99-5.05,10.85-9.7,10.85-4.65,0-6.98-4.58-6.98-10.57s2.33-11.13,6.98-11.13,9.7,4.86,9.7,10.85Z"/><path class="cls-12" d="m59,47.97c0,2.86-1.82,5.18-4.06,5.18s-2.87-2.32-2.87-5.18.63-5.18,2.87-5.18,4.06,2.32,4.06,5.18Z"/><path class="cls-7" d="m70.75,79.66s4.18-5.75-10.16-4.94c-14.34.81-12.37,2.44-11.96,3.89,1.92,2.26,14.63,4.93,22.13,1.05Z"/><path class="cls-11" d="m70.75,79.66s4.18-5.75-10.16-4.94c-14.34.81-12.37,2.44-11.96,3.89,1.92,2.26,14.63,4.93,22.13,1.05Z"/><path class="cls-11" d="m102.31,27.96s-17.29,62.24-21.43,65.3c-4.14,3.06-23.35-11.26-49.29-4.28,21.04,2.2,51.65,14.64,53.66,18.45,7.88-16.86,17.06-79.47,17.06-79.47Z"/><path class="cls-11" d="m35.5,91.82s29.97,3.23,41.76,17.3c3.93-2.28,4.74-3.18,4.74-3.18,0,0-30.24-20.42-46.5-14.12Z"/><path class="cls-11" d="m39.57,95.57l21.2,15.53,5.95-3.51s-19.51-12.53-27.16-12.02Z"/><path class="cls-11" d="m33.75,95.55s6.59,3.88,14.87,17.63c3.15-.03,4.53-3.61,4.53-3.61,0,0-15.81-16.5-19.4-14.48"/><path class="cls-11" d="m83.41,48.91c0,7.32-6.17,13.25-11.85,13.25-5.68,0-8.53-5.59-8.53-12.91s2.85-13.59,8.53-13.59,11.85,5.93,11.85,13.25Z"/><path class="cls-3" d="m82.01,46.85c0,7.32-6.17,13.25-11.85,13.25s-8.53-5.59-8.53-12.91,2.85-13.59,8.53-13.59,11.85,5.93,11.85,13.25Z"/><path class="cls-12" d="m77.63,48.05c0,3.34-1.98,6.04-4.42,6.04s-3.21-2.7-3.21-6.04.77-6.04,3.21-6.04,4.42,2.7,4.42,6.04Z"/></svg>