<?xml version="1.0" encoding="UTF-8"?><svg id="Layer_1" xmlns="http://www.w3.org/2000/svg" viewBox="0 0 130 130"><defs><style>.cls-1,.cls-2{fill:#fcfdfd;}.cls-3{fill:#fff;stroke-miterlimit:10;}.cls-3,.cls-4,.cls-5,.cls-2{stroke:#4293d7;}.cls-3,.cls-5{stroke-width:1.8px;}.cls-6{opacity:.15;}.cls-6,.cls-7{fill:#4293d7;}.cls-4{stroke-width:2.7px;}.cls-4,.cls-5{fill:none;}.cls-4,.cls-5,.cls-2{stroke-linecap:round;stroke-linejoin:round;}.cls-2{stroke-width:3.6px;}</style></defs><g><g><g><g><path class="cls-2" d="m59.49,120.04c.15.74,1.02,1.08,1.63.62l26.46-19.97s19.39-53.45-7.73-87.25c-7.6-10.09-40.35-3.14-31.05,19,9.3,22.14,15.59,43.89,5.76,62.62l4.92,24.99Z"/><path class="cls-6" d="m69.44,10.22s7.41,2.57,11.81,17.39c2.64,5.43,0,6.71,0,6.71,3.87.37,5.04,3.36,3.33,4.74.63,2.64,4.44,46.1-2.31,59.29-8.36,11.43-16.05,17.8-16.05,17.8l20.27-14.15s11.53-39.47,6.52-58.69c-3.84-15.85-12-35.65-23.62-33.75"/><path class="cls-7" d="m58.25,109.71s8.22-4.22,12,3.73c-4.71,4.44-10,7.64-10,7.64l-2-11.37Z"/><path class="cls-1" d="m62.56,110.65l-1.24,5.41c-.16.7-1.17.66-1.27-.05l-.73-4.88c-.04-.25.07-.5.28-.63.46-.3,1.34-.75,2.38-.64.39.04.66.41.58.79Z"/><path class="cls-5" d="m56.17,51.26s20.95-18.45,36.33-9.88"/><path class="cls-5" d="m54.14,44.85s16.36-16.72,36.61-10.43"/><path class="cls-5" d="m52.82,39.94s14.31-17.65,35.74-11.67"/></g><path class="cls-4" d="m80.9,77.39c0,2.7-2.19,4.89-4.89,4.89s-4.89-2.19-4.89-4.89"/></g><path class="cls-6" d="m92.65,64.77c0,6.18-3.41,9.41-7.61,9.41-4.2,0-7.61-3.23-7.61-9.41,0-6.18,3.41-11.19,7.61-11.19,4.2,0,7.61,5.01,7.61,11.19Z"/><path class="cls-6" d="m79.24,65.91c0,6.55-3.61,9.97-8.07,9.97s-8.07-3.42-8.07-9.97,3.61-11.86,8.07-11.86,8.07,5.31,8.07,11.86Z"/><path class="cls-3" d="m91.67,63.16c0,6.18-3.41,9.41-7.61,9.41-4.2,0-7.61-3.23-7.61-9.41,0-6.18,3.41-11.19,7.61-11.19s7.61,5.01,7.61,11.19Z"/><path class="cls-7" d="m90.73,64.67c-.02,2.62-1.68,3.81-3.7,3.81s-3.66-1.19-3.63-3.81c.02-2.62,1.69-4.74,3.71-4.74s3.65,2.12,3.62,4.74Z"/><path class="cls-3" d="m78.26,64.29c0,6.55-3.61,9.97-8.07,9.97s-8.07-3.42-8.07-9.97,3.61-11.86,8.07-11.86,8.07,5.31,8.07,11.86Z"/><path class="cls-7" d="m78.22,64.21c.49,2.74-1,4.3-3.11,4.7s-4.04-.53-4.53-3.26c-.49-2.74.83-5.27,2.94-5.67,2.11-.4,4.22,1.5,4.7,4.24Z"/><path class="cls-5" d="m80.58,43.92s7.56-2.48,10.17,5.37"/><path class="cls-5" d="m69.09,47.45s-5.35.71-7.63,6.56"/></g><path class="cls-7" d="m19.93,70.05c9.55-1.98,19.37.19,27.83,4.85,1.52,1.02,3.01,1.64,3.52,3.82.43,2.52-2.37,3.83-4.24,4.29-8.56,2.18-24.26,5.07-16.66,17.04,5.67,8.54,15.96,15.04,26.13,16.67,2.2.21,4.43.3,6.42,1.48.82.46,1.1,1.5.64,2.31-1.39,1.75-3.85,2.16-5.95,2.04-12.33-1.17-25.24-9.19-31.85-19.72-2.12-3.57-3.55-7.89-2.11-12.01,2.35-6.5,9.45-9.29,15.5-10.74,2.75-.71,5.83-1.09,8.09-1.93-.24.19-.46.86-.36,1.21.1.47.2.44.13.39-.07-.07-.18-.2-.34-.33-5.65-4-12.68-6.33-19.63-6.75-2.2-.14-4.51-.1-6.56.24-1.83.28-2.36-2.43-.55-2.86h0Z"/></g><path class="cls-5" d="m55.93,95.27s8.01-7.12,10.86,1.6c3.98-5.28,13.89-5.28,12.82,1.72,1.78-1.72,5.58-.59,5.58.65"/></svg>