<?xml version="1.0" encoding="UTF-8"?><svg id="Layer_1" xmlns="http://www.w3.org/2000/svg" viewBox="0 0 130 130"><defs><style>.cls-1{stroke-width:1.29px;}.cls-1,.cls-2,.cls-3,.cls-4{stroke:#4293d7;}.cls-1,.cls-2,.cls-4{stroke-miterlimit:10;}.cls-1,.cls-5{opacity:.15;}.cls-1,.cls-5,.cls-6{fill:#4293d7;}.cls-2{fill:#fff;stroke-width:2.16px;}.cls-3{fill:none;stroke-linecap:round;stroke-linejoin:round;stroke-width:2.7px;}.cls-4{fill:#fcfdfd;stroke-width:3.6px;}</style></defs><circle class="cls-4" cx="66.73" cy="72.61" r="37.52"/><path class="cls-1" d="m84.7,67.84c0,7.64-4.97,13.84-11.09,13.84-3.88,0-7.29-2.47-9.27-6.24-1.95,3.18-5.48,5.29-9.51,5.29-6.15,0-11.13-4.92-11.13-10.99s4.98-10.99,11.13-10.99c3.41,0,6.44,1.51,8.5,3.88,1.64-5.06,5.62-8.63,10.28-8.63,6.12,0,11.09,6.2,11.09,13.83Z"/><path class="cls-2" d="m83.67,66.68c0,7.64-4.97,13.84-11.09,13.84-3.88,0-7.29-2.47-9.27-6.24-1.95,3.18-5.48,5.29-9.51,5.29-6.15,0-11.13-4.92-11.13-10.99s4.98-10.99,11.13-10.99c3.41,0,6.44,1.51,8.5,3.88,1.64-5.06,5.62-8.63,10.28-8.63,6.12,0,11.09,6.2,11.09,13.83Z"/><ellipse class="cls-6" cx="68.54" cy="67.69" rx="4.58" ry="4.94"/><ellipse class="cls-6" cx="57.99" cy="68.48" rx="3.71" ry="3.92"/><path class="cls-3" d="m40.85,79.59s.53,14.74,20.49,10.81"/><path class="cls-6" d="m103.2,75s-13.61-8.14-17.03,3.77-.84,6.65-7.9,10.13c-7.05,3.48-8.97,16.04-5.16,19.67,8.28-2.09,25.59-3.44,30.09-33.57Z"/><path class="cls-6" d="m53.52,38.52s12.69,10.13.96,14.33c-11.73,4.19-15.75,7.89-16.93,12.19-1.18,4.3-3.97,11.17-7.11,8.79-4.48-9.4,7.81-31.93,23.08-35.3Z"/><path class="cls-6" d="m87.2,46.35s-3.08,5.52,1.1,8.89,3.1,7.82,6.47,5.79c3.37-2.02-3.54-18.86-7.56-14.69Z"/><g><path class="cls-6" d="m6.46,75.87c0-.2,0-.49.01-.88s.01-.68.01-.88c0-.13,0-.35-.01-.65s-.01-.52-.01-.65c0-1.08.16-1.91.49-2.47l13.17-8.79c.18,0,.3.18.36.53.06.35.09.86.09,1.52,0,.11,0,.46,0,1.06s0,1.04,0,1.32c0,.28-.01.64-.03,1.08-.01.44-.04.78-.08,1.02s-.09.4-.15.47l-8.3,5.76c2.6,1.8,5.22,3.54,7.84,5.22.24.15.4.3.49.45s.16.43.2.83.07,1.06.07,1.96v1.3c0,.22,0,.52-.01.88s-.02.63-.04.82c-.02.19-.05.38-.08.58s-.08.35-.14.43c-.06.08-.13.13-.2.13-.07,0-.13-.02-.18-.04-3.87-2.73-7.76-5.41-11.68-8.05-.04-.03-.14-.09-.3-.17-.16-.08-.27-.14-.33-.18-.06-.04-.16-.11-.29-.2-.14-.1-.24-.19-.29-.27-.06-.08-.14-.2-.23-.35s-.16-.3-.2-.46-.08-.35-.12-.56c-.03-.22-.05-.46-.05-.73Z"/><path class="cls-6" d="m124.93,72.57c0,.2,0,.49-.01.88s-.01.68-.01.88c0,.13,0,.35.01.65s.01.52.01.65c0,1.08-.16,1.91-.49,2.47l-13.17,8.79c-.18,0-.3-.18-.36-.53-.06-.35-.09-.86-.09-1.52,0-.11,0-.46,0-1.06s0-1.04,0-1.32c0-.28.01-.64.03-1.08.01-.44.04-.78.08-1.02s.09-.4.15-.47l8.3-5.76c-2.6-1.8-5.22-3.54-7.84-5.22-.24-.15-.4-.3-.49-.45s-.16-.43-.2-.83-.07-1.06-.07-1.96v-.29c0-.45,0-.79,0-1.01s0-.52.01-.88.02-.63.04-.82c.02-.19.05-.38.08-.58s.08-.35.14-.43c.06-.08.13-.13.2-.13.07,0,.13.02.18.04,3.87,2.73,7.76,5.41,11.68,8.05.04.03.14.09.3.17.16.08.27.14.33.18.06.04.16.11.29.2.14.1.24.19.29.27.06.08.14.2.23.35s.16.3.2.46.08.35.12.56c.03.22.05.46.05.73Z"/></g><path class="cls-5" d="m88.82,41.86c4.98,6.37,7.96,14.38,7.96,23.1,0,20.72-16.8,37.52-37.52,37.52-8.26,0-15.9-2.68-22.1-7.2,6.87,8.77,17.55,14.42,29.55,14.42,20.72,0,37.52-16.8,37.52-37.52,0-12.46-6.08-23.49-15.42-30.31Z"/></svg>