<?xml version="1.0" encoding="UTF-8"?><svg id="Layer_1" xmlns="http://www.w3.org/2000/svg" viewBox="0 0 130 130"><defs><style>.cls-1{stroke-width:1.29px;}.cls-1,.cls-2,.cls-3,.cls-4,.cls-5,.cls-6{stroke:#4293d7;}.cls-1,.cls-2,.cls-4,.cls-6{stroke-miterlimit:10;}.cls-1,.cls-3,.cls-7,.cls-8{fill:#4293d7;}.cls-1,.cls-7{opacity:.15;}.cls-2{fill:none;stroke-width:3.56px;}.cls-2,.cls-3,.cls-5{stroke-linecap:round;}.cls-3{stroke-width:.99px;}.cls-3,.cls-5{stroke-linejoin:round;}.cls-4{stroke-width:3.6px;}.cls-4,.cls-6{fill:#fcfdfd;}.cls-5{fill:#fff;stroke-width:1.8px;}.cls-6{stroke-width:2.37px;}</style></defs><g><path class="cls-2" d="m79.01,97.01c1.17-.89,19.18,1.21,15.9,14.84"/><path class="cls-4" d="m96.82,23.9s-34.04,21.29-52.59,36.44c-5.13-2.41-12.13-8.62-12.13-8.62,0,0,35.71-35.36,48.27-44.56,11.95,7.14,16.45,16.74,16.45,16.74Z"/><path class="cls-4" d="m45.26,62.34s4.58,26.07,3.12,40.05c11.86-1.25,57.62-7.22,57.62-7.22.32-6.94-5.36-42.75-5.36-42.75-7.61,0-50.46,7.39-55.38,9.91Z"/><path class="cls-8" d="m34.66,72.1l-31.38-.98c-1.01-.03-1.02-1.57,0-1.6,0,0,31.38-.98,31.38-.98,2.41,0,2.42,3.56,0,3.56h0Z"/><path class="cls-1" d="m98.28,76.7c.97,7.77-2.92,14.68-8.68,15.4-3.48.44-6.85-1.47-9.18-4.75-1.55-2.17-2.65-4.94-3.04-8.03-.51-4.08.32-7.92,2.06-10.75,1.57-2.56,3.89-4.3,6.63-4.64,5.76-.72,11.23,4.99,12.21,12.77Z"/><path class="cls-1" d="m74.63,79.76c.98,7.79-2.92,14.68-8.68,15.4-3.62.45-7.13-1.63-9.47-5.17-1.4-2.09-2.38-4.71-2.75-7.61-.52-4.12.34-7.99,2.1-10.82,1.58-2.52,3.89-4.23,6.59-4.57,5.76-.72,11.23,4.99,12.21,12.77Z"/><path class="cls-8" d="m36.82,85.9l-23.19-.77c-1.27-.06-1.28-1.95,0-2.01,0,0,23.19-.77,23.19-.77,2.42-.01,2.43,3.56,0,3.56h0Z"/><path class="cls-8" d="m36.28,98.81l-15-.93c-.47-.03-.83-.43-.8-.9.03-.43.38-.77.8-.8l15-.93c2.49-.07,2.5,3.62,0,3.56h0Z"/><path class="cls-2" d="m68.46,101.53s1.82,18.49-10.99,9.24"/><g><path class="cls-8" d="m111.34,101.32c-2.22-1.02-5.06,1.15-9.88,5.08-2.25,1.83-5.05,4.11-6.26,4.43-2.48.66-3.15,1.94-3.28,2.89-.16,1.18.48,2.34,1.67,3.04.73.43,1.53.59,2.26.5.38-.05.75-.17,1.07-.35,3.11-1.15,16.19-6.38,16.03-12.72-.04-1.87-1.03-2.6-1.62-2.87Z"/><path class="cls-8" d="m48.39,109.99l-1.34.81c-.08.05-8,4.93-6.37,8.46.63,1.36,2.02,1.53,3.28,1.38.88-.11,1.7-.38,2.14-.53,6.85-2.3,13.19-9.91,13.45-10.23l.16-.2.1-.24c.79-1.83.22-2.85-.39-3.38-1.71-1.49-4.38-.1-11.03,3.93Z"/></g><path class="cls-8" d="m78.25,9.48s.28,21.84.42,24.06c.13,2.22-7.02,6.2-7.02,6.2,0,0-.45-23.03,1.26-25.7,1.62-2.59,5.35-4.57,5.35-4.57Z"/><polygon class="cls-8" points="64.74 21.97 63.74 44.02 57.44 48.49 58 28.78 64.74 21.97"/><polygon class="cls-8" points="51.03 34.65 50.45 53.96 45.74 57.61 44.23 40.9 51.03 34.65"/><path class="cls-6" d="m46.85,73s46.08-8.99,55.81-8.66"/><polygon class="cls-8" points="98.55 52.53 85.6 66.17 77.72 67.43 87.38 53.93 98.55 52.53"/><polygon class="cls-8" points="79.06 55.23 69.08 68.9 60.19 70.49 68.49 57.06 79.06 55.23"/><polygon class="cls-8" points="61.76 58.33 54.05 71.63 48.2 72.74 54.93 59.73 61.76 58.33"/><path class="cls-5" d="m96.83,75.76c.97,7.77-2.92,14.68-8.68,15.4-3.48.44-6.85-1.47-9.18-4.75-1.55-2.17-2.65-4.94-3.04-8.03-.51-4.08.32-7.92,2.06-10.75,1.57-2.56,3.89-4.3,6.63-4.64,5.76-.72,11.23,4.99,12.21,12.77Z"/><path class="cls-5" d="m73.18,78.82c.98,7.79-2.92,14.68-8.68,15.4-3.62.45-7.13-1.63-9.47-5.17-1.4-2.09-2.38-4.71-2.75-7.61-.52-4.12.34-7.99,2.1-10.82,1.58-2.52,3.89-4.23,6.59-4.57,5.76-.72,11.23,4.99,12.21,12.77Z"/><path class="cls-8" d="m85,76.34c.65,5.21-1.42,9.77-4.61,10.17-.48.06-.95.02-1.42-.1-1.55-2.17-2.65-4.94-3.04-8.03-.51-4.08.32-7.92,2.06-10.75h.04c3.2-.41,6.33,3.49,6.98,8.7Z"/><path class="cls-8" d="m61.79,79.24c.65,5.21-1.42,9.77-4.61,10.17-.73.09-1.45-.05-2.15-.36-1.4-2.09-2.38-4.71-2.75-7.61-.52-4.12.34-7.99,2.1-10.82.14-.03.28-.06.43-.08,3.2-.4,6.33,3.5,6.98,8.71Z"/><path class="cls-3" d="m79.35,91.09s-2.52,3.05-5.8.69c.83,3.25,5.4,4.7,5.8-.69Z"/></g><path class="cls-7" d="m98.82,54.32l1.25,36.82s-20.86,5.92-27.63,6.58c17.13-.88,33.57-3.44,33.57-3.44l-5.37-41.85s-1.46-.28-1.82,1.89Z"/><path class="cls-7" d="m80.45,9.03s7.85,9.53,9.24,13.23c1.4,3.7-40.35,26.74-45.47,36.07,5.47-2.3,53.1-34.76,53.1-34.76,0,0-13.3-16.77-16.87-14.54Z"/></svg>