<?xml version="1.0" encoding="UTF-8"?>
<svg id="Layer_2" data-name="Layer 2" xmlns="http://www.w3.org/2000/svg" viewBox="0 0 142.03 142.03">
  <defs>
    <style>
      .cls-1 {
        fill: #fff;
        opacity: .5;
      }

      .cls-1, .cls-2 {
        stroke-width: 0px;
      }

      .cls-2 {
        fill: #4293d7;
      }
    </style>
  </defs>
  <g id="Layer_2-2" data-name="Layer 2">
    <g>
      <rect class="cls-1" x="16.62" y="10.55" width="110.73" height="120.93"/>
      <g>
        <path class="cls-2" d="m94.14,103.35h-4v7.31h4c1.39,0,2.42-.32,3.1-.95.67-.64,1.01-1.53,1.01-2.68,0-2.45-1.37-3.67-4.11-3.67Z"/>
        <path class="cls-2" d="m73.93,104.43c-1.15-.67-2.49-1.01-4-1.01s-2.85.34-4.02,1.01c-1.17.67-2.07,1.64-2.72,2.9-.65,1.26-.97,2.73-.97,4.41s.32,3.16.97,4.43,1.55,2.25,2.72,2.94,2.5,1.03,4.02,1.03,2.84-.34,4-1.03c1.15-.68,2.05-1.66,2.7-2.94s.97-2.75.97-4.43-.32-3.15-.97-4.41c-.65-1.26-1.55-2.23-2.7-2.9Z"/>
        <path class="cls-2" d="m105.49,0H36.54C16.36,0,0,16.36,0,36.54v68.95c0,20.18,16.36,36.54,36.54,36.54h68.95c20.18,0,36.54-16.36,36.54-36.54V36.54C142.03,16.36,125.67,0,105.49,0Zm-48.73,103.31h-6.7v21.07h-5.04v-21.07h-6.7v-4.07h18.44v4.07Zm24.33,15.07c-1.14,1.96-2.7,3.49-4.67,4.59s-4.13,1.66-6.48,1.66-4.51-.55-6.48-1.66c-1.97-1.1-3.53-2.64-4.68-4.59s-1.73-4.17-1.73-6.65.58-4.65,1.73-6.61,2.71-3.49,4.68-4.59c1.97-1.1,4.13-1.66,6.48-1.66s4.54.55,6.5,1.66c1.96,1.1,3.5,2.64,4.65,4.59,1.14,1.96,1.71,4.16,1.71,6.61s-.57,4.69-1.71,6.65Zm21.39-7.58c-.64,1.18-1.63,2.12-2.99,2.84-1.36.72-3.07,1.08-5.13,1.08h-4.21v9.65h-5.04v-25.14h9.26c1.94,0,3.6.34,4.97,1.01,1.37.67,2.4,1.6,3.08,2.77.68,1.18,1.03,2.51,1.03,4,0,1.34-.32,2.61-.96,3.78Zm15.49-15.13l-45.58-43.2c-.76-.72-1.98-.72-2.74,0l-45.58,43.2c-1.24,1.17-3.33.32-3.33-1.36v-33.2c0-.51.21-1,.59-1.36L69.65,14.17c.76-.72,1.97-.72,2.73,0l48.32,45.59c.38.36.59.85.59,1.36v33.2c0,1.68-2.09,2.53-3.33,1.36Z"/>
      </g>
    </g>
  </g>
</svg>