<?xml version="1.0" encoding="UTF-8"?>
<svg id="Layer_2" data-name="Layer 2" xmlns="http://www.w3.org/2000/svg" viewBox="0 0 142.03 142.03">
  <defs>
    <style>
      .cls-1 {
        fill: #ddeefc;
      }

      .cls-1, .cls-2 {
        stroke-width: 0px;
      }

      .cls-2 {
        fill: #20639b;
      }
    </style>
  </defs>
  <g id="Layer_2-2" data-name="Layer 2">
    <g>
      <path class="cls-2" d="m71.01,0h0C31.79,0,0,31.79,0,71.01h0c0,39.22,31.79,71.01,71.01,71.01h0c39.22,0,71.01-31.79,71.01-71.01h0C142.03,31.79,110.23,0,71.01,0Z"/>
      <path class="cls-1" d="m111.14,98.24l-38.95-36.92c-.65-.62-1.69-.62-2.34,0l-38.95,36.92c-1.06,1-2.84.28-2.84-1.16v-28.37c0-.44.18-.86.51-1.16l41.29-38.96c.65-.61,1.68-.61,2.33,0l41.29,38.96c.32.31.51.72.51,1.16v28.37c0,1.44-1.78,2.16-2.84,1.16Z"/>
    </g>
  </g>
</svg>