<?xml version="1.0" encoding="UTF-8"?>
<svg id="Layer_2" data-name="Layer 2" xmlns="http://www.w3.org/2000/svg" viewBox="0 0 142.03 142.03">
  <defs>
    <style>
      .cls-1 {
        fill: #4293d7;
        stroke-width: 0px;
      }
    </style>
  </defs>
  <g id="Layer_2-2" data-name="Layer 2">
    <path class="cls-1" d="m105.49,0H36.54C16.36,0,0,16.36,0,36.54v68.95c0,20.18,16.36,36.54,36.54,36.54h68.95c20.18,0,36.54-16.36,36.54-36.54V36.54C142.03,16.36,125.67,0,105.49,0Zm6.85,103.55l-38.95-36.92c-.65-.62-1.69-.62-2.34,0l-38.95,36.92c-1.06,1-2.84.28-2.84-1.16v-28.37c0-.44.18-.86.51-1.16l41.29-38.96c.65-.61,1.68-.61,2.33,0l41.29,38.96c.32.31.51.72.51,1.16v28.37c0,1.44-1.78,2.16-2.84,1.16Z"/>
  </g>
</svg>