<?xml version="1.0" encoding="UTF-8"?>
<svg id="Layer_2" data-name="Layer 2" xmlns="http://www.w3.org/2000/svg" xmlns:xlink="http://www.w3.org/1999/xlink" viewBox="0 0 1234.3 395.87">
  <defs>
    <style>
      .cls-1 {
        fill: url(#linear-gradient-12);
      }

      .cls-1, .cls-2, .cls-3, .cls-4, .cls-5, .cls-6, .cls-7, .cls-8, .cls-9, .cls-10, .cls-11, .cls-12, .cls-13, .cls-14, .cls-15, .cls-16, .cls-17, .cls-18, .cls-19, .cls-20, .cls-21 {
        stroke-width: 0px;
      }

      .cls-2 {
        fill: url(#linear-gradient-17);
      }

      .cls-3 {
        fill: #ddeefc;
      }

      .cls-22 {
        stroke: #72b1e4;
        stroke-width: 3px;
      }

      .cls-22, .cls-23 {
        fill: none;
      }

      .cls-22, .cls-23, .cls-24 {
        stroke-miterlimit: 10;
      }

      .cls-4 {
        fill: url(#linear-gradient-6);
      }

      .cls-5 {
        fill: #fcfdfd;
      }

      .cls-6 {
        fill: url(#linear-gradient-15);
      }

      .cls-7 {
        fill: url(#linear-gradient-11);
      }

      .cls-8 {
        fill: url(#linear-gradient-5);
      }

      .cls-25 {
        opacity: .3;
      }

      .cls-9 {
        fill: url(#linear-gradient-13);
      }

      .cls-10 {
        fill: url(#linear-gradient-16);
      }

      .cls-11 {
        fill: #fff;
      }

      .cls-12 {
        fill: url(#linear-gradient-14);
      }

      .cls-13 {
        fill: url(#linear-gradient-2);
      }

      .cls-14 {
        fill: #173f5f;
      }

      .cls-15 {
        fill: url(#linear-gradient-7);
      }

      .cls-16 {
        fill: url(#linear-gradient-3);
      }

      .cls-17 {
        fill: url(#linear-gradient-9);
      }

      .cls-23 {
        stroke: #20639b;
        stroke-width: 9px;
      }

      .cls-18 {
        fill: url(#linear-gradient-8);
      }

      .cls-19 {
        fill: url(#linear-gradient-18);
      }

      .cls-20 {
        fill: url(#linear-gradient-10);
      }

      .cls-24 {
        fill: url(#linear-gradient);
        stroke: #4293d7;
        stroke-width: 2px;
      }

      .cls-21 {
        fill: url(#linear-gradient-4);
      }
    </style>
    <linearGradient id="linear-gradient" x1="-16.18" y1="-93.79" x2="487.95" y2="599.74" gradientUnits="userSpaceOnUse">
      <stop offset="0" stop-color="#4293d7"/>
      <stop offset=".18" stop-color="#5ba2dd"/>
      <stop offset=".35" stop-color="#6cade2"/>
      <stop offset=".48" stop-color="#72b1e4"/>
    </linearGradient>
    <linearGradient id="linear-gradient-2" x1="222.83" y1="39.49" x2="39.72" y2="255.93" gradientUnits="userSpaceOnUse">
      <stop offset="0" stop-color="#72b1e4" stop-opacity="0"/>
      <stop offset=".48" stop-color="#ddeefc"/>
      <stop offset="1" stop-color="#72b1e4" stop-opacity="0"/>
    </linearGradient>
    <linearGradient id="linear-gradient-3" x1="175.24" y1="20.75" x2="27.52" y2="195.36" gradientTransform="translate(340.68 333.77) rotate(-180)" xlink:href="#linear-gradient-2"/>
    <linearGradient id="linear-gradient-4" x1="854.39" y1="1035.93" x2="704.61" y2="-905.95" gradientUnits="userSpaceOnUse">
      <stop offset="0" stop-color="#fcfdfd"/>
      <stop offset="1" stop-color="#ddeefc"/>
    </linearGradient>
    <linearGradient id="linear-gradient-5" x1="436.19" y1="238.61" x2="542.12" y2="238.61" xlink:href="#linear-gradient"/>
    <linearGradient id="linear-gradient-6" x1="572.56" y1="242.99" x2="657.06" y2="242.99" xlink:href="#linear-gradient"/>
    <linearGradient id="linear-gradient-7" x1="717.04" y1="245.22" x2="755.55" y2="245.22" xlink:href="#linear-gradient"/>
    <linearGradient id="linear-gradient-8" x1="634.15" y1="348.84" x2="770" y2="348.84" xlink:href="#linear-gradient"/>
    <linearGradient id="linear-gradient-9" x1="798.09" y1="245.01" x2="846.65" y2="245.01" xlink:href="#linear-gradient"/>
    <linearGradient id="linear-gradient-10" x1="893.37" y1="233.71" x2="935.23" y2="233.71" xlink:href="#linear-gradient"/>
    <linearGradient id="linear-gradient-11" x1="949.46" y1="184.91" x2="966.2" y2="184.91" xlink:href="#linear-gradient"/>
    <linearGradient id="linear-gradient-12" x1="958.97" y1="246.77" x2="968.33" y2="246.77" xlink:href="#linear-gradient"/>
    <linearGradient id="linear-gradient-13" x1="986.66" y1="245.87" x2="996.42" y2="245.87" xlink:href="#linear-gradient"/>
    <linearGradient id="linear-gradient-14" x1="1026.35" y1="240.92" x2="1043.84" y2="240.92" xlink:href="#linear-gradient"/>
    <linearGradient id="linear-gradient-15" x1="996.26" y1="161.94" x2="1076.77" y2="161.94" xlink:href="#linear-gradient"/>
    <linearGradient id="linear-gradient-16" x1="1070.08" y1="255.78" x2="1076.62" y2="256.44" xlink:href="#linear-gradient"/>
    <linearGradient id="linear-gradient-17" x1="1099.95" y1="253.4" x2="1104.33" y2="253.4" xlink:href="#linear-gradient"/>
    <linearGradient id="linear-gradient-18" x1="1129.56" y1="246.42" x2="1188.65" y2="246.42" xlink:href="#linear-gradient"/>
  </defs>
  <g>
    <circle class="cls-24" cx="189.18" cy="188.73" r="158.44"/>
    <path class="cls-13" d="m36.25,194.24c0-87.5,70.94-158.44,158.44-158.44,42.35,0,80.82,16.62,109.24,43.68-28.86-30.31-69.6-49.2-114.76-49.2C101.68,30.29,30.74,101.22,30.74,188.73c0,45.15,18.89,85.9,49.2,114.76-27.07-28.42-43.68-66.89-43.68-109.24Z"/>
    <path class="cls-16" d="m315.96,188.18c0,70.59-57.23,127.81-127.82,127.81-34.16,0-65.2-13.4-88.13-35.24,23.28,24.45,56.15,39.69,92.58,39.69,70.59,0,127.82-57.22,127.82-127.81,0-36.43-15.24-69.29-39.69-92.58,21.84,22.93,35.24,53.96,35.24,88.13Z"/>
    <path class="cls-14" d="m316.78,188.79c0,70.44-57.11,127.54-127.54,127.54-18.57,0-36.21-3.97-52.12-11.1-8.55-3.83-16.6-8.58-24.03-14.11-6.57-4.89-12.65-10.4-18.15-16.44-12.11-13.29-21.45-29.14-27.1-46.66-3.99-12.35-6.14-25.54-6.14-39.22,0-70.44,57.1-127.54,127.54-127.54,5.26,0,10.45.32,15.55.94,21.5,2.61,41.35,10.58,58.18,22.53,5.99,4.24,11.6,8.99,16.75,14.19,2.51,2.53,4.91,5.16,7.2,7.89,18.64,22.17,29.86,50.77,29.86,82Z"/>
    <g>
      <g>
        <g>
          <path class="cls-14" d="m265.17,187.23c-.34,0-.68.01-1.02.04-.43-3.44-.79-6.91-1.09-10.4-1.43-11-1.38-22.35-7.54-32.29,3.78-12.05,1.11-24.81-2.54-36.49-1.79-5.97-4.92-12.38-7.56-18.16-3.22,5.14-6.7,10.31-10.4,15.28-.15-12.13-4.58-24.17-10.46-34.78-5.08,9.51-13.36,17.24-22.31,23.58-.53-10.22-4.98-19.85-10.53-28.49-4.71,8.09-9.92,16.25-15.74,23.67-2.7,3.45-5.55,6.78-8.55,9.9-.68-6.95-2.52-13.76-5.55-20.19-22.3,16.99-43.23,36-57.23,60.69-3.22,5.88-5.81,12.25-7.27,19.06-1.31,7.57.93,14.09,3.01,20.91,3.21,10.93,9.27,21.17,11.53,32.17-13.54,3.91-14.01,22.81-9.74,34.26,2.9,12.31,19.44,21.44,31.32,14.45,13.56,32.56,52.45,44.07,84.84,36.56,29.33-7.69,44.63-35.31,50.11-62.18,8.48-2.03,14.92-11.84,14.92-23.6,0-13.23-8.16-23.99-18.2-23.99Z"/>
          <path class="cls-14" d="m198.77,301.73c-10.64,0-21.16-1.9-30.81-5.65-16.52-6.42-28.81-17.53-35.69-32.24-5.33,2.19-11.58,2.03-17.56-.52-7.5-3.21-13.21-9.55-14.93-16.59-2.89-7.85-3.88-19.52.41-28.03,2-3.97,5.02-6.9,8.8-8.56-1.32-5.25-3.45-10.34-5.68-15.7-1.91-4.58-3.89-9.31-5.32-14.17l-.37-1.22c-1.98-6.45-4.03-13.13-2.7-20.82,1.42-6.64,3.95-13.28,7.54-19.83,15.36-27.09,39.01-47.08,57.91-61.48l2.46-1.87,1.32,2.8c2.35,4.99,4.03,10.24,5.03,15.66,1.62-1.85,3.24-3.81,4.84-5.85,5.04-6.43,10.13-14.08,15.55-23.39l2.06-3.53,2.21,3.44c5.77,8.99,9.22,17.29,10.46,25.24,8.34-6.42,14.27-13.04,18.07-20.15l2.17-4.05,2.23,4.02c5.57,10.06,9.01,19.77,10.25,28.96,2.11-3.04,4.22-6.24,6.3-9.57l2.46-3.93,1.93,4.22c.39.86.8,1.73,1.2,2.62,2.41,5.22,4.9,10.62,6.48,15.86,3.26,10.43,6.49,23.98,2.86,36.87,4.77,8.25,5.7,17.27,6.6,25.99.21,2.08.44,4.23.71,6.32v.11c.25,2.76.52,5.48.83,8.12,10.86.8,19.5,12.35,19.5,26.45,0,12.06-6.34,22.51-15.28,25.58-3.67,16.8-15.66,53.19-51.61,62.62-6.66,1.54-13.46,2.31-20.21,2.31Z"/>
        </g>
        <ellipse class="cls-11" cx="265.17" cy="211.22" rx="14.7" ry="20.5"/>
        <path class="cls-3" d="m261.6,190.73l5.39,41.75s17.79-10.96,12.5-25.89-17.89-15.86-17.89-15.86Z"/>
        <path class="cls-14" d="m265.17,235.22c-10.03,0-18.2-10.76-18.2-24s8.16-24,18.2-24,18.2,10.76,18.2,24-8.16,24-18.2,24Zm0-40.99c-6.07,0-11.2,7.78-11.2,17s5.13,17,11.2,17,11.2-7.78,11.2-17-5.13-17-11.2-17Z"/>
        <g>
          <path class="cls-5" d="m134.4,254.58s11.5,43.45,77.4,40.22c31.65-3.23,60.53-56.05,53.42-84.15-7.11-28.1-3.23-52.96-13.89-65.56,7.43-18.41-6.46-47.15-6.46-47.15-7.43,11.63-15.5,20.35-15.5,20.35,6.14-19.05-5.17-40.05-5.17-40.05-7.11,11.63-26.16,23.25-26.16,23.25,2.58-14.21-6.32-28.42-6.32-28.42,0,0-12.74,21.96-27.92,34.88.65-13.56-3.55-22.93-3.55-22.93,0,0-51.84,38.17-59.11,74.6-2.84,14.22,16.15,45.86,15.18,55.22-15.18,1.29-14.57,19.75-9.37,32.94,3.78,9.59,18.73,17.12,27.46,6.78Z"/>
          <path class="cls-3" d="m211.86,290.72s-2.08,3.04-7.34,6.95c-28.67,2.03-59-10.21-70.58-38.03-11.72,6.9-28.04-2.11-30.9-14.26-4.21-11.3-3.75-29.95,9.61-33.8-2.23-10.85-8.21-20.96-11.38-31.74-2.05-6.73-4.26-13.16-2.97-20.63,1.44-6.72,4-13,7.17-18.81,13.81-24.36,34.47-43.12,56.47-59.88,2.99,6.34,4.81,13.06,5.48,19.92,2.96-3.08,5.77-6.36,8.44-9.77,3.35-4.27,6.5-8.8,9.46-13.42,2.79,2.94,4.77,5.39,4.77,5.39,0,0-7.15,29.58-32.12,40.08,0,0-2.45-8.7-2.05-21.58-18.74,16.91-44.75,46.83-41.63,63.09,3.12,16.26,18.08,58.28,6.25,58.4-11.84.13-9.76,25.37,1.94,29.39,7.16,2.48,9.24-9.49,13.92-5.59,4.69,3.91,11.99,43.38,75.47,44.29Z"/>
          <path class="cls-14" d="m268.53,209.64c-2.96-10.55-4.51-21.56-5.47-32.77-1.43-11-1.38-22.34-7.54-32.29,3.78-12.05,1.11-24.81-2.54-36.49-1.79-5.97-4.92-12.38-7.57-18.16-3.22,5.14-6.69,10.32-10.39,15.28-.16-12.13-4.59-24.17-10.46-34.78-5.08,9.52-13.36,17.24-22.31,23.59-.53-10.22-4.98-19.85-10.53-28.5-4.71,8.09-9.92,16.26-15.74,23.67-2.7,3.46-5.56,6.78-8.55,9.91-.68-6.96-2.52-13.77-5.55-20.19-22.3,16.98-43.23,35.99-57.23,60.68-3.23,5.88-5.82,12.26-7.28,19.06-1.3,7.57.93,14.09,3.01,20.91,3.21,10.93,9.27,21.17,11.53,32.17-13.54,3.92-14.02,22.81-9.74,34.27,2.9,12.31,19.44,21.44,31.32,14.45,13.55,32.56,52.45,44.07,84.83,36.56,31.92-8.37,47.22-40.35,51.34-69.27.63-5.91.48-12.1-1.15-18.09Zm-58.78,80.96c-18.53.79-37.71-1.8-52.93-12.8-8.29-5.97-15.17-14.2-18.56-23.88-.17-1.19-1.64-2.96-3-3.12-1.67-.08-3.85,1.13-5.03,2.52-7.49,6.22-17.79-1.85-20.65-9.7-2.75-8.55-4.71-23.87,7.07-24.89l1.45-.1c1.07-.08,1.91-.93,1.99-1.99.05-.72.1-1.37.1-1.37.09-7.54-3.21-13.56-5.62-20.28-3.92-10.79-10.73-23.73-9.57-34.78,1.25-5.8,3.52-11.51,6.5-16.92,11.34-20.16,28.74-37.16,46.82-51.72,1.73,6.78,1.79,14.22,1.45,21.23-.07,1.54,1.72,2.42,2.89,1.43,11.26-9.55,20.71-20.84,28.69-33.17,2.59,6.28,3.99,13.31,2.88,19.76,0,0-.53,3.16-.95,5.64-.19,1.13,1.04,1.95,2.01,1.34,10.14-6.34,20.15-12.86,27.96-21.97,3.81,9.93,5.53,21.1,2.44,31.29l-3.78,13.31c-.2.7.68,1.18,1.16.65,0,0,17.11-8.4,20.98-24.97.55,1.46,1.09,2.94,1.57,4.4,3.72,10.98,5.66,23.65,1.93,34.39-.29.84-.11,1.76.51,2.39.19.19,7.22,8.73,9.62,30.13,1.25,11.15,4.36,22.23,5.04,33.69,2.92,49.23-29.02,76.49-52.96,79.49Z"/>
        </g>
      </g>
      <g>
        <path class="cls-14" d="m169.97,220.38c8.04-1.84,17.06-6.04,20.2-14.21.43-1.07,1.63-1.59,2.7-1.16,1.14.39,1.33,1.65,1.48,2.65.58,3.03-.38,6.06-1.91,8.58-4.79,6.87-13.55,10.1-21.68,8.51-2.78-.08-3.56-3.57-.8-4.37h0Z"/>
        <path class="cls-14" d="m228.36,199.59c3.81,6.68,12.07,10.48,19.52,7.79,1.86-.56,3.26,1.97,1.84,3.25,0,0-.62.6-.62.6-3.8,3.9-10.13,4.2-14.86,1.79-4.76-2.29-8.22-6.37-9.43-11.5-.44-1.18.09-2.58,1.39-2.86.87-.2,1.73.2,2.16.93h0Z"/>
        <path class="cls-14" d="m215.09,254.09c-10.12,2.7-22.41.51-28.85-8.22,1.41-.64,2.94-1.06,4.37-1.25,2.4-.26,2.3-3.9-.14-4.01-5.61-.42-11.7,2.62-13.46,8.24-.68,1.94-.51,3.91-.16,5.7.37,2.32,4.02,2.04,4.01-.33.03-1.28.07-2.57.56-3.66.29-.8.74-1.49,1.28-2.12,1.14,2.9,3.03,5.23,5.29,7.25,7.75,6.44,19.31,6.85,28.05,2.33,2.34-.79,1.51-4.36-.96-3.93Z"/>
        <path class="cls-3" d="m238.03,235.9s2.28,9.57-8.11,10.58-9.85-6.52-7.84-6.73c7.3.97,12.39.55,15.95-3.85Z"/>
        <path class="cls-14" d="m224.19,226.41c8.24-2.1,19.94,3.8,12,13.13-2.47,2.9-14.54,7.77-15.18,1.75.08-4.93,5.81-3.72,9.44-4.89,8.6-3.21.95-7.73-6.27-6.88-1.93.23-1.93-3.07,0-3.1h0Z"/>
      </g>
    </g>
  </g>
  <g>
    <g>
      <path class="cls-23" d="m917.05,107.95c19.83,36.68,23.3,77.75,18.35,118.41-2.43,11.99-3.46,21.72-12.8,32.31-7.61,8.12-20.24,6.3-26.86-.6-11.6-10.59-20.55-24.17-27.24-37.96-2.58-4.91-5-11.29-7.8-16.55-5.57,17.12-12.92,32.82-22.62,48.53-12.54,18.85-34.82,17.27-44.25-3.46-10.26-24.42-11.78-50.1-12.81-75.83-.52-19.7-.03-39.24,2.92-59.03.98-9.17,14.49-8.38,14.33.86-.58,18.73.5,37.94,1.89,56.71,1.63,18.83,3.89,37.91,8.74,55.42,1.73,5.84,3.72,11.81,7.1,16.21.32.38.52.56.66.68,4.33-2.62,8.52-10.18,11.91-15.61,8.13-13.4,14.98-27.44,19.73-42.23,3.94-6.17,10.71-6.98,16.43-3.69,10.12,7.29,13.93,20.1,19.63,29.99,6.45,12.27,15.28,24.63,25.31,33.08,4.25-4.59,6.52-14.95,7.71-21.89,2.86-17.88,2.66-36.82.42-55.13-2.44-18.27-6.67-36.64-15.29-51.96-5.22-9.54,8.91-17.67,14.52-8.28Zm-356.6,80.62c-14.72-12.29-33.37-9.24-50.5-7.28-15.88,2.24-31.37,6.08-46.1,12.54-2.88.98-5.03,3.7-4.34,6.9.64,3.11,3.68,5.11,6.79,4.47,7.33-1.51,14.95-2.8,22.48-3.91,15.5-2.21,31.44-3.84,47.18-3.9-10.61,40.95-61.64,66.84-98.28,40.86-45.83-32.81-22.3-106.43,30.23-116.55,20.99-4.51,44,2.97,57.34,20.04,5.83,6.9,16.22-1.33,10.78-8.64-35.02-51.47-112.23-33.89-136.27,19.36-33.49,70.91,36.01,144.21,107.47,107.31,23.18-12.44,39.64-36.02,43.04-61.96,2.14.14,4.28.28,6.41.5,5.26.74,8.22-6.69,3.77-9.74Zm46.95,57.12c-7.7,7.89-17.59,13.38-28.17,14.23-19.52,1.73-32.33-15.95-29.15-34.19,2-14.06,10.76-26.52,21.75-34.7,14-11.34,39.71-15.28,47.92,4.19,1.81-3.94,3.49-7.41,4.77-10.11,2.39-5.12,10.04-1.9,8.04,3.37-6.1,16.35-13.64,34.68-12.42,52.08,1.14,5.57,2.21,5.69,8.79,5.31,11.65-1.24,15.23-14.19,17.77-24.33,2.7-11.82,4.05-24.24,5.32-36.62.46-5.02,8.01-5.07,8.56-.09.16,1.19.31,2.45.45,3.73,15.19-10.75,38.13-11.35,42.29,11.94,1.12,6.78-.1,12.61-1.89,18.08-.65,3.43-3.9,5.98-7.39,4.8-2.44-.8-3.95-3.15-3.8-5.6.1-7.35,1.31-18.14-6.34-21.21-6.57-1.52-15.52,2.97-21.93,7.06.36,26.9-6.5,59.25-37.66,56.8-10.38-1.38-15.29-7.03-16.88-14.74Zm3.97-43.94c-1.87-5.81-6.81-8.8-13.05-8.49-18.89,1.63-37.78,24.78-32.79,43.61,1.7,5.68,6.84,8.62,13.12,8.37,18.92-1.49,37.81-24.69,32.72-43.49Zm158.33-13.62h-.03c.03-.22.07-.42.09-.63.55-9.96-14.22-10.91-15.06-1.08h0c-1.61,12.27-4.22,24.98-8.24,36.5-2.91,7.75-6.11,15.93-12.42,20.48-5.07,2.99-10.51.1-12.23-5.46-3.74-14.64,3.73-34.97,15.23-44.62,8.05-6.1-.96-18.07-9.04-12.09-18.51,14.56-32.6,54.55-13,72.94,20.13,15.09,36.4-2.61,43.71-20.7,2.5,13.76,5.56,27.44,7.64,41.32,3.03,26.82-7.35,56.14-30.92,70.67-15.09,10.28-34.26,13.42-52.89,13.09-9.57-.02-18.42-.98-26.57-4.39-35.03-13.12-39.42-67.73,3.65-71.28,27.75-1.65,53.92,12.24,77.39,26.69,7.28,4.49,14.24-6.14,7.24-11.02-55.27-37.59-96.99-34.74-117.59-18.4-34.42,27.31-15.59,95.13,55.72,95.5,46.21,1.93,87.98-22.93,96.47-70.5,6.92-30.34-5.98-59.51-8.45-89.45-.91-8.84-1.44-19.11-.7-27.59Zm192.8,23.87c.02-5.97-8.8-7.25-10.43-1.43-4.28,15.2-1.49,31.37,4.26,45.76,1.46,3.73,5.67,5.6,9.42,4.16,3.77-1.44,5.66-5.67,4.22-9.44-4.68-12.21-7.21-25.95-7.46-39.05Zm74.13-15.43c-11.21-11.94-33.2-14.44-44.18-1.13.19-2.15.39-4.29.66-6.42.56-3.3-1.71-6.43-5.04-6.88-3.24-.44-6.23,1.82-6.68,5.06-.8,5.85-1.17,11.27-1.36,16.89-.53,16.81.99,33.7,5.29,50.01,1.83,7.09,12.48,5.1,11.61-2.19-.74-11.4-.61-23.01,1.88-33.2,2.37-8.11,5.46-16.52,14.57-15.2,9.52,1.74,13.32,5.81,14.34,15.95.94,9.84-1.18,21.36-3.16,32.65-.7,3.49,1.3,7.04,4.78,8.19,3.75,1.23,7.79-.8,9.02-4.55,3.83-11.62,7.06-23.63,6.55-37.58-.44-6.85-2.3-15.07-8.27-21.59Zm22.75-30.24c3.86.74,7.7,1.71,11.48,3,2.84,1.08,6.14-.09,7.54-2.9,1.48-2.96.28-6.55-2.67-8.03-5.83-2.92-12.03-5.12-18.35-6.55-2.06-15.14-4.02-30.25-6.21-45.19-1.54-10.56-17.22-8.29-15.83,2.19,2.28,13.65,4.39,27.33,6.56,40.99-18.85-1.12-37.75,2.22-55.05,10.1-6.53,3.17-2.77,13.13,4.26,11.19,17.22-3.84,35.38-7.22,53.19-6.5,5.57,33.67,12.12,67.1,23.46,99.61,3,7.19,13.74,2.99,11.17-4.29-9.55-30.2-15.01-61.85-19.55-93.61Zm46.26-57.98c.74-12.5-17.61-13.64-18.48-1.21-2.98,51.62-1.64,104.81,8.17,155.69,1.42,7.62,12.72,5.85,11.84-1.77-7.55-51.06-6.6-101.47-1.53-152.71Zm81.06,141.78c-17.79,6.58-36.67,15.09-56.18,6.27-17.44-9.98-19.39-34.16-10.89-52.34-4.29-3.27-.12-9.85,4.57-7.78,5.28-7.26,12.59-12.63,21.44-14.16,17.13-4.31,36.9,8.98,23.84,26.92-10.21,12.42-26.16,8.53-39.01,1.78-4.81,11.55-5.66,28.85,5.61,35.13,13.48,6.31,31.58-1.85,44.36-8.85,3.48-1.97,7.9-.75,9.87,2.74,2.17,3.77.42,8.72-3.63,10.3Zm-50.11-48.63c9.65,3.55,20.83,5.69,23.6-3.32.13-1.51-.93-1.66-2.55-2.56-7.09-2.24-15.44.56-21.05,5.88Zm-182.51-5.28c5.1,0,10.87-3.71,13.56-11.26l.03-.09c3.06-9.77-1.01-14.96-5.43-16.44-5.63-1.9-13.41,1.62-16.69,10.85-3.06,9.77,1.01,14.97,5.43,16.44.98.33,2.02.49,3.1.49Z"/>
      <path class="cls-22" d="m917.05,106.45c19.83,36.68,23.3,77.75,18.35,118.41-2.43,11.99-3.46,21.72-12.8,32.31-7.61,8.12-20.24,6.3-26.86-.6-11.6-10.59-20.55-24.17-27.24-37.96-2.58-4.91-5-11.29-7.8-16.55-5.57,17.12-12.92,32.82-22.62,48.53-12.54,18.85-34.82,17.27-44.25-3.46-10.26-24.42-11.78-50.1-12.81-75.83-.52-19.7-.03-39.24,2.92-59.03.98-9.17,14.49-8.38,14.33.86-.58,18.73.5,37.94,1.89,56.71,1.63,18.83,3.89,37.91,8.74,55.42,1.73,5.84,3.72,11.81,7.1,16.21.32.38.52.56.66.68,4.33-2.62,8.52-10.18,11.91-15.61,8.13-13.4,14.98-27.44,19.73-42.23,3.94-6.17,10.71-6.98,16.43-3.69,10.12,7.29,13.93,20.1,19.63,29.99,6.45,12.27,15.28,24.63,25.31,33.08,4.25-4.59,6.52-14.95,7.71-21.89,2.86-17.88,2.66-36.82.42-55.13-2.44-18.27-6.67-36.64-15.29-51.96-5.22-9.54,8.91-17.67,14.52-8.28Zm-356.6,80.62c-14.72-12.29-33.37-9.24-50.5-7.28-15.88,2.24-31.37,6.08-46.1,12.54-2.88.98-5.03,3.7-4.34,6.9.64,3.11,3.68,5.11,6.79,4.47,7.33-1.51,14.95-2.8,22.48-3.91,15.5-2.21,31.44-3.84,47.18-3.9-10.61,40.95-61.64,66.84-98.28,40.86-45.83-32.81-22.3-106.43,30.23-116.55,20.99-4.51,44,2.97,57.34,20.04,5.83,6.9,16.22-1.33,10.78-8.64-35.02-51.47-112.23-33.89-136.27,19.36-33.49,70.91,36.01,144.21,107.47,107.31,23.18-12.44,39.64-36.02,43.04-61.96,2.14.14,4.28.28,6.41.5,5.26.74,8.22-6.69,3.77-9.74Zm46.95,57.12c-7.7,7.89-17.59,13.38-28.17,14.23-19.52,1.73-32.33-15.95-29.15-34.19,2-14.06,10.76-26.52,21.75-34.7,14-11.34,39.71-15.28,47.92,4.19,1.81-3.94,3.49-7.41,4.77-10.11,2.39-5.12,10.04-1.9,8.04,3.37-6.1,16.35-13.64,34.68-12.42,52.08,1.14,5.57,2.21,5.69,8.79,5.31,11.65-1.24,15.23-14.19,17.77-24.33,2.7-11.82,4.05-24.24,5.32-36.62.46-5.02,8.01-5.07,8.56-.09.16,1.19.31,2.45.45,3.73,15.19-10.75,38.13-11.35,42.29,11.94,1.12,6.78-.1,12.61-1.89,18.08-.65,3.43-3.9,5.98-7.39,4.8-2.44-.8-3.95-3.15-3.8-5.6.1-7.35,1.31-18.14-6.34-21.21-6.57-1.52-15.52,2.97-21.93,7.06.36,26.9-6.5,59.25-37.66,56.8-10.38-1.38-15.29-7.03-16.88-14.74Zm3.97-43.94c-1.87-5.81-6.81-8.8-13.05-8.49-18.89,1.63-37.78,24.78-32.79,43.61,1.7,5.68,6.84,8.62,13.12,8.37,18.92-1.49,37.81-24.69,32.72-43.49Zm158.33-13.62h-.03c.03-.22.07-.42.09-.63.55-9.96-14.22-10.91-15.06-1.08h0c-1.61,12.27-4.22,24.98-8.24,36.5-2.91,7.75-6.11,15.93-12.42,20.48-5.07,2.99-10.51.1-12.23-5.46-3.74-14.64,3.73-34.97,15.23-44.62,8.05-6.1-.96-18.07-9.04-12.09-18.51,14.56-32.6,54.55-13,72.94,20.13,15.09,36.4-2.61,43.71-20.7,2.5,13.76,5.56,27.44,7.64,41.32,3.03,26.82-7.35,56.14-30.92,70.67-15.09,10.28-34.26,13.42-52.89,13.09-9.57-.02-18.42-.98-26.57-4.39-35.03-13.12-39.42-67.73,3.65-71.28,27.75-1.65,53.92,12.24,77.39,26.69,7.28,4.49,14.24-6.14,7.24-11.02-55.27-37.59-96.99-34.74-117.59-18.4-34.42,27.31-15.59,95.13,55.72,95.5,46.21,1.93,87.98-22.93,96.47-70.5,6.92-30.34-5.98-59.51-8.45-89.45-.91-8.84-1.44-19.11-.7-27.59Zm192.8,23.87c.02-5.97-8.8-7.25-10.43-1.43-4.28,15.2-1.49,31.37,4.26,45.76,1.46,3.73,5.67,5.6,9.42,4.16,3.77-1.44,5.66-5.67,4.22-9.44-4.68-12.21-7.21-25.95-7.46-39.05Zm74.13-15.43c-11.21-11.94-33.2-14.44-44.18-1.13.19-2.15.39-4.29.66-6.42.56-3.3-1.71-6.43-5.04-6.88-3.24-.44-6.23,1.82-6.68,5.06-.8,5.85-1.17,11.27-1.36,16.89-.53,16.81.99,33.7,5.29,50.01,1.83,7.09,12.48,5.1,11.61-2.19-.74-11.4-.61-23.01,1.88-33.2,2.37-8.11,5.46-16.52,14.57-15.2,9.52,1.74,13.32,5.81,14.34,15.95.94,9.84-1.18,21.36-3.16,32.65-.7,3.49,1.3,7.04,4.78,8.19,3.75,1.23,7.79-.8,9.02-4.55,3.83-11.62,7.06-23.63,6.55-37.58-.44-6.85-2.3-15.07-8.27-21.59Zm22.75-30.24c3.86.74,7.7,1.71,11.48,3,2.84,1.08,6.14-.09,7.54-2.9,1.48-2.96.28-6.55-2.67-8.03-5.83-2.92-12.03-5.12-18.35-6.55-2.06-15.14-4.02-30.25-6.21-45.19-1.54-10.56-17.22-8.29-15.83,2.19,2.28,13.65,4.39,27.33,6.56,40.99-18.85-1.12-37.75,2.22-55.05,10.1-6.53,3.17-2.77,13.13,4.26,11.19,17.22-3.84,35.38-7.22,53.19-6.5,5.57,33.67,12.12,67.1,23.46,99.61,3,7.19,13.74,2.99,11.17-4.29-9.55-30.2-15.01-61.85-19.55-93.61Zm46.26-57.98c.74-12.5-17.61-13.64-18.48-1.21-2.98,51.62-1.64,104.81,8.17,155.69,1.42,7.62,12.72,5.85,11.84-1.77-7.55-51.06-6.6-101.47-1.53-152.71Zm81.06,141.78c-17.79,6.58-36.67,15.09-56.18,6.27-17.44-9.98-19.39-34.16-10.89-52.34-4.29-3.27-.12-9.85,4.57-7.78,5.28-7.26,12.59-12.63,21.44-14.16,17.13-4.31,36.9,8.98,23.84,26.92-10.21,12.42-26.16,8.53-39.01,1.78-4.81,11.55-5.66,28.85,5.61,35.13,13.48,6.31,31.58-1.85,44.36-8.85,3.48-1.97,7.9-.75,9.87,2.74,2.17,3.77.42,8.72-3.63,10.3Zm-50.11-48.63c9.65,3.55,20.83,5.69,23.6-3.32.13-1.51-.93-1.66-2.55-2.56-7.09-2.24-15.44.56-21.05,5.88Zm-182.51-5.28c5.1,0,10.87-3.71,13.56-11.26l.03-.09c3.06-9.77-1.01-14.96-5.43-16.44-5.63-1.9-13.41,1.62-16.69,10.85-3.06,9.77,1.01,14.97,5.43,16.44.98.33,2.02.49,3.1.49Z"/>
      <path class="cls-21" d="m917.05,106.45c19.83,36.68,23.3,77.75,18.35,118.41-2.43,11.99-3.46,21.72-12.8,32.31-7.61,8.12-20.24,6.3-26.86-.6-11.6-10.59-20.55-24.17-27.24-37.96-2.58-4.91-5-11.29-7.8-16.55-5.57,17.12-12.92,32.82-22.62,48.53-12.54,18.85-34.82,17.27-44.25-3.46-10.26-24.42-11.78-50.1-12.81-75.83-.52-19.7-.03-39.24,2.92-59.03.98-9.17,14.49-8.38,14.33.86-.58,18.73.5,37.94,1.89,56.71,1.63,18.83,3.89,37.91,8.74,55.42,1.73,5.84,3.72,11.81,7.1,16.21.32.38.52.56.66.68,4.33-2.62,8.52-10.18,11.91-15.61,8.13-13.4,14.98-27.44,19.73-42.23,3.94-6.17,10.71-6.98,16.43-3.69,10.12,7.29,13.93,20.1,19.63,29.99,6.45,12.27,15.28,24.63,25.31,33.08,4.25-4.59,6.52-14.95,7.71-21.89,2.86-17.88,2.66-36.82.42-55.13-2.44-18.27-6.67-36.64-15.29-51.96-5.22-9.54,8.91-17.67,14.52-8.28Zm-356.6,80.62c-14.72-12.29-33.37-9.24-50.5-7.28-15.88,2.24-31.37,6.08-46.1,12.54-2.88.98-5.03,3.7-4.34,6.9.64,3.11,3.68,5.11,6.79,4.47,7.33-1.51,14.95-2.8,22.48-3.91,15.5-2.21,31.44-3.84,47.18-3.9-10.61,40.95-61.64,66.84-98.28,40.86-45.83-32.81-22.3-106.43,30.23-116.55,20.99-4.51,44,2.97,57.34,20.04,5.83,6.9,16.22-1.33,10.78-8.64-35.02-51.47-112.23-33.89-136.27,19.36-33.49,70.91,36.01,144.21,107.47,107.31,23.18-12.44,39.64-36.02,43.04-61.96,2.14.14,4.28.28,6.41.5,5.26.74,8.22-6.69,3.77-9.74Zm46.95,57.12c-7.7,7.89-17.59,13.38-28.17,14.23-19.52,1.73-32.33-15.95-29.15-34.19,2-14.06,10.76-26.52,21.75-34.7,14-11.34,39.71-15.28,47.92,4.19,1.81-3.94,3.49-7.41,4.77-10.11,2.39-5.12,10.04-1.9,8.04,3.37-6.1,16.35-13.64,34.68-12.42,52.08,1.14,5.57,2.21,5.69,8.79,5.31,11.65-1.24,15.23-14.19,17.77-24.33,2.7-11.82,4.05-24.24,5.32-36.62.46-5.02,8.01-5.07,8.56-.09.16,1.19.31,2.45.45,3.73,15.19-10.75,38.13-11.35,42.29,11.94,1.12,6.78-.1,12.61-1.89,18.08-.65,3.43-3.9,5.98-7.39,4.8-2.44-.8-3.95-3.15-3.8-5.6.1-7.35,1.31-18.14-6.34-21.21-6.57-1.52-15.52,2.97-21.93,7.06.36,26.9-6.5,59.25-37.66,56.8-10.38-1.38-15.29-7.03-16.88-14.74Zm3.97-43.94c-1.87-5.81-6.81-8.8-13.05-8.49-18.89,1.63-37.78,24.78-32.79,43.61,1.7,5.68,6.84,8.62,13.12,8.37,18.92-1.49,37.81-24.69,32.72-43.49Zm158.33-13.62h-.03c.03-.22.07-.42.09-.63.55-9.96-14.22-10.91-15.06-1.08h0c-1.61,12.27-4.22,24.98-8.24,36.5-2.91,7.75-6.11,15.93-12.42,20.48-5.07,2.99-10.51.1-12.23-5.46-3.74-14.64,3.73-34.97,15.23-44.62,8.05-6.1-.96-18.07-9.04-12.09-18.51,14.56-32.6,54.55-13,72.94,20.13,15.09,36.4-2.61,43.71-20.7,2.5,13.76,5.56,27.44,7.64,41.32,3.03,26.82-7.35,56.14-30.92,70.67-15.09,10.28-34.26,13.42-52.89,13.09-9.57-.02-18.42-.98-26.57-4.39-35.03-13.12-39.42-67.73,3.65-71.28,27.75-1.65,53.92,12.24,77.39,26.69,7.28,4.49,14.24-6.14,7.24-11.02-55.27-37.59-96.99-34.74-117.59-18.4-34.42,27.31-15.59,95.13,55.72,95.5,46.21,1.93,87.98-22.93,96.47-70.5,6.92-30.34-5.98-59.51-8.45-89.45-.91-8.84-1.44-19.11-.7-27.59Zm192.8,23.87c.02-5.97-8.8-7.25-10.43-1.43-4.28,15.2-1.49,31.37,4.26,45.76,1.46,3.73,5.67,5.6,9.42,4.16,3.77-1.44,5.66-5.67,4.22-9.44-4.68-12.21-7.21-25.95-7.46-39.05Zm74.13-15.43c-11.21-11.94-33.2-14.44-44.18-1.13.19-2.15.39-4.29.66-6.42.56-3.3-1.71-6.43-5.04-6.88-3.24-.44-6.23,1.82-6.68,5.06-.8,5.85-1.17,11.27-1.36,16.89-.53,16.81.99,33.7,5.29,50.01,1.83,7.09,12.48,5.1,11.61-2.19-.74-11.4-.61-23.01,1.88-33.2,2.37-8.11,5.46-16.52,14.57-15.2,9.52,1.74,13.32,5.81,14.34,15.95.94,9.84-1.18,21.36-3.16,32.65-.7,3.49,1.3,7.04,4.78,8.19,3.75,1.23,7.79-.8,9.02-4.55,3.83-11.62,7.06-23.63,6.55-37.58-.44-6.85-2.3-15.07-8.27-21.59Zm22.75-30.24c3.86.74,7.7,1.71,11.48,3,2.84,1.08,6.14-.09,7.54-2.9,1.48-2.96.28-6.55-2.67-8.03-5.83-2.92-12.03-5.12-18.35-6.55-2.06-15.14-4.02-30.25-6.21-45.19-1.54-10.56-17.22-8.29-15.83,2.19,2.28,13.65,4.39,27.33,6.56,40.99-18.85-1.12-37.75,2.22-55.05,10.1-6.53,3.17-2.77,13.13,4.26,11.19,17.22-3.84,35.38-7.22,53.19-6.5,5.57,33.67,12.12,67.1,23.46,99.61,3,7.19,13.74,2.99,11.17-4.29-9.55-30.2-15.01-61.85-19.55-93.61Zm46.26-57.98c.74-12.5-17.61-13.64-18.48-1.21-2.98,51.62-1.64,104.81,8.17,155.69,1.42,7.62,12.72,5.85,11.84-1.77-7.55-51.06-6.6-101.47-1.53-152.71Zm81.06,141.78c-17.79,6.58-36.67,15.09-56.18,6.27-17.44-9.98-19.39-34.16-10.89-52.34-4.29-3.27-.12-9.85,4.57-7.78,5.28-7.26,12.59-12.63,21.44-14.16,17.13-4.31,36.9,8.98,23.84,26.92-10.21,12.42-26.16,8.53-39.01,1.78-4.81,11.55-5.66,28.85,5.61,35.13,13.48,6.31,31.58-1.85,44.36-8.85,3.48-1.97,7.9-.75,9.87,2.74,2.17,3.77.42,8.72-3.63,10.3Zm-50.11-48.63c9.65,3.55,20.83,5.69,23.6-3.32.13-1.51-.93-1.66-2.55-2.56-7.09-2.24-15.44.56-21.05,5.88Zm-182.51-5.28c5.1,0,10.87-3.71,13.56-11.26l.03-.09c3.06-9.77-1.01-14.96-5.43-16.44-5.63-1.9-13.41,1.62-16.69,10.85-3.06,9.77,1.01,14.97,5.43,16.44.98.33,2.02.49,3.1.49Z"/>
    </g>
    <g class="cls-25">
      <path class="cls-8" d="m540.45,213.94c.16-.07.43-.02.53.09.14.09.2.35.19.34.01.09,0,.18,0,.2,0,.09-.02.13-.03.19l-.07.27-.16.48c-.11.31-.23.62-.35.92-.24.6-.5,1.19-.77,1.78-.55,1.17-1.16,2.29-1.79,3.41-1.26,2.24-2.64,4.41-4.1,6.52-2.96,4.21-6.36,8.1-10.03,11.74-1.84,1.81-3.75,3.56-5.75,5.21-2.02,1.63-4.11,3.17-6.26,4.62-4.3,2.92-8.92,5.37-13.71,7.39-9.59,4.08-20.01,6.1-30.35,6.23-2.59,0-5.17-.07-7.74-.26-2.57-.2-5.12-.53-7.66-.93-2.53-.41-5.04-.98-7.52-1.58-1.24-.31-2.47-.64-3.7-.98-1.22-.36-2.44-.76-3.65-1.16h-.04c-.26-.1-.4-.38-.32-.64.08-.25.34-.39.59-.33,9.78,2.42,19.87,3.7,29.93,3.31,10.05-.37,20.06-2.44,29.35-6.32,9.3-3.85,17.84-9.45,25.21-16.3,3.69-3.42,7.1-7.15,10.17-11.13,1.54-1.99,2.99-4.05,4.33-6.17.67-1.06,1.32-2.14,1.92-3.24.3-.55.59-1.1.86-1.66.14-.28.27-.56.39-.84l.16-.41.06-.19v-.05s0,.03.02.08c-.01-.04.04.2.16.28.08.09.33.16.47.08-.26.1-.55-.03-.65-.29-.1-.26.03-.55.29-.65Z"/>
    </g>
    <g class="cls-25">
      <path class="cls-4" d="m574.01,255.24l.51-.03.63-.06c.43-.05.85-.11,1.28-.17.85-.13,1.7-.29,2.55-.46,1.69-.35,3.37-.79,5.02-1.29,3.31-1,6.52-2.31,9.58-3.93,3.04-1.62,5.92-3.57,8.47-5.88,2.56-2.3,4.76-4.98,6.52-7.93h0s0-.01,0-.01c.15-.23.46-.3.69-.16.14.09.22.23.23.38.23,2.72,1.06,5.37,2.46,7.71,1.4,2.33,3.35,4.32,5.63,5.82,4.57,3.02,10.33,4.05,15.72,3.14,5.42-.9,10.42-3.79,14.12-7.85,3.75-4.05,6.25-9.13,7.82-14.42.08-.26.36-.41.62-.34.24.07.39.31.35.55v.06c-.46,2.82-1.33,5.56-2.44,8.25-1.18,2.65-2.7,5.2-4.64,7.47-1.89,2.3-4.25,4.24-6.84,5.8-2.62,1.52-5.52,2.59-8.53,3.12-3.01.48-6.12.44-9.11-.2-2.98-.66-5.86-1.86-8.33-3.66-2.49-1.77-4.54-4.13-5.92-6.81-1.31-2.71-2.03-5.66-1.9-8.56l.93.21h0c-.78,1.6-1.71,3.13-2.76,4.58-1.09,1.41-2.26,2.78-3.56,4.02-1.28,1.26-2.7,2.37-4.16,3.41-1.47,1.02-2.97,2.01-4.56,2.83-3.19,1.61-6.5,2.98-9.93,3.89-1.72.45-3.45.85-5.2,1.13-.88.13-1.76.24-2.64.32-.44.04-.89.08-1.33.1h-.68s-.35,0-.35,0h-.18c-.07,0-.19-.02-.27-.04-.27-.05-.44-.3-.4-.57.04-.23.23-.39.45-.4h.16Z"/>
    </g>
    <g class="cls-25">
      <path class="cls-15" d="m754.74,234.68c-1.38,3.64-3.29,7.03-5.63,10.17-1.17,1.57-2.45,3.07-3.88,4.45-1.41,1.4-2.98,2.66-4.68,3.78-3.35,2.27-7.59,3.67-11.82,3.36-2.11-.15-4.14-.81-5.95-1.72-.45-.23-.89-.49-1.32-.75l-1.22-.88c-.83-.55-1.51-1.28-2.22-1.95l-.04-.04c-.2-.19-.21-.5-.02-.7.17-.18.46-.21.66-.06,2.99,2.18,6.5,3.76,10.19,3.86,3.68.09,7.31-1.17,10.42-3.21,3.13-2.02,5.87-4.63,8.28-7.5,2.41-2.87,4.57-6,6.36-9.27.13-.24.44-.33.68-.2.22.12.31.39.23.61l-.02.04Z"/>
    </g>
    <g class="cls-25">
      <path class="cls-18" d="m768.54,326.47c-2.77,5.66-6.44,10.87-10.62,15.63-4.22,4.74-9.07,8.9-14.27,12.54-2.61,1.81-5.3,3.51-8.08,5.05-2.8,1.51-5.67,2.88-8.6,4.11-5.86,2.46-11.95,4.38-18.15,5.75-12.41,2.76-25.35,3.13-37.89,1.16-6.26-1.04-12.42-2.66-18.36-4.87-1.47-.58-2.93-1.19-4.38-1.81l-4.27-2.05-4.15-2.27-3.98-2.53c-.23-.15-.3-.46-.15-.69.14-.22.42-.29.65-.18h.02s4.15,2.12,4.15,2.12l4.23,1.92,4.31,1.69,4.38,1.49c5.87,1.89,11.92,3.19,18.02,3.92,6.1.79,12.26,1.08,18.39.8,6.14-.27,12.24-1.09,18.25-2.31,6.01-1.25,11.91-3.03,17.6-5.34,2.84-1.15,5.63-2.45,8.35-3.87,2.73-1.39,5.4-2.92,7.98-4.58,5.17-3.32,9.96-7.22,14.3-11.59,4.37-4.35,8.16-9.27,11.39-14.57.14-.24.45-.31.69-.17.22.14.3.42.19.65Z"/>
    </g>
    <g class="cls-25">
      <path class="cls-17" d="m799.76,250.85c1.71,1.97,3.63,3.71,5.87,4.86,2.2,1.19,4.58,2.02,7.03,2.25,2.44.25,4.9.06,7.26-.56,2.35-.64,4.62-1.63,6.7-2.96,4.16-2.69,7.67-6.44,10.6-10.67,1.47-2.11,2.84-4.32,4.08-6.63.65-1.14,1.25-2.31,1.86-3.49.32-.58.58-1.19.86-1.79l.89-1.79.03-.07c.12-.25.42-.35.67-.22.22.11.33.37.25.6-1.71,5.08-3.85,10.05-6.75,14.6-2.88,4.53-6.57,8.67-11.17,11.57-4.57,2.88-10.19,4.4-15.61,3.47-5.42-.81-10.39-4.06-13.41-8.62-.15-.23-.09-.54.14-.69.21-.14.49-.1.65.09l.04.05Z"/>
    </g>
    <g class="cls-25">
      <path class="cls-20" d="m895.07,247.06c1.65,2.58,4.03,4.72,6.65,6.26.65.39,1.33.72,1.99,1.07.69.29,1.36.61,2.07.82,1.4.46,2.84.73,4.26.7,1.41-.02,2.8-.24,4.08-.79.67-.18,1.26-.6,1.89-.88l.87-.6c.29-.19.59-.39.85-.64,2.18-1.84,3.97-4.27,5.44-6.92,2.92-5.34,4.76-11.4,6.31-17.5l.61-2.29.52-2.32c.35-1.55.7-3.1.97-4.67.28-1.57.71-3.11.96-4.69.28-1.57.58-3.15.93-4.72v-.06c.07-.27.34-.44.61-.38.25.06.41.29.39.53-.61,6.4-1.45,12.78-2.8,19.08-1.38,6.27-3.17,12.55-6.33,18.24-1.59,2.82-3.56,5.5-6.14,7.57-.3.28-.65.5-1,.72l-1.04.67c-.76.34-1.47.79-2.28,1-1.56.59-3.25.78-4.91.73-1.67-.04-3.3-.43-4.84-1-1.55-.57-3.01-1.35-4.35-2.28-2.68-1.87-5.08-4.22-6.6-7.21-.12-.24-.03-.54.22-.67.23-.12.51-.04.64.17l.04.07Z"/>
    </g>
    <g class="cls-25">
      <path class="cls-7" d="m950.82,189.51c1.58-.33,3.09-.69,4.43-1.21.67-.27,1.3-.58,1.91-.88.29-.18.56-.39.86-.54.28-.18.54-.4.81-.59.29-.17.48-.47.75-.66.26-.21.52-.43.72-.7.21-.27.47-.49.71-.75.21-.28.42-.57.65-.84.26-.26.47-.57.66-.88.21-.31.46-.61.69-.92.44-.65.85-1.33,1.44-2.01l.18-.21c.17-.19.46-.21.65-.04.14.12.19.31.14.48-.24.8-.46,1.61-.73,2.4l-.5,1.16c-.16.39-.33.77-.57,1.13l-.66,1.09c-.25.34-.53.67-.79,1-.25.34-.56.64-.88.92-.32.28-.61.61-.97.83-1.35,1.05-2.97,1.74-4.63,2.09-1.67.35-3.36.4-5.08.12-.26-.04-.43-.29-.39-.54.03-.2.18-.35.37-.39l.23-.05Z"/>
    </g>
    <g class="cls-25">
      <path class="cls-1" d="m960.4,254.16c.9-.01,1.81-.07,2.57-.25.77-.17,1.36-.53,1.64-.89.16-.17.24-.4.32-.64.08-.25.16-.52.17-.85.03-.65.04-1.41-.09-2.22-.23-1.6-.64-3.32-1.03-5.08-.38-1.77-.8-3.58-.93-5.56v-.19c-.03-.27.17-.5.44-.51.21-.01.39.11.47.28.77,1.72,1.51,3.45,2.14,5.24.61,1.79,1.16,3.62,1.38,5.55.12.96.13,1.95-.05,2.94-.18.98-.63,2.03-1.5,2.7-.85.69-1.94.91-2.94.92-1.01,0-1.97-.17-2.93-.49-.25-.08-.39-.36-.3-.61.07-.2.25-.32.45-.33h.2Z"/>
    </g>
    <g class="cls-25">
      <path class="cls-9" d="m988.13,253.68c.84.03,1.71-.04,2.33-.32.64-.28,1.05-.66,1.38-1.18.18-.22.27-.6.43-.86l.33-1.03c.1-.36.11-.78.21-1.15.1-.37.13-.79.16-1.2.04-.41.06-.83.13-1.24l.06-1.29c0-.43.06-.86.1-1.3.01-.44.01-.89.04-1.33.17-1.79.19-3.61.66-5.54l.05-.21c.06-.26.32-.41.58-.35.2.05.34.22.36.41.22,1.85.53,3.68.6,5.56l.09,1.4c0,.47,0,.94-.01,1.41l-.02,1.41-.16,1.41c-.26,1.85-.64,3.85-2.06,5.37-.68.78-1.69,1.26-2.7,1.4-1.04.13-2.02-.05-2.99-.46-.24-.1-.35-.38-.25-.62.08-.19.26-.29.45-.29h.24Z"/>
    </g>
    <g class="cls-25">
      <path class="cls-12" d="m1027.95,254.24c.58.33,1.29.56,1.91.64.64.08,1.23-.05,1.74-.3,1.04-.49,1.87-1.52,2.59-2.68.36-.58.67-1.22.96-1.87.31-.64.57-1.32.83-2.01.47-1.39.96-2.79,1.35-4.25.79-2.9,1.51-5.86,2.23-8.85l1.15-4.5c.47-1.49.81-3.01,1.37-4.51l.04-.12c.09-.25.38-.38.63-.29.22.08.34.3.32.52-.72,6.2-1.62,12.41-3.36,18.45-.89,3-1.95,6.02-3.81,8.67-.93,1.29-2.15,2.56-3.84,3.06-.83.24-1.75.26-2.58,0-.84-.25-1.57-.64-2.24-1.25-.2-.18-.21-.49-.03-.69.16-.17.41-.21.61-.09l.13.08Z"/>
    </g>
    <g class="cls-25">
      <path class="cls-6" d="m1075.79,161.02c.2.48.31.93.33,1.46.02.51-.1,1.1-.44,1.61-.34.51-.88.84-1.38,1.03-.51.18-1.01.26-1.5.3-1.94.1-3.69-.32-5.4-.77-.86-.23-1.68-.53-2.51-.83l-2.39-.9c-1.53-.55-3.12-.97-4.73-1.31-6.48-1.27-13.22-1.48-19.92-1.23-6.71.27-13.43,1-20.12,1.99-3.35.46-6.7,1.02-10.03,1.68-1.67.32-3.35.61-5.02.95l-5.02,1.03h-.05c-.27.07-.53-.11-.59-.38-.05-.25.1-.5.34-.58,6.55-2.04,13.22-3.68,19.96-4.9,6.75-1.22,13.57-2.05,20.43-2.28,6.85-.22,13.78.05,20.51,1.66,1.68.42,3.33.93,4.95,1.57,1.61.66,3.12,1.36,4.73,1.89,1.59.53,3.23,1.01,4.83,1.01.78-.02,1.57-.18,1.93-.68.39-.46.37-1.31.15-1.97-.09-.26.05-.55.32-.63.25-.08.52.04.62.28Z"/>
    </g>
    <g class="cls-25">
      <path class="cls-10" d="m1072.7,246.78c1.14,1.46,1.95,3.05,2.63,4.71.34.83.64,1.68.87,2.55.26.87.43,1.76.57,2.68.26,1.83.35,3.77-.42,5.88-.1.26-.23.52-.38.78-.13.26-.32.52-.52.76-.39.5-.97.9-1.56,1.16-1.27.46-2.42.17-3.26-.33l-.15-.09c-.23-.14-.3-.44-.17-.66.11-.18.31-.26.5-.23.78.13,1.57.11,2.18-.24.6-.35.99-1.03,1.2-1.78.42-1.54.31-3.27.11-4.94-.46-3.36-1.4-6.69-2.53-9.91-.09-.25.04-.53.3-.62.2-.07.42,0,.55.16l.09.12Z"/>
    </g>
    <g class="cls-25">
      <path class="cls-2" d="m1101.69,242.57c.94,1.71,1.57,3.49,2.08,5.31.26.91.48,1.83.65,2.75.2.93.31,1.87.42,2.81.22,1.89.23,3.82-.05,5.8-.17.99-.41,1.99-.86,2.98-.21.49-.54.99-.91,1.44-.42.45-.99.85-1.64.93h-.12c-.27.04-.51-.15-.54-.42-.02-.22.1-.43.3-.51.58-.24.97-1.05,1.17-1.89.21-.84.3-1.74.35-2.64.08-1.81-.02-3.64-.18-5.46-.34-3.65-.92-7.3-1.65-10.89-.05-.27.12-.52.38-.58.22-.04.43.06.53.24l.07.13Z"/>
    </g>
    <g class="cls-25">
      <path class="cls-19" d="m1180.98,236.87c1.46-.57,3.21-.62,4.74.11.76.36,1.49.9,2.02,1.67.52.76.79,1.76.71,2.71-.18,1.93-1.33,3.38-2.5,4.44-1.19,1.09-2.51,1.92-3.86,2.64-1.35.71-2.73,1.33-4.14,1.85-1.39.52-2.73,1.05-4.12,1.49-2.77.93-5.57,1.78-8.43,2.49-5.7,1.43-11.63,2.29-17.6,2.12-2.98-.13-5.95-.49-8.85-1.17-1.44-.37-2.87-.79-4.25-1.32-1.41-.46-2.74-1.11-4.06-1.74l-.04-.02c-.25-.12-.35-.42-.23-.67.11-.23.38-.34.62-.26,2.69.95,5.46,1.7,8.27,2.19,2.82.45,5.68.67,8.54.68,2.86-.02,5.72-.25,8.57-.62,2.84-.41,5.66-.96,8.46-1.61,2.79-.69,5.57-1.43,8.32-2.29,2.75-.87,5.52-1.67,8.07-2.92,1.27-.62,2.49-1.34,3.55-2.24,1.04-.88,1.94-2.01,2.1-3.25.08-.61-.05-1.23-.37-1.76-.33-.52-.82-.95-1.39-1.26-1.15-.61-2.57-.71-3.83-.32-.26.08-.54-.07-.62-.33-.08-.25.05-.52.29-.61h.04Z"/>
    </g>
  </g>
</svg>