<?xml version="1.0" encoding="UTF-8"?><svg id="Layer_1" xmlns="http://www.w3.org/2000/svg" xmlns:xlink="http://www.w3.org/1999/xlink" viewBox="0 0 242.6 73.79"><defs><style>.cls-1{fill:url(#linear-gradient-2);}.cls-2{fill:#fff;}.cls-3{fill:url(#linear-gradient-6);}.cls-4{fill:#72b1e4;opacity:.5;}.cls-5{fill:#20639b;}.cls-6{fill:#12283a;stroke-width:.25px;}.cls-6,.cls-7{stroke:#12283a;stroke-miterlimit:10;}.cls-8{fill:url(#linear-gradient-5);}.cls-9{fill:url(#linear-gradient-7);}.cls-7{fill:none;stroke-width:1.69px;}.cls-10{fill:url(#linear-gradient-9);}.cls-11{fill:url(#linear-gradient-3);}.cls-12{fill:url(#linear-gradient);}.cls-13{fill:url(#linear-gradient-4);}.cls-14{fill:url(#linear-gradient-8);}</style><linearGradient id="linear-gradient" x1="169.95" y1="24.55" x2="189.08" y2="140.98" gradientUnits="userSpaceOnUse"><stop offset="0" stop-color="#fff"/><stop offset="1" stop-color="#a8d2f4"/></linearGradient><linearGradient id="linear-gradient-2" x1="92.52" y1="37.28" x2="111.65" y2="153.7" xlink:href="#linear-gradient"/><linearGradient id="linear-gradient-3" x1="122" y1="32.43" x2="141.13" y2="148.86" xlink:href="#linear-gradient"/><linearGradient id="linear-gradient-4" x1="134.09" y1="30.44" x2="153.22" y2="146.87" xlink:href="#linear-gradient"/><linearGradient id="linear-gradient-5" x1="188.31" y1="21.53" x2="207.44" y2="137.96" xlink:href="#linear-gradient"/><linearGradient id="linear-gradient-6" x1="199.45" y1="19.7" x2="218.58" y2="136.13" xlink:href="#linear-gradient"/><linearGradient id="linear-gradient-7" x1="205.1" y1="18.77" x2="224.23" y2="135.2" xlink:href="#linear-gradient"/><linearGradient id="linear-gradient-8" x1="218.27" y1="16.61" x2="237.41" y2="133.04" xlink:href="#linear-gradient"/><linearGradient id="linear-gradient-9" x1="227.12" y1="15.16" x2="246.25" y2="131.58" xlink:href="#linear-gradient"/></defs><circle class="cls-5" cx="37.54" cy="32.43" r="28.8" transform="translate(-12.03 30.48) rotate(-38.57)"/><path class="cls-12" d="m180.74,15.68c-.75.43-1.28,1.38-.7,2.45,1.53,2.72,2.53,6.1,3.13,10.65.5,4.06.47,7.86-.09,11.31-.37,2.18-.88,3.65-1.5,4.38-1.85-1.58-3.66-3.96-5.11-6.71-.31-.55-.6-1.12-.89-1.74-.8-1.65-1.63-3.36-3.18-4.47-1.32-.76-2.73-.44-3.51.79v.02c-.93,2.85-2.25,5.69-4.06,8.66-.09.15-.19.31-.29.47-.63,1.02-1.33,2.18-2.06,2.66-.02-.02-.04-.04-.07-.08-.7-.91-1.11-2.18-1.44-3.3-1.04-3.75-1.49-7.85-1.79-11.38-.26-3.52-.51-7.66-.39-11.65.02-1.04-.75-1.56-1.48-1.61-.74-.04-1.56.38-1.67,1.42-.95,6.83-1.44,23.79,3.3,29.67,1.13,1.29,2.4,1.61,3.37,1.61.12,0,.23,0,.34-.01,1.66-.13,3.31-1.18,4.31-2.75,1.96-3.17,3.46-6.37,4.59-9.78.26.5.5,1.05.74,1.58.26.58.5,1.12.75,1.61,1.56,3.22,3.45,5.85,5.62,7.83.76.79,1.88,1.26,3,1.26h.02c1.03,0,1.97-.41,2.65-1.14,1.74-1.97,2.09-3.81,2.51-5.94.05-.25.1-.5.15-.76,1.15-9.43-.13-17.65-3.79-24.42-.63-1.05-1.72-1.07-2.46-.65v.02Z"/><path class="cls-1" d="m108.17,34.16c.6.09,1.06-.33,1.24-.77.17-.44.12-1.05-.39-1.4-2.87-2.4-6.39-1.98-9.8-1.58l-.61.07c-3.56.5-6.65,1.34-9.44,2.57-.59.2-1.11.79-.96,1.53.07.33.26.62.55.81.29.19.63.25.96.18,1.37-.28,2.91-.55,4.59-.8,3.68-.52,6.7-.78,9.5-.8-1.16,4.27-4.54,7.9-8.87,9.48-3.85,1.41-7.87.93-11.03-1.31-4.01-2.87-5.74-7.61-4.63-12.69,1.21-5.54,5.54-9.94,10.77-10.95,4.33-.93,9,.7,11.62,4.06.66.78,1.55.66,2.1.22.56-.44.87-1.29.26-2.11-3.04-4.47-7.95-6.75-13.45-6.28-6.3.55-12.02,4.57-14.58,10.25-3.25,6.88-1.96,14.6,3.28,19.66,3.03,2.92,6.84,4.43,10.82,4.42,2.65,0,5.38-.67,8.01-2.02,4.74-2.54,8.12-7.38,8.84-12.65.4.03.81.05,1.21.1h.01Z"/><path class="cls-11" d="m122.59,47.84c.23.02.45.03.67.03,1.68,0,3.1-.53,4.21-1.57,2.52-2.36,3.01-6.83,2.97-10.19,1.29-.82,3.08-1.71,4.38-1.41,1.34.54,1.29,2.33,1.25,3.77,0,.17,0,.34,0,.49-.04.56.31,1.08.85,1.25.33.11.69.08.99-.1.34-.2.59-.56.66-.95.33-1.02.64-2.26.39-3.77-.33-1.82-1.24-3.09-2.65-3.67-1.73-.71-4.09-.29-6.07,1.05-.02-.21-.05-.41-.07-.6-.06-.59-.55-.85-.98-.85s-.92.28-.97.87c-.28,2.72-.55,5.16-1.09,7.52-.46,1.86-1.17,4.67-3.56,4.93-1.33.08-1.49.05-1.7-1-.23-3.28,1.09-6.79,2.26-9.89l.29-.78c.24-.62-.12-1.1-.54-1.28-.43-.18-1.02-.1-1.3.5l-.19.4c-.21.43-.44.93-.7,1.48-.61-1.29-1.65-2.14-3.04-2.49-2.1-.53-4.93.21-6.88,1.79-2.48,1.84-4.12,4.47-4.51,7.2-.35,1.99.22,4.01,1.51,5.41,1.18,1.28,2.81,1.9,4.6,1.74,2.03-.16,4.05-1.16,5.73-2.83.41,1.69,1.6,2.68,3.52,2.93l-.02.02Zm-4-6.75c-1.38,1.96-3.45,3.27-5.39,3.43-1.3.06-2.27-.57-2.6-1.65-.44-1.66.02-3.62,1.26-5.38,1.38-1.97,3.45-3.29,5.39-3.46h.18c1.18,0,2.05.6,2.4,1.68.45,1.66,0,3.62-1.25,5.39h0Z"/><path class="cls-13" d="m154.14,44.75c-.75-3.88-1.52-7.9-1.23-11.87v-.08c.06-.45-.08-.89-.37-1.23-.29-.35-.7-.56-1.16-.59-.95,0-1.51.47-1.73,1.43h0v.09c-.57,3.75-1.28,7.67-3.25,10.68-.5.81-1.25,1.26-1.97,1.18-.61-.07-1.1-.52-1.36-1.28-.74-2.89.68-7.05,3.09-9.07.37-.26.6-.66.67-1.1.06-.45-.05-.89-.33-1.25-.44-.47-.94-.68-1.46-.61-1.61.19-3.12,2.83-3.77,3.96l-.03.06c-1.38,2.86-3.17,8.16.28,11.46,1.61,1.37,4,1.55,5.7.42,1.69-1.13,2.65-2.9,3.29-4.41.29,1.69.65,3.45,1.09,5.39,1.15,4.96.43,9.84-1.97,13.39-4.09,6.32-13.47,7.81-20.16,5.61-2.62-.93-4.75-3.41-5.41-6.3-.56-2.41.01-4.63,1.59-6.24,5.45-4.68,14.26-.22,20.41,3.55.85.52,1.63.12,2-.47.37-.59.38-1.47-.46-2-5.41-3.69-10.38-5.8-14.75-6.25-3.71-.38-6.89.47-9.15,2.46-3.4,2.99-4.23,8.12-2.02,12.47,1.37,2.69,3.71,4.74,6.78,5.92,1.99.76,4.21,1.15,6.64,1.15,1.95,0,4.03-.25,6.24-.73,9.06-1.98,14.87-10.41,13.8-20.04-.25-1.89-.62-3.82-.98-5.69h0Z"/><path class="cls-8" d="m192.57,37.78c0-.7-.52-1.08-1.03-1.15-.51-.07-1.12.16-1.31.83-.79,2.79-.48,6.07.88,9.48.25.63.86,1.02,1.5,1.02.19,0,.38-.03.57-.1.83-.32,1.24-1.24.93-2.07-.93-2.43-1.48-5.27-1.53-8h-.01Z"/><path class="cls-3" d="m207.79,34.54c-1.23-1.31-3.13-2.11-5-2.11h-.21c-1.53.05-2.88.63-3.83,1.64.03-.32.06-.67.11-1.01.06-.36-.02-.71-.24-1.01-.21-.29-.53-.48-.88-.53-.35-.05-.7.04-.98.26-.28.21-.46.52-.51.87-.15,1.08-.24,2.16-.28,3.49-.12,3.65.25,7.12,1.09,10.31.21.81.93,1.07,1.52.96.58-.11,1.17-.61,1.07-1.44-.18-2.77-.06-4.99.38-6.79.51-1.76,1.12-3.31,2.88-3.06,1.94.35,2.66,1.16,2.87,3.19.19,1.94-.22,4.24-.61,6.46l-.04.22c-.16.78.29,1.55,1.05,1.8.16.05.33.08.49.08.24,0,.48-.06.71-.17.38-.19.65-.51.78-.91.88-2.68,1.45-5.03,1.35-7.77-.12-1.87-.7-3.38-1.73-4.5v.02Z"/><path class="cls-9" d="m212.52,28.51c.79.16,1.52.35,2.21.59.65.25,1.37-.03,1.68-.65.16-.32.18-.68.07-1.02s-.35-.61-.67-.77c-1.18-.59-2.43-1.04-3.73-1.34-.11-.79-.21-1.58-.32-2.37-.3-2.25-.62-4.58-.95-6.86-.17-1.18-1.13-1.6-1.96-1.48-.85.12-1.64.83-1.49,1.96.33,2,.66,4.04.97,6,.12.77.24,1.54.36,2.3-3.89-.21-7.78.51-11.25,2.09-.75.36-.87,1.12-.66,1.67.21.55.79,1.04,1.6.82,3.48-.77,7.2-1.47,10.84-1.34,1.08,6.55,2.42,13.56,4.82,20.43.25.59.72.83,1.19.83.18,0,.36-.03.52-.1.58-.22,1.07-.85.78-1.68-2.03-6.41-3.16-13.24-4-19.1v.02Z"/><path class="cls-14" d="m222.01,16.47c.08-1.39-.91-2.09-1.87-2.16-.95-.06-2.04.5-2.13,1.89-.7,12.09-.15,22.57,1.68,32.05.14.77.73,1.09,1.29,1.09.07,0,.14,0,.22-.02.61-.09,1.23-.59,1.13-1.47-1.4-9.45-1.5-19.42-.32-31.38Z"/><path class="cls-10" d="m239.42,43.46c-.43-.76-1.4-1.03-2.17-.6-2.56,1.4-6.27,3.11-9.03,1.82-2.12-1.18-2.17-4.46-1.15-7,2.49,1.29,5.86,2.22,8.05-.45,1.04-1.42,1.17-2.85.39-4.01-1-1.48-3.32-2.2-5.39-1.68-1.72.3-3.25,1.3-4.43,2.89-.54-.19-1,.1-1.22.47-.22.37-.24.9.19,1.28-1.7,3.71-1.31,8.75,2.32,10.83,1.25.57,2.48.79,3.7.79,2.41,0,4.76-.88,7.06-1.75.29-.11.58-.22.88-.33.42-.17.76-.51.91-.95.15-.44.11-.92-.12-1.31h.01Zm-10.95-7.87c1.18-1.05,2.81-1.48,4.1-1.08.06.03.12.06.17.09.24.12.3.16.29.31-.15.48-.43.82-.83,1.02-.77.38-2.03.26-3.74-.35h.01Z"/><path class="cls-5" d="m192.58,28.61c-1.32-.26-2.37.81-2.83,2.97-.39,2.28.1,3.26,1.14,3.46.23.04.47.05.72.02.99-.13,2.29-.97,2.7-2.91v-.03c.4-2.28-.68-3.32-1.72-3.52h-.01Z"/><path class="cls-2" d="m54.28,40.56c1.76,0,3.19-1.99,3.19-4.45s-1.43-4.45-3.19-4.45-3.19,1.99-3.19,4.45,1.43,4.45,3.19,4.45Z"/><path class="cls-4" d="m53.61,40.65c1.76,0,3.19-1.99,3.19-4.45s-1.43-4.45-3.19-4.45-3.19,1.99-3.19,4.45,1.43,4.45,3.19,4.45Z"/><path class="cls-7" d="m54.28,40.56c1.76,0,3.19-1.99,3.19-4.45s-1.43-4.45-3.19-4.45-3.19,1.99-3.19,4.45,1.43,4.45,3.19,4.45Z"/><path class="cls-2" d="m25.89,45.53s2.5,9.44,16.81,8.73c6.87-.7,13.14-12.17,11.6-18.27-1.54-6.1-.7-11.5-3.02-14.23,1.61-4-1.4-10.24-1.4-10.24-1.61,2.52-3.37,4.42-3.37,4.42,1.33-4.14-1.12-8.7-1.12-8.7-1.54,2.52-5.68,5.05-5.68,5.05.56-3.09-1.37-6.17-1.37-6.17,0,0-2.77,4.77-6.06,7.57.14-2.95-.77-4.98-.77-4.98,0,0-11.26,8.29-12.83,16.2-.62,3.09,3.51,9.96,3.3,11.99-3.3.28-3.16,4.29-2.03,7.15.82,2.08,4.07,3.72,5.96,1.47h-.02Z"/><path class="cls-4" d="m45.53,42.22s1.78.3,2.72-.73c.28,1.4-.59,2.2-1.87,2.84-1.28.64-2.29-2.58-.85-2.12h0Z"/><path class="cls-4" d="m31.01,10.26s-6.67,14.06-6.8,15.18c-.13,1.12,6.54,8.34,4.95,13.25-1.58,4.91,4.15,15.77,16.4,13.86-3.26,2.77-14.62,3.13-20.03-7.01-1.78,3.4-5.78-1.18-6.26-4.04-.35-1.94,3.81-2.94,5-2.14,1.06-.79-1.12-2.33-1.91-2.78-1.98-2.63-4.37-11.01-3.74-12.13,4.12-9.58,12.39-14.19,12.39-14.19Z"/><path class="cls-6" d="m55.01,35.77c-.64-2.29-.98-4.68-1.19-7.12-.31-2.39-.3-4.85-1.64-7.01.82-2.62.24-5.39-.55-7.92-.39-1.3-1.07-2.69-1.64-3.94-.7,1.12-1.45,2.24-2.26,3.32-.03-2.63-1-5.25-2.27-7.55-1.1,2.07-2.9,3.74-4.85,5.12-.12-2.22-1.08-4.31-2.29-6.19-1.02,1.76-2.15,3.53-3.42,5.14-.59.75-1.21,1.47-1.86,2.15-.15-1.51-.55-2.99-1.21-4.38-4.84,3.69-9.39,7.81-12.43,13.18-.7,1.28-1.26,2.66-1.58,4.14-.28,1.64.2,3.06.65,4.54.7,2.37,2.01,4.6,2.5,6.98-2.94.85-3.04,4.95-2.11,7.44.63,2.67,4.04,4.79,6.62,3.27,2.94,7.07,12.13,9.81,19.16,8.17,6.15-2.47,9.7-9.14,10.59-15.41.14-1.28.1-2.63-.25-3.93h.03Zm-2.06,7.16c-1.81,4.59-5.33,9.85-10.53,10.5-4.02.17-8.36-.47-11.67-2.86-1.8-1.3-3.29-3.08-4.03-5.19-.04-.26-.36-.64-.65-.68-.36-.02-.84.25-1.09.55-1.63,1.35-4.07-.22-4.48-2.11-.6-1.86-1.02-5.18,1.53-5.4l.72-.05.05-.7c.02-1.64-.7-2.94-1.22-4.4-.85-2.34-2.33-5.15-2.08-7.55.27-1.26.76-2.5,1.41-3.67,2.46-4.38,6.24-8.07,10.17-11.23.45,1.76.38,3.72.27,5.47,2.75-2.19,5.01-4.84,6.91-7.76.56,1.36.87,2.89.63,4.29,0,0-.31,1.85-.31,1.86,2.38-1.49,4.78-2.97,6.61-5.11.83,2.16,1.2,4.58.53,6.79l-1,3.5,2.42-2.67c.93-1.04,1.78-2.1,2.57-3.22.12.32.24.64.34.96.84,2.49,1.26,5.37.31,7.76l.29.3c1.53,1.61,1.75,4.28,2.02,6.47.29,2.42.51,4.89,1.09,7.32.51,2.26-.01,4.68-.79,6.84h-.02Z"/><path class="cls-6" d="m33.61,38.1c1.75-.4,3.71-1.31,4.39-3.08.09-.23.35-.34.59-.25.25.08.29.36.32.58.13.66-.08,1.32-.41,1.86-1.04,1.49-2.94,2.19-4.71,1.85-.6-.02-.77-.78-.17-.95h-.01Z"/><path class="cls-6" d="m46.29,33.59c.83,1.45,2.62,2.28,4.24,1.69.4-.12.71.43.4.71l-.13.13c-.83.85-2.2.91-3.23.39-1.03-.5-1.78-1.38-2.05-2.5-.09-.26.02-.56.3-.62.19-.04.38.04.47.2Z"/><path class="cls-6" d="m43.41,45.42c-2.2.59-4.87.11-6.26-1.79.31-.14.64-.23.95-.27.52-.06.5-.85-.03-.87-1.22-.09-2.54.57-2.92,1.79-.15.42-.11.85-.03,1.24.08.5.87.44.87-.07,0-.28.01-.56.12-.79.06-.17.16-.32.28-.46.25.63.66,1.14,1.15,1.57,1.68,1.4,4.19,1.49,6.09.51.51-.17.33-.95-.21-.85h-.01Z"/><path class="cls-6" d="m45.38,39.41c1.57-.19,4.13,1.07,2.61,2.85-.53.64-3.16,1.69-3.3.38.02-1.07,1.4-.5,2.02-.86,1.87-.7-.33-1.74-1.33-1.7-.42,0-.42-.67,0-.67Z"/></svg>