<?xml version="1.0" encoding="utf-8"?>
<!-- Generator: Adobe Illustrator 27.2.0, SVG Export Plug-In . SVG Version: 6.00 Build 0)  -->
<svg version="1.1" id="Layer_3" xmlns="http://www.w3.org/2000/svg" xmlns:xlink="http://www.w3.org/1999/xlink" x="0px" y="0px"
	 viewBox="0 0 257.2 70" style="enable-background:new 0 0 257.2 70;" xml:space="preserve">
<style type="text/css">
	.st0{fill:url(#SVGID_1_);}
	.st1{fill:url(#SVGID_00000116919948524555674760000013217164192114318480_);}
	.st2{opacity:0.1;fill:#FCFDFD;enable-background:new    ;}
	.st3{fill:url(#SVGID_00000153699734914567558620000008080534985822236060_);}
	.st4{fill:url(#SVGID_00000023277995954783551860000006507064341413193098_);}
	.st5{fill:url(#SVGID_00000085224128423788771180000015253103222678558119_);}
	.st6{fill:url(#SVGID_00000085955005637462596390000017684060027719495044_);}
	.st7{fill:url(#SVGID_00000167363395598357600610000015381000309048212912_);}
	.st8{fill:url(#SVGID_00000027567932117522766180000015941873956433588878_);}
	.st9{fill:url(#SVGID_00000072259397387313057160000010756849792309205390_);}
	.st10{fill:url(#SVGID_00000043427737380894107330000013551642442437843623_);}
	.st11{fill:url(#SVGID_00000178914315850985847680000007510476379557911701_);}
	.st12{fill:url(#SVGID_00000180364875314674202220000000689991386556959132_);}
	.st13{fill:#A8D2F4;}
	.st14{fill:#FCFDFD;}
	.st15{fill:#DDEEFC;}
	.st16{fill:none;stroke:#1B507C;stroke-width:1.75;stroke-miterlimit:10;}
	.st17{fill:#1B507C;stroke:#1B507C;stroke-width:0.26;stroke-miterlimit:10;}
	.st18{fill:url(#SVGID_00000083063099238618400480000004649443709815095479_);}
	.st19{opacity:0.3;fill:#173F5F;enable-background:new    ;}
	.st20{opacity:0.1;fill:#A8D2F4;enable-background:new    ;}
	.st21{fill:#72B1E4;}
</style>
<linearGradient id="SVGID_1_" gradientUnits="userSpaceOnUse" x1="-38.8836" y1="127.6272" x2="57.7374" y2="9.386" gradientTransform="matrix(1 0 0 -1 0 72)">
	<stop  offset="0" style="stop-color:#173F5F"/>
	<stop  offset="0.31" style="stop-color:#174061"/>
	<stop  offset="0.5" style="stop-color:#18456A"/>
	<stop  offset="0.65" style="stop-color:#1B4E78"/>
	<stop  offset="0.79" style="stop-color:#1E5B8C"/>
	<stop  offset="0.92" style="stop-color:#236BA7"/>
	<stop  offset="1" style="stop-color:#2779BD"/>
</linearGradient>
<circle class="st0" cx="34.4" cy="34" r="31.4"/>
<linearGradient id="SVGID_00000122692096474814071960000014403999601268484020_" gradientUnits="userSpaceOnUse" x1="8.0702" y1="71.9801" x2="44.3901" y2="25.0301" gradientTransform="matrix(1 0 0 -1 0 72)">
	<stop  offset="0" style="stop-color:#FCFDFD"/>
	<stop  offset="0.43" style="stop-color:#FCFDFE"/>
	<stop  offset="0.69" style="stop-color:#F3F9FE"/>
	<stop  offset="0.91" style="stop-color:#E5F2FC"/>
	<stop  offset="1" style="stop-color:#DDEEFC"/>
</linearGradient>
<path style="fill:url(#SVGID_00000122692096474814071960000014403999601268484020_);" d="M34.4,67.9C15.7,67.9,0.5,52.7,0.5,34
	S15.7,0.1,34.4,0.1S68.3,15.3,68.3,34S53.1,67.9,34.4,67.9z M34.4,3.5C17.5,3.5,3.8,17.2,3.8,34s13.7,30.5,30.5,30.5
	S64.9,50.9,64.9,34S51.2,3.5,34.4,3.5z"/>
<path class="st2" d="M60.9,23.8C48,23.9,26.1,26.1,6.4,39C6.1,37.4,6,35.7,6,34C6,18.3,18.7,5.6,34.4,5.6
	C46.5,5.6,56.8,13.2,60.9,23.8z"/>
<g>
	
		<linearGradient id="SVGID_00000038400497520357887760000008828495899631858863_" gradientUnits="userSpaceOnUse" x1="184.0338" y1="75.7014" x2="201.3338" y2="-92.9486" gradientTransform="matrix(1 0 0 -1 0 72)">
		<stop  offset="0" style="stop-color:#FCFDFD"/>
		<stop  offset="1" style="stop-color:#A8D2F4"/>
	</linearGradient>
	<path style="fill:url(#SVGID_00000038400497520357887760000008828495899631858863_);" d="M197.2,10.8c-0.8,0.4-1.3,1.4-0.7,2.6l0,0
		c1.6,2.8,2.6,6.4,3.3,11.1c0.5,4.2,0.5,8.2-0.1,11.8c-0.4,2.3-0.9,3.8-1.6,4.6c-1.9-1.7-3.8-4.1-5.3-7c-0.3-0.6-0.6-1.2-0.9-1.8
		c-0.8-1.7-1.7-3.5-3.3-4.7c-1.4-0.8-2.8-0.5-3.7,0.8v0c-1,3-2.4,5.9-4.2,9c-0.1,0.2-0.2,0.3-0.3,0.5c-0.6,1.1-1.4,2.3-2.1,2.8
		c0,0,0,0-0.1-0.1c-0.7-1-1.2-2.3-1.5-3.4c-1.1-3.9-1.6-8.2-1.9-11.9c-0.3-3.7-0.5-8-0.4-12.1c0-1.1-0.8-1.6-1.5-1.7
		c-0.8,0-1.6,0.4-1.7,1.5c-1,7.1-1.5,24.8,3.4,31c1.2,1.3,2.5,1.7,3.5,1.7c0.1,0,0.2,0,0.4,0c1.7-0.1,3.4-1.2,4.5-2.9
		c2-3.3,3.6-6.6,4.8-10.2c0.3,0.5,0.5,1.1,0.8,1.7c0.3,0.6,0.5,1.2,0.8,1.7c1.6,3.3,3.6,6.1,5.9,8.2c0.8,0.8,2,1.3,3.1,1.3h0
		c1.1,0,2.1-0.4,2.8-1.2c1.8-2.1,2.2-4,2.6-6.2c0.1-0.3,0.1-0.5,0.2-0.8c1.2-9.8-0.1-18.4-3.9-25.5C199.1,10.4,198,10.4,197.2,10.8
		L197.2,10.8z"/>
	
		<linearGradient id="SVGID_00000097494371685855457230000017758328563856474009_" gradientUnits="userSpaceOnUse" x1="99.6614" y1="69.4112" x2="118.9314" y2="-118.4588" gradientTransform="matrix(1 0 0 -1 0 72)">
		<stop  offset="0" style="stop-color:#FCFDFD"/>
		<stop  offset="1" style="stop-color:#A8D2F4"/>
	</linearGradient>
	<path style="fill:url(#SVGID_00000097494371685855457230000017758328563856474009_);" d="M121.4,30.9c0.7,0.1,1.2-0.4,1.4-0.9
		c0.2-0.5,0.1-1.2-0.4-1.6c-3.3-2.8-7.4-2.3-11.4-1.8l-0.7,0.1c-4.1,0.6-7.7,1.6-11,3c-0.7,0.2-1.3,0.9-1.1,1.8
		c0.1,0.4,0.3,0.7,0.6,0.9s0.7,0.3,1.1,0.2c1.6-0.3,3.4-0.6,5.3-0.9c4.3-0.6,7.8-0.9,11-0.9c-1.3,5-5.3,9.2-10.3,11
		c-4.5,1.6-9.1,1.1-12.8-1.5c-4.7-3.3-6.7-8.8-5.4-14.7c1.4-6.4,6.4-11.6,12.5-12.7c5-1.1,10.4,0.8,13.5,4.7
		c0.8,0.9,1.8,0.8,2.4,0.3c0.7-0.5,1-1.5,0.3-2.4c-3.5-5.2-9.2-7.8-15.6-7.3C93.7,8.6,87,13.2,84,19.8c-3.8,8-2.3,17,3.8,22.8
		c3.5,3.4,7.9,5.1,12.6,5.1c3.1,0,6.2-0.8,9.3-2.3c5.5-3,9.4-8.6,10.3-14.7C120.4,30.8,120.9,30.8,121.4,30.9L121.4,30.9z"/>
	
		<linearGradient id="SVGID_00000144314495069106997830000004456887741412000690_" gradientUnits="userSpaceOnUse" x1="133.1603" y1="68.72" x2="149.7503" y2="-93" gradientTransform="matrix(1 0 0 -1 0 72)">
		<stop  offset="0" style="stop-color:#FCFDFD"/>
		<stop  offset="1" style="stop-color:#A8D2F4"/>
	</linearGradient>
	<path style="fill:url(#SVGID_00000144314495069106997830000004456887741412000690_);" d="M136,44.4c0.2,0,0.4,0,0.7,0
		c1.7,0,3.1-0.5,4.2-1.6c2.5-2.4,3-6.8,3-10.2c1.3-0.8,3.1-1.7,4.4-1.4c1.3,0.5,1.3,2.3,1.2,3.8c0,0.2,0,0.3,0,0.5
		c0,0.6,0.3,1.1,0.9,1.2c0.3,0.1,0.7,0.1,1-0.1c0.3-0.2,0.6-0.6,0.7-1c0.3-1,0.6-2.3,0.4-3.8c-0.3-1.8-1.2-3.1-2.6-3.7
		c-1.7-0.7-4.1-0.3-6.1,1c0-0.2-0.1-0.4-0.1-0.6c-0.1-0.6-0.6-0.9-1-0.9l0,0c-0.4,0-0.9,0.3-1,0.9c-0.3,2.7-0.6,5.2-1.1,7.5
		c-0.5,1.9-1.2,4.7-3.6,4.9c-1.3,0.1-1.5,0-1.7-1c-0.2-3.3,1.1-6.8,2.3-9.9l0.3-0.8c0.2-0.6-0.1-1.1-0.5-1.3c-0.4-0.2-1-0.1-1.3,0.5
		l-0.2,0.4c-0.2,0.4-0.4,0.9-0.7,1.5c-0.6-1.3-1.6-2.1-3-2.5c-2.1-0.5-4.9,0.2-6.9,1.8c-2.5,1.8-4.1,4.5-4.5,7.2
		c-0.3,2,0.2,4,1.5,5.4c1.2,1.3,2.8,1.9,4.6,1.7c2-0.2,4.1-1.2,5.7-2.8C132.9,43.2,134.1,44.2,136,44.4L136,44.4L136,44.4z
		 M132,37.7c-1.4,2-3.4,3.3-5.4,3.4c-1.3,0.1-2.3-0.6-2.6-1.7c-0.4-1.7,0-3.6,1.3-5.4c1.4-2,3.4-3.3,5.4-3.5c0.1,0,0.1,0,0.2,0
		c1.2,0,2.1,0.6,2.4,1.7C133.7,33.9,133.2,35.9,132,37.7L132,37.7z"/>
	
		<linearGradient id="SVGID_00000096035460093167369790000011824150905430522006_" gradientUnits="userSpaceOnUse" x1="146.0612" y1="70.0391" x2="162.6512" y2="-91.6609" gradientTransform="matrix(1 0 0 -1 0 72)">
		<stop  offset="0" style="stop-color:#FCFDFD"/>
		<stop  offset="1" style="stop-color:#A8D2F4"/>
	</linearGradient>
	<path style="fill:url(#SVGID_00000096035460093167369790000011824150905430522006_);" d="M154.7,67.1c-2.2,0.5-4.3,0.7-6.2,0.7
		c-2.4,0-4.6-0.4-6.6-1.2c-3.1-1.2-5.4-3.2-6.8-5.9c-2.2-4.4-1.4-9.5,2-12.5c2.3-2,5.4-2.8,9.2-2.5c4.4,0.5,10.9,3.7,16.3,7.4
		c0.3,0.2,0.6,0.4,0.8,0.6c-0.2,0.7-0.6,1.4-1,2.2c-0.3-0.1-17.8-9.7-23.3-5c-1.6,1.6-2.1,3.8-1.6,6.2c0.7,2.9,2.8,5.4,5.4,6.3
		c6.7,2.2,16.1,0.7,20.2-5.6c2.4-3.5,3.1-8.4,2-13.4c-0.4-1.9-0.8-3.7-1.1-5.4c-0.6,1.5-1.6,3.3-3.3,4.4c-1.7,1.1-4.1,1-5.7-0.4
		c-3.4-3.3-1.7-8.6-0.3-11.5l0-0.1c0.6-1.1,2.2-3.8,3.8-4c0.5-0.1,1,0.1,1.5,0.6c0.3,0.4,0.4,0.8,0.3,1.2s-0.3,0.8-0.7,1.1
		c-2.4,2-3.8,6.2-3.1,9.1c0.3,0.8,0.7,1.2,1.4,1.3c0.7,0.1,1.5-0.4,2-1.2c2-3,2.7-6.9,3.2-10.7V29h0c0.2-1,0.8-1.4,1.7-1.4l0,0
		c0.4,0,0.9,0.2,1.1,0.6s0.4,0.8,0.4,1.2v0.1c-0.3,4,0.5,8,1.2,11.9c0.4,1.9,0.7,3.8,1,5.7C169.6,56.7,163.8,65.1,154.7,67.1
		L154.7,67.1z"/>
	
		<linearGradient id="SVGID_00000079481882884536855850000018305354549005237402_" gradientUnits="userSpaceOnUse" x1="204.2263" y1="75.6706" x2="220.8163" y2="-86.0494" gradientTransform="matrix(1 0 0 -1 0 72)">
		<stop  offset="0" style="stop-color:#FCFDFD"/>
		<stop  offset="1" style="stop-color:#A8D2F4"/>
	</linearGradient>
	<path style="fill:url(#SVGID_00000079481882884536855850000018305354549005237402_);" d="M209.3,34.4c0-0.7-0.5-1.1-1-1.2
		s-1.1,0.2-1.3,0.8c-0.8,2.8-0.5,6.1,0.9,9.5c0.2,0.6,0.9,1,1.5,1c0.2,0,0.4,0,0.6-0.1c0.8-0.3,1.2-1.2,0.9-2.1
		C209.9,39.9,209.4,37.1,209.3,34.4L209.3,34.4z"/>
	
		<linearGradient id="SVGID_00000137091467620047097720000009128036460216692633_" gradientUnits="userSpaceOnUse" x1="215.3061" y1="76.7996" x2="231.8961" y2="-84.9104" gradientTransform="matrix(1 0 0 -1 0 72)">
		<stop  offset="0" style="stop-color:#FCFDFD"/>
		<stop  offset="1" style="stop-color:#A8D2F4"/>
	</linearGradient>
	<path style="fill:url(#SVGID_00000137091467620047097720000009128036460216692633_);" d="M224.5,31.1L224.5,31.1
		c-1.2-1.3-3.1-2.1-5-2.1c-0.1,0-0.1,0-0.2,0c-1.5,0-2.9,0.6-3.8,1.6c0-0.3,0.1-0.7,0.1-1c0.1-0.4,0-0.7-0.2-1
		c-0.2-0.3-0.5-0.5-0.9-0.5c-0.4,0-0.7,0-1,0.3c-0.3,0.2-0.5,0.5-0.5,0.9c-0.1,1.1-0.2,2.2-0.3,3.5c-0.1,3.7,0.2,7.1,1.1,10.3
		c0.2,0.8,0.9,1.1,1.5,1c0.6-0.1,1.2-0.6,1.1-1.4c-0.2-2.8-0.1-5,0.4-6.8c0.5-1.8,1.1-3.3,2.9-3.1c1.9,0.3,2.7,1.2,2.9,3.2
		c0.2,1.9-0.2,4.2-0.6,6.5l0,0.2c-0.2,0.8,0.3,1.5,1.1,1.8c0.2,0,0.3,0.1,0.5,0.1c0.2,0,0.5-0.1,0.7-0.2c0.4-0.2,0.6-0.5,0.8-0.9
		c0.9-2.7,1.4-5,1.4-7.8C226.1,33.7,225.6,32.2,224.5,31.1L224.5,31.1z"/>
	
		<linearGradient id="SVGID_00000140718307481871639380000001081185640557194907_" gradientUnits="userSpaceOnUse" x1="220.2914" y1="77.3101" x2="236.8814" y2="-84.3999" gradientTransform="matrix(1 0 0 -1 0 72)">
		<stop  offset="0" style="stop-color:#FCFDFD"/>
		<stop  offset="1" style="stop-color:#A8D2F4"/>
	</linearGradient>
	<path style="fill:url(#SVGID_00000140718307481871639380000001081185640557194907_);" d="M229.3,25.1c0.8,0.2,1.5,0.4,2.2,0.6
		c0.6,0.2,1.4,0,1.7-0.6c0.2-0.3,0.2-0.7,0.1-1c-0.1-0.3-0.4-0.6-0.7-0.8c-1.2-0.6-2.4-1-3.7-1.3c-0.1-0.8-0.2-1.6-0.3-2.4
		c-0.3-2.2-0.6-4.6-0.9-6.9c-0.2-1.2-1.1-1.6-2-1.5c-0.9,0.1-1.6,0.8-1.5,2c0.3,2,0.7,4,1,6c0.1,0.8,0.2,1.5,0.4,2.3
		c-3.9-0.2-7.8,0.5-11.2,2.1c-0.8,0.4-0.9,1.1-0.7,1.7c0.2,0.5,0.8,1,1.6,0.8c3.5-0.8,7.2-1.5,10.8-1.3c1.1,6.6,2.4,13.6,4.8,20.4
		c0.2,0.6,0.7,0.8,1.2,0.8c0.2,0,0.4,0,0.5-0.1c0.6-0.2,1.1-0.8,0.8-1.7C231.2,37.8,230.1,30.9,229.3,25.1L229.3,25.1z"/>
	
		<linearGradient id="SVGID_00000075884609074628894430000016301605677742222006_" gradientUnits="userSpaceOnUse" x1="233.7508" y1="78.6991" x2="250.3409" y2="-83.0209" gradientTransform="matrix(1 0 0 -1 0 72)">
		<stop  offset="0" style="stop-color:#FCFDFD"/>
		<stop  offset="1" style="stop-color:#A8D2F4"/>
	</linearGradient>
	<path style="fill:url(#SVGID_00000075884609074628894430000016301605677742222006_);" d="M238.8,13.1L238.8,13.1
		c0.1-1.4-0.9-2.1-1.9-2.2c-0.9-0.1-2,0.5-2.1,1.9c-0.7,12.1-0.1,22.6,1.7,32c0.1,0.8,0.7,1.1,1.3,1.1c0.1,0,0.1,0,0.2,0
		c0.6-0.1,1.2-0.6,1.1-1.5C237.7,35,237.6,25,238.8,13.1L238.8,13.1z"/>
	
		<linearGradient id="SVGID_00000137823589718690251900000006154503967100279183_" gradientUnits="userSpaceOnUse" x1="243.5802" y1="79.709" x2="260.1702" y2="-82.011" gradientTransform="matrix(1 0 0 -1 0 72)">
		<stop  offset="0" style="stop-color:#FCFDFD"/>
		<stop  offset="1" style="stop-color:#A8D2F4"/>
	</linearGradient>
	<path style="fill:url(#SVGID_00000137823589718690251900000006154503967100279183_);" d="M256.2,40c-0.4-0.8-1.4-1-2.2-0.6
		c-2.6,1.4-6.3,3.1-9,1.8c-2.1-1.2-2.2-4.5-1.1-7c2.5,1.3,5.9,2.2,8.1-0.5c1-1.4,1.2-2.9,0.4-4c-1-1.5-3.3-2.2-5.4-1.7
		c-1.7,0.3-3.2,1.3-4.4,2.9c-0.5-0.2-1,0.1-1.2,0.5c-0.2,0.4-0.2,0.9,0.2,1.3c-1.7,3.7-1.3,8.8,2.3,10.8c1.2,0.6,2.5,0.8,3.7,0.8
		c2.4,0,4.8-0.9,7.1-1.8c0.3-0.1,0.6-0.2,0.9-0.3c0.4-0.2,0.8-0.5,0.9-1C256.4,40.9,256.4,40.4,256.2,40L256.2,40z M245.2,32.2
		c1.2-1,2.8-1.5,4.1-1.1c0.1,0,0.1,0.1,0.2,0.1c0.2,0.1,0.3,0.2,0.3,0.3c-0.1,0.5-0.4,0.8-0.8,1C248.2,32.9,246.9,32.8,245.2,32.2
		L245.2,32.2z"/>
	
		<linearGradient id="SVGID_00000092452814877635794970000005806817038802385310_" gradientUnits="userSpaceOnUse" x1="205.4153" y1="75.7905" x2="222.0053" y2="-85.9294" gradientTransform="matrix(1 0 0 -1 0 72)">
		<stop  offset="0" style="stop-color:#FCFDFD"/>
		<stop  offset="1" style="stop-color:#A8D2F4"/>
	</linearGradient>
	<path style="fill:url(#SVGID_00000092452814877635794970000005806817038802385310_);" d="M209.3,25.2c-1.3-0.3-2.4,0.8-2.8,3
		c-0.4,2.3,0.1,3.3,1.1,3.5c0.2,0,0.5,0,0.7,0c1-0.1,2.3-1,2.7-2.9v0C211.4,26.4,210.4,25.4,209.3,25.2L209.3,25.2z"/>
	<path class="st13" d="M206.9,57c-0.6-0.7-1.6-0.6-2.9,0.3c-1.2,1-1.4,1.8-0.9,2.4c0.1,0.1,0.2,0.2,0.4,0.3c0.6,0.4,1.7,0.5,2.8-0.3
		h0C207.5,58.6,207.4,57.6,206.9,57L206.9,57z"/>
</g>
<g>
	<g>
		<ellipse class="st14" cx="51.4" cy="38.9" rx="3.3" ry="4.6"/>
		<ellipse class="st15" cx="50.7" cy="39" rx="3.3" ry="4.6"/>
		<ellipse class="st16" cx="51.4" cy="38.9" rx="3.3" ry="4.6"/>
		<g>
			<path class="st14" d="M21.9,48.7c0,0,2.6,9.8,17.4,9.1c7.1-0.7,13.7-12.6,12-19c-1.6-6.3-0.7-11.9-3.1-14.8
				c1.7-4.1-1.5-10.6-1.5-10.6C45.1,16,43.3,18,43.3,18c1.4-4.3-1.2-9-1.2-9c-1.6,2.6-5.9,5.2-5.9,5.2c0.6-3.2-1.4-6.4-1.4-6.4
				s-2.9,4.9-6.3,7.9c0.1-3.1-0.8-5.2-0.8-5.2S16,19.1,14.4,27.3c-0.6,3.2,3.6,10.3,3.4,12.4c-3.4,0.3-3.3,4.5-2.1,7.4
				C16.5,49.3,19.9,51,21.9,48.7L21.9,48.7z"/>
			<path class="st15" d="M42.3,45.3c0,0,1.8,0.3,2.8-0.8c0.3,1.5-0.6,2.3-1.9,3S40.8,44.8,42.3,45.3z"/>
			<path class="st15" d="M27.2,12.1c0,0-6.9,14.6-7.1,15.8s6.8,8.7,5.1,13.8c-1.6,5.1,4.3,16.4,17,14.4c-3.4,2.9-15.2,3.2-20.8-7.3
				c-1.9,3.5-6-1.2-6.5-4.2c-0.4-2,4-3,5.2-2.2c1.1-0.8-1.2-2.4-2-2.9c-2.1-2.7-4.5-11.4-3.9-12.6C18.6,16.9,27.2,12.1,27.2,12.1
				L27.2,12.1z"/>
			<path class="st17" d="M52.1,38.6c-0.7-2.4-1-4.9-1.2-7.4c-0.3-2.5-0.3-5-1.7-7.3c0.8-2.7,0.2-5.6-0.6-8.2
				c-0.4-1.4-1.1-2.8-1.7-4.1c-0.7,1.2-1.5,2.3-2.3,3.4c0-2.7-1-5.4-2.4-7.8c-1.2,2.2-3,3.9-5,5.3c-0.1-2.3-1.1-4.5-2.4-6.4
				c-1.1,1.8-2.2,3.7-3.5,5.3c-0.6,0.8-1.2,1.5-1.9,2.2c-0.1-1.6-0.6-3.1-1.2-4.6c-5,3.8-9.8,8.1-12.9,13.7
				c-0.7,1.3-1.3,2.8-1.6,4.3c-0.3,1.7,0.2,3.2,0.7,4.7c0.7,2.5,2.1,4.8,2.6,7.3c-3.1,0.9-3.2,5.1-2.2,7.7c0.6,2.8,4.2,5,6.9,3.4
				c3.1,7.3,12.6,10.2,19.9,8.5c6.4-2.6,10.1-9.5,11-16C52.5,41.3,52.5,39.9,52.1,38.6L52.1,38.6z M50,46
				c-1.9,4.8-5.5,10.2-10.9,10.9c-4.2,0.2-8.7-0.5-12.1-3c-1.9-1.3-3.4-3.2-4.2-5.4c0-0.3-0.4-0.7-0.7-0.7c-0.4,0-0.9,0.3-1.1,0.6
				c-1.7,1.4-4.2-0.2-4.7-2.2c-0.6-1.9-1.1-5.4,1.6-5.6l0.8,0l0-0.7c0-1.7-0.7-3.1-1.3-4.6c-0.9-2.4-2.4-5.4-2.2-7.8
				c0.3-1.3,0.8-2.6,1.5-3.8c2.6-4.5,6.5-8.4,10.6-11.7c0.5,1.8,0.4,3.9,0.3,5.7c2.9-2.3,5.2-5,7.2-8.1c0.6,1.4,0.9,3,0.7,4.5L35,16
				c2.5-1.5,5-3.1,6.9-5.3c0.9,2.2,1.2,4.8,0.5,7.1l-1,3.6l2.5-2.8c1-1.1,1.8-2.2,2.7-3.4c0.1,0.3,0.2,0.7,0.3,1
				c0.9,2.6,1.3,5.6,0.3,8.1l0.3,0.3c1.6,1.7,1.8,4.4,2.1,6.7c0.3,2.5,0.5,5.1,1.1,7.6C51.3,41.2,50.8,43.8,50,46L50,46z"/>
		</g>
	</g>
	<g>
		<path class="st17" d="M29.9,41c1.8-0.4,3.8-1.4,4.5-3.2c0.1-0.2,0.4-0.4,0.6-0.3c0.3,0.1,0.3,0.4,0.3,0.6c0.1,0.7-0.1,1.4-0.4,1.9
			c-1.1,1.5-3.1,2.3-4.9,1.9C29.4,42,29.3,41.2,29.9,41L29.9,41L29.9,41z"/>
		<path class="st17" d="M43.1,36.3c0.9,1.5,2.7,2.4,4.4,1.8c0.4-0.1,0.7,0.5,0.4,0.7l-0.1,0.1c-0.9,0.9-2.3,1-3.3,0.4
			c-1.1-0.5-1.8-1.4-2.1-2.6c-0.1-0.3,0-0.6,0.3-0.6C42.8,36.1,43,36.2,43.1,36.3L43.1,36.3L43.1,36.3z"/>
		<path class="st17" d="M40.1,48.6c-2.3,0.6-5,0.1-6.5-1.8c0.3-0.2,0.7-0.2,1-0.3c0.5-0.1,0.5-0.9,0-0.9c-1.3-0.1-2.6,0.6-3,1.9
			c-0.1,0.4-0.1,0.9,0,1.3c0.1,0.5,0.9,0.5,0.9-0.1c0-0.3,0-0.6,0.1-0.8c0.1-0.2,0.2-0.3,0.3-0.5C33,48,33.5,48.5,34,49
			c1.8,1.5,4.4,1.5,6.3,0.5C40.8,49.3,40.6,48.5,40.1,48.6z"/>
		<path class="st17" d="M42.1,42.3c1.6-0.2,4.3,1.1,2.7,3c-0.5,0.7-3.3,1.8-3.4,0.4c0-1.1,1.5-0.5,2.1-0.9c1.9-0.7-0.3-1.8-1.4-1.8
			C41.7,43,41.7,42.4,42.1,42.3C42.1,42.3,42.1,42.3,42.1,42.3z"/>
	</g>
</g>
<linearGradient id="SVGID_00000051363189567217439750000008197825661360793780_" gradientUnits="userSpaceOnUse" x1="168" y1="12.5245" x2="199.1006" y2="12.5245" gradientTransform="matrix(1 0 0 -1 0 72)">
	<stop  offset="0" style="stop-color:#EFF8FF"/>
	<stop  offset="1" style="stop-color:#A8D2F4"/>
</linearGradient>
<path style="fill:url(#SVGID_00000051363189567217439750000008197825661360793780_);" d="M196.5,61.4c-5.6,3.5-26.2-1.1-28.5-2.5
	c0.5-0.9,0.9-1.8,1.1-2.6c3.9,2.3,16.9,4.1,22.2,2.2C196.7,56.6,202.6,57.6,196.5,61.4z"/>
<path class="st19" d="M170.5,57c-0.3,1-0.8,1.8-1.2,2.4c-0.6-0.2-1-0.4-1.3-0.5c0.5-0.9,0.9-1.8,1.1-2.6
	C169.5,56.5,170,56.7,170.5,57L170.5,57z"/>
<path class="st20" d="M170.5,57c-0.3,1-0.8,1.8-1.2,2.4c-0.6-0.2-1-0.4-1.3-0.5c0.5-0.9,0.9-1.8,1.1-2.6
	C169.5,56.5,170,56.7,170.5,57L170.5,57z"/>
<g>
	<path class="st21" d="M218.4,56.3c-0.2,1.5-1.5,2.2-3,2.2c-3.3-0.1-3.7-4.6-1-6c1.2-0.7,2.8-0.5,3.7,0.7c0.4,0.5,1.3,0,0.9-0.6
		c-1-1.8-3.6-2.4-5.4-1.5c-3,1.2-3.9,5.9-1.3,8c2.3,2.3,7.3,0.8,7.1-2.7C219.6,55.8,218.5,55.6,218.4,56.3L218.4,56.3z"/>
	<path class="st21" d="M235.1,52.8c-0.4-0.8-1.2-1.4-2.4-1.3c-0.9,0.2-1.5,0.6-2,1.2c0-0.4,0.1-0.8,0.1-1.3c0.1-0.9-1.2-1-1.3-0.2
		c-0.2,2.6-0.1,5.1,0.4,7.6l0,0l0,0c0,0,0,0,0,0.1c0.1,0.3,0.4,0.5,0.7,0.5c0.4,0,0.6-0.4,0.6-0.7c-0.2-1.8-0.3-3.7,0.5-5.2
		c0.4-0.7,1.6-1,2.1-0.2c0.5,1.4,0.6,3.1,0.9,4.7c0.1,0.2,0.1,0.5,0.1,0.8c0,0,0,0,0,0l0,0c0,0,0,0,0,0c0.1,0.5,0.6,0.8,1,0.6
		c0.4-0.1,0.7-0.6,0.6-1l0,0l0,0c-0.4-2.3-0.5-6.3,2.7-6.1c0.6,0,1.1,0.2,1.3,0.5c0.8,1.8-0.3,4.2-1.1,6c-0.2,0.4,0,0.8,0.4,1
		c0.4,0.2,0.9,0.1,1.1-0.3c0.8-1.5,1.5-3,1.7-4.8C243.5,49.7,236.8,49,235.1,52.8L235.1,52.8z"/>
	<path class="st21" d="M226.7,51.9c-4.4-3.5-9.1,3.9-4.9,7.3C226.6,62.6,231,55.2,226.7,51.9z M223,57.7c-2.4-1.8,0-6.8,2.9-4.8
		C228.4,54.8,226,59.7,223,57.7z"/>
</g>
</svg>
