<?xml version="1.0" encoding="UTF-8"?>
<svg id="Layer_2" data-name="Layer 2" xmlns="http://www.w3.org/2000/svg" xmlns:xlink="http://www.w3.org/1999/xlink" viewBox="0 0 1421.13 395.87">
  <defs>
    <style>
      .cls-1 {
        stroke-width: 2.1px;
      }

      .cls-1, .cls-2, .cls-3 {
        fill: #72b1e4;
      }

      .cls-1, .cls-3 {
        stroke: #72b1e4;
        stroke-miterlimit: 10;
      }

      .cls-4 {
        fill: url(#linear-gradient-12);
      }

      .cls-4, .cls-5, .cls-6, .cls-7, .cls-8, .cls-9, .cls-10, .cls-11, .cls-12, .cls-2, .cls-13, .cls-14, .cls-15, .cls-16, .cls-17, .cls-18, .cls-19, .cls-20, .cls-21 {
        stroke-width: 0px;
      }

      .cls-5 {
        fill: url(#linear-gradient);
      }

      .cls-6 {
        fill: url(#linear-gradient-6);
      }

      .cls-7 {
        fill: #fcfdfd;
      }

      .cls-8 {
        fill: url(#linear-gradient-11);
      }

      .cls-9 {
        fill: url(#linear-gradient-5);
      }

      .cls-10 {
        fill: url(#linear-gradient-2);
      }

      .cls-10, .cls-2 {
        opacity: .3;
      }

      .cls-11 {
        fill: url(#linear-gradient-13);
      }

      .cls-12 {
        fill: #fff;
      }

      .cls-13 {
        fill: url(#linear-gradient-14);
      }

      .cls-14 {
        fill: url(#linear-gradient-7);
      }

      .cls-15 {
        fill: url(#linear-gradient-3);
      }

      .cls-16 {
        fill: url(#linear-gradient-9);
      }

      .cls-17 {
        fill: #71aee1;
      }

      .cls-18 {
        fill: #122d3d;
      }

      .cls-19 {
        fill: url(#linear-gradient-8);
      }

      .cls-3 {
        stroke-width: 2px;
      }

      .cls-22 {
        opacity: .2;
      }

      .cls-23 {
        fill: #4293d7;
        font-family: Poppins-SemiBold, Poppins;
        font-size: 14px;
        font-weight: 600;
      }

      .cls-20 {
        fill: url(#linear-gradient-10);
      }

      .cls-21 {
        fill: url(#linear-gradient-4);
      }
    </style>
    <linearGradient id="linear-gradient" x1="-124.98" y1="-247.6" x2="440.88" y2="530.86" gradientUnits="userSpaceOnUse">
      <stop offset=".52" stop-color="#122d3d"/>
      <stop offset=".58" stop-color="#133042"/>
      <stop offset=".66" stop-color="#193c53"/>
      <stop offset=".76" stop-color="#214e6f"/>
      <stop offset=".86" stop-color="#2d6896"/>
      <stop offset=".97" stop-color="#3d88c7"/>
      <stop offset="1" stop-color="#4293d7"/>
    </linearGradient>
    <linearGradient id="linear-gradient-2" x1="229.95" y1="21.22" x2="24.42" y2="264.16" gradientUnits="userSpaceOnUse">
      <stop offset="0" stop-color="#72b1e4" stop-opacity="0"/>
      <stop offset=".48" stop-color="#72b1e4"/>
      <stop offset="1" stop-color="#72b1e4" stop-opacity="0"/>
    </linearGradient>
    <linearGradient id="linear-gradient-3" x1="389.46" y1="427.85" x2="-81.25" y2="-142.67" gradientUnits="userSpaceOnUse">
      <stop offset=".45" stop-color="#72b1e4"/>
      <stop offset="1" stop-color="#4293d7"/>
    </linearGradient>
    <linearGradient id="linear-gradient-4" x1="868.85" y1="155.58" x2="946.7" y2="498.29" gradientUnits="userSpaceOnUse">
      <stop offset="0" stop-color="#fcfdfd"/>
      <stop offset="1" stop-color="#ddeefc"/>
    </linearGradient>
    <linearGradient id="linear-gradient-5" x1="498.34" y1="235.55" x2="579.91" y2="594.63" xlink:href="#linear-gradient-4"/>
    <linearGradient id="linear-gradient-6" x1="640.68" y1="207.41" x2="718.53" y2="550.12" xlink:href="#linear-gradient-4"/>
    <linearGradient id="linear-gradient-7" x1="694.2" y1="195.25" x2="772.05" y2="537.97" xlink:href="#linear-gradient-4"/>
    <linearGradient id="linear-gradient-8" x1="953.22" y1="136.42" x2="1031.06" y2="479.13" xlink:href="#linear-gradient-4"/>
    <linearGradient id="linear-gradient-9" x1="1006.53" y1="124.31" x2="1084.37" y2="467.02" xlink:href="#linear-gradient-4"/>
    <linearGradient id="linear-gradient-10" x1="1039.1" y1="113.36" x2="1116.95" y2="456.08" xlink:href="#linear-gradient-4"/>
    <linearGradient id="linear-gradient-11" x1="1100.6" y1="99.39" x2="1178.44" y2="442.11" xlink:href="#linear-gradient-4"/>
    <linearGradient id="linear-gradient-12" x1="1139.27" y1="93.61" x2="1217.12" y2="436.32" xlink:href="#linear-gradient-4"/>
    <linearGradient id="linear-gradient-13" x1="1011.93" y1="247.69" x2="955.61" y2="154.13" xlink:href="#linear-gradient-3"/>
    <linearGradient id="linear-gradient-14" x1="983.97" y1="269.92" x2="969.54" y2="82.83" xlink:href="#linear-gradient-4"/>
  </defs>
  <g>
    <text class="cls-23" transform="translate(1208.83 1786.62) rotate(-76.2)"><tspan x="0" y="0">B</tspan></text>
    <text class="cls-23" transform="translate(1211 1778.04) rotate(-73.45)"><tspan x="0" y="0">i</tspan></text>
    <text class="cls-23" transform="translate(1212.01 1774.38) rotate(-70.59)"><tspan x="0" y="0">g</tspan></text>
    <text class="cls-23" transform="translate(1215.19 1765.58) rotate(-67.85)"><tspan x="0" y="0"> </tspan></text>
    <text class="cls-23" transform="translate(1216.35 1762.55) rotate(-65.23)"><tspan x="0" y="0">o</tspan></text>
    <text class="cls-23" transform="translate(1220.1 1754.58) rotate(-62.49)"><tspan x="0" y="0">l</tspan></text>
    <text class="cls-23" transform="translate(1221.87 1751.16) rotate(-60.82)"><tspan x="0" y="0">’</tspan></text>
    <text class="cls-23" transform="translate(1223.71 1747.89) rotate(-59.3)"><tspan x="0" y="0"> </tspan></text>
    <text class="cls-23" transform="translate(1225.31 1745.06) rotate(-56.73)"><tspan x="0" y="0">e</tspan></text>
    <text class="cls-23" transform="translate(1229.82 1737.92) rotate(-51.73)"><tspan x="0" y="0">m</tspan></text>
    <text class="cls-23" transform="translate(1238.85 1726.66) rotate(-46.54)"><tspan x="0" y="0">a</tspan></text>
    <text class="cls-23" transform="translate(1245.34 1719.9) rotate(-43.64)"><tspan x="0" y="0">i</tspan></text>
    <text class="cls-23" transform="translate(1248.13 1717.25) rotate(-41.95)"><tspan x="0" y="0">l</tspan></text>
    <text class="cls-23" transform="translate(1250.97 1714.7) rotate(-40.39)"><tspan x="0" y="0"> </tspan></text>
    <text class="cls-23" transform="translate(1253.38 1712.54) rotate(-37.61)"><tspan x="0" y="0">b</tspan></text>
    <text class="cls-23" transform="translate(1260.74 1706.87) rotate(-33.56)"><tspan x="0" y="0">u</tspan></text>
    <text class="cls-23" transform="translate(1268.37 1701.86) rotate(-30.4)"><tspan x="0" y="0">t</tspan></text>
    <text class="cls-23" transform="translate(1273 1699.15) rotate(-28.05)"><tspan x="0" y="0">t</tspan></text>
    <text class="cls-23" transform="translate(1277.63 1696.62) rotate(-25)"><tspan x="0" y="0">o</tspan></text>
    <text class="cls-23" transform="translate(1285.55 1692.87) rotate(-20.56)"><tspan x="0" y="0">n</tspan></text>
    <text class="cls-23" transform="translate(1294.14 1689.66) rotate(-18.48)"><tspan x="0" y="0"> </tspan></text>
    <text class="cls-23" transform="translate(1297.18 1688.58) rotate(-15.87)"><tspan x="0" y="0">o</tspan></text>
    <text class="cls-23" transform="translate(1305.68 1686.22) rotate(-12.91)"><tspan x="0" y="0">f</tspan></text>
    <text class="cls-23" transform="translate(1310.31 1685.16) rotate(-11.16)"><tspan x="0" y="0"> </tspan></text>
    <text class="cls-23" transform="translate(1313.45 1684.47) rotate(-8.39)"><tspan x="0" y="0">d</tspan></text>
    <text class="cls-23" transform="translate(1322.68 1683.12) rotate(-4.46)"><tspan x="0" y="0">e</tspan></text>
    <text class="cls-23" transform="translate(1331.17 1682.46) rotate(-.93)"><tspan x="0" y="0">s</tspan></text>
    <text class="cls-23" transform="translate(1338.66 1682.37) rotate(1.88)"><tspan x="0" y="0">t</tspan></text>
    <text class="cls-23" transform="translate(1344 1682.55) rotate(3.89)"><tspan x="0" y="0">i</tspan></text>
    <text class="cls-23" transform="translate(1347.76 1682.74) rotate(6.72)"><tspan x="0" y="0">n</tspan></text>
    <text class="cls-23" transform="translate(1356.79 1683.81) rotate(10.53)"><tspan x="0" y="0">y</tspan></text>
  </g>
  <g>
    <circle class="cls-5" cx="192.18" cy="188.73" r="177.84"/>
    <path class="cls-10" d="m20.53,194.92C20.53,96.7,100.15,17.07,198.37,17.07c47.54,0,90.71,18.65,122.62,49.03-32.39-34.02-78.13-55.22-128.81-55.22C93.96,10.88,14.34,90.51,14.34,188.73c0,50.68,21.2,96.42,55.22,128.81-30.38-31.91-49.03-75.08-49.03-122.62Z"/>
    <path class="cls-15" d="m340.01,188.73c0,81.64-66.19,147.83-147.83,147.83-21.52,0-41.97-4.6-60.41-12.87-9.91-4.44-19.24-9.94-27.85-16.36-7.61-5.67-14.66-12.06-21.04-19.06-14.04-15.4-24.86-33.78-31.41-54.08-4.62-14.32-7.12-29.6-7.12-45.46,0-81.65,66.18-147.83,147.83-147.83,6.1,0,12.11.37,18.02,1.09,24.92,3.03,47.93,12.26,67.44,26.11,6.94,4.91,13.44,10.42,19.42,16.45,2.91,2.93,5.69,5.98,8.34,9.14,21.6,25.7,34.61,58.85,34.61,95.04Z"/>
    <g>
      <g class="cls-22">
        <path class="cls-18" d="m194.89,307.25c-10.64,0-21.16-1.9-30.81-5.65-16.52-6.42-28.81-17.53-35.69-32.24-5.33,2.19-11.58,2.03-17.56-.52-7.5-3.21-13.21-9.55-14.93-16.59-2.89-7.85-3.88-19.52.41-28.03,2-3.97,5.02-6.9,8.8-8.56-1.32-5.25-3.44-10.34-5.68-15.7-1.91-4.58-3.89-9.31-5.32-14.17l-.37-1.21c-1.98-6.45-4.03-13.13-2.7-20.83,1.42-6.64,3.95-13.28,7.54-19.83,15.36-27.09,39.01-47.08,57.91-61.48l2.46-1.87,1.32,2.8c2.35,4.99,4.03,10.24,5.03,15.66,1.62-1.85,3.24-3.81,4.84-5.85,5.04-6.43,10.13-14.08,15.55-23.39l2.06-3.53,2.21,3.44c5.78,8.99,9.22,17.29,10.46,25.24,8.34-6.42,14.27-13.04,18.07-20.15l2.16-4.05,2.23,4.02c5.57,10.06,9.01,19.76,10.25,28.96,2.11-3.04,4.22-6.24,6.3-9.57l2.46-3.93,1.93,4.22c.39.86.8,1.74,1.21,2.62,2.41,5.22,4.9,10.61,6.47,15.86,3.26,10.43,6.49,23.98,2.85,36.87,4.77,8.25,5.7,17.26,6.6,25.99.21,2.08.44,4.23.71,6.32v.11c.25,2.78.52,5.5.83,8.12,10.86.8,19.5,12.35,19.5,26.45,0,12.06-6.34,22.51-15.28,25.58-3.67,16.8-15.66,53.19-51.61,62.62-6.66,1.54-13.46,2.31-20.21,2.31Z"/>
      </g>
      <g>
        <g>
          <g>
            <path class="cls-18" d="m267.97,188.23c-.34,0-.68.01-1.02.04-.43-3.44-.79-6.91-1.09-10.4-1.43-11-1.38-22.35-7.54-32.29,3.78-12.05,1.11-24.81-2.54-36.49-1.79-5.97-4.92-12.38-7.56-18.16-3.22,5.14-6.7,10.31-10.4,15.28-.15-12.13-4.58-24.17-10.46-34.78-5.08,9.51-13.36,17.24-22.31,23.58-.53-10.22-4.98-19.85-10.53-28.49-4.71,8.09-9.92,16.25-15.74,23.67-2.7,3.45-5.55,6.78-8.55,9.9-.68-6.95-2.52-13.76-5.55-20.19-22.3,16.99-43.23,36-57.23,60.69-3.22,5.88-5.81,12.25-7.27,19.06-1.31,7.57.93,14.09,3.01,20.91,3.21,10.93,9.27,21.17,11.53,32.17-13.54,3.91-14.01,22.81-9.74,34.26,2.9,12.31,19.44,21.44,31.32,14.45,13.56,32.56,52.45,44.07,84.84,36.56,29.33-7.69,44.63-35.31,50.11-62.18,8.48-2.03,14.92-11.84,14.92-23.6,0-13.23-8.16-23.99-18.2-23.99Z"/>
            <path class="cls-18" d="m201.57,302.73c-10.64,0-21.16-1.9-30.81-5.65-16.52-6.42-28.81-17.53-35.69-32.24-5.33,2.19-11.58,2.03-17.56-.52-7.5-3.21-13.21-9.55-14.93-16.59-2.89-7.85-3.88-19.52.41-28.03,2-3.97,5.02-6.9,8.8-8.56-1.32-5.25-3.45-10.34-5.68-15.7-1.91-4.58-3.89-9.31-5.32-14.17l-.37-1.22c-1.98-6.45-4.03-13.13-2.7-20.82,1.42-6.64,3.95-13.28,7.54-19.83,15.36-27.09,39.01-47.08,57.91-61.48l2.46-1.87,1.32,2.8c2.35,4.99,4.03,10.24,5.03,15.66,1.62-1.85,3.24-3.81,4.84-5.85,5.04-6.43,10.13-14.08,15.55-23.39l2.06-3.53,2.21,3.44c5.77,8.99,9.22,17.29,10.46,25.24,8.34-6.42,14.27-13.04,18.07-20.15l2.17-4.05,2.23,4.02c5.57,10.06,9.01,19.77,10.25,28.96,2.11-3.04,4.22-6.24,6.3-9.57l2.46-3.93,1.93,4.22c.39.86.8,1.73,1.2,2.62,2.41,5.22,4.9,10.62,6.48,15.86,3.26,10.43,6.49,23.98,2.86,36.87,4.77,8.25,5.7,17.27,6.6,25.99.21,2.08.44,4.23.71,6.32v.11c.25,2.76.52,5.48.83,8.12,10.86.8,19.5,12.35,19.5,26.45,0,12.06-6.34,22.51-15.28,25.58-3.67,16.8-15.66,53.19-51.61,62.62-6.66,1.54-13.46,2.31-20.21,2.31Z"/>
          </g>
          <ellipse class="cls-12" cx="267.97" cy="212.22" rx="14.7" ry="20.5"/>
          <g class="cls-22">
            <path class="cls-17" d="m264.4,191.73l5.39,41.75s17.79-10.96,12.5-25.89c-5.29-14.94-17.89-15.86-17.89-15.86Z"/>
          </g>
          <path class="cls-18" d="m267.97,236.22c-10.03,0-18.2-10.76-18.2-24s8.16-24,18.2-24,18.2,10.76,18.2,24-8.16,24-18.2,24Zm0-40.99c-6.07,0-11.2,7.78-11.2,17s5.13,17,11.2,17,11.2-7.78,11.2-17-5.13-17-11.2-17Z"/>
          <g>
            <path class="cls-7" d="m137.2,255.58s11.5,43.45,77.4,40.22c31.65-3.23,60.53-56.05,53.42-84.15-7.11-28.1-3.23-52.96-13.89-65.56,7.43-18.41-6.46-47.15-6.46-47.15-7.43,11.63-15.5,20.35-15.5,20.35,6.14-19.05-5.17-40.05-5.17-40.05-7.11,11.63-26.16,23.25-26.16,23.25,2.58-14.21-6.32-28.42-6.32-28.42,0,0-12.74,21.96-27.92,34.88.65-13.56-3.55-22.93-3.55-22.93,0,0-51.84,38.17-59.11,74.6-2.84,14.22,16.15,45.86,15.18,55.22-15.18,1.29-14.57,19.75-9.37,32.94,3.78,9.59,18.73,17.12,27.46,6.78Z"/>
            <g class="cls-22">
              <path class="cls-17" d="m214.66,291.72s-2.08,3.04-7.34,6.95c-28.67,2.03-59-10.21-70.58-38.03-11.72,6.9-28.04-2.11-30.9-14.26-4.21-11.3-3.75-29.95,9.61-33.8-2.23-10.85-8.21-20.96-11.38-31.74-2.05-6.73-4.26-13.16-2.97-20.63,1.44-6.72,4-13,7.17-18.81,13.81-24.36,34.47-43.12,56.47-59.88,2.99,6.34,4.81,13.06,5.48,19.92,2.96-3.08,5.77-6.36,8.44-9.77,3.35-4.27,6.5-8.8,9.46-13.42,2.79,2.94,4.77,5.39,4.77,5.39,0,0-7.15,29.58-32.12,40.08,0,0-2.45-8.7-2.05-21.58-18.74,16.91-44.75,46.83-41.63,63.09,3.12,16.26,18.08,58.28,6.25,58.4-11.84.13-9.76,25.37,1.94,29.39,7.16,2.48,9.24-9.49,13.92-5.59,4.69,3.91,11.99,43.38,75.47,44.29Z"/>
            </g>
            <path class="cls-18" d="m271.33,210.64c-2.96-10.55-4.51-21.56-5.47-32.77-1.43-11-1.38-22.34-7.54-32.29,3.78-12.05,1.11-24.81-2.54-36.49-1.79-5.97-4.92-12.38-7.57-18.16-3.22,5.14-6.69,10.32-10.39,15.28-.16-12.13-4.59-24.17-10.46-34.78-5.08,9.52-13.36,17.24-22.31,23.59-.53-10.22-4.98-19.85-10.53-28.5-4.71,8.09-9.92,16.26-15.74,23.67-2.7,3.46-5.56,6.78-8.55,9.91-.68-6.96-2.52-13.77-5.55-20.19-22.3,16.98-43.23,35.99-57.23,60.68-3.23,5.88-5.82,12.26-7.28,19.06-1.3,7.57.93,14.09,3.01,20.91,3.21,10.93,9.27,21.17,11.53,32.17-13.54,3.92-14.02,22.81-9.74,34.27,2.9,12.31,19.44,21.44,31.32,14.45,13.55,32.56,52.45,44.07,84.83,36.56,31.92-8.37,47.22-40.35,51.34-69.27.63-5.91.48-12.1-1.15-18.09Zm-58.78,80.96c-18.53.79-37.71-1.8-52.93-12.8-8.29-5.97-15.17-14.2-18.56-23.88-.17-1.19-1.64-2.96-3-3.12-1.67-.08-3.85,1.13-5.03,2.52-7.49,6.22-17.79-1.85-20.65-9.7-2.75-8.55-4.71-23.87,7.07-24.89l1.45-.1c1.07-.08,1.91-.93,1.99-1.99.05-.72.1-1.37.1-1.37.09-7.54-3.21-13.56-5.62-20.28-3.92-10.79-10.73-23.73-9.57-34.78,1.25-5.8,3.52-11.51,6.5-16.92,11.34-20.16,28.74-37.16,46.82-51.72,1.73,6.78,1.79,14.22,1.45,21.23-.07,1.54,1.72,2.42,2.89,1.43,11.26-9.55,20.71-20.84,28.69-33.17,2.59,6.28,3.99,13.31,2.88,19.76,0,0-.53,3.16-.95,5.64-.19,1.13,1.04,1.95,2.01,1.34,10.14-6.34,20.15-12.86,27.96-21.97,3.81,9.93,5.53,21.1,2.44,31.29l-3.78,13.31c-.2.7.68,1.18,1.16.65,0,0,17.11-8.4,20.98-24.97.55,1.46,1.09,2.94,1.57,4.4,3.72,10.98,5.66,23.65,1.93,34.39-.29.84-.11,1.76.51,2.39.19.19,7.22,8.73,9.62,30.13,1.25,11.15,4.36,22.23,5.04,33.69,2.92,49.23-29.02,76.49-52.96,79.49Z"/>
          </g>
        </g>
        <g>
          <path class="cls-18" d="m172.77,221.38c8.04-1.84,17.06-6.04,20.2-14.21.43-1.07,1.63-1.59,2.7-1.16,1.14.39,1.33,1.65,1.48,2.65.58,3.03-.38,6.06-1.91,8.58-4.79,6.87-13.55,10.1-21.68,8.51-2.78-.08-3.56-3.57-.8-4.37h0Z"/>
          <path class="cls-18" d="m231.16,200.59c3.81,6.68,12.07,10.48,19.52,7.79,1.86-.56,3.26,1.97,1.84,3.25,0,0-.62.6-.62.6-3.8,3.9-10.13,4.2-14.86,1.79-4.76-2.29-8.22-6.37-9.43-11.5-.44-1.18.09-2.58,1.39-2.86.87-.2,1.73.2,2.16.93h0Z"/>
          <path class="cls-18" d="m217.89,255.09c-10.12,2.7-22.41.51-28.85-8.22,1.41-.64,2.94-1.06,4.37-1.25,2.4-.26,2.3-3.9-.14-4.01-5.61-.42-11.7,2.62-13.46,8.24-.68,1.94-.51,3.91-.16,5.7.37,2.32,4.02,2.04,4.01-.33.03-1.28.07-2.57.56-3.66.29-.8.74-1.49,1.28-2.12,1.14,2.9,3.03,5.23,5.29,7.25,7.75,6.44,19.31,6.85,28.05,2.33,2.34-.79,1.51-4.36-.96-3.93Z"/>
          <g class="cls-22">
            <path class="cls-17" d="m240.83,236.9s2.28,9.57-8.11,10.58-9.85-6.52-7.84-6.73c7.3.97,12.39.55,15.95-3.85Z"/>
          </g>
          <path class="cls-18" d="m226.99,227.41c8.24-2.1,19.94,3.8,12,13.13-2.47,2.9-14.54,7.77-15.18,1.75.08-4.93,5.81-3.72,9.44-4.89,8.6-3.21.95-7.73-6.27-6.88-1.93.23-1.93-3.07,0-3.1h0Z"/>
        </g>
      </g>
    </g>
  </g>
  <g>
    <path class="cls-3" d="m919.96,125.14c8.62,15.31,12.85,33.68,15.29,51.96,2.24,18.31,2.44,37.25-.42,55.13-1.19,6.94-3.46,17.3-7.71,21.89-10.03-8.45-18.86-20.81-25.31-33.08-5.7-9.89-9.51-22.71-19.63-29.99-5.72-3.29-12.49-2.48-16.43,3.69-4.75,14.79-11.6,28.82-19.73,42.23-3.39,5.44-7.58,12.99-11.91,15.61-.14-.12-.34-.3-.66-.68-3.37-4.4-5.36-10.38-7.1-16.21-4.85-17.51-7.11-36.59-8.74-55.42-1.39-18.77-2.47-37.97-1.89-56.71.16-9.24-13.35-10.03-14.33-.86-2.95,19.79-3.43,39.33-2.92,59.03,1.03,25.73,2.55,51.41,12.81,75.83,9.42,20.72,31.71,22.31,44.25,3.46,9.69-15.7,17.04-31.41,22.62-48.53,2.8,5.26,5.22,11.64,7.8,16.55,6.69,13.79,15.65,27.37,27.24,37.96,6.61,6.9,19.25,8.72,26.86.6,9.34-10.59,10.38-20.32,12.8-32.31,4.94-40.66,1.47-81.73-18.35-118.41-5.61-9.4-19.74-1.27-14.53,8.28Z"/>
    <path class="cls-1" d="m570.96,204.82c5.37.76,8.38-6.82,3.85-9.94-15.02-12.53-34.04-9.43-51.51-7.43-16.19,2.29-32,6.2-47.02,12.79-2.94,1-5.13,3.77-4.43,7.04.65,3.17,3.76,5.21,6.93,4.56,7.48-1.54,15.25-2.85,22.93-3.98,15.81-2.25,32.06-3.92,48.12-3.98-10.82,41.76-62.87,68.17-100.23,41.68-46.74-33.46-22.74-108.54,30.83-118.87,21.41-4.6,44.88,3.03,58.48,20.44,5.94,7.04,16.54-1.36,11-8.81-35.72-52.5-114.46-34.56-138.98,19.75-34.16,72.32,36.73,147.07,109.61,109.44,23.64-12.68,40.43-36.74,43.9-63.19,2.19.14,4.37.29,6.54.51Z"/>
    <path class="cls-3" d="m641.73,269.36c31.16,2.45,38.02-29.9,37.66-56.8,6.41-4.09,15.36-8.58,21.93-7.06,7.65,3.07,6.44,13.86,6.34,21.21-.15,2.45,1.35,4.8,3.8,5.6,3.49,1.18,6.75-1.36,7.39-4.8,1.79-5.47,3.01-11.3,1.89-18.08-4.16-23.29-27.1-22.69-42.29-11.94-.14-1.28-.29-2.54-.45-3.73-.55-4.99-8.1-4.93-8.56.09-1.27,12.38-2.62,24.8-5.32,36.62-2.53,10.14-6.11,23.09-17.77,24.33-6.57.38-7.65.26-8.79-5.31-1.22-17.4,6.32-35.73,12.42-52.08,2.01-5.28-5.65-8.49-8.04-3.37-1.28,2.7-2.96,6.16-4.77,10.11-8.21-19.46-33.92-15.53-47.92-4.19-10.99,8.18-19.75,20.64-21.75,34.7-3.17,18.24,9.63,35.92,29.15,34.19,10.58-.85,20.47-6.34,28.17-14.23,1.59,7.72,6.5,13.37,16.88,14.74Zm-45.62-15.19c-6.29.25-11.43-2.69-13.12-8.37-5-18.83,13.9-41.97,32.79-43.61,6.25-.32,11.18,2.67,13.05,8.49,5.09,18.8-13.79,42-32.72,43.49Z"/>
    <path class="cls-3" d="m787.15,197.05h-.03c.03-.22.07-.42.09-.63.55-9.96-14.22-10.91-15.06-1.08h0c-1.61,12.27-4.22,24.98-8.24,36.5-2.91,7.75-6.11,15.93-12.42,20.48-5.07,2.99-10.51.1-12.23-5.46-3.74-14.64,3.73-34.97,15.23-44.62,8.05-6.1-.96-18.07-9.04-12.09-18.51,14.56-32.6,54.55-13,72.94,20.13,15.09,36.4-2.61,43.71-20.7,2.5,13.76,5.56,27.44,7.64,41.32,3.03,26.82-7.35,56.14-30.92,70.67-15.09,10.28-34.26,13.42-52.89,13.09-9.57-.02-18.42-.98-26.57-4.39-35.03-13.12-39.42-67.73,3.65-71.28,27.75-1.65,53.92,12.24,77.39,26.69,7.28,4.49,14.24-6.14,7.24-11.02-147.62-100.41-175.84,76.51-61.87,77.11,46.21,1.93,87.98-22.93,96.47-70.5,6.92-30.34-5.97-59.51-8.45-89.45-.91-8.84-1.44-19.11-.7-27.59Z"/>
    <path class="cls-3" d="m979.95,220.92c.02-5.97-8.8-7.25-10.43-1.43-4.28,15.2-1.49,31.37,4.26,45.76,1.46,3.73,5.67,5.6,9.42,4.16,3.77-1.44,5.66-5.67,4.22-9.44-4.68-12.21-7.21-25.95-7.46-39.05Z"/>
    <path class="cls-3" d="m1054.08,205.49c-11.21-11.94-33.2-14.44-44.18-1.13.19-2.15.39-4.29.66-6.42.56-3.3-1.71-6.43-5.04-6.88-3.24-.44-6.23,1.82-6.68,5.06-.8,5.85-1.17,11.27-1.36,16.89-.53,16.81.99,33.7,5.29,50.01,1.83,7.09,12.48,5.1,11.61-2.19-.74-11.4-.61-23.01,1.88-33.2,2.37-8.11,5.46-16.52,14.57-15.2,9.52,1.74,13.32,5.81,14.34,15.95.94,9.84-1.18,21.36-3.16,32.65-.7,3.49,1.3,7.04,4.78,8.19,3.75,1.23,7.79-.8,9.02-4.55,3.83-11.62,7.06-23.63,6.55-37.58-.44-6.85-2.3-15.07-8.27-21.59Z"/>
    <path class="cls-3" d="m1078.83,171.25c3.86.74,7.7,1.71,11.48,3,2.84,1.08,6.14-.09,7.54-2.9,1.48-2.96.28-6.55-2.67-8.03-5.83-2.92-12.03-5.12-18.35-6.55-2.06-15.14-4.02-30.25-6.21-45.19-1.54-10.56-17.22-8.29-15.83,2.19,2.28,13.65,4.39,27.33,6.56,40.99-18.85-1.12-37.75,2.22-55.05,10.1-6.53,3.17-2.77,13.13,4.26,11.19,17.22-3.84,35.38-7.22,53.19-6.5,5.57,33.67,12.12,67.1,23.46,99.61,3,7.19,13.74,2.99,11.17-4.29-9.55-30.2-15.01-61.85-19.55-93.61Z"/>
    <path class="cls-3" d="m1125.09,113.27c.74-12.5-17.61-13.64-18.48-1.21-2.98,51.62-1.64,104.81,8.17,155.69,1.42,7.62,12.72,5.85,11.84-1.77-7.55-51.06-6.6-101.47-1.53-152.71Z"/>
    <path class="cls-3" d="m1209.78,247.76c-1.97-3.48-6.39-4.71-9.87-2.74-12.78,7.01-30.89,15.17-44.36,8.85-11.27-6.28-10.43-23.58-5.61-35.13,12.84,6.75,28.8,10.64,39.01-1.78,13.07-17.94-6.7-31.24-23.84-26.92-8.86,1.53-16.16,6.9-21.44,14.16-4.7-2.07-8.86,4.51-4.57,7.78-8.5,18.17-6.55,42.36,10.89,52.34,19.51,8.82,38.39.31,56.18-6.27,4.05-1.58,5.8-6.53,3.63-10.3Zm-32.68-44.2c1.62.9,2.68,1.05,2.55,2.56-2.78,9.01-13.95,6.87-23.61,3.32,5.61-5.31,13.97-8.12,21.05-5.88Z"/>
  </g>
  <g>
    <path class="cls-21" d="m920.86,124.15c8.62,15.31,12.85,33.68,15.29,51.96,2.24,18.31,2.44,37.25-.42,55.13-1.19,6.94-3.46,17.3-7.71,21.89-10.03-8.45-18.86-20.81-25.31-33.08-5.7-9.89-9.51-22.71-19.63-29.99-5.72-3.29-12.49-2.48-16.43,3.69-4.75,14.79-11.6,28.82-19.73,42.23-3.39,5.44-7.58,12.99-11.91,15.61-.14-.12-.34-.3-.66-.68-3.37-4.4-5.36-10.38-7.1-16.21-4.85-17.51-7.11-36.59-8.74-55.42-1.39-18.77-2.47-37.97-1.89-56.71.16-9.24-13.35-10.03-14.33-.86-2.95,19.79-3.43,39.33-2.92,59.03,1.03,25.73,2.55,51.41,12.81,75.83,9.42,20.72,31.71,22.31,44.25,3.46,9.69-15.7,17.04-31.41,22.62-48.53,2.8,5.26,5.22,11.64,7.8,16.55,6.69,13.79,15.65,27.37,27.24,37.96,6.61,6.9,19.25,8.72,26.86.6,9.34-10.59,10.38-20.32,12.8-32.31,4.94-40.66,1.47-81.73-18.35-118.41-5.61-9.4-19.74-1.27-14.53,8.28Z"/>
    <path class="cls-9" d="m571.9,203.77c5.37.76,8.38-6.82,3.85-9.94-15.02-12.53-34.04-9.43-51.51-7.43-16.19,2.29-32,6.2-47.02,12.79-2.94,1-5.13,3.77-4.43,7.04.65,3.17,3.76,5.21,6.93,4.56,7.48-1.54,15.25-2.85,22.93-3.98,15.81-2.25,32.06-3.92,48.12-3.98-10.82,41.76-62.87,68.17-100.23,41.68-46.74-33.46-22.74-108.54,30.83-118.87,21.41-4.6,44.88,3.03,58.48,20.44,5.94,7.04,16.54-1.36,11-8.81-35.72-52.5-114.46-34.56-138.98,19.75-34.16,72.32,36.73,147.07,109.61,109.44,23.64-12.68,40.43-36.74,43.9-63.19,2.19.14,4.37.29,6.54.51Z"/>
    <path class="cls-6" d="m642.63,268.36c31.16,2.45,38.02-29.9,37.66-56.8,6.41-4.09,15.36-8.58,21.93-7.06,7.65,3.07,6.44,13.86,6.34,21.21-.15,2.45,1.35,4.8,3.8,5.6,3.49,1.18,6.75-1.36,7.39-4.8,1.79-5.47,3.01-11.3,1.89-18.08-4.16-23.29-27.1-22.69-42.29-11.94-.14-1.28-.29-2.54-.45-3.73-.55-4.99-8.1-4.93-8.56.09-1.27,12.38-2.62,24.8-5.32,36.62-2.53,10.14-6.11,23.09-17.77,24.33-6.57.38-7.65.26-8.79-5.31-1.22-17.4,6.32-35.73,12.42-52.08,2.01-5.28-5.65-8.49-8.04-3.37-1.28,2.7-2.96,6.16-4.77,10.11-8.21-19.46-33.92-15.53-47.92-4.19-10.99,8.18-19.75,20.64-21.75,34.7-3.17,18.24,9.63,35.92,29.15,34.19,10.58-.85,20.47-6.34,28.17-14.23,1.59,7.72,6.5,13.37,16.88,14.74Zm-45.62-15.19c-6.29.25-11.43-2.69-13.12-8.37-5-18.83,13.9-41.97,32.79-43.61,6.25-.32,11.18,2.67,13.05,8.49,5.09,18.8-13.79,42-32.72,43.49Z"/>
    <path class="cls-14" d="m788.05,196.05h-.03c.03-.22.07-.42.09-.63.55-9.96-14.22-10.91-15.06-1.08h0c-1.61,12.27-4.22,24.98-8.24,36.5-2.91,7.75-6.11,15.93-12.42,20.48-5.07,2.99-10.51.1-12.23-5.46-3.74-14.64,3.73-34.97,15.23-44.62,8.05-6.1-.96-18.07-9.04-12.09-18.51,14.56-32.6,54.55-13,72.94,20.13,15.09,36.4-2.61,43.71-20.7,2.5,13.76,5.56,27.44,7.64,41.32,3.03,26.82-7.35,56.14-30.92,70.67-15.09,10.28-34.26,13.42-52.89,13.09-9.57-.02-18.42-.98-26.57-4.39-35.03-13.12-39.42-67.73,3.65-71.28,27.75-1.65,53.92,12.24,77.39,26.69,7.28,4.49,14.24-6.14,7.24-11.02-147.62-100.41-175.84,76.51-61.87,77.11,46.21,1.93,87.98-22.93,96.47-70.5,6.92-30.34-5.97-59.51-8.45-89.45-.91-8.84-1.44-19.11-.7-27.59Z"/>
    <path class="cls-19" d="m980.85,219.92c.02-5.97-8.8-7.25-10.43-1.43-4.28,15.2-1.49,31.37,4.26,45.76,1.46,3.73,5.67,5.6,9.42,4.16,3.77-1.44,5.66-5.67,4.22-9.44-4.68-12.21-7.21-25.95-7.46-39.05Z"/>
    <path class="cls-16" d="m1054.98,204.49c-11.21-11.94-33.2-14.44-44.18-1.13.19-2.15.39-4.29.66-6.42.56-3.3-1.71-6.43-5.04-6.88-3.24-.44-6.23,1.82-6.68,5.06-.8,5.85-1.17,11.27-1.36,16.89-.53,16.81.99,33.7,5.29,50.01,1.83,7.09,12.48,5.1,11.61-2.19-.74-11.4-.61-23.01,1.88-33.2,2.37-8.11,5.46-16.52,14.57-15.2,9.52,1.74,13.32,5.81,14.34,15.95.94,9.84-1.18,21.36-3.16,32.65-.7,3.49,1.3,7.04,4.78,8.19,3.75,1.23,7.79-.8,9.02-4.55,3.83-11.62,7.06-23.63,6.55-37.58-.44-6.85-2.3-15.07-8.27-21.59Z"/>
    <path class="cls-20" d="m1079.73,170.26c3.86.74,7.7,1.71,11.48,3,2.84,1.08,6.14-.09,7.54-2.9,1.48-2.96.28-6.55-2.67-8.03-5.83-2.92-12.03-5.12-18.35-6.55-2.06-15.14-4.02-30.25-6.21-45.19-1.54-10.56-17.22-8.29-15.83,2.19,2.28,13.65,4.39,27.33,6.56,40.99-18.85-1.12-37.75,2.22-55.05,10.1-6.53,3.17-2.77,13.13,4.26,11.19,17.22-3.84,35.38-7.22,53.19-6.5,5.57,33.67,12.12,67.1,23.46,99.61,3,7.19,13.74,2.99,11.17-4.29-9.55-30.2-15.01-61.85-19.55-93.61Z"/>
    <path class="cls-8" d="m1125.99,112.28c.74-12.5-17.61-13.64-18.48-1.21-2.98,51.62-1.64,104.81,8.17,155.69,1.42,7.62,12.72,5.85,11.84-1.77-7.55-51.06-6.6-101.47-1.53-152.71Z"/>
    <path class="cls-4" d="m1210.68,246.76c-1.97-3.48-6.39-4.71-9.87-2.74-12.78,7.01-30.89,15.17-44.36,8.85-11.27-6.28-10.43-23.58-5.61-35.13,12.84,6.75,28.8,10.64,39.01-1.78,13.07-17.94-6.7-31.24-23.84-26.92-8.86,1.53-16.16,6.9-21.44,14.16-4.7-2.07-8.86,4.51-4.57,7.78-8.5,18.17-6.55,42.36,10.89,52.34,19.51,8.82,38.39.31,56.18-6.27,4.05-1.58,5.8-6.53,3.63-10.3Zm-32.68-44.2c1.62.9,2.68,1.05,2.55,2.56-2.78,9.01-13.95,6.87-23.61,3.32,5.61-5.31,13.97-8.12,21.05-5.88Z"/>
  </g>
  <path class="cls-11" d="m984.67,176.96c-6.23-2.1-14.83,1.79-18.46,12.01-3.39,10.81,1.12,16.56,6.01,18.19,1.08.36,2.24.54,3.43.54,5.64,0,12.03-4.1,15-12.45l.03-.1c3.38-10.81-1.12-16.55-6.01-18.19Z"/>
  <path class="cls-13" d="m983.55,177.8c-5.63-1.9-13.41,1.62-16.69,10.85-3.06,9.77,1.01,14.97,5.43,16.44.98.33,2.02.49,3.1.49,5.1,0,10.87-3.71,13.56-11.26l.03-.09c3.06-9.77-1.01-14.96-5.43-16.44Z"/>
  <path class="cls-2" d="m755.41,317.6c-19.29-11.87-40.39-23.37-62.71-26.17,5.27.45,16.64.69,18.02-5.41,1.55-6.82-32.57-14.92-55.62-3.9,21.77-11.71,57.91-9.3,107.55,24.46,7,4.88.05,15.51-7.24,11.02Z"/>
</svg>