<?xml version="1.0" encoding="UTF-8"?>
<svg id="Layer_2" data-name="Layer 2" xmlns="http://www.w3.org/2000/svg" xmlns:xlink="http://www.w3.org/1999/xlink" viewBox="0 0 75.65 75.65">
  <defs>
    <style>
      .cls-1 {
        fill: url(#linear-gradient);
      }

      .cls-1, .cls-2, .cls-3, .cls-4, .cls-5, .cls-6, .cls-7 {
        stroke-width: 0px;
      }

      .cls-2 {
        fill: #fcfdfd;
      }

      .cls-3 {
        fill: url(#linear-gradient-2);
        opacity: .3;
      }

      .cls-4 {
        fill: #fff;
      }

      .cls-5 {
        fill: url(#linear-gradient-3);
      }

      .cls-6 {
        fill: #71aee1;
      }

      .cls-7 {
        fill: #122d3d;
      }

      .cls-8 {
        opacity: .2;
      }
    </style>
    <linearGradient id="linear-gradient" x1="-29.63" y1="-54.97" x2="90.72" y2="110.59" gradientUnits="userSpaceOnUse">
      <stop offset=".52" stop-color="#122d3d"/>
      <stop offset=".58" stop-color="#133042"/>
      <stop offset=".66" stop-color="#193c53"/>
      <stop offset=".76" stop-color="#214e6f"/>
      <stop offset=".86" stop-color="#2d6896"/>
      <stop offset=".97" stop-color="#3d88c7"/>
      <stop offset="1" stop-color="#4293d7"/>
    </linearGradient>
    <linearGradient id="linear-gradient-2" x1="45.86" y1="2.2" x2="2.15" y2="53.87" gradientUnits="userSpaceOnUse">
      <stop offset="0" stop-color="#72b1e4" stop-opacity="0"/>
      <stop offset=".48" stop-color="#72b1e4"/>
      <stop offset="1" stop-color="#72b1e4" stop-opacity="0"/>
    </linearGradient>
    <linearGradient id="linear-gradient-3" x1="79.78" y1="88.68" x2="-20.33" y2="-32.66" gradientUnits="userSpaceOnUse">
      <stop offset=".45" stop-color="#72b1e4"/>
      <stop offset="1" stop-color="#4293d7"/>
    </linearGradient>
  </defs>
  <g id="Layer_2-2" data-name="Layer 2">
    <g>
      <circle class="cls-1" cx="37.82" cy="37.82" r="37.82"/>
      <path class="cls-3" d="m1.32,39.14C1.32,18.25,18.25,1.32,39.14,1.32c10.11,0,19.29,3.97,26.08,10.43C58.33,4.51,48.6,0,37.82,0,16.93,0,0,16.93,0,37.82c0,10.78,4.51,20.51,11.74,27.4-6.46-6.79-10.43-15.97-10.43-26.08Z"/>
      <path class="cls-5" d="m69.27,37.82c0,17.36-14.08,31.44-31.44,31.44-4.58,0-8.93-.98-12.85-2.74-2.11-.94-4.09-2.11-5.92-3.48-1.62-1.21-3.12-2.56-4.47-4.05-2.99-3.28-5.29-7.18-6.68-11.5-.98-3.05-1.51-6.3-1.51-9.67,0-17.37,14.08-31.44,31.44-31.44,1.3,0,2.58.08,3.83.23,5.3.64,10.19,2.61,14.34,5.55,1.48,1.04,2.86,2.22,4.13,3.5.62.62,1.21,1.27,1.77,1.94,4.59,5.47,7.36,12.52,7.36,20.21Z"/>
      <g>
        <g class="cls-8">
          <path class="cls-7" d="m38.4,63.03c-2.26,0-4.5-.4-6.55-1.2-3.51-1.37-6.13-3.73-7.59-6.86-1.13.47-2.46.43-3.73-.11-1.6-.68-2.81-2.03-3.17-3.53-.61-1.67-.82-4.15.09-5.96.43-.85,1.07-1.47,1.87-1.82-.28-1.12-.73-2.2-1.21-3.34-.41-.97-.83-1.98-1.13-3.01l-.08-.26c-.42-1.37-.86-2.79-.57-4.43.3-1.41.84-2.83,1.6-4.22,3.27-5.76,8.3-10.01,12.32-13.08l.52-.4.28.59c.5,1.06.86,2.18,1.07,3.33.35-.39.69-.81,1.03-1.24,1.07-1.37,2.15-2.99,3.31-4.97l.44-.75.47.73c1.23,1.91,1.96,3.68,2.22,5.37,1.77-1.36,3.04-2.77,3.84-4.29l.46-.86.47.85c1.19,2.14,1.92,4.2,2.18,6.16.45-.65.9-1.33,1.34-2.04l.52-.84.41.9c.08.18.17.37.26.56.51,1.11,1.04,2.26,1.38,3.37.69,2.22,1.38,5.1.61,7.84,1.01,1.75,1.21,3.67,1.4,5.53.05.44.09.9.15,1.34v.02c.05.59.11,1.17.18,1.73,2.31.17,4.15,2.63,4.15,5.62,0,2.56-1.35,4.79-3.25,5.44-.78,3.57-3.33,11.31-10.98,13.32-1.42.33-2.86.49-4.3.49Z"/>
        </g>
        <g>
          <g>
            <g>
              <path class="cls-7" d="m53.94,37.72c-.07,0-.14,0-.22,0-.09-.73-.17-1.47-.23-2.21-.3-2.34-.29-4.75-1.6-6.87.8-2.56.24-5.28-.54-7.76-.38-1.27-1.05-2.63-1.61-3.86-.68,1.09-1.42,2.19-2.21,3.25-.03-2.58-.97-5.14-2.22-7.4-1.08,2.02-2.84,3.67-4.74,5.02-.11-2.17-1.06-4.22-2.24-6.06-1,1.72-2.11,3.46-3.35,5.03-.57.73-1.18,1.44-1.82,2.11-.14-1.48-.54-2.93-1.18-4.29-4.74,3.61-9.19,7.66-12.17,12.91-.68,1.25-1.24,2.61-1.55,4.05-.28,1.61.2,3,.64,4.45.68,2.32,1.97,4.5,2.45,6.84-2.88.83-2.98,4.85-2.07,7.29.62,2.62,4.13,4.56,6.66,3.07,2.88,6.92,11.16,9.37,18.04,7.78,6.24-1.64,9.49-7.51,10.66-13.22,1.8-.43,3.17-2.52,3.17-5.02,0-2.81-1.74-5.1-3.87-5.1Z"/>
              <path class="cls-7" d="m39.82,62.07c-2.26,0-4.5-.4-6.55-1.2-3.51-1.37-6.13-3.73-7.59-6.86-1.13.47-2.46.43-3.73-.11-1.6-.68-2.81-2.03-3.17-3.53-.61-1.67-.82-4.15.09-5.96.43-.85,1.07-1.47,1.87-1.82-.28-1.12-.73-2.2-1.21-3.34-.41-.97-.83-1.98-1.13-3.01l-.08-.26c-.42-1.37-.86-2.79-.57-4.43.3-1.41.84-2.83,1.6-4.22,3.27-5.76,8.3-10.01,12.32-13.08l.52-.4.28.59c.5,1.06.86,2.18,1.07,3.33.35-.39.69-.81,1.03-1.24,1.07-1.37,2.15-2.99,3.31-4.97l.44-.75.47.73c1.23,1.91,1.96,3.68,2.22,5.37,1.77-1.36,3.04-2.77,3.84-4.29l.46-.86.47.85c1.19,2.14,1.92,4.2,2.18,6.16.45-.65.9-1.33,1.34-2.04l.52-.84.41.9c.08.18.17.37.26.56.51,1.11,1.04,2.26,1.38,3.37.69,2.22,1.38,5.1.61,7.84,1.01,1.76,1.21,3.67,1.4,5.53.05.44.09.9.15,1.34v.02c.05.59.11,1.17.18,1.73,2.31.17,4.15,2.63,4.15,5.62,0,2.56-1.35,4.79-3.25,5.44-.78,3.57-3.33,11.31-10.98,13.32-1.42.33-2.86.49-4.3.49Z"/>
            </g>
            <ellipse class="cls-4" cx="53.94" cy="42.82" rx="3.13" ry="4.36"/>
            <g class="cls-8">
              <path class="cls-6" d="m53.18,38.46l1.15,8.88s3.78-2.33,2.66-5.51-3.81-3.37-3.81-3.37Z"/>
            </g>
            <path class="cls-7" d="m53.94,47.92c-2.13,0-3.87-2.29-3.87-5.1s1.74-5.1,3.87-5.1,3.87,2.29,3.87,5.1-1.74,5.1-3.87,5.1Zm0-8.72c-1.29,0-2.38,1.66-2.38,3.61s1.09,3.61,2.38,3.61,2.38-1.66,2.38-3.61-1.09-3.61-2.38-3.61Z"/>
            <g>
              <path class="cls-2" d="m26.13,52.04s2.45,9.24,16.46,8.56c6.73-.69,12.87-11.92,11.36-17.9-1.51-5.98-.69-11.26-2.95-13.94,1.58-3.92-1.37-10.03-1.37-10.03-1.58,2.47-3.3,4.33-3.3,4.33,1.31-4.05-1.1-8.52-1.1-8.52-1.51,2.47-5.56,4.95-5.56,4.95.55-3.02-1.34-6.04-1.34-6.04,0,0-2.71,4.67-5.94,7.42.14-2.88-.76-4.88-.76-4.88,0,0-11.03,8.12-12.57,15.87-.6,3.02,3.43,9.75,3.23,11.75-3.23.27-3.1,4.2-1.99,7.01.8,2.04,3.98,3.64,5.84,1.44Z"/>
              <g class="cls-8">
                <path class="cls-6" d="m42.61,59.73s-.44.65-1.56,1.48c-6.1.43-12.55-2.17-15.01-8.09-2.49,1.47-5.96-.45-6.57-3.03-.9-2.4-.8-6.37,2.04-7.19-.47-2.31-1.75-4.46-2.42-6.75-.44-1.43-.91-2.8-.63-4.39.31-1.43.85-2.77,1.53-4,2.94-5.18,7.33-9.17,12.01-12.74.64,1.35,1.02,2.78,1.16,4.24.63-.65,1.23-1.35,1.79-2.08.71-.91,1.38-1.87,2.01-2.85.59.63,1.01,1.15,1.01,1.15,0,0-1.52,6.29-6.83,8.52,0,0-.52-1.85-.44-4.59-3.99,3.6-9.52,9.96-8.85,13.42.66,3.46,3.84,12.39,1.33,12.42-2.52.03-2.08,5.4.41,6.25,1.52.53,1.96-2.02,2.96-1.19,1,.83,2.55,9.23,16.05,9.42Z"/>
              </g>
              <path class="cls-7" d="m54.66,42.48c-.63-2.24-.96-4.59-1.16-6.97-.3-2.34-.29-4.75-1.6-6.87.8-2.56.24-5.28-.54-7.76-.38-1.27-1.05-2.63-1.61-3.86-.68,1.09-1.42,2.19-2.21,3.25-.03-2.58-.98-5.14-2.23-7.4-1.08,2.02-2.84,3.67-4.75,5.02-.11-2.17-1.06-4.22-2.24-6.06-1,1.72-2.11,3.46-3.35,5.03-.57.74-1.18,1.44-1.82,2.11-.14-1.48-.54-2.93-1.18-4.29-4.74,3.61-9.19,7.65-12.17,12.91-.69,1.25-1.24,2.61-1.55,4.05-.28,1.61.2,3,.64,4.45.68,2.32,1.97,4.5,2.45,6.84-2.88.83-2.98,4.85-2.07,7.29.62,2.62,4.13,4.56,6.66,3.07,2.88,6.92,11.15,9.37,18.04,7.78,6.79-1.78,10.04-8.58,10.92-14.73.13-1.26.1-2.57-.24-3.85Zm-12.5,17.22c-3.94.17-8.02-.38-11.26-2.72-1.76-1.27-3.23-3.02-3.95-5.08-.04-.25-.35-.63-.64-.66-.35-.02-.82.24-1.07.54-1.59,1.32-3.78-.39-4.39-2.06-.59-1.82-1-5.08,1.5-5.29l.31-.02c.23-.02.41-.2.42-.42.01-.15.02-.29.02-.29.02-1.6-.68-2.88-1.2-4.31-.83-2.29-2.28-5.05-2.03-7.4.27-1.23.75-2.45,1.38-3.6,2.41-4.29,6.11-7.9,9.96-11,.37,1.44.38,3.02.31,4.51-.02.33.37.51.61.3,2.39-2.03,4.4-4.43,6.1-7.05.55,1.33.85,2.83.61,4.2,0,0-.11.67-.2,1.2-.04.24.22.41.43.29,2.16-1.35,4.29-2.73,5.95-4.67.81,2.11,1.18,4.49.52,6.65l-.8,2.83c-.04.15.14.25.25.14,0,0,3.64-1.79,4.46-5.31.12.31.23.62.33.94.79,2.34,1.2,5.03.41,7.31-.06.18-.02.37.11.51.04.04,1.54,1.86,2.05,6.41.27,2.37.93,4.73,1.07,7.17.62,10.47-6.17,16.27-11.26,16.91Z"/>
            </g>
          </g>
          <g>
            <path class="cls-7" d="m33.7,44.77c1.71-.39,3.63-1.29,4.3-3.02.09-.23.35-.34.57-.25.24.08.28.35.32.56.12.65-.08,1.29-.41,1.82-1.02,1.46-2.88,2.15-4.61,1.81-.59-.02-.76-.76-.17-.93h0Z"/>
            <path class="cls-7" d="m46.11,40.35c.81,1.42,2.57,2.23,4.15,1.66.4-.12.69.42.39.69,0,0-.13.13-.13.13-.81.83-2.16.89-3.16.38-1.01-.49-1.75-1.35-2.01-2.45-.09-.25.02-.55.3-.61.18-.04.37.04.46.2h0Z"/>
            <path class="cls-7" d="m43.29,51.94c-2.15.57-4.77.11-6.13-1.75.3-.14.63-.22.93-.27.51-.06.49-.83-.03-.85-1.19-.09-2.49.56-2.86,1.75-.14.41-.11.83-.03,1.21.08.49.86.43.85-.07,0-.27.01-.55.12-.78.06-.17.16-.32.27-.45.24.62.64,1.11,1.12,1.54,1.65,1.37,4.11,1.46,5.97.5.5-.17.32-.93-.2-.84Z"/>
            <g class="cls-8">
              <path class="cls-6" d="m48.17,48.07s.48,2.03-1.73,2.25-2.1-1.39-1.67-1.43c1.55.21,2.63.12,3.39-.82Z"/>
            </g>
            <path class="cls-7" d="m45.23,46.05c1.75-.45,4.24.81,2.55,2.79-.53.62-3.09,1.65-3.23.37.02-1.05,1.24-.79,2.01-1.04,1.83-.68.2-1.64-1.33-1.46-.41.05-.41-.65,0-.66h0Z"/>
          </g>
        </g>
      </g>
    </g>
  </g>
</svg>