<svg width="376" height="26" viewBox="0 0 376 26" fill="none" xmlns="http://www.w3.org/2000/svg">
<g clip-path="url(#clip0_5358_296)">
<path d="M1.97998 12.8C1.97998 12.8 45.6 3.36005 184.95 12.8C324.3 22.24 373.79 12.8 373.79 12.8" stroke="#4293D7" stroke-miterlimit="10"/>
<path d="M4.99 10.3198H0V15.3098H4.99V10.3198Z" fill="#4293D7"/>
<path d="M375.78 10.3198H370.79V15.3098H375.78V10.3198Z" fill="#4293D7"/>
<path d="M187.32 10.3198H182.33V15.3098H187.32V10.3198Z" fill="#4293D7"/>
<path d="M31.0901 2.27002L184.59 12.84L338.09 23.41" stroke="#4293D7" stroke-miterlimit="10"/>
<path d="M337.79 25.65C338.994 25.65 339.97 24.674 339.97 23.47C339.97 22.2661 338.994 21.29 337.79 21.29C336.586 21.29 335.61 22.2661 335.61 23.47C335.61 24.674 336.586 25.65 337.79 25.65Z" fill="#4293D7"/>
<path d="M31.0799 4.36C32.2839 4.36 33.2599 3.38398 33.2599 2.18C33.2599 0.976019 32.2839 0 31.0799 0C29.8759 0 28.8999 0.976019 28.8999 2.18C28.8999 3.38398 29.8759 4.36 31.0799 4.36Z" fill="#4293D7"/>
</g>
<defs>
<clipPath id="clip0_5358_296">
<rect width="375.78" height="25.64" fill="white"/>
</clipPath>
</defs>
</svg>
