<?xml version="1.0" encoding="UTF-8"?><svg id="Layer_3" xmlns="http://www.w3.org/2000/svg" viewBox="0 0 100 100"><defs><style>.cls-1{stroke-width:1.3px;}.cls-1,.cls-2,.cls-3,.cls-4{stroke:#4293d7;}.cls-1,.cls-3,.cls-4{stroke-miterlimit:10;}.cls-1,.cls-4{fill:#fff;}.cls-2{stroke-linecap:round;stroke-linejoin:round;stroke-width:1.67px;}.cls-2,.cls-5{fill:none;}.cls-6,.cls-7,.cls-3{fill:#4293d7;}.cls-6,.cls-3{opacity:.3;}.cls-3{stroke-width:.93px;}.cls-4{stroke-width:2.79px;}</style></defs><rect class="cls-5" width="100" height="100"/><g><circle class="cls-4" cx="50.75" cy="51.21" r="27.21"/><path class="cls-3" d="m63.78,47.75c0,5.54-3.6,10.04-8.04,10.04-2.81,0-5.28-1.79-6.72-4.52-1.41,2.3-3.97,3.83-6.9,3.83-4.46,0-8.07-3.57-8.07-7.97s3.61-7.97,8.07-7.97c2.47,0,4.67,1.1,6.17,2.81,1.19-3.67,4.08-6.26,7.46-6.26,4.44,0,8.04,4.49,8.04,10.03Z"/><path class="cls-1" d="m63.03,46.91c0,5.54-3.6,10.04-8.04,10.04-2.81,0-5.28-1.79-6.72-4.52-1.41,2.3-3.97,3.83-6.9,3.83-4.46,0-8.07-3.57-8.07-7.97s3.61-7.97,8.07-7.97c2.47,0,4.67,1.1,6.17,2.81,1.19-3.67,4.08-6.26,7.46-6.26,4.44,0,8.04,4.49,8.04,10.03Z"/><ellipse class="cls-7" cx="52.06" cy="47.64" rx="3.32" ry="3.58"/><ellipse class="cls-7" cx="44.41" cy="48.22" rx="2.69" ry="2.84"/><path class="cls-2" d="m31.98,56.27s.39,10.69,14.86,7.84"/><path class="cls-7" d="m77.2,52.94s-9.87-5.91-12.35,2.74c-2.48,8.64-.61,4.83-5.73,7.35s-6.5,11.63-3.74,14.26c6.01-1.51,18.56-2.5,21.82-24.35Z"/><path class="cls-7" d="m41.17,26.49s9.2,7.35.69,10.39-11.42,5.72-12.27,8.84-2.88,8.1-5.16,6.37c-3.25-6.82,5.67-23.15,16.74-25.6Z"/><path class="cls-7" d="m65.59,32.17s-2.23,4.01.79,6.45,2.25,5.67,4.69,4.2-2.57-13.68-5.48-10.65Z"/><g><path class="cls-7" d="m7.05,53.58c0-.14,0-.35,0-.64s0-.49,0-.64c0-.1,0-.26,0-.47s0-.38,0-.47c0-.78.12-1.38.35-1.79l9.55-6.38c.13,0,.22.13.26.38.04.25.06.62.06,1.1,0,.08,0,.33,0,.77s0,.75,0,.96c0,.2,0,.46-.02.78,0,.32-.03.57-.06.74s-.07.29-.11.34l-6.02,4.17c1.89,1.3,3.78,2.56,5.68,3.78.17.11.29.22.36.33s.11.31.15.6.05.77.05,1.42v.95c0,.16,0,.38,0,.64s-.02.46-.03.6c-.02.14-.04.27-.06.42s-.06.25-.1.31c-.04.06-.09.09-.15.09-.05,0-.09-.01-.13-.03-2.8-1.98-5.63-3.93-8.47-5.84-.03-.02-.1-.06-.22-.12-.11-.06-.19-.1-.24-.13-.04-.03-.11-.08-.21-.15-.1-.07-.17-.14-.21-.2-.04-.06-.1-.14-.17-.25s-.12-.22-.15-.33-.06-.25-.08-.41c-.02-.16-.04-.34-.04-.53Z"/><path class="cls-7" d="m92.95,51.18c0,.14,0,.35,0,.64s0,.49,0,.64c0,.1,0,.26,0,.47s0,.38,0,.47c0,.78-.12,1.38-.35,1.79l-9.55,6.38c-.13,0-.22-.13-.26-.38-.04-.25-.06-.62-.06-1.1,0-.08,0-.33,0-.77s0-.75,0-.96c0-.2,0-.46.02-.78,0-.32.03-.57.06-.74s.07-.29.11-.34l6.02-4.17c-1.89-1.3-3.78-2.56-5.68-3.78-.17-.11-.29-.22-.36-.33s-.11-.31-.15-.6-.05-.77-.05-1.42v-.21c0-.33,0-.57,0-.73s0-.38,0-.64.02-.46.03-.6c.02-.14.04-.27.06-.42s.06-.25.1-.31c.04-.06.09-.09.15-.09.05,0,.09.01.13.03,2.8,1.98,5.63,3.93,8.47,5.84.03.02.1.06.22.12.11.06.19.1.24.13.04.03.11.08.21.15.1.07.17.14.21.2.04.06.1.14.17.25s.12.22.15.33.06.25.08.41c.02.16.04.34.04.53Z"/></g><path class="cls-6" d="m66.77,28.91c3.61,4.62,5.78,10.43,5.78,16.75,0,15.03-12.18,27.21-27.21,27.21-5.99,0-11.53-1.94-16.02-5.22,4.98,6.36,12.72,10.46,21.43,10.46,15.03,0,27.21-12.18,27.21-27.21,0-9.03-4.41-17.03-11.18-21.98Z"/></g></svg>