<?xml version="1.0" encoding="UTF-8"?><svg id="Layer_3" xmlns="http://www.w3.org/2000/svg" viewBox="0 0 100 100"><defs><style>.cls-1,.cls-2,.cls-3,.cls-4{fill:#fff;}.cls-2{stroke-width:.95px;}.cls-2,.cls-5,.cls-6,.cls-3,.cls-7,.cls-8,.cls-4{stroke:#4293d7;}.cls-2,.cls-4{stroke-miterlimit:10;}.cls-5{stroke-width:2.8px;}.cls-5,.cls-9,.cls-10{fill:#4293d7;}.cls-5,.cls-6,.cls-3,.cls-7,.cls-8{stroke-linecap:round;stroke-linejoin:round;}.cls-6{stroke-width:1.68px;}.cls-6,.cls-11,.cls-7,.cls-8{fill:none;}.cls-3,.cls-8{stroke-width:1.29px;}.cls-10{opacity:.2;}.cls-7{stroke-width:1.06px;}.cls-4{stroke-width:1.01px;}</style></defs><rect class="cls-11" width="100" height="100"/><g><g><path class="cls-5" d="m75.47,33.32h0s0,0,0,0c-.31-1.51-.69-3.01-1.14-4.5h0s0,0,0,0c-.41-1.34-.89-2.67-1.43-3.98h.02s-.01,0-.02-.01c-1.39-3.36-3.21-6.6-5.62-9.61-4.92-6.54-26.15-2.04-20.12,12.31,6.03,14.35,10.1,28.44,3.73,40.58l.03.16,3.16,16.03c.05.26.24.43.46.5l.03.18s.09-.05.23-.14c.11-.01.23-.05.33-.13l.92-.7c.89-.61,2.1-1.48,3.35-2.53l12.87-9.71s7.06-19.46,3.19-38.44Z"/><g><g><path class="cls-3" d="m67.4,15.22c-4.92-6.54-26.15-2.04-20.12,12.31,6.03,14.35,10.1,28.44,3.74,40.58l.03.16c1.32-.61,5.53-2.27,5.11,1.48,2.22-2.58,6.35-6.66,7.95.71,3.69-1.91,8.22-2.41,8.06,1.48.16-3.89-4.37-3.39-8.06-1.48-1.6-7.37-5.73-3.29-7.95-.71.41-3.75-3.79-2.09-5.11-1.48l3.16,16.03c.09.48.66.7,1.05.4l17.15-12.94s12.56-34.63-5.01-56.53Z"/><path class="cls-10" d="m60.65,13.13s4.8,1.67,7.65,11.27c1.71,3.52,0,4.35,0,4.35,2.51.24,3.26,2.18,2.15,3.07.41,1.71,2.88,29.87-1.49,38.42-5.42,7.41-10.4,11.54-10.4,11.54l13.14-9.17s7.47-25.58,4.22-38.03c-2.49-10.27-7.78-23.1-15.31-21.87"/><path class="cls-9" d="m53.4,77.6s5.33-2.73,7.77,2.42c-3.05,2.88-6.48,4.95-6.48,4.95l-1.3-7.37Z"/><path class="cls-1" d="m56.19,78.21l-.8,3.51c-.1.45-.76.43-.82-.03l-.47-3.16c-.02-.16.05-.32.18-.41.3-.19.87-.48,1.54-.42.25.02.43.26.37.51Z"/><path class="cls-8" d="m52.05,39.72s13.58-11.96,23.54-6.4"/><path class="cls-8" d="m50.74,35.57s10.6-10.84,23.72-6.76"/><path class="cls-8" d="m49.88,32.39s9.27-11.44,23.16-7.56"/></g><path class="cls-6" d="m68.08,56.65c0,1.75-1.42,3.17-3.17,3.17s-3.17-1.42-3.17-3.17"/></g><path class="cls-10" d="m75.69,48.48c0,4-2.21,6.1-4.93,6.1s-4.93-2.09-4.93-6.1c0-4,2.21-7.25,4.93-7.25s4.93,3.25,4.93,7.25Z"/><path class="cls-10" d="m67,49.21c0,4.24-2.34,6.46-5.23,6.46s-5.23-2.22-5.23-6.46,2.34-7.68,5.23-7.68,5.23,3.44,5.23,7.68Z"/><path class="cls-2" d="m75.06,47.43c0,4-2.21,6.1-4.93,6.1s-4.93-2.09-4.93-6.1,2.21-7.25,4.93-7.25,4.93,3.25,4.93,7.25Z"/><path class="cls-9" d="m74.45,48.41c-.02,1.7-1.09,2.47-2.4,2.47s-2.37-.77-2.35-2.47,1.09-3.07,2.41-3.07,2.36,1.38,2.35,3.07Z"/><path class="cls-4" d="m66.37,48.17c0,4.24-2.34,6.46-5.23,6.46s-5.23-2.22-5.23-6.46,2.34-7.68,5.23-7.68,5.23,3.44,5.23,7.68Z"/><path class="cls-9" d="m66.34,48.11c.32,1.77-.65,2.79-2.02,3.04s-2.62-.34-2.93-2.11.54-3.42,1.91-3.67,2.73.97,3.05,2.74Z"/><path class="cls-7" d="m67.87,34.97s4.9-1.61,6.59,3.48"/><path class="cls-7" d="m60.42,37.25s-3.47.46-4.94,4.25"/></g><path class="cls-9" d="m23.02,54.4c6.56-1.32,13.31-.34,19.18,2.91.31.18.89.58,1.17.8.88.69,1.61,2.03.86,3.25-.57.97-1.66,1.38-2.57,1.75-4.11,1.44-8.83,2.75-11.49,6.05-1.63,1.91-2.27,4.43-1.23,6.83,3.17,6.7,12.02,10.76,19.28,9.34.8-.06,1.59-.04,2.44.2.8.19,1.18,1.16.75,1.85-1.04,1.7-2.98,2.2-4.8,2.32-5.22.4-10.36-1.4-14.59-4.3-11.55-8.16-9.1-19.77,4.05-23.96,1.88-.69,3.91-1.07,5.5-1.84-.08.09-.22.38-.22.57,0,.38.12.52.12.5-4.92-3.77-11.81-4.93-17.99-4.2-1.36.27-1.81-1.75-.45-2.07h0Z"/></g></svg>