<?xml version="1.0" encoding="UTF-8"?><svg id="Layer_3" xmlns="http://www.w3.org/2000/svg" viewBox="0 0 100 100"><defs><style>.cls-1{stroke-width:2.58px;}.cls-1,.cls-2,.cls-3,.cls-4,.cls-5,.cls-6{stroke:#4293d7;stroke-linecap:round;stroke-linejoin:round;}.cls-1,.cls-7{fill:none;}.cls-8,.cls-2,.cls-9,.cls-4{fill:#4293d7;}.cls-2{stroke-width:.72px;}.cls-9,.cls-4{opacity:.2;}.cls-3{stroke-width:1.72px;}.cls-3,.cls-5,.cls-6{fill:#fff;}.cls-4{stroke-width:.93px;}.cls-5{stroke-width:1.4px;}.cls-6{stroke-width:2.41px;}</style></defs><rect class="cls-7" width="100" height="100"/><g><g><path class="cls-1" d="m58.36,70.94c.85-.65,13.91.87,11.53,10.76"/><path class="cls-6" d="m71.27,17.92s-24.69,15.44-38.14,26.43c-3.72-1.74-8.8-6.25-8.8-6.25,0,0,25.89-25.64,35.01-32.31,8.66,5.18,11.93,12.14,11.93,12.14Z"/><path class="cls-6" d="m33.88,45.8s3.32,18.91,2.26,29.04c8.6-.9,41.78-5.24,41.78-5.24.23-5.03-3.88-31-3.88-31-5.52,0-36.59,5.36-40.16,7.19Z"/><path class="cls-8" d="m26.19,52.88l-22.76-.71c-.73-.02-.74-1.14,0-1.16,0,0,22.76-.71,22.76-.71,1.74-.02,1.75,2.6,0,2.58h0Z"/><path class="cls-4" d="m72.33,56.21c.71,5.64-2.11,10.64-6.29,11.17-2.52.32-4.97-1.07-6.66-3.44-1.12-1.57-1.92-3.58-2.2-5.82-.37-2.96.23-5.75,1.49-7.79,1.14-1.86,2.82-3.12,4.81-3.37,4.18-.52,8.15,3.62,8.85,9.26Z"/><path class="cls-4" d="m55.18,58.43c.71,5.65-2.11,10.64-6.29,11.17-2.63.33-5.17-1.18-6.87-3.75-1.01-1.52-1.73-3.41-1.99-5.52-.37-2.98.24-5.79,1.52-7.85,1.15-1.82,2.82-3.06,4.78-3.31,4.18-.52,8.15,3.62,8.85,9.26Z"/><path class="cls-8" d="m27.77,62.88l-16.82-.56c-.92-.03-.92-1.43,0-1.46,0,0,16.82-.56,16.82-.56,1.75-.02,1.75,2.6,0,2.58h0Z"/><path class="cls-8" d="m27.37,72.25l-10.88-.67c-.34-.02-.6-.31-.58-.66.02-.32.27-.56.58-.58l10.88-.67c1.8-.07,1.8,2.64,0,2.58h0Z"/><path class="cls-1" d="m50.7,74.22s1.32,13.41-7.97,6.7"/><g><path class="cls-8" d="m81.8,74.07c-1.61-.74-3.67.83-7.17,3.68-1.63,1.33-3.66,2.98-4.54,3.22-1.8.48-2.29,1.4-2.38,2.1-.11.86.35,1.7,1.21,2.2.53.31,1.11.43,1.64.36.28-.03.54-.12.78-.26,2.26-.84,11.74-4.62,11.63-9.22-.03-1.36-.75-1.89-1.17-2.08Z"/><path class="cls-8" d="m36.15,80.35l-.97.59c-.06.03-5.8,3.57-4.62,6.13.45.98,1.46,1.11,2.38,1,.64-.08,1.23-.28,1.55-.39,4.97-1.67,9.56-7.19,9.76-7.42l.12-.14.07-.17c.57-1.33.16-2.07-.28-2.45-1.24-1.08-3.18-.07-8,2.85Z"/></g><path class="cls-8" d="m57.81,7.46s.2,15.84.3,17.45-5.09,4.5-5.09,4.5c0,0-.33-16.7.91-18.63,1.17-1.88,3.88-3.31,3.88-3.31Z"/><polygon class="cls-8" points="48.01 16.53 47.28 32.51 42.71 35.75 43.12 21.46 48.01 16.53"/><polygon class="cls-8" points="38.06 25.72 37.64 39.72 34.23 42.37 33.13 30.25 38.06 25.72"/><path class="cls-3" d="m35.04,53.53s33.42-6.52,40.47-6.28"/><polygon class="cls-8" points="72.53 38.69 63.14 48.58 57.42 49.49 64.42 39.7 72.53 38.69"/><polygon class="cls-8" points="58.4 40.64 51.16 50.55 44.71 51.71 50.73 41.97 58.4 40.64"/><polygon class="cls-8" points="45.85 42.89 40.26 52.53 36.01 53.34 40.89 43.9 45.85 42.89"/><path class="cls-5" d="m71.28,55.53c.71,5.64-2.11,10.64-6.29,11.17-2.52.32-4.97-1.07-6.66-3.44-1.12-1.57-1.92-3.58-2.2-5.82-.37-2.96.23-5.75,1.49-7.79,1.14-1.86,2.82-3.12,4.81-3.37,4.18-.52,8.15,3.62,8.85,9.26Z"/><path class="cls-5" d="m54.13,57.75c.71,5.65-2.11,10.64-6.29,11.17-2.63.33-5.17-1.18-6.87-3.75-1.01-1.52-1.73-3.41-1.99-5.52-.37-2.98.24-5.79,1.52-7.85,1.15-1.82,2.82-3.06,4.78-3.31,4.18-.52,8.15,3.62,8.85,9.26Z"/><path class="cls-8" d="m62.7,55.95c.47,3.78-1.03,7.08-3.35,7.37-.35.04-.69.02-1.03-.07-1.12-1.57-1.92-3.58-2.2-5.82-.37-2.96.23-5.75,1.49-7.79h.03c2.32-.29,4.59,2.53,5.06,6.31Z"/><path class="cls-8" d="m45.87,58.06c.47,3.78-1.03,7.08-3.35,7.37-.53.07-1.05-.03-1.56-.26-1.01-1.52-1.73-3.41-1.99-5.52-.37-2.98.24-5.79,1.52-7.85.1-.02.2-.04.31-.06,2.32-.29,4.59,2.53,5.06,6.31Z"/><path class="cls-2" d="m58.6,66.64s-1.83,2.21-4.21.5c.6,2.36,3.92,3.41,4.21-.5Z"/></g><path class="cls-9" d="m72.72,39.98l.91,26.7s-15.13,4.29-20.03,4.77c12.42-.64,24.34-2.5,24.34-2.5l-3.89-30.35s-1.06-.2-1.32,1.37Z"/><path class="cls-9" d="m59.4,7.14s5.69,6.91,6.7,9.59-29.26,19.39-32.98,26.16c3.96-1.66,38.51-25.21,38.51-25.21,0,0-9.64-12.16-12.24-10.54Z"/></g></svg>