<?xml version="1.0" encoding="UTF-8"?><svg id="Layer_3" xmlns="http://www.w3.org/2000/svg" viewBox="0 0 100 100"><defs><style>.cls-1{stroke-width:2.79px;}.cls-1,.cls-2,.cls-3,.cls-4,.cls-5,.cls-6,.cls-7{stroke:#4293d7;}.cls-1,.cls-2,.cls-4,.cls-5,.cls-6{stroke-linecap:round;stroke-linejoin:round;}.cls-1,.cls-3,.cls-4,.cls-5,.cls-7{fill:#fff;}.cls-2,.cls-8,.cls-9{fill:#4293d7;}.cls-2,.cls-6{stroke-width:1.51px;}.cls-3{stroke-width:1.12px;}.cls-3,.cls-7{stroke-miterlimit:10;}.cls-4{stroke-width:1.94px;}.cls-5{stroke-width:.93px;}.cls-6,.cls-10{fill:none;}.cls-7{stroke-width:1.23px;}.cls-9{opacity:.2;}</style></defs><rect class="cls-10" width="100" height="100"/><g><path class="cls-4" d="m24.31,64.24s10.79,17.09,11.28,21.18c6.46-3.13,15.46-17.48,15.46-17.48l-26.74-3.7Z"/><path class="cls-4" d="m24.35,65.98s13.2,8.61,20.47,17.45c9.02-3.87,13.58-14.93,13.58-14.93,0,0-16.85-6.25-34.05-2.52Z"/><path class="cls-4" d="m24.63,67.59s19.22,3.86,31.41,15.37c3.73-1.89,8.25-7.84,8.25-7.84,0,0-15.52-11.82-39.66-7.54Z"/><path class="cls-1" d="m33.07,22.22c4.96-1.42,27.98-7.32,43.9.08-.04,15.86-13,57-13,57,0,0-15.21-15.18-39.85-12.19,3.06-16.73,8.74-38.14,8.18-43.7-.05-.53.25-1.03.77-1.18Z"/><path class="cls-6" d="m61.77,26.74s-1.47-5.55-10.05-3.38"/><path class="cls-6" d="m41.78,24.94s-3.3-.27-6,2.27"/><path class="cls-2" d="m61.43,50.84s-1.27-4.71-9.72.78c-8.45,5.49-14.6-3.12-14.6-3.12,0,0-1.78-2.68-4.24-1.01-2.47,1.67.69,11.75,10.85,13.4,10.14,1.65,18.23-3.77,17.72-10.06Z"/><path class="cls-3" d="m61.2,36.51c0,4.69-3.95,8.49-7.59,8.49s-5.46-3.58-5.46-8.27,1.82-8.71,5.46-8.71,7.59,3.8,7.59,8.49Z"/><path class="cls-3" d="m47.02,36.85c0,4.23-3.56,7.65-6.84,7.65s-4.92-3.23-4.92-7.45,1.65-7.85,4.92-7.85,6.84,3.43,6.84,7.65Z"/><path class="cls-8" d="m58.4,37.28c0,2.14-1.27,3.87-2.83,3.87s-2.06-1.73-2.06-3.87.5-3.87,2.06-3.87,2.83,1.73,2.83,3.87Z"/><path class="cls-8" d="m45.77,36.97c0,2.02-1.28,3.65-2.86,3.65s-2.03-1.63-2.03-3.65.45-3.65,2.03-3.65,2.86,1.63,2.86,3.65Z"/><path class="cls-5" d="m54.05,59.32s2.95-4.05-7.17-3.48c-10.12.57-8.72,1.72-8.44,2.74,1.35,1.6,10.32,3.47,15.6.74Z"/><path class="cls-9" d="m76.31,22.86s-12.19,43.89-15.11,46.05-16.47-7.94-34.76-3.02c14.84,1.55,36.42,10.33,37.84,13.01,5.56-11.89,12.03-56.04,12.03-56.04Z"/><path class="cls-9" d="m29.2,67.9s21.13,2.28,29.45,12.2c2.77-1.61,3.34-2.24,3.34-2.24,0,0-21.32-14.4-32.79-9.96Z"/><path class="cls-9" d="m32.06,70.54l14.95,10.95,4.2-2.48s-13.76-8.84-19.15-8.48Z"/><path class="cls-9" d="m27.96,70.53s4.65,2.74,10.49,12.43c2.22-.02,3.19-2.54,3.19-2.54,0,0-11.15-11.63-13.68-10.21"/><path class="cls-4" d="m24.31,64.24s10.79,17.09,11.28,21.18c6.46-3.13,15.46-17.48,15.46-17.48l-26.74-3.7Z"/><path class="cls-4" d="m24.35,65.98s13.2,8.61,20.47,17.45c9.02-3.87,13.58-14.93,13.58-14.93,0,0-16.85-6.25-34.05-2.52Z"/><path class="cls-4" d="m24.63,67.59s19.22,3.86,31.41,15.37c3.73-1.89,8.25-7.84,8.25-7.84,0,0-15.52-11.82-39.66-7.54Z"/><path class="cls-1" d="m33.07,22.22c4.96-1.42,27.98-7.32,43.9.08-.04,15.86-13,57-13,57,0,0-15.21-15.18-39.85-12.19,3.06-16.73,8.74-38.14,8.18-43.7-.05-.53.25-1.03.77-1.18Z"/><path class="cls-6" d="m61.77,26.74s-1.47-5.55-10.05-3.38"/><path class="cls-6" d="m41.78,24.94s-3.3-.27-6,2.27"/><path class="cls-2" d="m61.43,50.84s-1.27-4.71-9.72.78c-8.45,5.49-14.6-3.12-14.6-3.12,0,0-1.78-2.68-4.24-1.01-2.47,1.67.69,11.75,10.85,13.4,10.14,1.65,18.23-3.77,17.72-10.06Z"/><path class="cls-9" d="m48.01,38.3c0,4.23-3.56,7.65-6.84,7.65s-4.92-3.23-4.92-7.45,1.65-7.85,4.92-7.85,6.84,3.43,6.84,7.65Z"/><path class="cls-3" d="m47.02,36.85c0,4.23-3.56,7.65-6.84,7.65s-4.92-3.23-4.92-7.45,1.65-7.85,4.92-7.85,6.84,3.43,6.84,7.65Z"/><path class="cls-8" d="m45.77,36.97c0,2.02-1.28,3.65-2.86,3.65s-2.03-1.63-2.03-3.65.45-3.65,2.03-3.65,2.86,1.63,2.86,3.65Z"/><path class="cls-5" d="m54.05,59.32s2.95-4.05-7.17-3.48c-10.12.57-8.72,1.72-8.44,2.74,1.35,1.6,10.32,3.47,15.6.74Z"/><path class="cls-9" d="m54.05,59.32s2.95-4.05-7.17-3.48c-10.12.57-8.72,1.72-8.44,2.74,1.35,1.6,10.32,3.47,15.6.74Z"/><path class="cls-9" d="m76.31,22.86s-12.19,43.89-15.11,46.05-16.47-7.94-34.76-3.02c14.84,1.55,36.42,10.33,37.84,13.01,5.56-11.89,12.03-56.04,12.03-56.04Z"/><path class="cls-9" d="m29.2,67.9s21.13,2.28,29.45,12.2c2.77-1.61,3.34-2.24,3.34-2.24,0,0-21.32-14.4-32.79-9.96Z"/><path class="cls-9" d="m32.06,70.54l14.95,10.95,4.2-2.48s-13.76-8.84-19.15-8.48Z"/><path class="cls-9" d="m27.96,70.53s4.65,2.74,10.49,12.43c2.22-.02,3.19-2.54,3.19-2.54,0,0-11.15-11.63-13.68-10.21"/><path class="cls-9" d="m62.98,37.64c0,5.16-4.35,9.34-8.36,9.34s-6.01-3.94-6.01-9.1,2.01-9.59,6.01-9.59,8.36,4.18,8.36,9.34Z"/><path class="cls-7" d="m61.99,36.18c0,5.16-4.35,9.34-8.36,9.34s-6.01-3.94-6.01-9.1,2.01-9.59,6.01-9.59,8.36,4.18,8.36,9.34Z"/><path class="cls-8" d="m58.9,37.03c0,2.35-1.39,4.26-3.11,4.26s-2.27-1.91-2.27-4.26.55-4.26,2.27-4.26,3.11,1.91,3.11,4.26Z"/></g></svg>