<?xml version="1.0" encoding="UTF-8"?>
<svg id="Layer_2" data-name="Layer 2" xmlns="http://www.w3.org/2000/svg" xmlns:xlink="http://www.w3.org/1999/xlink" viewBox="0 0 1234.3 395.87">
  <defs>
    <style>
      .cls-1 {
        fill: url(#linear-gradient);
      }

      .cls-1, .cls-2, .cls-3, .cls-4, .cls-5, .cls-6, .cls-7, .cls-8, .cls-9, .cls-10 {
        stroke-width: 0px;
      }

      .cls-2 {
        fill: #fcfdfd;
      }

      .cls-3 {
        fill: url(#linear-gradient-2);
      }

      .cls-3, .cls-11, .cls-6 {
        opacity: .3;
      }

      .cls-4, .cls-6 {
        fill: #72b1e4;
      }

      .cls-5 {
        fill: #fff;
      }

      .cls-7 {
        fill: url(#linear-gradient-3);
      }

      .cls-8 {
        fill: #71aee1;
      }

      .cls-9 {
        fill: #122d3d;
      }

      .cls-12 {
        opacity: .2;
      }

      .cls-13 {
        fill: #4293d7;
        font-family: Poppins-SemiBold, Poppins;
        font-size: 14px;
        font-weight: 600;
      }

      .cls-10 {
        fill: url(#linear-gradient-4);
      }
    </style>
    <linearGradient id="linear-gradient" x1="-124.98" y1="-247.6" x2="440.88" y2="530.86" gradientUnits="userSpaceOnUse">
      <stop offset=".52" stop-color="#122d3d"/>
      <stop offset=".58" stop-color="#133042"/>
      <stop offset=".66" stop-color="#193c53"/>
      <stop offset=".76" stop-color="#214e6f"/>
      <stop offset=".86" stop-color="#2d6896"/>
      <stop offset=".97" stop-color="#3d88c7"/>
      <stop offset="1" stop-color="#4293d7"/>
    </linearGradient>
    <linearGradient id="linear-gradient-2" x1="229.95" y1="21.22" x2="24.42" y2="264.16" gradientUnits="userSpaceOnUse">
      <stop offset="0" stop-color="#72b1e4" stop-opacity="0"/>
      <stop offset=".48" stop-color="#72b1e4"/>
      <stop offset="1" stop-color="#72b1e4" stop-opacity="0"/>
    </linearGradient>
    <linearGradient id="linear-gradient-3" x1="389.46" y1="427.85" x2="-81.25" y2="-142.67" gradientUnits="userSpaceOnUse">
      <stop offset=".45" stop-color="#72b1e4"/>
      <stop offset="1" stop-color="#4293d7"/>
    </linearGradient>
    <linearGradient id="linear-gradient-4" x1="786.39" y1="133.93" x2="926.34" y2="750.01" gradientUnits="userSpaceOnUse">
      <stop offset="0" stop-color="#fcfdfd"/>
      <stop offset="1" stop-color="#ddeefc"/>
    </linearGradient>
  </defs>
  <g>
    <text class="cls-13" transform="translate(1208.83 1786.62) rotate(-76.2)"><tspan x="0" y="0">B</tspan></text>
    <text class="cls-13" transform="translate(1211 1778.04) rotate(-73.45)"><tspan x="0" y="0">i</tspan></text>
    <text class="cls-13" transform="translate(1212.01 1774.38) rotate(-70.59)"><tspan x="0" y="0">g</tspan></text>
    <text class="cls-13" transform="translate(1215.19 1765.58) rotate(-67.85)"><tspan x="0" y="0"> </tspan></text>
    <text class="cls-13" transform="translate(1216.35 1762.55) rotate(-65.23)"><tspan x="0" y="0">o</tspan></text>
    <text class="cls-13" transform="translate(1220.1 1754.58) rotate(-62.49)"><tspan x="0" y="0">l</tspan></text>
    <text class="cls-13" transform="translate(1221.87 1751.16) rotate(-60.82)"><tspan x="0" y="0">’</tspan></text>
    <text class="cls-13" transform="translate(1223.71 1747.89) rotate(-59.3)"><tspan x="0" y="0"> </tspan></text>
    <text class="cls-13" transform="translate(1225.31 1745.06) rotate(-56.73)"><tspan x="0" y="0">e</tspan></text>
    <text class="cls-13" transform="translate(1229.82 1737.92) rotate(-51.73)"><tspan x="0" y="0">m</tspan></text>
    <text class="cls-13" transform="translate(1238.85 1726.66) rotate(-46.54)"><tspan x="0" y="0">a</tspan></text>
    <text class="cls-13" transform="translate(1245.34 1719.9) rotate(-43.64)"><tspan x="0" y="0">i</tspan></text>
    <text class="cls-13" transform="translate(1248.13 1717.25) rotate(-41.95)"><tspan x="0" y="0">l</tspan></text>
    <text class="cls-13" transform="translate(1250.97 1714.7) rotate(-40.39)"><tspan x="0" y="0"> </tspan></text>
    <text class="cls-13" transform="translate(1253.38 1712.54) rotate(-37.61)"><tspan x="0" y="0">b</tspan></text>
    <text class="cls-13" transform="translate(1260.74 1706.87) rotate(-33.56)"><tspan x="0" y="0">u</tspan></text>
    <text class="cls-13" transform="translate(1268.37 1701.86) rotate(-30.4)"><tspan x="0" y="0">t</tspan></text>
    <text class="cls-13" transform="translate(1273 1699.15) rotate(-28.05)"><tspan x="0" y="0">t</tspan></text>
    <text class="cls-13" transform="translate(1277.63 1696.62) rotate(-25)"><tspan x="0" y="0">o</tspan></text>
    <text class="cls-13" transform="translate(1285.55 1692.87) rotate(-20.56)"><tspan x="0" y="0">n</tspan></text>
    <text class="cls-13" transform="translate(1294.14 1689.66) rotate(-18.48)"><tspan x="0" y="0"> </tspan></text>
    <text class="cls-13" transform="translate(1297.18 1688.58) rotate(-15.87)"><tspan x="0" y="0">o</tspan></text>
    <text class="cls-13" transform="translate(1305.68 1686.22) rotate(-12.91)"><tspan x="0" y="0">f</tspan></text>
    <text class="cls-13" transform="translate(1310.31 1685.16) rotate(-11.16)"><tspan x="0" y="0"> </tspan></text>
    <text class="cls-13" transform="translate(1313.45 1684.47) rotate(-8.39)"><tspan x="0" y="0">d</tspan></text>
    <text class="cls-13" transform="translate(1322.68 1683.12) rotate(-4.46)"><tspan x="0" y="0">e</tspan></text>
    <text class="cls-13" transform="translate(1331.17 1682.46) rotate(-.93)"><tspan x="0" y="0">s</tspan></text>
    <text class="cls-13" transform="translate(1338.66 1682.37) rotate(1.88)"><tspan x="0" y="0">t</tspan></text>
    <text class="cls-13" transform="translate(1344 1682.55) rotate(3.89)"><tspan x="0" y="0">i</tspan></text>
    <text class="cls-13" transform="translate(1347.76 1682.74) rotate(6.72)"><tspan x="0" y="0">n</tspan></text>
    <text class="cls-13" transform="translate(1356.79 1683.81) rotate(10.53)"><tspan x="0" y="0">y</tspan></text>
  </g>
  <g>
    <circle class="cls-1" cx="192.18" cy="188.73" r="177.84"/>
    <path class="cls-3" d="m20.53,194.92C20.53,96.7,100.15,17.07,198.37,17.07c47.54,0,90.71,18.65,122.62,49.03-32.39-34.02-78.13-55.22-128.81-55.22C93.96,10.88,14.34,90.51,14.34,188.73c0,50.68,21.2,96.42,55.22,128.81-30.38-31.91-49.03-75.08-49.03-122.62Z"/>
    <path class="cls-7" d="m340.01,188.73c0,81.64-66.19,147.83-147.83,147.83-21.52,0-41.97-4.6-60.41-12.87-9.91-4.44-19.24-9.94-27.85-16.36-7.61-5.67-14.66-12.06-21.04-19.06-14.04-15.4-24.86-33.78-31.41-54.08-4.62-14.32-7.12-29.6-7.12-45.46,0-81.65,66.18-147.83,147.83-147.83,6.1,0,12.11.37,18.02,1.09,24.92,3.03,47.93,12.26,67.44,26.11,6.94,4.91,13.44,10.42,19.42,16.45,2.91,2.93,5.69,5.98,8.34,9.14,21.6,25.7,34.61,58.85,34.61,95.04Z"/>
    <g>
      <g class="cls-12">
        <path class="cls-9" d="m194.89,307.25c-10.64,0-21.16-1.9-30.81-5.65-16.52-6.42-28.81-17.53-35.69-32.24-5.33,2.19-11.58,2.03-17.56-.52-7.5-3.21-13.21-9.55-14.93-16.59-2.89-7.85-3.88-19.52.41-28.03,2-3.97,5.02-6.9,8.8-8.56-1.32-5.25-3.44-10.34-5.68-15.7-1.91-4.58-3.89-9.31-5.32-14.17l-.37-1.21c-1.98-6.45-4.03-13.13-2.7-20.83,1.42-6.64,3.95-13.28,7.54-19.83,15.36-27.09,39.01-47.08,57.91-61.48l2.46-1.87,1.32,2.8c2.35,4.99,4.03,10.24,5.03,15.66,1.62-1.85,3.24-3.81,4.84-5.85,5.04-6.43,10.13-14.08,15.55-23.39l2.06-3.53,2.21,3.44c5.78,8.99,9.22,17.29,10.46,25.24,8.34-6.42,14.27-13.04,18.07-20.15l2.16-4.05,2.23,4.02c5.57,10.06,9.01,19.76,10.25,28.96,2.11-3.04,4.22-6.24,6.3-9.57l2.46-3.93,1.93,4.22c.39.86.8,1.74,1.21,2.62,2.41,5.22,4.9,10.61,6.47,15.86,3.26,10.43,6.49,23.98,2.85,36.87,4.77,8.25,5.7,17.26,6.6,25.99.21,2.08.44,4.23.71,6.32v.11c.25,2.78.52,5.5.83,8.12,10.86.8,19.5,12.35,19.5,26.45,0,12.06-6.34,22.51-15.28,25.58-3.67,16.8-15.66,53.19-51.61,62.62-6.66,1.54-13.46,2.31-20.21,2.31Z"/>
      </g>
      <g>
        <g>
          <g>
            <path class="cls-9" d="m267.97,188.23c-.34,0-.68.01-1.02.04-.43-3.44-.79-6.91-1.09-10.4-1.43-11-1.38-22.35-7.54-32.29,3.78-12.05,1.11-24.81-2.54-36.49-1.79-5.97-4.92-12.38-7.56-18.16-3.22,5.14-6.7,10.31-10.4,15.28-.15-12.13-4.58-24.17-10.46-34.78-5.08,9.51-13.36,17.24-22.31,23.58-.53-10.22-4.98-19.85-10.53-28.49-4.71,8.09-9.92,16.25-15.74,23.67-2.7,3.45-5.55,6.78-8.55,9.9-.68-6.95-2.52-13.76-5.55-20.19-22.3,16.99-43.23,36-57.23,60.69-3.22,5.88-5.81,12.25-7.27,19.06-1.31,7.57.93,14.09,3.01,20.91,3.21,10.93,9.27,21.17,11.53,32.17-13.54,3.91-14.01,22.81-9.74,34.26,2.9,12.31,19.44,21.44,31.32,14.45,13.56,32.56,52.45,44.07,84.84,36.56,29.33-7.69,44.63-35.31,50.11-62.18,8.48-2.03,14.92-11.84,14.92-23.6,0-13.23-8.16-23.99-18.2-23.99Z"/>
            <path class="cls-9" d="m201.57,302.73c-10.64,0-21.16-1.9-30.81-5.65-16.52-6.42-28.81-17.53-35.69-32.24-5.33,2.19-11.58,2.03-17.56-.52-7.5-3.21-13.21-9.55-14.93-16.59-2.89-7.85-3.88-19.52.41-28.03,2-3.97,5.02-6.9,8.8-8.56-1.32-5.25-3.45-10.34-5.68-15.7-1.91-4.58-3.89-9.31-5.32-14.17l-.37-1.22c-1.98-6.45-4.03-13.13-2.7-20.82,1.42-6.64,3.95-13.28,7.54-19.83,15.36-27.09,39.01-47.08,57.91-61.48l2.46-1.87,1.32,2.8c2.35,4.99,4.03,10.24,5.03,15.66,1.62-1.85,3.24-3.81,4.84-5.85,5.04-6.43,10.13-14.08,15.55-23.39l2.06-3.53,2.21,3.44c5.77,8.99,9.22,17.29,10.46,25.24,8.34-6.42,14.27-13.04,18.07-20.15l2.17-4.05,2.23,4.02c5.57,10.06,9.01,19.77,10.25,28.96,2.11-3.04,4.22-6.24,6.3-9.57l2.46-3.93,1.93,4.22c.39.86.8,1.73,1.2,2.62,2.41,5.22,4.9,10.62,6.48,15.86,3.26,10.43,6.49,23.98,2.86,36.87,4.77,8.25,5.7,17.27,6.6,25.99.21,2.08.44,4.23.71,6.32v.11c.25,2.76.52,5.48.83,8.12,10.86.8,19.5,12.35,19.5,26.45,0,12.06-6.34,22.51-15.28,25.58-3.67,16.8-15.66,53.19-51.61,62.62-6.66,1.54-13.46,2.31-20.21,2.31Z"/>
          </g>
          <ellipse class="cls-5" cx="267.97" cy="212.22" rx="14.7" ry="20.5"/>
          <g class="cls-12">
            <path class="cls-8" d="m264.4,191.73l5.39,41.75s17.79-10.96,12.5-25.89c-5.29-14.94-17.89-15.86-17.89-15.86Z"/>
          </g>
          <path class="cls-9" d="m267.97,236.22c-10.03,0-18.2-10.76-18.2-24s8.16-24,18.2-24,18.2,10.76,18.2,24-8.16,24-18.2,24Zm0-40.99c-6.07,0-11.2,7.78-11.2,17s5.13,17,11.2,17,11.2-7.78,11.2-17-5.13-17-11.2-17Z"/>
          <g>
            <path class="cls-2" d="m137.2,255.58s11.5,43.45,77.4,40.22c31.65-3.23,60.53-56.05,53.42-84.15-7.11-28.1-3.23-52.96-13.89-65.56,7.43-18.41-6.46-47.15-6.46-47.15-7.43,11.63-15.5,20.35-15.5,20.35,6.14-19.05-5.17-40.05-5.17-40.05-7.11,11.63-26.16,23.25-26.16,23.25,2.58-14.21-6.32-28.42-6.32-28.42,0,0-12.74,21.96-27.92,34.88.65-13.56-3.55-22.93-3.55-22.93,0,0-51.84,38.17-59.11,74.6-2.84,14.22,16.15,45.86,15.18,55.22-15.18,1.29-14.57,19.75-9.37,32.94,3.78,9.59,18.73,17.12,27.46,6.78Z"/>
            <g class="cls-12">
              <path class="cls-8" d="m214.66,291.72s-2.08,3.04-7.34,6.95c-28.67,2.03-59-10.21-70.58-38.03-11.72,6.9-28.04-2.11-30.9-14.26-4.21-11.3-3.75-29.95,9.61-33.8-2.23-10.85-8.21-20.96-11.38-31.74-2.05-6.73-4.26-13.16-2.97-20.63,1.44-6.72,4-13,7.17-18.81,13.81-24.36,34.47-43.12,56.47-59.88,2.99,6.34,4.81,13.06,5.48,19.92,2.96-3.08,5.77-6.36,8.44-9.77,3.35-4.27,6.5-8.8,9.46-13.42,2.79,2.94,4.77,5.39,4.77,5.39,0,0-7.15,29.58-32.12,40.08,0,0-2.45-8.7-2.05-21.58-18.74,16.91-44.75,46.83-41.63,63.09,3.12,16.26,18.08,58.28,6.25,58.4-11.84.13-9.76,25.37,1.94,29.39,7.16,2.48,9.24-9.49,13.92-5.59,4.69,3.91,11.99,43.38,75.47,44.29Z"/>
            </g>
            <path class="cls-9" d="m271.33,210.64c-2.96-10.55-4.51-21.56-5.47-32.77-1.43-11-1.38-22.34-7.54-32.29,3.78-12.05,1.11-24.81-2.54-36.49-1.79-5.97-4.92-12.38-7.57-18.16-3.22,5.14-6.69,10.32-10.39,15.28-.16-12.13-4.59-24.17-10.46-34.78-5.08,9.52-13.36,17.24-22.31,23.59-.53-10.22-4.98-19.85-10.53-28.5-4.71,8.09-9.92,16.26-15.74,23.67-2.7,3.46-5.56,6.78-8.55,9.91-.68-6.96-2.52-13.77-5.55-20.19-22.3,16.98-43.23,35.99-57.23,60.68-3.23,5.88-5.82,12.26-7.28,19.06-1.3,7.57.93,14.09,3.01,20.91,3.21,10.93,9.27,21.17,11.53,32.17-13.54,3.92-14.02,22.81-9.74,34.27,2.9,12.31,19.44,21.44,31.32,14.45,13.55,32.56,52.45,44.07,84.83,36.56,31.92-8.37,47.22-40.35,51.34-69.27.63-5.91.48-12.1-1.15-18.09Zm-58.78,80.96c-18.53.79-37.71-1.8-52.93-12.8-8.29-5.97-15.17-14.2-18.56-23.88-.17-1.19-1.64-2.96-3-3.12-1.67-.08-3.85,1.13-5.03,2.52-7.49,6.22-17.79-1.85-20.65-9.7-2.75-8.55-4.71-23.87,7.07-24.89l1.45-.1c1.07-.08,1.91-.93,1.99-1.99.05-.72.1-1.37.1-1.37.09-7.54-3.21-13.56-5.62-20.28-3.92-10.79-10.73-23.73-9.57-34.78,1.25-5.8,3.52-11.51,6.5-16.92,11.34-20.16,28.74-37.16,46.82-51.72,1.73,6.78,1.79,14.22,1.45,21.23-.07,1.54,1.72,2.42,2.89,1.43,11.26-9.55,20.71-20.84,28.69-33.17,2.59,6.28,3.99,13.31,2.88,19.76,0,0-.53,3.16-.95,5.64-.19,1.13,1.04,1.95,2.01,1.34,10.14-6.34,20.15-12.86,27.96-21.97,3.81,9.93,5.53,21.1,2.44,31.29l-3.78,13.31c-.2.7.68,1.18,1.16.65,0,0,17.11-8.4,20.98-24.97.55,1.46,1.09,2.94,1.57,4.4,3.72,10.98,5.66,23.65,1.93,34.39-.29.84-.11,1.76.51,2.39.19.19,7.22,8.73,9.62,30.13,1.25,11.15,4.36,22.23,5.04,33.69,2.92,49.23-29.02,76.49-52.96,79.49Z"/>
          </g>
        </g>
        <g>
          <path class="cls-9" d="m172.77,221.38c8.04-1.84,17.06-6.04,20.2-14.21.43-1.07,1.63-1.59,2.7-1.16,1.14.39,1.33,1.65,1.48,2.65.58,3.03-.38,6.06-1.91,8.58-4.79,6.87-13.55,10.1-21.68,8.51-2.78-.08-3.56-3.57-.8-4.37h0Z"/>
          <path class="cls-9" d="m231.16,200.59c3.81,6.68,12.07,10.48,19.52,7.79,1.86-.56,3.26,1.97,1.84,3.25,0,0-.62.6-.62.6-3.8,3.9-10.13,4.2-14.86,1.79-4.76-2.29-8.22-6.37-9.43-11.5-.44-1.18.09-2.58,1.39-2.86.87-.2,1.73.2,2.16.93h0Z"/>
          <path class="cls-9" d="m217.89,255.09c-10.12,2.7-22.41.51-28.85-8.22,1.41-.64,2.94-1.06,4.37-1.25,2.4-.26,2.3-3.9-.14-4.01-5.61-.42-11.7,2.62-13.46,8.24-.68,1.94-.51,3.91-.16,5.7.37,2.32,4.02,2.04,4.01-.33.03-1.28.07-2.57.56-3.66.29-.8.74-1.49,1.28-2.12,1.14,2.9,3.03,5.23,5.29,7.25,7.75,6.44,19.31,6.85,28.05,2.33,2.34-.79,1.51-4.36-.96-3.93Z"/>
          <g class="cls-12">
            <path class="cls-8" d="m240.83,236.9s2.28,9.57-8.11,10.58-9.85-6.52-7.84-6.73c7.3.97,12.39.55,15.95-3.85Z"/>
          </g>
          <path class="cls-9" d="m226.99,227.41c8.24-2.1,19.94,3.8,12,13.13-2.47,2.9-14.54,7.77-15.18,1.75.08-4.93,5.81-3.72,9.44-4.89,8.6-3.21.95-7.73-6.27-6.88-1.93.23-1.93-3.07,0-3.1h0Z"/>
        </g>
      </g>
    </g>
  </g>
  <g class="cls-11">
    <path class="cls-4" d="m793.93,225.38c-.76-7.35-1.49-18.02-.7-27.11l.02-.32c.01-.07.02-.15.03-.22l.02-.17c0-.14.01-.28.02-.42l.1-1.28-.14-.02c-.49-5.44-4.84-8.56-9.29-8.87-4.92-.34-10.16,2.68-10.73,9.12-1.77,13.48-4.5,25.57-8.09,35.88-2.51,6.69-5.63,15.01-11.44,19.26-1.53.87-3.12,1.03-4.59.46-1.77-.69-3.18-2.33-3.87-4.51-3.32-13.14,3.39-32.72,14.39-41.99,5.2-3.98,4.94-10.06,1.98-14.01-2.98-3.98-8.77-5.96-14.13-1.99-9.36,7.37-17.15,20.22-20.93,33.59.72-3.73,1.03-8.03.24-12.78-2.16-12.1-8.85-17.2-14.08-19.34-8.19-3.36-19.09-1.92-28.67,3.59-.48-3.37-3.21-5.69-6.72-5.69h-.07c-3.63.03-6.39,2.53-6.71,6.04-1.35,13.14-2.67,24.95-5.26,36.27-2.69,10.78-6.11,21.39-15.55,22.44-1.95.11-4.35.25-5.02-.12-.33-.18-.7-1.2-1.08-3.03-1.03-15.49,5.29-32.27,10.86-47.08.48-1.27.95-2.53,1.42-3.77,1.55-4.07-.7-7.5-3.73-8.77-3.03-1.28-7.07-.51-8.9,3.43l-.81,1.7c-.56,1.18-1.2,2.5-1.87,3.93-3.31-4.88-8.11-8.19-14.1-9.69-10.94-2.74-25.07.91-35.18,9.08-12.46,9.29-20.73,22.52-22.68,36.24-1.79,10.27,1.14,20.75,7.82,28.02,6.15,6.69,14.69,9.92,24,9.09,9.39-.75,18.75-5.01,26.75-12.1,2.85,7.1,8.92,11.43,17.78,12.6h.13c10.23.82,18.74-1.88,25.28-8.01,12.51-11.72,15.16-33.31,15.09-49.89,7.79-4.79,14.38-6.93,18.67-6.04,4.68,2.03,4.88,8.33,4.65,16.34-.02.83-.05,1.63-.06,2.39-.19,3.62,2.07,6.93,5.5,8.06,2.19.74,4.48.51,6.47-.65,2.09-1.22,3.64-3.41,4.15-5.88.18-.56.36-1.13.54-1.73-.7,3.31-1.14,6.63-1.28,9.86-.52,11.99,3,21.89,10.19,28.64l.21.18c7.52,5.63,15.1,7.44,22.53,5.37,8.16-2.27,15.94-9.56,21.65-20.03.47,2.45.95,4.89,1.42,7.28,1.7,8.62,3.45,17.54,4.76,26.28,3.15,27.92-8.81,55.35-29.75,68.26l-.1.06c-12.88,8.78-30.2,13.03-51.48,12.65-10.81-.02-18.71-1.31-25.69-4.23-19.34-7.25-27.58-26.94-25.52-41.79,1.99-14.34,12.38-23.33,28.44-24.65,4.79-.29,9.56-.08,14.28.52v.08c21.8,2.74,42.54,14.03,61.7,25.82,1.65,1.02,3.31,1.46,4.87,1.46,3.13,0,5.9-1.76,7.51-4.21,1.81-2.76,2.23-6.52.31-9.63-.64-1.07-1.56-2.07-2.79-2.93-25.72-17.5-49.45-27.77-70.51-30.52-18.27-2.39-34.17,1.06-45.96,9.98-17.14,12.96-23.74,36.47-16.41,58.52,9.04,27.18,35.05,43.52,69.5,43.7,1.76.07,3.5.11,5.23.11,48.55,0,85.93-28.68,93.8-72.61,4.63-20.37.54-40.33-3.41-59.64-2.04-9.99-4.16-20.33-5.01-30.56Zm-169.72,11.47c-6.38,9.06-15.85,15.12-24.61,15.81-5.37.21-9.33-2.25-10.61-6.52-1.98-7.47.14-16.4,5.83-24.49,6.39-9.09,15.88-15.22,24.67-15.98.27-.01.53-.02.79-.02,4.87,0,8.31,2.37,9.73,6.72,2,7.47-.11,16.39-5.81,24.47Z"/>
    <path class="cls-4" d="m984.95,221.6c0-3.92-2.78-7.03-6.76-7.59-3.98-.56-7.51,1.71-8.58,5.5-3.94,14-2.44,30.37,4.33,47.35,1.51,3.86,5.24,6.23,9.16,6.23,1.16,0,2.33-.21,3.48-.64,5.05-1.93,7.59-7.61,5.66-12.67-4.45-11.62-7.04-25.18-7.3-38.18Z"/>
    <path class="cls-4" d="m574.31,208.25c3.58.48,6.89-1.57,8.27-5.1,1.36-3.51.32-7.23-2.61-9.3-14.97-12.43-33.74-10.22-50.3-8.27l-3.07.36c-17.91,2.53-33.47,6.76-47.58,12.94-4.36,1.53-6.87,5.67-5.97,9.88.93,4.52,5.36,7.43,9.88,6.5,6.79-1.4,14.46-2.73,22.78-3.96,17.1-2.44,31.33-3.69,44.43-3.92-6.21,19.6-22.14,36.05-42.27,43.41-18.58,6.79-37.96,4.49-53.17-6.3-19.32-13.84-27.66-36.74-22.29-61.27,5.89-26.89,26.84-48.24,52.18-53.12,20.86-4.47,43.36,3.37,56.05,19.6,3.95,4.68,9.66,4.24,13.25,1.39,3.6-2.86,5.33-8.32,1.69-13.26-15.59-22.88-40.71-34.59-68.89-32.14-32.12,2.79-61.32,23.32-74.38,52.27-16.59,35.13-10,74.55,16.8,100.41,15.5,14.96,34.97,22.64,55.33,22.63,13.56,0,27.5-3.41,40.92-10.33,23.63-12.68,40.65-36.57,44.85-62.74,1.34.09,2.73.2,4.1.34Z"/>
    <path class="cls-4" d="m940.23,113.59c-3.58-6-10.11-6.48-14.71-3.86-4.6,2.63-7.5,8.49-4.15,14.64,7.31,12.99,12.07,29.21,14.99,51.03,2.39,19.52,2.25,37.83-.4,54.41-1.76,10.22-3.86,15.71-5.64,18.65-8.23-7.49-16.23-18.25-22.76-30.66-1.49-2.59-2.85-5.37-4.28-8.31-4.01-8.25-8.16-16.77-16.06-22.46l-.21-.14c-7.28-4.19-15.41-2.33-19.79,4.51l-.17.27-.1.31c-4.4,13.7-10.78,27.34-19.47,41.67-.47.75-.95,1.54-1.45,2.36-2.36,3.86-5.2,8.5-7.92,11.09-2.66-4.05-4.36-9.37-5.76-14.08-5-18.06-7.18-37.92-8.65-54.94-1.27-17.09-2.49-37.17-1.88-56.48.1-6.1-4.48-9.59-9.06-9.87-4.59-.29-9.57,2.6-10.25,8.65-2.61,17.52-3.54,36.4-2.93,59.45,1.11,27.68,2.86,52.56,13.03,76.76,4.85,10.67,13.21,17.24,22.94,18.02.65.05,1.29.08,1.94.08,9.07,0,17.63-5.13,23.77-14.36,8.7-14.1,15.57-28.31,20.9-43.28.48,1.06.96,2.13,1.43,3.19,1.27,2.85,2.47,5.54,3.71,7.9,7.68,15.83,17.01,28.84,27.75,38.66,4.07,4.22,10.06,6.7,16.1,6.68,5.55-.03,10.64-2.22,14.38-6.21,8.81-9.99,10.59-19.17,12.65-29.8.23-1.2.47-2.43.72-3.67l.03-.19c5.62-46.28-.64-86.62-18.64-119.9l-.05-.09Z"/>
    <path class="cls-4" d="m1216.14,248.25c-1.3-2.3-3.43-3.96-5.98-4.67-2.55-.71-5.22-.38-7.5.91-12.3,6.74-30.12,15-43.03,9.02-9.84-5.56-8.79-20.48-5.52-30.21,17.54,8.46,31.49,7.2,40.47-3.72l.09-.12c7.68-10.54,4.53-18.47,1.97-22.26-5.49-8.13-17.63-11.99-28.88-9.2-8.64,1.52-16.36,6.38-22.41,14.09-2.73-.33-5.47.99-6.98,3.56-1.52,2.58-1.34,5.54.32,7.76-8.2,19.15-5.73,44.54,12.87,55.18l.21.11c6.44,2.91,12.84,4.06,19.14,4.06,12.58,0,24.73-4.58,35.88-8.78,1.45-.55,2.9-1.09,4.34-1.62l.04-.02c2.66-1.04,4.73-3.2,5.7-5.93.96-2.73.7-5.71-.72-8.16Zm-51.93-38.87c4.86-3.09,10.62-4.21,15.36-2.8.27.14.52.27.75.38l.12.06c-.6,1.39-1.51,2.37-2.78,3-2.8,1.39-7.31,1.17-13.45-.64Z"/>
    <path class="cls-4" d="m987.04,177.43c-6.78-2.28-16.05,1.73-19.87,12.48-3.38,10.76,1.09,17.58,7.02,19.56,1.23.41,2.54.62,3.89.62,6.88,0,13.12-5.07,15.93-12.98l.04-.12c3.37-10.76-1.1-17.58-7.02-19.56Z"/>
    <path class="cls-4" d="m1126.72,120.38v-.1c.46-7.42-4.99-11.68-10.61-12.05-5.66-.37-11.65,3.14-12.18,10.61-3.27,55.68-.68,104.01,7.92,147.72.87,4.53,4.5,6.66,8.06,6.66.45,0,.9-.03,1.35-.1,3.91-.6,7.55-3.89,6.93-9.07-6.52-43.26-6.99-88.91-1.46-143.67Z"/>
    <path class="cls-4" d="m1082.64,178.09c2.55.58,4.93,1.25,7.19,2,4,1.5,8.46-.2,10.37-3.95.99-1.94,1.16-4.15.47-6.21-.69-2.09-2.17-3.78-4.17-4.76-5.25-2.58-10.81-4.59-16.55-5.99-.44-3.2-.88-6.39-1.32-9.58-1.42-10.34-2.88-21.02-4.43-31.44-.97-6.54-6.54-9.24-11.54-8.52-4.97.71-9.54,4.82-8.65,11.38,1.58,9.28,3.1,18.72,4.57,27.86.42,2.61.84,5.21,1.26,7.82-17.69-.57-35.31,2.83-51.17,9.92-3.95,1.88-5.66,6.05-4.15,10.13,1.3,3.51,5.12,6.39,9.92,5.13,15.63-3.41,32.28-6.49,48.55-6.14,5.06,29.74,11.32,61.45,22.38,92.52l.06.14c1.5,3.52,4.48,5.04,7.44,5.04,1.11,0,2.22-.21,3.24-.62,3.68-1.45,6.49-5.45,4.76-10.22-9.11-28.23-14.35-58.33-18.22-84.51Z"/>
    <path class="cls-4" d="m1059.53,204.8l-.02-.02c-6.58-7.02-16.91-11.19-26.85-10.85-6.03.19-11.52,1.98-15.99,5.13.29-2.17-.26-4.33-1.57-6.11-1.36-1.85-3.37-3.04-5.64-3.35-2.23-.31-4.44.27-6.24,1.63-1.79,1.36-2.95,3.34-3.25,5.57-.73,5.34-1.16,10.63-1.38,17.15-.57,17.97,1.24,35.04,5.37,50.71,1.29,4.98,5.85,6.85,9.7,6.13,3.83-.72,7.39-4.1,6.82-9.17-.86-13.23-.26-23.81,1.81-32.33,2.75-9.38,5.46-14.29,11.7-13.38,8.53,1.56,11.4,4.77,12.3,13.73.88,9.17-1.06,20.19-2.94,30.85l-.19,1.07c-.96,4.78,1.82,9.53,6.45,11.05.99.33,2.01.49,3.03.49,1.49,0,2.97-.35,4.33-1.04,2.3-1.16,4.01-3.15,4.82-5.6,4.37-13.26,7.17-24.87,6.68-38.53-.62-9.55-3.62-17.33-8.92-23.12Z"/>
  </g>
  <path class="cls-10" d="m935.39,112.87c19.83,36.68,23.3,77.75,18.35,118.41-2.43,11.99-3.46,21.72-12.8,32.31-7.61,8.12-20.24,6.3-26.86-.6-11.6-10.59-20.55-24.17-27.24-37.96-2.58-4.91-5-11.29-7.8-16.55-5.57,17.12-12.92,32.82-22.62,48.53-12.54,18.85-34.82,17.27-44.25-3.46-10.26-24.42-11.78-50.1-12.81-75.83-.52-19.7-.03-39.24,2.92-59.03.98-9.17,14.49-8.38,14.33.86-.58,18.73.5,37.94,1.89,56.71,1.63,18.83,3.89,37.91,8.74,55.42,1.73,5.84,3.72,11.81,7.1,16.21.32.38.52.56.66.68,4.33-2.62,8.52-10.18,11.91-15.61,8.13-13.4,14.98-27.44,19.73-42.23,3.94-6.17,10.71-6.98,16.43-3.69,10.12,7.29,13.93,20.1,19.63,29.99,6.45,12.27,15.28,24.63,25.31,33.08,4.25-4.59,6.52-14.95,7.71-21.89,2.86-17.88,2.66-36.82.42-55.13-2.44-18.27-6.67-36.64-15.29-51.96-5.22-9.54,8.91-17.67,14.53-8.28Zm-363.48,90.9c5.37.76,8.38-6.82,3.85-9.94-15.02-12.53-34.04-9.43-51.51-7.43-16.19,2.29-32,6.2-47.02,12.79-2.94,1-5.13,3.77-4.43,7.04.65,3.17,3.76,5.21,6.93,4.56,7.48-1.54,15.25-2.85,22.93-3.98,15.81-2.25,32.06-3.92,48.12-3.98-10.82,41.76-62.87,68.17-100.23,41.68-46.74-33.46-22.74-108.54,30.83-118.87,21.41-4.6,44.88,3.03,58.48,20.44,5.94,7.04,16.54-1.36,11-8.81-35.72-52.5-114.46-34.56-138.98,19.75-34.16,72.32,36.73,147.07,109.61,109.44,23.64-12.68,40.43-36.74,43.9-63.19,2.19.14,4.37.29,6.54.51Zm53.84,49.84c-7.7,7.89-17.59,13.38-28.17,14.23-19.52,1.73-32.33-15.95-29.15-34.19,2-14.06,10.76-26.52,21.75-34.7,14-11.34,39.71-15.28,47.92,4.19,1.81-3.94,3.49-7.41,4.77-10.11,2.39-5.12,10.04-1.9,8.04,3.37-6.1,16.35-13.64,34.68-12.42,52.08,1.14,5.57,2.21,5.69,8.79,5.31,11.65-1.24,15.24-14.19,17.77-24.33,2.7-11.81,4.05-24.24,5.32-36.62.46-5.02,8.01-5.07,8.56-.09.16,1.19.31,2.45.45,3.73,15.19-10.75,38.13-11.35,42.29,11.94,1.12,6.78-.1,12.61-1.89,18.08-.65,3.43-3.9,5.98-7.39,4.8-2.45-.8-3.95-3.15-3.8-5.6.1-7.35,1.31-18.14-6.34-21.21-6.57-1.52-15.52,2.97-21.93,7.06.36,26.9-6.5,59.25-37.66,56.8-10.38-1.38-15.29-7.03-16.88-14.74Zm3.97-43.94c-1.87-5.81-6.81-8.8-13.05-8.49-18.89,1.63-37.78,24.78-32.79,43.61,1.7,5.68,6.84,8.62,13.12,8.37,18.92-1.49,37.81-24.69,32.72-43.49Zm158.33-13.62h-.03c.03-.22.07-.42.09-.63.55-9.96-14.22-10.91-15.06-1.08h0c-1.61,12.27-4.22,24.98-8.24,36.5-2.91,7.75-6.11,15.93-12.42,20.48-5.07,2.99-10.51.1-12.23-5.46-3.74-14.64,3.73-34.97,15.23-44.62,8.05-6.1-.96-18.07-9.04-12.09-18.51,14.56-32.6,54.55-13,72.94,20.13,15.09,36.4-2.61,43.71-20.7,2.5,13.76,5.56,27.44,7.64,41.32,3.03,26.82-7.35,56.14-30.92,70.67-15.09,10.28-34.26,13.42-52.89,13.09-9.57-.02-18.42-.98-26.57-4.39-35.03-13.12-39.42-67.73,3.65-71.28,27.75-1.65,53.92,12.24,77.39,26.69,7.28,4.49,14.24-6.14,7.24-11.02-147.62-100.41-175.84,76.51-61.87,77.11,46.21,1.93,87.98-22.93,96.47-70.5,6.92-30.34-5.97-59.51-8.45-89.45-.91-8.84-1.44-19.11-.7-27.59Zm191.7,23.57c.02-5.97-8.8-7.25-10.43-1.43-4.28,15.2-1.49,31.37,4.26,45.76,1.46,3.73,5.67,5.6,9.42,4.16,3.77-1.44,5.66-5.67,4.22-9.44-4.68-12.21-7.21-25.95-7.46-39.05Zm75.23-15.13c-11.21-11.94-33.2-14.44-44.18-1.13.19-2.15.39-4.29.66-6.42.56-3.3-1.71-6.43-5.04-6.88-3.24-.44-6.23,1.82-6.68,5.06-.8,5.85-1.17,11.27-1.36,16.89-.53,16.81.99,33.7,5.29,50.01,1.83,7.09,12.48,5.1,11.61-2.19-.74-11.4-.61-23.01,1.88-33.2,2.37-8.11,5.46-16.52,14.57-15.2,9.52,1.74,13.32,5.81,14.34,15.95.94,9.84-1.18,21.36-3.16,32.65-.7,3.49,1.3,7.04,4.78,8.19,3.75,1.23,7.79-.8,9.02-4.55,3.83-11.62,7.06-23.63,6.55-37.58-.44-6.85-2.3-15.07-8.27-21.59Zm21.97-31.58c3.72.7,7.42,1.62,11.06,2.83,2.73,1.02,5.92-.09,7.27-2.74,1.43-2.79.27-6.19-2.57-7.59-5.62-2.76-11.59-4.84-17.69-6.19-1.98-14.3-3.88-28.58-5.98-42.7-1.48-9.98-16.6-7.83-15.25,2.07,2.2,12.9,4.23,25.83,6.32,38.73-18.16-1.06-36.38,2.09-53.06,9.55-6.29,2.99-2.67,12.4,4.1,10.57,16.6-3.62,34.1-6.82,51.27-6.14,5.37,31.81,11.68,63.4,22.61,94.12,2.89,6.79,13.24,2.83,10.76-4.05-9.21-28.54-14.47-58.44-18.84-88.45Zm44.58-54.78c.72-11.81-16.97-12.89-17.81-1.15-2.87,48.78-1.58,99.03,7.87,147.11,1.37,7.2,12.26,5.52,11.41-1.67-7.28-48.24-6.36-95.87-1.48-144.29Zm86.02,139.88c-18.19,6.73-37.51,15.43-57.46,6.41-17.84-10.21-19.83-34.94-11.14-53.53-4.39-3.34-.13-10.08,4.68-7.96,5.4-7.43,12.88-12.92,21.93-14.49,17.52-4.41,37.74,9.19,24.38,27.54-10.44,12.7-26.76,8.72-39.9,1.82-4.92,11.81-5.79,29.5,5.74,35.93,13.79,6.46,32.3-1.89,45.38-9.05,3.56-2.02,8.08-.76,10.1,2.8,2.22,3.86.43,8.92-3.71,10.53Zm-51.25-49.74c9.87,3.63,21.3,5.82,24.14-3.39.13-1.55-.95-1.7-2.61-2.62-7.25-2.29-15.8.58-21.53,6.01Zm-172.76-30.48c-5.63-1.9-13.41,1.62-16.69,10.85-3.06,9.77,1.01,14.97,5.43,16.44.98.33,2.02.49,3.1.49,5.1,0,10.87-3.71,13.56-11.26l.03-.09c3.06-9.77-1.01-14.96-5.43-16.44Z"/>
  <path class="cls-6" d="m755.41,317.6c-19.29-11.87-40.39-23.37-62.71-26.17,5.27.45,16.64.69,18.02-5.41,1.55-6.82-32.57-14.92-55.62-3.9,21.77-11.71,57.91-9.3,107.55,24.46,7,4.88.05,15.51-7.24,11.02Z"/>
</svg>