<?xml version="1.0" encoding="UTF-8"?><svg id="Layer_2" xmlns="http://www.w3.org/2000/svg" viewBox="0 0 102.77 100.2"><defs><style>.cls-1{fill:#fff;}.cls-2{fill:#4293d7;}</style></defs><g id="Layer_3"><g id="Layer_2-2"><g id="Surfaces"><g id="Video_Audio_Surface"><g id="Outline_no_shadow"><path class="cls-2" d="m18.2,0h66.37c10.06,0,18.2,8.14,18.2,18.2v63.8c0,10.06-8.14,18.2-18.2,18.2H18.2c-10.06,0-18.2-8.14-18.2-18.2V18.2C0,8.14,8.14,0,18.2,0Z"/></g></g></g><g id="Outlined_Mnemonics_Logos"><g id="Pr"><path class="cls-1" d="m24.41,70.27V26.21c0-.3.13-.47.43-.47.73,0,1.41,0,2.4-.04,1.03-.04,2.1-.04,3.25-.09,1.16-.04,2.4-.04,3.73-.09,1.33-.04,2.61-.04,3.9-.04,3.51,0,6.42.43,8.82,1.33,2.14.73,4.11,1.93,5.74,3.51,1.37,1.37,2.44,3.04,3.13,4.88.64,1.8.98,3.64.98,5.57,0,3.68-.86,6.72-2.57,9.12s-4.11,4.2-6.89,5.22c-2.91,1.07-6.12,1.46-9.63,1.46-1.03,0-1.71,0-2.14-.04s-1.03-.04-1.84-.04v13.75c.04.3-.17.56-.47.6h-8.31c-.34,0-.51-.17-.51-.56Zm9.33-36.27v14.39c.6.04,1.16.09,1.67.09h2.27c1.67,0,3.34-.26,4.92-.77,1.37-.39,2.57-1.2,3.51-2.27.9-1.07,1.33-2.53,1.33-4.41.04-1.33-.3-2.65-.98-3.81-.73-1.11-1.76-1.97-3-2.44-1.58-.64-3.3-.9-5.05-.86-1.11,0-2.1,0-2.91.04-.86-.04-1.46,0-1.76.04h0Z"/><path class="cls-1" d="m62.78,36.48h7.49c.43,0,.77.3.9.69.13.34.21.69.26,1.07.09.43.17.9.21,1.33.04.47.09.98.09,1.54,1.28-1.5,2.83-2.74,4.58-3.68,1.97-1.11,4.24-1.67,6.51-1.67.3-.04.56.17.6.47v8.52c0,.34-.21.47-.69.47-1.54-.04-3.13.09-4.62.43-1.24.26-2.44.64-3.6,1.16-.81.39-1.58.9-2.18,1.58v21.84c0,.43-.17.6-.56.6h-8.44c-.34.04-.64-.17-.69-.51v-23.89c0-1.03,0-2.1-.04-3.21s-.04-2.23-.09-3.34c0-.98-.09-1.93-.17-2.91-.04-.21.09-.43.3-.47,0-.04.09-.04.13,0h0Z"/></g></g></g></g></svg>