<?xml version="1.0" encoding="UTF-8"?><svg id="Layer_2" xmlns="http://www.w3.org/2000/svg" viewBox="0 0 103.59 101"><defs><style>.cls-1{fill:#fff;}.cls-2{fill:#2779bd;}</style></defs><g id="Layer_3"><g id="Layer_2-2"><g id="Surfaces"><g id="Photo_Surface"><g id="Outline_no_shadow"><rect class="cls-2" width="103.59" height="101" rx="18.34" ry="18.34"/></g></g></g><g id="Outlined_Mnemonics_Logos"><g id="Ps"><path class="cls-1" d="m23.33,70.83V26.42c0-.32.14-.49.42-.49.74,0,1.42-.01,2.44-.03,1.02-.02,2.12-.05,3.3-.07,1.18-.02,2.43-.05,3.75-.07,1.32-.02,2.63-.03,3.93-.03,3.52,0,6.49.44,8.9,1.32,2.17.74,4.16,1.95,5.8,3.54,1.4,1.39,2.47,3.06,3.16,4.9.65,1.79.98,3.69.97,5.59,0,3.71-.86,6.76-2.57,9.17-1.73,2.42-4.15,4.25-6.95,5.25-2.92,1.09-6.16,1.46-9.73,1.46-1.02,0-1.74-.01-2.15-.03-.42-.02-1.04-.03-1.88-.03v13.86c.04.3-.17.58-.47.63-.05,0-.1,0-.16,0h-8.27c-.32,0-.49-.18-.49-.56Zm9.39-36.55v14.48c.6.05,1.16.07,1.67.07h2.29c1.69,0,3.36-.27,4.97-.79,1.38-.41,2.61-1.2,3.54-2.29.9-1.07,1.36-2.55,1.36-4.45.04-1.34-.31-2.67-1.01-3.82-.73-1.11-1.79-1.97-3.02-2.47-1.62-.63-3.34-.92-5.07-.87-1.11,0-2.1.01-2.95.03-.86.02-1.45.06-1.77.1h0Z"/><path class="cls-1" d="m82.86,46.13c-1.31-.67-2.7-1.16-4.13-1.46-1.58-.36-3.2-.55-4.83-.56-.88-.02-1.76.08-2.61.31-.54.12-1.02.43-1.36.87-.23.35-.35.76-.35,1.18.01.41.16.8.42,1.11.41.47.9.86,1.46,1.15.99.53,2.01,1.01,3.06,1.42,2.33.78,4.56,1.84,6.64,3.16,1.41.89,2.58,2.12,3.41,3.58.69,1.38,1.04,2.91,1.01,4.45.04,2.04-.54,4.04-1.67,5.73-1.21,1.72-2.88,3.06-4.83,3.86-2.11.93-4.71,1.39-7.82,1.39-1.97.02-3.94-.17-5.87-.56-1.52-.28-3-.75-4.41-1.39-.31-.16-.5-.49-.49-.83v-7.51c-.02-.15.05-.3.17-.38.12-.07.27-.06.38.03,1.66.98,3.47,1.7,5.35,2.12,1.66.42,3.36.64,5.07.66,1.62,0,2.81-.21,3.58-.63.71-.32,1.15-1.03,1.15-1.81,0-.6-.35-1.18-1.04-1.74-.69-.56-2.11-1.23-4.24-2.02-2.18-.76-4.25-1.81-6.15-3.13-1.36-.94-2.48-2.19-3.27-3.65-.68-1.37-1.03-2.88-1.01-4.41,0-1.84.5-3.64,1.46-5.21,1.09-1.73,2.66-3.1,4.52-3.96,2.04-1.02,4.59-1.53,7.64-1.53,1.79-.01,3.58.11,5.35.38,1.28.16,2.54.5,3.73,1.01.19.05.35.2.42.38.05.17.07.35.07.52v7.02c0,.17-.07.33-.21.42-.19.09-.41.09-.6,0Z"/></g></g></g></g></svg>