<?xml version="1.0" encoding="UTF-8"?><svg id="Layer_2" xmlns="http://www.w3.org/2000/svg" viewBox="0 0 100 100"><defs><style>.cls-1{fill:#1b507c;}.cls-2{fill:#a8d2f4;}</style></defs><g id="Layer_3"><g><rect class="cls-2" width="100" height="100"/><path class="cls-1" d="m67.18,78.13c2.01,3.29,4.64,5.71,9.27,5.71,3.89,0,6.38-1.95,6.38-4.64,0-3.22-2.56-4.36-6.84-6.24l-2.35-1.01c-6.78-2.89-11.29-6.51-11.29-14.16,0-7.05,5.37-12.41,13.76-12.41,5.97,0,10.27,2.08,13.37,7.52l-7.32,4.7c-1.61-2.89-3.35-4.03-6.05-4.03s-4.5,1.75-4.5,4.03c0,2.82,1.75,3.96,5.78,5.71l2.35,1.01c7.98,3.42,12.49,6.91,12.49,14.76,0,8.46-6.65,13.1-15.57,13.1s-14.37-4.16-17.12-9.61l7.64-4.44Zm-33.2.81c1.48,2.62,2.82,4.83,6.05,4.83s5.04-1.21,5.04-5.91v-31.95h9.4v32.08c0,9.73-5.71,14.16-14.03,14.16-7.52,0-11.88-3.89-14.1-8.58l7.65-4.63Z"/></g></g></svg>