<?xml version="1.0" encoding="UTF-8"?><svg id="Layer_2" xmlns="http://www.w3.org/2000/svg" viewBox="0 0 72.4 102.19"><defs><style>.cls-1{fill:#1b507c;}.cls-2{fill:#fff;}.cls-3{fill:#20639b;}.cls-4{fill:#ebebeb;}.cls-5{fill:#2779bd;}</style></defs><g id="Layer_3"><g id="layer1"><g id="g3013"><polygon id="polygon2989" class="cls-3" points="72.4 20.08 65.8 93.97 36.15 102.19 6.59 93.98 0 20.08 72.4 20.08"/><polygon id="polygon2991" class="cls-5" points="60.16 89.27 65.79 26.12 36.2 26.12 36.2 95.91 60.16 89.27"/><polygon id="polygon2993" class="cls-4" points="15.1 53.53 15.92 62.6 36.2 62.6 36.2 53.53 15.1 53.53"/><polygon id="polygon2995" class="cls-4" points="36.2 35.19 36.17 35.19 13.47 35.19 14.3 44.25 36.2 44.25 36.2 35.19"/><polygon id="polygon2997" class="cls-4" points="36.2 86.5 36.2 77.07 36.16 77.08 26.07 74.36 25.42 67.13 20.51 67.13 16.32 67.13 17.59 81.36 36.16 86.51 36.2 86.5"/><path id="path2999" class="cls-1" d="m17.04,0h10.98v4.59h-6.39v4.59h6.39v4.59h-10.98V0Z"/><path id="path3001" class="cls-1" d="m30.21,0h10.98v3.99h-6.39v.8h6.39v9.18h-10.98v-4.19h6.39v-.8h-6.39V0Z"/><path id="path3003" class="cls-1" d="m43.38,0h10.98v3.99h-6.39v.8h6.39v9.18h-10.98v-4.19h6.39v-.8h-6.39V0Z"/><polygon id="polygon3005" class="cls-2" points="47.33 62.6 46.28 74.35 36.17 77.08 36.17 86.51 54.75 81.36 54.88 79.83 57.01 55.97 57.24 53.53 58.87 35.19 36.17 35.19 36.17 44.25 48.94 44.25 48.11 53.53 36.17 53.53 36.17 62.6 47.33 62.6"/></g></g></g></svg>