<?xml version="1.0" encoding="UTF-8"?><svg id="Layer_2" xmlns="http://www.w3.org/2000/svg" viewBox="0 0 66.8 100.2"><defs><style>.cls-1{fill:#a8d2f4;}.cls-2{fill:#4293d7;}.cls-3{fill:#2779bd;}.cls-4{fill:#72b1e4;}</style></defs><g id="Layer_3"><g><path id="path0_fill" class="cls-3" d="m16.7,100.2c9.22,0,16.7-7.48,16.7-16.7v-16.7h-16.7c-9.22,0-16.7,7.48-16.7,16.7s7.48,16.7,16.7,16.7Z"/><path id="path1_fill" class="cls-3" d="m0,50.1c0-9.22,7.48-16.7,16.7-16.7h16.7v33.4h-16.7c-9.22,0-16.7-7.48-16.7-16.7Z"/><path id="path1_fill-2" class="cls-2" d="m0,16.7C0,7.48,7.48,0,16.7,0h16.7v33.4h-16.7C7.48,33.4,0,25.92,0,16.7Z"/><path id="path2_fill" class="cls-1" d="m33.4,0h16.7c9.22,0,16.7,7.48,16.7,16.7s-7.48,16.7-16.7,16.7h-16.7V0Z"/><path id="path3_fill" class="cls-4" d="m66.8,50.1c0,9.22-7.48,16.7-16.7,16.7s-16.7-7.48-16.7-16.7,7.48-16.7,16.7-16.7,16.7,7.48,16.7,16.7Z"/></g></g></svg>