<?xml version="1.0" encoding="UTF-8"?><svg id="Layer_2" xmlns="http://www.w3.org/2000/svg" viewBox="0 0 101.73 101.73"><defs><style>.cls-1{fill:#fff;}.cls-2{fill:#72b1e4;}</style></defs><g id="Layer_3"><g><path class="cls-2" d="m75.99,0H25.74C11.52,0,0,11.52,0,25.74v50.25c0,14.21,11.52,25.74,25.74,25.74h50.25c14.21,0,25.74-11.52,25.74-25.74V25.74c0-14.22-11.52-25.74-25.74-25.74Z"/><path class="cls-1" d="m77.31,22.78c-17.51,0-24,12.5-29.22,22.55l-3.41,6.43c-5.52,10.65-9.65,17.13-20.29,17.13-1.33,0-2.61.53-3.56,1.47-1.96,1.96-1.96,5.15,0,7.11,0,0,0,0,0,0,.94.94,2.22,1.47,3.55,1.48,17.52,0,24.01-12.5,29.22-22.55l3.4-6.43c5.53-10.65,9.66-17.13,20.29-17.13,1.34,0,2.62-.53,3.56-1.47.94-.94,1.48-2.22,1.48-3.56,0-2.78-2.26-5.03-5.04-5.03h0Z"/></g></g></svg>