<?xml version="1.0" encoding="UTF-8"?><svg id="Layer_2" xmlns="http://www.w3.org/2000/svg" viewBox="0 0 102.77 100.2"><defs><style>.cls-1{fill:#fff;}.cls-2{fill:#2779bd;}</style></defs><g id="Layer_3"><g id="Layer_2-2"><g id="Surfaces"><g id="Video_Audio_Surface"><g id="Outline_no_shadow"><rect class="cls-2" width="102.77" height="100.2" rx="18.2" ry="18.2"/></g></g></g><g id="Outlined_Mnemonics_Logos"><g id="Ae"><path class="cls-1" d="m41.29,59.95h-15.93l-3.24,10.08c-.09.38-.44.64-.83.62h-8.07c-.46,0-.62-.25-.48-.76l13.79-39.55c.14-.41.28-.82.41-1.35.18-.92.27-1.85.28-2.79-.03-.23.13-.45.36-.48.04,0,.08,0,.12,0h10.96c.32,0,.5.11.55.34l15.65,43.89c.14.46,0,.69-.41.69h-8.96c-.32.04-.61-.17-.69-.48l-3.52-10.22Zm-13.44-8.5h10.89c-.28-.92-.6-1.95-.97-3.1-.37-1.15-.76-2.38-1.17-3.69-.41-1.31-.83-2.62-1.24-3.93-.41-1.31-.79-2.57-1.14-3.79-.34-1.22-.65-2.33-.93-3.34h-.07c-.39,1.86-.87,3.7-1.45,5.52-.64,2.07-1.3,4.18-1.96,6.34-.67,2.16-1.32,4.16-1.96,6Z"/><path class="cls-1" d="m80.24,56.02h-13.58c.17,1.34.61,2.64,1.31,3.8.77,1.15,1.86,2.05,3.14,2.59,1.73.75,3.6,1.11,5.48,1.07,1.49-.03,2.98-.19,4.45-.49,1.31-.18,2.59-.51,3.82-1,.23-.18.34-.07.34.34v6.55c.01.18-.02.36-.1.52-.08.13-.18.23-.31.31-1.36.6-2.8,1.03-4.27,1.27-2,.38-4.03.55-6.07.52-3.26,0-6-.51-8.2-1.52-2.08-.92-3.93-2.31-5.38-4.07-1.36-1.65-2.36-3.57-2.96-5.62-.59-2.03-.9-4.13-.9-6.24,0-2.31.35-4.6,1.07-6.79.69-2.14,1.78-4.13,3.21-5.86,1.41-1.71,3.17-3.1,5.17-4.07,2.02-.99,4.41-1.34,7.17-1.34,2.29-.06,4.56.39,6.65,1.31,1.76.75,3.31,1.92,4.52,3.41,1.13,1.46,1.99,3.1,2.55,4.86.54,1.69.82,3.46.83,5.24,0,1.01-.03,1.93-.1,2.76-.07.83-.13,1.42-.17,1.79-.04.31-.3.55-.62.55-.28,0-.75.03-1.41.1-.67.07-1.49.11-2.48.14-.99.02-2.03-.14-3.14-.14Zm-13.58-6.28h9.03c1.1,0,1.92-.01,2.45-.03.35-.04.7-.15,1-.33v-.41c-.01-.54-.11-1.07-.28-1.59-.76-2.42-3.05-4.03-5.58-3.93-2.37-.14-4.6,1.13-5.69,3.24-.47.96-.79,1.99-.93,3.05Z"/></g></g></g></g></svg>