<?xml version="1.0" encoding="UTF-8"?><svg id="Layer_2" xmlns="http://www.w3.org/2000/svg" viewBox="0 0 72.41 102.19"><defs><style>.cls-1{fill:#1b507c;}.cls-2{fill:#fff;}.cls-3{fill:#4293d7;}.cls-4{fill:#ebebeb;}.cls-5{fill:#72b1e4;}</style></defs><g id="Layer_3"><g><path class="cls-1" d="m6.75,0h4.59v4.55h4.23V0h4.59v13.77h-4.59v-4.59h-4.19v4.59h-4.63M26.23,4.59h-4.05V0h12.71v4.59h-4.07v9.18h-4.59M36.9,0h4.81l2.95,4.85,2.95-4.85h4.81v13.77h-4.59v-6.83l-3.21,4.95-3.21-4.95v6.83h-4.51M54.71,0h4.59v9.22h6.51v4.55h-11.1"/><path class="cls-3" d="m6.59,94.01L0,20.08h72.41l-6.59,73.89-29.68,8.22"/><path class="cls-5" d="m36.21,95.9V26.15h29.6l-5.65,63.07"/><path class="cls-4" d="m13.45,35.19h22.75v9.06h-12.81l.84,9.28h11.98v9.04H15.93m.4,4.55h9.1l.64,7.25,10.14,2.71v9.46l-18.6-5.19"/><path class="cls-2" d="m58.88,35.19h-22.71v9.06h21.87m-.82,9.28h-21.06v9.06h11.18l-1.06,11.78-10.12,2.71v9.42l18.56-5.15"/></g></g></svg>