<?xml version="1.0" encoding="UTF-8"?><svg id="Layer_2" xmlns="http://www.w3.org/2000/svg" viewBox="0 0 103.48 100.89"><defs><style>.cls-1{fill:#fff;}.cls-2{fill:#2779bd;}</style></defs><g id="Layer_3"><g id="Layer_2-2"><g id="Surfaces"><g id="Drawing_Surface"><g id="Outline_no_shadow"><rect class="cls-2" width="103.48" height="100.89" rx="18.32" ry="18.32"/></g></g></g><g id="Outlined_Mnemonics_Logos"><g id="Ai"><path class="cls-1" d="m50.14,60.55h-16.04l-3.26,10.14c-.09.38-.44.64-.83.62h-8.12c-.46,0-.63-.25-.49-.76l13.88-39.98c.14-.42.28-.89.42-1.42.18-.93.27-1.87.28-2.81-.03-.23.13-.45.36-.49.04,0,.08,0,.12,0h11.04c.32,0,.51.12.56.35l15.76,44.43c.14.46,0,.69-.42.69h-9.02c-.32.04-.62-.17-.69-.49l-3.54-10.27Zm-13.54-8.75h10.97c-.28-.93-.6-1.97-.97-3.12-.37-1.16-.76-2.39-1.18-3.71-.42-1.32-.83-2.64-1.25-3.96-.42-1.32-.8-2.59-1.15-3.82-.35-1.23-.66-2.35-.94-3.37h-.07c-.39,1.87-.88,3.73-1.46,5.55-.65,2.08-1.31,4.21-1.98,6.39-.67,2.18-1.33,4.19-1.98,6.04h0Z"/><path class="cls-1" d="m73.19,33.2c-1.43.06-2.82-.5-3.82-1.53-.99-1.07-1.52-2.5-1.46-3.96-.05-1.45.52-2.85,1.56-3.85,1.03-.99,2.42-1.53,3.85-1.49,1.67,0,2.97.5,3.92,1.49.97,1.04,1.48,2.43,1.42,3.85.06,1.47-.48,2.89-1.49,3.96-1.06,1.04-2.51,1.6-3.99,1.53Zm-4.79,37.42v-33.18c0-.42.18-.62.56-.62h8.54c.37,0,.56.21.56.62v33.18c0,.46-.19.69-.56.69h-8.47c-.42,0-.62-.23-.62-.69Z"/></g></g></g></g></svg>