<?xml version="1.0" encoding="UTF-8"?><svg id="Layer_3" xmlns="http://www.w3.org/2000/svg" xmlns:xlink="http://www.w3.org/1999/xlink" viewBox="0 0 250 70"><defs><style>.cls-1{fill:#fff;}.cls-2{fill:#1b507c;stroke-width:.23px;}.cls-2,.cls-3,.cls-4,.cls-5{stroke-miterlimit:10;}.cls-2,.cls-4{stroke:#1b507c;}.cls-3{stroke:#fff;stroke-width:2px;}.cls-3,.cls-4{fill:none;}.cls-4{stroke-width:1.56px;}.cls-6{fill:#ddeefc;}.cls-5{fill:#2779bd;stroke:#2779bd;stroke-width:.25px;}.cls-7{fill:url(#linear-gradient);}</style><linearGradient id="linear-gradient" x1="-20.57" y1="-40.87" x2="57.2" y2="54.3" gradientUnits="userSpaceOnUse"><stop offset="0" stop-color="#173f5f"/><stop offset=".31" stop-color="#174061"/><stop offset=".5" stop-color="#18456a"/><stop offset=".65" stop-color="#1b4e78"/><stop offset=".79" stop-color="#1e5b8c"/><stop offset=".92" stop-color="#236ba7"/><stop offset="1" stop-color="#2779bd"/></linearGradient></defs><circle class="cls-3" cx="38.4" cy="31.29" r="28.71"/><circle class="cls-7" cx="38.4" cy="31.29" r="25.3"/><g><g><path class="cls-5" d="m186.8,13.94c-.75.43-1.28,1.38-.7,2.45h0c1.53,2.72,2.53,6.1,3.13,10.65.5,4.06.47,7.86-.09,11.31-.37,2.18-.88,3.65-1.5,4.38-1.85-1.58-3.66-3.96-5.11-6.71-.31-.55-.6-1.12-.89-1.74-.8-1.65-1.63-3.36-3.18-4.47-1.32-.76-2.73-.44-3.51.79v.02c-.93,2.85-2.25,5.69-4.06,8.66-.09.15-.19.31-.29.47-.63,1.02-1.33,2.18-2.06,2.66-.02-.02-.04-.04-.07-.08-.7-.91-1.11-2.18-1.44-3.3-1.04-3.75-1.49-7.85-1.79-11.38-.26-3.52-.51-7.66-.39-11.65.02-1.04-.75-1.56-1.48-1.61-.74-.04-1.56.38-1.67,1.42-.95,6.83-1.44,23.79,3.3,29.67,1.13,1.29,2.4,1.61,3.37,1.61.12,0,.23,0,.34-.01,1.66-.13,3.31-1.18,4.31-2.75,1.96-3.17,3.46-6.37,4.59-9.78.26.5.5,1.05.74,1.58.26.58.5,1.12.75,1.61,1.56,3.22,3.45,5.85,5.62,7.83.76.79,1.88,1.26,3,1.26h.02c1.03,0,1.97-.41,2.65-1.14,1.74-1.97,2.09-3.81,2.51-5.94.05-.25.1-.5.15-.76,1.15-9.43-.13-17.65-3.79-24.42-.63-1.05-1.72-1.07-2.46-.65Z"/><path class="cls-5" d="m114.23,32.42c.6.09,1.06-.33,1.24-.77.17-.44.12-1.05-.39-1.4-2.87-2.4-6.39-1.98-9.8-1.58l-.61.07c-3.56.5-6.65,1.34-9.44,2.57-.59.2-1.11.79-.96,1.53.07.33.26.62.55.81.29.19.63.25.96.18,1.37-.28,2.91-.55,4.59-.8,3.68-.52,6.7-.78,9.5-.8-1.16,4.27-4.54,7.9-8.87,9.48-3.85,1.41-7.87.93-11.03-1.31-4.01-2.87-5.74-7.61-4.63-12.69,1.21-5.54,5.54-9.94,10.77-10.95,4.33-.93,9,.7,11.62,4.06.66.78,1.55.66,2.1.22.56-.44.87-1.29.26-2.11-3.04-4.47-7.95-6.75-13.45-6.28-6.3.55-12.02,4.57-14.58,10.25-3.25,6.88-1.96,14.6,3.28,19.66,3.03,2.92,6.84,4.43,10.82,4.42,2.65,0,5.38-.67,8.01-2.02,4.74-2.54,8.12-7.38,8.84-12.65.4.03.81.05,1.21.1Z"/><path class="cls-5" d="m128.65,46.1c.23.02.45.03.67.03,1.68,0,3.1-.53,4.21-1.57,2.52-2.36,3.01-6.83,2.97-10.19,1.29-.82,3.08-1.71,4.38-1.41,1.34.54,1.29,2.33,1.25,3.77,0,.17,0,.34-.01.49-.04.56.31,1.08.85,1.25.33.11.69.08.99-.1.34-.2.59-.56.66-.95.33-1.02.64-2.26.39-3.77-.33-1.82-1.24-3.09-2.65-3.67-1.73-.71-4.09-.29-6.07,1.05-.02-.21-.05-.41-.07-.6-.06-.59-.55-.85-.98-.85h0c-.43,0-.92.28-.97.87-.28,2.72-.55,5.16-1.09,7.52-.46,1.86-1.17,4.67-3.56,4.93-1.33.08-1.49.05-1.7-1-.23-3.28,1.09-6.79,2.26-9.89l.29-.78c.24-.62-.12-1.1-.54-1.28-.43-.18-1.02-.1-1.3.5l-.19.4c-.21.43-.44.93-.7,1.48-.61-1.29-1.65-2.14-3.04-2.49-2.1-.53-4.93.21-6.88,1.79-2.48,1.84-4.12,4.47-4.51,7.2-.35,1.99.22,4.01,1.51,5.41,1.18,1.28,2.81,1.9,4.6,1.74,2.03-.16,4.05-1.16,5.73-2.83.41,1.69,1.6,2.68,3.52,2.93h0Zm-4-6.75c-1.38,1.96-3.45,3.27-5.39,3.43-1.3.06-2.27-.57-2.6-1.65-.44-1.66.02-3.62,1.26-5.38,1.38-1.97,3.45-3.29,5.39-3.46.06,0,.12,0,.18,0,1.18,0,2.05.6,2.4,1.68.45,1.66,0,3.62-1.25,5.39Z"/><path class="cls-5" d="m160.2,43.01c-.75-3.88-1.52-7.9-1.23-11.87v-.08c.06-.45-.08-.89-.37-1.23-.29-.35-.7-.56-1.16-.59h0c-.95,0-1.51.47-1.73,1.43h-.01s-.01.09-.01.09c-.56,3.75-1.27,7.67-3.24,10.68-.5.81-1.25,1.26-1.97,1.18-.61-.07-1.1-.52-1.36-1.28-.74-2.89.68-7.05,3.09-9.07.37-.26.6-.66.67-1.1.06-.45-.05-.89-.33-1.25-.44-.47-.94-.68-1.46-.61-1.61.19-3.12,2.83-3.77,3.96l-.03.06c-1.38,2.86-3.17,8.16.28,11.46,1.61,1.37,4,1.55,5.7.42,1.69-1.13,2.65-2.9,3.29-4.41.29,1.69.65,3.45,1.09,5.39,1.15,4.96.43,9.84-1.97,13.39-4.09,6.32-13.47,7.81-20.16,5.61-2.62-.93-4.75-3.41-5.41-6.3-.56-2.41.01-4.63,1.59-6.24,5.45-4.68,14.26-.22,20.41,3.55.85.52,1.63.12,2-.47.37-.59.38-1.47-.46-2-5.41-3.69-10.38-5.8-14.75-6.25-3.71-.38-6.89.47-9.15,2.46-3.4,2.99-4.23,8.12-2.02,12.47,1.37,2.69,3.71,4.74,6.78,5.92,1.99.76,4.21,1.15,6.64,1.15,1.95,0,4.03-.25,6.24-.73,9.06-1.98,14.87-10.41,13.8-20.04-.25-1.89-.62-3.82-.98-5.69Z"/><path class="cls-5" d="m198.63,36.04c0-.7-.52-1.08-1.03-1.15-.51-.07-1.12.16-1.31.83-.79,2.79-.48,6.07.88,9.48.25.63.86,1.02,1.5,1.02.19,0,.38-.03.57-.1.83-.32,1.24-1.24.93-2.07-.93-2.43-1.48-5.27-1.53-8Z"/><path class="cls-5" d="m213.85,32.8h0c-1.23-1.31-3.13-2.11-5-2.11-.07,0-.14,0-.21,0-1.53.05-2.88.63-3.83,1.64.03-.32.06-.67.11-1.01.06-.36-.02-.71-.24-1.01-.21-.29-.53-.48-.88-.53-.35-.05-.7.04-.98.26-.28.21-.46.52-.51.87-.15,1.08-.24,2.16-.28,3.49-.12,3.65.25,7.12,1.09,10.31.21.81.93,1.07,1.52.96.58-.11,1.17-.61,1.07-1.44-.18-2.77-.06-4.99.38-6.79.51-1.76,1.12-3.31,2.88-3.06,1.94.35,2.66,1.16,2.87,3.19.19,1.94-.22,4.24-.61,6.46l-.04.22c-.16.78.29,1.55,1.05,1.8.16.05.33.08.49.08.24,0,.48-.06.71-.17.38-.19.65-.51.78-.91.88-2.68,1.45-5.03,1.35-7.77-.12-1.87-.7-3.38-1.73-4.5Z"/><path class="cls-5" d="m218.58,26.77c.79.16,1.52.35,2.21.59.65.25,1.37-.03,1.68-.65.16-.32.18-.68.07-1.02-.11-.34-.35-.61-.67-.77-1.18-.59-2.43-1.04-3.73-1.34-.11-.79-.21-1.58-.32-2.37-.3-2.25-.62-4.58-.95-6.86-.17-1.18-1.13-1.6-1.96-1.48-.85.12-1.64.83-1.49,1.96.33,2,.66,4.04.97,6,.12.77.24,1.54.36,2.3-3.89-.21-7.78.51-11.25,2.09-.75.36-.87,1.12-.66,1.67.21.55.79,1.04,1.6.82,3.48-.77,7.2-1.47,10.84-1.34,1.08,6.55,2.42,13.56,4.82,20.43.25.59.72.83,1.19.83.18,0,.36-.03.52-.1.58-.22,1.07-.85.78-1.68-2.03-6.41-3.16-13.24-4-19.1Z"/><path class="cls-5" d="m228.07,14.73h0c.08-1.39-.91-2.09-1.87-2.16-.95-.06-2.04.5-2.13,1.89-.7,12.09-.15,22.57,1.68,32.05.14.77.73,1.09,1.29,1.09.07,0,.14,0,.22-.02.61-.09,1.23-.59,1.13-1.47-1.4-9.45-1.5-19.42-.32-31.38Z"/><path class="cls-5" d="m245.48,41.71c-.43-.76-1.4-1.03-2.17-.6-2.56,1.4-6.27,3.11-9.03,1.82-2.12-1.18-2.17-4.46-1.15-7,2.49,1.29,5.86,2.22,8.05-.45,1.04-1.42,1.17-2.85.39-4.01-1-1.48-3.32-2.2-5.39-1.68-1.72.3-3.25,1.3-4.43,2.89-.54-.19-1,.1-1.22.47-.22.37-.24.9.19,1.28-1.7,3.71-1.31,8.75,2.32,10.83,1.25.57,2.48.79,3.7.79,2.41,0,4.76-.88,7.06-1.75.29-.11.58-.22.88-.33.42-.17.76-.51.91-.95.15-.44.11-.92-.12-1.31Zm-10.95-7.87c1.18-1.05,2.81-1.48,4.1-1.08.06.03.12.06.17.09.24.12.3.16.29.31-.15.48-.43.82-.83,1.02-.77.38-2.03.26-3.74-.35Z"/><path class="cls-5" d="m198.64,26.87c-1.32-.26-2.37.81-2.83,2.97-.39,2.28.1,3.26,1.14,3.46.23.04.47.05.72.02.99-.13,2.29-.97,2.7-2.91v-.03c.4-2.28-.68-3.32-1.72-3.52Z"/></g><g><path class="cls-1" d="m186.58,13.38c-.75.43-1.28,1.38-.7,2.45h0c1.53,2.72,2.53,6.1,3.13,10.65.5,4.06.47,7.86-.09,11.31-.37,2.18-.88,3.65-1.5,4.38-1.85-1.58-3.66-3.96-5.11-6.71-.31-.55-.6-1.12-.89-1.74-.8-1.65-1.63-3.36-3.18-4.47-1.32-.76-2.73-.44-3.51.79v.02c-.93,2.85-2.25,5.69-4.06,8.66-.09.15-.19.31-.29.47-.63,1.02-1.33,2.18-2.06,2.66-.02-.02-.04-.04-.07-.08-.7-.91-1.11-2.18-1.44-3.3-1.04-3.75-1.49-7.85-1.79-11.38-.26-3.52-.51-7.66-.39-11.65.02-1.04-.75-1.56-1.48-1.61-.74-.04-1.56.38-1.67,1.42-.95,6.83-1.44,23.79,3.3,29.67,1.13,1.29,2.4,1.61,3.37,1.61.12,0,.23,0,.34-.01,1.66-.13,3.31-1.18,4.31-2.75,1.96-3.17,3.46-6.37,4.59-9.78.26.5.5,1.05.74,1.58.26.58.5,1.12.75,1.61,1.56,3.22,3.45,5.85,5.62,7.83.76.79,1.88,1.26,3,1.26h.02c1.03,0,1.97-.41,2.65-1.14,1.74-1.97,2.09-3.81,2.51-5.94.05-.25.1-.5.15-.76,1.15-9.43-.13-17.65-3.79-24.42-.63-1.05-1.72-1.07-2.46-.65Z"/><path class="cls-1" d="m114.01,31.86c.6.09,1.06-.33,1.24-.77.17-.44.12-1.05-.39-1.4-2.87-2.4-6.39-1.98-9.8-1.58l-.61.07c-3.56.5-6.65,1.34-9.44,2.57-.59.2-1.11.79-.96,1.53.07.33.26.62.55.81.29.19.63.25.96.18,1.37-.28,2.91-.55,4.59-.8,3.68-.52,6.7-.78,9.5-.8-1.16,4.27-4.54,7.9-8.87,9.48-3.85,1.41-7.87.93-11.03-1.31-4.01-2.87-5.74-7.61-4.63-12.69,1.21-5.54,5.54-9.94,10.77-10.95,4.33-.93,9,.7,11.62,4.06.66.78,1.55.66,2.1.22.56-.44.87-1.29.26-2.11-3.04-4.47-7.95-6.75-13.45-6.28-6.3.55-12.02,4.57-14.58,10.25-3.25,6.88-1.96,14.6,3.28,19.66,3.03,2.92,6.84,4.43,10.82,4.42,2.65,0,5.38-.67,8.01-2.02,4.74-2.54,8.12-7.38,8.84-12.65.4.03.81.05,1.21.1Z"/><path class="cls-1" d="m128.42,45.54c.23.02.45.03.67.03,1.68,0,3.1-.53,4.21-1.57,2.52-2.36,3.01-6.83,2.97-10.19,1.29-.82,3.08-1.71,4.38-1.41,1.34.54,1.29,2.33,1.25,3.77,0,.17,0,.34-.01.49-.04.56.31,1.08.85,1.25.33.11.69.08.99-.1.34-.2.59-.56.66-.95.33-1.02.64-2.26.39-3.77-.33-1.82-1.24-3.09-2.65-3.67-1.73-.71-4.09-.29-6.07,1.05-.02-.21-.05-.41-.07-.6-.06-.59-.55-.85-.98-.85h0c-.43,0-.92.28-.97.87-.28,2.72-.55,5.16-1.09,7.52-.46,1.86-1.17,4.67-3.56,4.93-1.33.08-1.49.05-1.7-1-.23-3.28,1.09-6.79,2.26-9.89l.29-.78c.24-.62-.12-1.1-.54-1.28-.43-.18-1.02-.1-1.3.5l-.19.4c-.21.43-.44.93-.7,1.48-.61-1.29-1.65-2.14-3.04-2.49-2.1-.53-4.93.21-6.88,1.79-2.48,1.84-4.12,4.47-4.51,7.2-.35,1.99.22,4.01,1.51,5.41,1.18,1.28,2.81,1.9,4.6,1.74,2.03-.16,4.05-1.16,5.73-2.83.41,1.69,1.6,2.68,3.52,2.93h0Zm-4-6.75c-1.38,1.96-3.45,3.27-5.39,3.43-1.3.06-2.27-.57-2.6-1.65-.44-1.66.02-3.62,1.26-5.38,1.38-1.97,3.45-3.29,5.39-3.46.06,0,.12,0,.18,0,1.18,0,2.05.6,2.4,1.68.45,1.66,0,3.62-1.25,5.39Z"/><path class="cls-1" d="m159.98,42.45c-.75-3.88-1.52-7.9-1.23-11.87v-.08c.06-.45-.08-.89-.37-1.23-.29-.35-.7-.56-1.16-.59h0c-.95,0-1.51.47-1.73,1.43h-.01s-.01.09-.01.09c-.56,3.75-1.27,7.67-3.24,10.68-.5.81-1.25,1.26-1.97,1.18-.61-.07-1.1-.52-1.36-1.28-.74-2.89.68-7.05,3.09-9.07.37-.26.6-.66.67-1.1.06-.45-.05-.89-.33-1.25-.44-.47-.94-.68-1.46-.61-1.61.19-3.12,2.83-3.77,3.96l-.03.06c-1.38,2.86-3.17,8.16.28,11.46,1.61,1.37,4,1.55,5.7.42,1.69-1.13,2.65-2.9,3.29-4.41.29,1.69.65,3.45,1.09,5.39,1.15,4.96.43,9.84-1.97,13.39-4.09,6.32-13.47,7.81-20.16,5.61-2.62-.93-4.75-3.41-5.41-6.3-.56-2.41.01-4.63,1.59-6.24,5.45-4.68,14.26-.22,20.41,3.55.85.52,1.63.12,2-.47.37-.59.38-1.47-.46-2-5.41-3.69-10.38-5.8-14.75-6.25-3.71-.38-6.89.47-9.15,2.46-3.4,2.99-4.23,8.12-2.02,12.47,1.37,2.69,3.71,4.74,6.78,5.92,1.99.76,4.21,1.15,6.64,1.15,1.95,0,4.03-.25,6.24-.73,9.06-1.98,14.87-10.41,13.8-20.04-.25-1.89-.62-3.82-.98-5.69Z"/><path class="cls-1" d="m198.41,35.48c0-.7-.52-1.08-1.03-1.15-.51-.07-1.12.16-1.31.83-.79,2.79-.48,6.07.88,9.48.25.63.86,1.02,1.5,1.02.19,0,.38-.03.57-.1.83-.32,1.24-1.24.93-2.07-.93-2.43-1.48-5.27-1.53-8Z"/><path class="cls-1" d="m213.63,32.24h0c-1.23-1.31-3.13-2.11-5-2.11-.07,0-.14,0-.21,0-1.53.05-2.88.63-3.83,1.64.03-.32.06-.67.11-1.01.06-.36-.02-.71-.24-1.01-.21-.29-.53-.48-.88-.53-.35-.05-.7.04-.98.26-.28.21-.46.52-.51.87-.15,1.08-.24,2.16-.28,3.49-.12,3.65.25,7.12,1.09,10.31.21.81.93,1.07,1.52.96.58-.11,1.17-.61,1.07-1.44-.18-2.77-.06-4.99.38-6.79.51-1.76,1.12-3.31,2.88-3.06,1.94.35,2.66,1.16,2.87,3.19.19,1.94-.22,4.24-.61,6.46l-.04.22c-.16.78.29,1.55,1.05,1.8.16.05.33.08.49.08.24,0,.48-.06.71-.17.38-.19.65-.51.78-.91.88-2.68,1.45-5.03,1.35-7.77-.12-1.87-.7-3.38-1.73-4.5Z"/><path class="cls-1" d="m218.36,26.21c.79.16,1.52.35,2.21.59.65.25,1.37-.03,1.68-.65.16-.32.18-.68.07-1.02-.11-.34-.35-.61-.67-.77-1.18-.59-2.43-1.04-3.73-1.34-.11-.79-.21-1.58-.32-2.37-.3-2.25-.62-4.58-.95-6.86-.17-1.18-1.13-1.6-1.96-1.48-.85.12-1.64.83-1.49,1.96.33,2,.66,4.04.97,6,.12.77.24,1.54.36,2.3-3.89-.21-7.78.51-11.25,2.09-.75.36-.87,1.12-.66,1.67.21.55.79,1.04,1.6.82,3.48-.77,7.2-1.47,10.84-1.34,1.08,6.55,2.42,13.56,4.82,20.43.25.59.72.83,1.19.83.18,0,.36-.03.52-.1.58-.22,1.07-.85.78-1.68-2.03-6.41-3.16-13.24-4-19.1Z"/><path class="cls-1" d="m227.85,14.17h0c.08-1.39-.91-2.09-1.87-2.16-.95-.06-2.04.5-2.13,1.89-.7,12.09-.15,22.57,1.68,32.05.14.77.73,1.09,1.29,1.09.07,0,.14,0,.22-.02.61-.09,1.23-.59,1.13-1.47-1.4-9.45-1.5-19.42-.32-31.38Z"/><path class="cls-1" d="m245.26,41.16c-.43-.76-1.4-1.03-2.17-.6-2.56,1.4-6.27,3.11-9.03,1.82-2.12-1.18-2.17-4.46-1.15-7,2.49,1.29,5.86,2.22,8.05-.45,1.04-1.42,1.17-2.85.39-4.01-1-1.48-3.32-2.2-5.39-1.68-1.72.3-3.25,1.3-4.43,2.89-.54-.19-1,.1-1.22.47-.22.37-.24.9.19,1.28-1.7,3.71-1.31,8.75,2.32,10.83,1.25.57,2.48.79,3.7.79,2.41,0,4.76-.88,7.06-1.75.29-.11.58-.22.88-.33.42-.17.76-.51.91-.95.15-.44.11-.92-.12-1.31Zm-10.95-7.87c1.18-1.05,2.81-1.48,4.1-1.08.06.03.12.06.17.09.24.12.3.16.29.31-.15.48-.43.82-.83,1.02-.77.38-2.03.26-3.74-.35Z"/><path class="cls-1" d="m198.42,26.31c-1.32-.26-2.37.81-2.83,2.97-.39,2.28.1,3.26,1.14,3.46.23.04.47.05.72.02.99-.13,2.29-.97,2.7-2.91v-.03c.4-2.28-.68-3.32-1.72-3.52Z"/></g><g><g><ellipse class="cls-1" cx="53.53" cy="35.66" rx="2.95" ry="4.12"/><ellipse class="cls-6" cx="52.91" cy="35.74" rx="2.95" ry="4.12"/><ellipse class="cls-4" cx="53.53" cy="35.66" rx="2.95" ry="4.12"/><g><path class="cls-1" d="m27.25,44.37s2.31,8.73,15.55,8.08c6.36-.65,12.16-11.26,10.73-16.91-1.43-5.64-.65-10.64-2.79-13.17,1.49-3.7-1.3-9.47-1.3-9.47-1.49,2.34-3.12,4.09-3.12,4.09,1.23-3.83-1.04-8.05-1.04-8.05-1.43,2.34-5.26,4.67-5.26,4.67.52-2.85-1.27-5.71-1.27-5.71,0,0-2.56,4.41-5.61,7.01.13-2.73-.71-4.61-.71-4.61,0,0-10.42,7.67-11.88,14.99-.57,2.86,3.24,9.21,3.05,11.1-3.05.26-2.93,3.97-1.88,6.62.76,1.93,3.76,3.44,5.52,1.36Z"/><path class="cls-6" d="m45.43,41.31s1.65.28,2.52-.67c.26,1.29-.54,2.03-1.73,2.63s-2.12-2.39-.79-1.96Z"/><path class="cls-6" d="m31.99,11.74s-6.17,13.01-6.29,14.05,6.05,7.72,4.58,12.26c-1.47,4.54,3.84,14.6,15.18,12.83-3.02,2.57-13.53,2.89-18.54-6.48-1.65,3.14-5.35-1.09-5.79-3.74-.32-1.79,3.53-2.72,4.63-1.98.98-.73-1.04-2.15-1.77-2.57-1.83-2.43-4.05-10.19-3.46-11.23,3.81-8.86,11.46-13.13,11.46-13.13Z"/><path class="cls-2" d="m54.2,35.34c-.59-2.12-.91-4.33-1.1-6.58-.29-2.21-.28-4.49-1.51-6.49.76-2.42.22-4.99-.51-7.33-.36-1.2-.99-2.49-1.52-3.65-.65,1.03-1.34,2.07-2.09,3.07-.03-2.44-.92-4.86-2.1-6.99-1.02,1.91-2.68,3.46-4.48,4.74-.11-2.05-1-3.99-2.12-5.73-.95,1.63-1.99,3.27-3.16,4.76-.54.69-1.12,1.36-1.72,1.99-.14-1.4-.51-2.77-1.12-4.06-4.48,3.41-8.68,7.23-11.5,12.19-.65,1.18-1.17,2.46-1.46,3.83-.26,1.52.19,2.83.61,4.2.64,2.2,1.86,4.25,2.32,6.46-2.72.79-2.82,4.58-1.96,6.88.58,2.47,3.74,4.43,6.12,3.03,2.72,6.54,11.22,9.07,17.73,7.56,5.69-2.29,8.97-8.45,9.8-14.26.13-1.19.1-2.43-.23-3.64Zm-1.91,6.62c-1.67,4.24-4.93,9.11-9.74,9.71-3.72.16-7.74-.44-10.8-2.64-1.67-1.2-3.05-2.85-3.73-4.8-.03-.24-.33-.6-.6-.63-.34-.02-.77.23-1.01.51-1.51,1.25-3.76-.2-4.15-1.95-.55-1.72-.95-4.8,1.42-5l.66-.05s.05-.65.05-.65c.02-1.51-.65-2.72-1.13-4.07-.79-2.17-2.16-4.77-1.92-6.99.25-1.17.71-2.31,1.31-3.4,2.28-4.05,5.77-7.47,9.41-10.39.42,1.62.35,3.44.25,5.07,2.54-2.02,4.64-4.48,6.39-7.18.52,1.26.8,2.67.58,3.97,0,0-.29,1.72-.29,1.72,2.21-1.37,4.42-2.75,6.12-4.73.77,2,1.11,4.24.49,6.29l-.92,3.24,2.24-2.47c.86-.96,1.64-1.95,2.38-2.98.11.29.22.59.32.88.78,2.3,1.17,4.97.29,7.18,0,0,.27.27.27.27,1.41,1.49,1.62,3.96,1.87,5.99.27,2.24.47,4.53,1.01,6.77.47,2.09,0,4.33-.74,6.33Z"/></g></g><g><path class="cls-2" d="m34.4,37.5c1.61-.37,3.43-1.21,4.06-2.85.09-.21.33-.32.54-.23.23.08.27.33.3.53.12.61-.08,1.22-.38,1.72-.96,1.38-2.72,2.03-4.36,1.71-.56-.02-.72-.72-.16-.88h0Z"/><path class="cls-2" d="m46.13,33.32c.77,1.34,2.42,2.11,3.92,1.57.37-.11.66.4.37.65,0,0-.12.12-.12.12-.76.78-2.04.84-2.99.36-.96-.46-1.65-1.28-1.9-2.31-.09-.24.02-.52.28-.57.17-.04.35.04.43.19h0Z"/><path class="cls-2" d="m43.47,44.27c-2.03.54-4.5.1-5.8-1.65.28-.13.59-.21.88-.25.48-.05.46-.78-.03-.81-1.13-.08-2.35.53-2.7,1.65-.14.39-.1.78-.03,1.15.07.47.81.41.81-.07,0-.26.01-.52.11-.74.06-.16.15-.3.26-.43.23.58.61,1.05,1.06,1.46,1.56,1.29,3.88,1.38,5.64.47.47-.16.3-.88-.19-.79Z"/><path class="cls-2" d="m45.29,38.71c1.45-.18,3.82.99,2.41,2.64-.49.59-2.92,1.56-3.05.35.02-.99,1.29-.46,1.87-.8,1.73-.65-.31-1.61-1.23-1.57-.39,0-.39-.62,0-.62h0Z"/></g></g></g></svg>