<?xml version="1.0" encoding="UTF-8"?><svg id="Layer_2" xmlns="http://www.w3.org/2000/svg" viewBox="0 0 102.77 100.2"><defs><style>.cls-1{fill:#fff;}.cls-2{fill:#20639b;}</style></defs><g id="Layer_3"><g><rect class="cls-2" y="0" width="102.77" height="100.2" rx="18.2" ry="18.2"/><path class="cls-1" d="m40.39,59.95h-15.93l-3.24,10.08c-.09.38-.44.64-.83.62h-8.07c-.46,0-.62-.25-.48-.76l13.79-39.55c.14-.41.28-.88.41-1.41.21-.9.32-1.81.34-2.73-.03-.23.13-.45.36-.48.04,0,.08,0,.12,0h10.96c.32,0,.5.11.55.34l15.59,43.9c.14.46,0,.69-.41.69h-8.96c-.32.04-.61-.17-.69-.48l-3.52-10.22Zm-13.44-8.5h10.89c-.28-.92-.6-1.95-.97-3.1-.37-1.15-.76-2.38-1.17-3.69-.41-1.31-.83-2.62-1.24-3.93-.41-1.31-.79-2.57-1.14-3.79-.34-1.22-.65-2.33-.93-3.34h-.07c-.39,1.86-.87,3.7-1.45,5.52-.64,2.07-1.3,4.18-1.96,6.34-.67,2.16-1.32,4.16-1.96,6h0Z"/><path class="cls-1" d="m86.86,36.92v26.25c0,1.15.01,2.17.03,3.07.02.9.07,1.68.14,2.34.07.67.13,1.07.17,1.52.05.37-.12.55-.48.55h-7.38c-.35.04-.69-.16-.83-.48-.1-.35-.18-.71-.24-1.07-.06-.3-.1-.6-.1-.9-1.39,1.24-3.04,2.15-4.83,2.65-1.55.42-3.15.64-4.76.65-1.58.02-3.15-.23-4.65-.72-1.39-.47-2.64-1.28-3.65-2.34-1.1-1.19-1.92-2.6-2.41-4.14-.62-1.97-.91-4.03-.86-6.1v-21.22c-.04-.27.15-.51.41-.55.05,0,.09,0,.14,0h8.19c.27-.04.51.15.55.41,0,.05,0,.09,0,.14v20.11c0,1.89.41,3.37,1.24,4.45.83,1.08,2.49,1.62,4.42,1.62.99.01,1.97-.16,2.9-.52.97-.34,1.88-.82,2.72-1.41v-24.32c0-.32.21-.48.62-.48h8.18c.23-.03.45.13.48.36,0,.04,0,.08,0,.12Z"/></g></g></svg>