<?xml version="1.0" encoding="UTF-8"?><svg id="Layer_2" xmlns="http://www.w3.org/2000/svg" viewBox="0 0 102.77 100.2"><defs><style>.cls-1{fill:#fff;}.cls-2{fill:#20639b;}</style></defs><g id="Layer_3"><g><g id="Surfaces"><g id="Publishing_Surface"><g id="Outline_no_shadow"><rect class="cls-2" width="102.77" height="100.2" rx="18.2" ry="18.2"/></g></g></g><g id="Outlined_Mnemonics_Logos"><g id="Id"><path class="cls-1" d="m37.32,26.21v43.92c0,.46-.21.69-.62.69h-8.34c-.37,0-.55-.23-.55-.69V26.21c0-.37.21-.55.62-.55h8.34c.27-.04.51.15.55.41,0,.05,0,.09,0,.14Z"/><path class="cls-1" d="m62,71.51c-3.17.05-6.32-.61-9.2-1.93-2.69-1.24-4.94-3.28-6.45-5.83-1.56-2.6-2.34-5.85-2.34-9.76-.03-3.16.78-6.28,2.34-9.03,1.61-2.8,3.97-5.1,6.83-6.62,2.99-1.65,6.59-2.48,10.82-2.48.23,0,.53.01.9.03.37.02.8.06,1.31.1v-13.58c0-.32.14-.48.41-.48h8.69c.2-.03.39.11.41.31,0,.03,0,.07,0,.1v40.74c0,.78.03,1.63.1,2.55.07.92.13,1.75.17,2.48.02.29-.15.57-.41.69-2.24.93-4.58,1.63-6.96,2.07-2.18.4-4.4.61-6.62.62Zm4.21-8.55v-18.82c-.37-.1-.75-.17-1.14-.21-.47-.05-.94-.07-1.41-.07-1.67-.02-3.33.36-4.83,1.1-1.46.73-2.71,1.82-3.62,3.17-.94,1.38-1.41,3.19-1.41,5.45-.03,1.5.21,3,.72,4.41.42,1.14,1.08,2.17,1.93,3.03.82.79,1.81,1.38,2.9,1.72,1.15.37,2.35.56,3.55.55.64,0,1.24-.02,1.79-.07.51-.04,1.02-.13,1.52-.28Z"/></g></g></g></g></svg>