<?xml version="1.0" encoding="UTF-8"?>
<svg id="Layer_2" data-name="Layer 2" xmlns="http://www.w3.org/2000/svg" viewBox="0 0 1298.11 1307.19">
  <defs>
    <style>
      .cls-1 {
        fill: #4293d7;
        stroke-width: 0px;
      }
    </style>
  </defs>
  <g id="Layer_2-2" data-name="Layer 2">
    <g>
      <path class="cls-1" d="m0,1037.33c7.27-26.67,36.97-35.75,62.35-39.47-35.45-34.9-8.54-103.36,44.24-95.13-4.26-60.92,81.43-73.62,120.2-41.87,34.26-33.06,84.44-23.18,127.01-34.32,39.16-7.6,81.78-23.48,97.81-63.43,6.11-8.88,20.2-6.92,20.41-20.57,3.98-12.41,16.44-17.06,27.12-22.29,54.16-43.05,12.64-127.92,50.03-181.77,13.42-35.65,68.88-16.57,84.65-47.27,7.09-65.41,6.1-47.43,67.73-55.91,8.65-25.55,3.13-61.82-18.62-80.28-30,14.55-47.01,59.02-64.98,88.27-11.37,16.84-18.06,57.19-46,42.28-4.67-.96-8.16-10.82-12.19-5.68-39.63,27.6-92.04-33-106.93-67.68-3.21-5.68-3.87-18.49-10.76-6.9-26.21.83-23.03-104.02-14.09-123.73,9.38-33.49,27.78-63.84,51.04-89.51,4.73-8.64,21.12-13.9,17.45-24.65-12.73-53.99,17.18-108.36,43.25-151.62,40.02-28.04,107.08-18.64,129.66,27.21,119.02,78.99,26.69-4.17,120.41-15.75,37.63,2.81,76.05-1.89,113.48,7.67,6.51.4,1.57-9.87.52-13.55,4.53-30.43,39.36,34.4,43.53,39.64,19.25-30.9,32.37,66.38,41.59,73.65,15.41,4.65,36.84-27.23,44.18-5.22-2.29,17.18-6.25,12.13,11.14,17.51,67.33,22.68,145.55,60.87,176.35,127.48,59.97,105.68,55.17,246.5-19.01,346.99-23.19,36.44-73.96,89.55-116.42,48.79-8.56-14.03-15.12,1.69-27.9-5-54.75-38.23-100.68-84-77.63-159.18,9.08-39.56,40-69.23,50.29-108.02,9.86-38.27,2.55-89.95-26.45-115.8-1.22,10.1-7.18,17.69-15.75,21.58,2.66,13.85-10.97,16.29-21.24,12.54-1.13-.25-2.51-.3-2.83,1.09-2.71,12.81-14.61,20.39-25.96,25.01-73.55,11.52-91.03,47.23-128.83,106.2,15.43,17.6,3.98,39.1,1.87,60.13,5.81,24.5,60.96,15.07,69.7,47.82,11.48,80.84-64.2,90.35,7.75,218.11,5.78,13.62-12.09,42.88,16.54,26.35,15.16-.05,10.81,33.16,37.99,47.75,23.5,20.58,53.26,29.28,81.66,40.45,8.4-.34,15.63-10.14,23.4-13.99,102.97-58.42-27.4-203.49-25.15-49.11,1.39,5.94-.38,14.03-6.78,6.57-30.2-35.63-13.72-111.68,35.77-121.46,10.36-2.1,20.92-1.25,31.27.44,2.65-.64,1-5.11,4.28-5.36,37.25,1.86,77.74,24.41,85.96,63.15,3.86,15.4,1.46,31.49-.68,46.74,7.09-12.19,10.09-27.74,11.92-41.91,14.92-9.35,13.82,49.59,11.44,59.08-3.66,27.02-17.15,52.11-35.67,71.14,3.85-1.35,13.67-3.93,9.03,4.16-92.91,54.5-21.37,21.53,27.06,30.84,47.74,5.16,60.8,42.02,61.29,82.73,89.99,67.38,15.06,169.89-76.08,103.2,10.8,36.88,40.54,20.36,64.95,38.8,52.75,71.51-54.25,96.83-99.71,44.83-12.32-11.03-15.04-27.19-20.04-41.87-18.31,10.55-1.66,31.06,2.61,45.13,11.16,50.72-44.96,66.77-72.33,30.27-37.3,47.83-112.68,60.56-169.75,46.63-19.18-4.82-37.28-12.3-54.52-21.93-11.49-6.36-22.3-13.76-32.64-21.84-2.93-.06-3.68,4.94-6.99,5.68-27.65,6.37-13.43-2.63-30.34,18.81-22.46,14.86-48.68,23.28-74.58,29.98-56.21,16.27-162.36,8.87-167.99-63.61-39.38,8.17-80.46,35.59-125.05,35.26-88.83,25.82-176.3,8.22-173-102.3-25.31,10.52-56.48,30.91-86.56,19.13-25.45-9.94-36.4-50.2-18.65-71.09,14.72-18.79,49.26-10.44,53.7-38.04,1.59-2.94-1.42-2.89-2.93-1.77-17.61,7.99-36.64,12.98-55.83,14.95-41.89,4.69-103.91-6.91-111.77-55.19Zm521.44-113.87c24.41-14.27,37.96-46.38,38.02-73.13-21.3,13.39-23.91,53.89-38.02,73.13Zm430.1,242.75c-34.54-55.24-38.28-141.7,6.49-193.86-40.35,62.91-38.75,159.17,19.87,210.6,14.79,13.16,78.57,44.13,58.84,1-21.84-7.61-38.23-37.82-47.28-61.06-18.09-51.63-10.16-114,25.41-156.44,16.92-20.98,45.79-35.83,66.79-13.08,15.46-6.21,41.33-3.99,13.35-19.54-28.43-17.76-64.27-17.19-94.04-2.99l.08.09c13.72-12.07,35.42-14.36,52.99-15.54-8.88-8.78-21.34-13.89-34.17-13.23-82.39,1.89-120.7,99.88-119.56,171-1.19,38.17,28.64,65.75,51.23,93.05Zm-625.63-31.4c122.94-30.66,122.65-238.57,23.08-298.04-15.41-3.08-34.07,3.62-49.97,5.18,25.35,9.17,45.86,29.15,58.88,52.46-25.77-42.16-85.29-73.64-124-27.51,3.49,12.93,17.14,27.02,18.8,43.07,11.53-14.26,27.46-32.09,48.83-28.28,82.96,19.12,65.98,231.79-26.68,218.52-9.18,24.62-32,33.96,8.19,39.47,79.08,3.49,103.07-94.57,100.16-157.97,5.06,55.16-7.72,121.58-57.24,153.43l-.04-.33Zm532.61,79.8c-.6-.26-.12.21.1-.14,2.99,8.06,14.64,22.79,9.88,29.83-9.05-33.98-40.53-50.62-73.63-53.11-15.98,56.73,58.45,78.52,101.15,91.36,45.1,10.71,92.24-.3,131.91-23.06,19.4-8.05,34.18-27.49,16.33-45.55-15.69-1.86-32.84-.09-47.81-7.59-58.44-26.76-91.26-87.41-122.2-140.72-39.29-11.04-70.5,45.9-75.26,81.34-2.29,11.98-4.3,24.15-4.64,36.34,3.9,2.97,10.72.9,15.53,2.72,34.73,6.03,73.19,26.89,87.98,59.35-13.43-9.05-24.51-23.1-39.34-30.78Zm-34.55-192.45l-.09-.09c-65.6,43.44-64.24,132.04-50.72,201.64,1.65,6.79-1.48,15.51,1.31,21.29,8.16.67,23.76-.02,16.12-11.66-7.03-55.86-2.85-131.95,48.68-165.97,44.05-19.54,27.87-4.89,9.67-51.17-25.59-51.83-50.04-106.07-66.19-161.22,4.35-16.94,11.74-31.96,8.08-50.04-1.36-28.64-1.78-57.33-3.05-85.98-1.52-26.42-8.01-57.83,13.42-77.8-18.31,22.55-12.8,50.83-10.22,77.48,1.73,32.13,2.93,64.3,4.75,96.42-2.06,43.78-17.93,31.47,6.66,80.37,28.58,68.07,57.43,139.03,97.75,200.2-13.63-82.77,36.5-199.75,128.92-196.87-45.57-20.76-107.68-37.05-121.46-92.14-17.87,5.73-37.43,19.14-58.6,14.77-17.77-2.17,33.75-3.57,38.96-10.39-13.16-8.94-1.4-20.6-17.89-4.8-9.47,6.88-26.24,8.01-5.39-.68,26.43-18.14,18.67-28.59,5.28-51.56-8.37-25.03-17.69-50.27-18.44-76.96-7.52-45.69,61.44-117.23-4.03-141.48-13.81-6.07-31.31-6.56-41.83-18.32-5.16,2.06-7.53,13.78-14.36,13.59,8.21-7.65,14.95-19.7,11.18-31.05,3.75-10.41,15.59-43.61-.98-44.12-1.44,5.61-14.24,20.02-3.46,18.36-12.28,5.42-27.19,7.4-40.39,3.81-12.33,30.56-4.05,70.79-20.44,102.58-14.24,3.93-15.53,7.79-18.88,22.35-8.43,31.03-14.95,62.55-21.16,94.09-5.38,34.16-2.68,46.27-42.39,31.51-7.99-39.17-4.84-82.01-7.55-122.44-1.37-44.07-2.51-91.65,24.68-129.06,3.75-4.78-15.64-5.02-14.31-16.68,6.46,14.37,15.06,7.96,20.19,13.81-4.17,3.24-21.96,35.19-10.76,25.83,14.4-14.9,35.9-39.39,34.33-58.51-17.06.51-33.86,3.75-50.76,5.38-5.97,2.99-3.81,12.4-4.67,18.04,7.09,68.98-72.92,36.51-86.96,74.49-40.55,45.15-5.59,117.51-37.34,167.76-13.31,21.25-42.74,22.16-47.56,49.82,19.54,4.08,20.95,15.4,33.38,22.12,8.24-12.6-5.88-26.53-17.18-29.79,9.97-.52,18.94,6.72,21.91,16.11,4.27,50.06-31.25-26.05-53.07-.81-17.97,44.15-65.13,60.68-108.44,69.39,4.48,7.02,17.38,12.2,23.46,20.14,63.35,59.83,53.38,165.73,26.81,232.5,46.73-49.38,81.62-109.08,112.59-169.26,15.26-29.03,22.76-61.78,46.59-84.59,2.39-22.62,2.65-35.88,18.49-53.32,14.88-27.6-.12-58.02,3.84-87.31-2.18-38.55,11.18-77.02,4.84-115.02l-.1.1c14.23,26.52-2.27,59.11-.36,87.88,11.2,57.49,0,113.64-20.9,167.34,2.31,35.87-4.04,66.47-33.34,91.98-6.75,7.41-19.16,8.88-16.02,21.18-45.56,34.3-6.18,9.97,24.06,73.94,20.9,42.57,26.97,95.77,18.96,140.99.98-38.6-.06-77.9-12.35-114.89-9.44-29.95-26.55-59.08-52.73-77.18-19.26,28.93-37.5,61.54-59.99,89.72,76.23,30.87,91.14,87.94,84.62,167.25,37.85,6.69,29.97-64.19,28.11-88.89-3.86-42.42-33.08-73.23-64.17-95.27,60.98,29.12,80.12,100.79,68.31,163.48-2.15,16.03-19.39,22.39-25.15,35.74,3.48,25.04,32.42,40.82,53.99,49.67,55.8,18.15,117.64,3.06,169.06-21.79,54.47-18.85-44.8-174.45,74.64-246.02Zm20.46-988.05c-9.6.7-20.54-.88-28.7,2.84.77,3.52-1.43,11.43-6.11,10.55-29.16-5.93-57.1,8.03-70.97,34.21-1.74,2.31.02,3.55,2.32,3.93,3.87-14.63,21.32-28.07,35.94-17.28-10.09-.42-22.96-.61-29.05,9.88-11.98,13.01,13.35,13.12,22.13,13.87,1.39-4.45-2.05-10.88.48-16.03.12-2.29,4.58-6.78,3.63-1.72-.99,5.45-.51,11.05-1.52,16.51,0,2.71,5.61-.11,5.44,1.74-39.86,9.83-74.99-25.86-108.86-42.17-7.43-6.27-11.95,10.68-21.84,8.05-31.41-1.79-56.88,16.68-83.47,29.68-14.05,35.39-10.89,80.92,17.59,108.68,50.34,45.17,125.99,56.12,190.71,44.43,24.61-2.88,33.59,3.09,13.48-22.03-1.59-1.48-4.79-5.9-.29-3.76,16.75,10.29,28.6,36.36,22.16,54.45-3.98-8.73-2.67-21.94-9.55-28.77-16.87,2.21-33.54,5.87-50.28,8.94-65.91,8.28-151.88-9.09-187.64-70.63-10.96,27.27-36.31,23.77-26.37,48.63,26.23,84.15,126.81,135.85,209.46,101.75,45.41-19.23-6.89,14.02-23.31,13.58-26.3,7.08-37.76-8.71-15.9,20.84,20.03,39.9,8.83,89.83-17.85,123.95-20.01,17.87-29.71,37.41-33.17,64.27-2.79,49.42,2.04,99.62,4.18,149.17,1.22,7.36-.86,16.81,3.23,22.85,7.07,2.28,25.8,8.76,26.73-1.88,10.29-46.94,14.85-99.99,36.84-142.27,34.39-13.82,15.45-73.61,28.76-102.83,7.34-8.49,28.11,7.51,34.23-5.22,22.72-45.23,50.14-92.87,91.52-123.27,3.28-3.63-11.5-3.29-11.78-8.76,22.47,7.15,48.46-1.51,70.58-8.93,13.54-4.9,18.96-14.42,19.5-27.08,8.36-2.15,29.96,10.88,20.97-7.3-1.11-1.89-1.48-4.61,1.02-5.52,16.56,5.04,18.8-16.04,16.86-27.94-5.6-7.76-14.82-13.23-18.28-22.95-5.12-10.28-26.46-72.82.26-56.53,11.43,3.93,7.98-20.42,6.26-27.13.49-7-17.58-24.93-9.82-26.6,6.6,5.54,2.43-2.05,1.53-5.77-5.22-19.28-8.07-42.61-20.12-58.18-1.87,6.03-4.44,11.97-8.03,16.9.35,1.1.08,8.55-2.17,6.15-4.14-21.05-12.21-49.89-29.82-60.78-.1,5.02.77,16.81-7.51,13.64-20.6-5.08-42.34-7.81-63.41-8.17ZM94.22,1083.59c15.96-.94,89.53-7.06,77.34-30.47-1.51-4.4,2.94-3.12,4.5-.66,23.23,69.02-70.07,39.25-59.71,93.75,9.94,63.47,87.45,27.75,118.63.89,24.77-20.15,37.57-51.05,46.65-80.87,5.07-26.05,20.62-60.21,1.61-82.3,9.72.38,8.46,15.56,18.18,3.55,46.76-31.96,56.01-25.25,23.34-82.19-25.56,15.73-61.64,24.03-81.43,46.85,37.13-119.83-143.86-135.05-126.21-46.85,17.55,25.38,48.91-9.46,72.54,3.77,9.71,5.25,9.86,9.28-1.13,2.94-37.94-8.25,16.8,8.62-16.43,35.88-33.75,31.86-49.63-1.04-37.4,21.66-20.4-8.39-.45-31.74-5.37-45.72-12.43-21.16-44.17-21.16-60.69-4.57-44.47,54.33,16.96,103.46,72.95,72.12,7.77,1.88-21.42,13.1-26.51,13.62-21.73,5.81-43.61-6.63-65.35.28-89.55,22.79-9.64,84.1,44.49,78.31Zm935.81-48.35c3.42,48.78,7.44,97.57,11.21,146.25,4.84,34.75,36.81,101.14,77.19,62.84,16.68-18.13,4.37-50.27-16.77-58.02,17.53.27,10.67,6.13,12.89-14.21.12-9.12,5.81-74.74,7.52-42.21,44.28,2.02,66.44-53.39,54.05-21.88,58,75.82,161.76,13.07,95.49-69.45-10.71-16.17-36.32-14.46-45.98,1.77-11.39,13.49,6.77,38.51-12.19,49.18-2.63-.12,7.16-10,5.69-14.58-3.49-1.05-8.55,3.56-13.08,2.53-27.2.15-59.12-45.23-35.43-66.99,17.03-8.94-13.99.22-13.91-2.33,41.79-24.67,62.77,39.22,69.95,22.72,5.72-8.24,15.6-7.53,23.74-9.32,6.65-33.99-11.88-70.78-48.16-76.05-35.67-7.34-73.19-.01-107.75,9.16-18.86,9.09-38.62,5.08-57.19,1.69-73.39,69.43,2.77,23.88-7.28,78.89Zm-515.7,156.87c3.74-42.82-13.69-18.56-40.51-10.86-27.31,6.66-24.32,26.19-40.25,43.54-2.18-4.65,10.21-18.84,11.09-27.2-12.89,4.39-25.37,16.66-36.85,25.27-27,19.86,18.14-27.06,27.77-30.09,21.71-14.34,45.95-25.15,71.39-30.73,10.26-.32,1.95-13.71,1.67-19.9-7.89-35.07-46.81-78.56-82.24-73.47-39.63,47.89-107.74,101.96-172.38,72.17-7.26-2.9-12.25,10.33-19.2,13-8.98,10.09-4.62,27.62-3.91,40.32,5.39,38.52,33.27,75.21,74.47,76.82,40.94,7.53,81-10.8,121.9-13.69,29.16-6.43,57.11-17.6,83.72-31,4.57-9.78,2.23-23.39,3.32-34.19Zm699.63,38.37c33.14,4.5,56.15-37.37,31.25-61.04-15.06-10.93-42.34-19.86-58.4-7.38-5.19-.51,7.23-7.42,6.81-8.96-9.83-11.28-17.37-24.66-21.52-39.06-12.95,10.35-32.51,16.74-48.52,20.19,9.04,50.99,31.84,95.94,90.39,96.26ZM502.36,136.11c-1.48,18.8,13.45,84.44,39.28,60.16,19.26-18.11,10.95-34,8.92-56.36-2.34-49.95,26.45-38.6-7.83-71.47-4.97-3.25-7.29-18.53-12.15-16.17-17.09,24.26-27.7,54.14-28.22,83.85Zm702.21,933.82c15.27-.95,8.28-18.34,10.02-27.95-.87-5.69-6.56-10.07-6.64-16.29-3.02-4.76-14.39,6.25-16.34-8.6-4.76-8.83-12.31-1.58-18.6,1.52-15.19,16.06,11.8,50.64,31.56,51.32ZM163.49,919.3c-8.47,1.21-17.97,4.41-25.06,7.82,2.31,9.66-6.71,18.13-2.03,27.5,13.28,15.05,62.15-29.11,27.09-35.32Z"/>
      <path class="cls-1" d="m817.71,973.23c-46.18,51.37-87.58,115.82-87.63,188.12,21.4,95.24-45.76,116.46-126.83,115.05,238.88-17.56,24.2-122.33,214.47-303.17Z"/>
      <path class="cls-1" d="m642.03,527.51c-10.54,62.22-3.06,127.89-3.92,191.4.5,13.93-.59,22.01,16.37,22.31,14.08-.2,35.45,7.38,45.97-3.36,13.66-42.56,22.05-86.12,31.03-129.77,1.32-9.91,15.45-12.29,17.91-23.53,9.23-19.53,13.49-40.81,16.63-62.15,1.86-5.99-1.8-17.87,7.94-14.33.54,1.32-5.76-1.13-5.88,1.44-1.43,17.38-4.08,34.7-8.74,51.55-4.55,16.42-10.47,34.42-25.57,43.41-8.68,44.72-17.53,89.79-31.19,133.32-12.46,15.33-42.83,4.78-60.66,2.87-9.99-7.17-3.73-26.11-6.16-37.47,2.74-56.92-6.8-121.55,6.25-175.69Z"/>
      <path class="cls-1" d="m738.27,847.04c-36.18-51.77-81.22-102.47-126.9-26.16,35.32-81.07,99.96-31.03,126.92,26.18l-.02-.02Z"/>
      <path class="cls-1" d="m670.12,797.08c-6.24-.68-21.05.57-22.63-5.15,12.61,1.93,26.82-.27,38.73,2.97-4.46,2.73-10.92,1.75-16.1,2.18Z"/>
      <path class="cls-1" d="m812.86,605.56c8.47-15.87,22.96-32.01,41.57-34.67-15.78,5.47-30.86,20.21-41.57,34.67Z"/>
      <path class="cls-1" d="m783.75,508.38c-.22-.03-.87.07-1.14-.06-.1-.68,3.99-.09,1.14.06Z"/>
      <path class="cls-1" d="m642.85,523.98c-.63,1.08-.89,2.39-.77,3.62-.6-1.3-.31-2.83.77-3.62Z"/>
      <path class="cls-1" d="m645.58,511.44c.64-.31.9-1.09,1.6-1.4-.55.48-.91,1.07-1.6,1.4Z"/>
      <path class="cls-1" d="m644.67,514.07c.81-.62,1.01-1.68.92-2.65.11,1.09.03,1.99-.92,2.65Z"/>
      <path class="cls-1" d="m644.7,514.06c-.07.46.29,1.18.02,1.52-.06-.49.04-1.04-.02-1.52Z"/>
      <path class="cls-1" d="m643.01,520.41c.2-.27.44-.71.6-.94.79.33-.72.65-.6.94Z"/>
      <path class="cls-1" d="m642.88,524.05c-.5-1.24.13-2.51.08-3.74.4,1.22-.12,2.51-.08,3.74Z"/>
      <path class="cls-1" d="m789.64,506.55l-.61.66c.29-.22.74-.32.67-.77l-.06.11Z"/>
      <path class="cls-1" d="m794.87,505.07c-.31-.27-.8.05-.49.39.42.27.32-.14.49-.39Z"/>
      <path class="cls-1" d="m647.13,510.08c.09-.24.07-.43-.08-.58-.15.22.17.45.08.58Z"/>
      <path class="cls-1" d="m587.31,576.95c-.46-.32-.28-.9-.05-.33.06.11-.14.57.05.33Z"/>
      <path class="cls-1" d="m801.79,636.8c-2.48.39.6,2.51.01-.02v.02Z"/>
      <path class="cls-1" d="m800.96,638.1c.63.99.07,2.12.26,3.09-.64-.92-.16-2.09-.26-3.09Z"/>
      <path class="cls-1" d="m611.45,820.84c-.38.3.15.86.16.31,0-.11-.34-.26-.16-.31Z"/>
      <path class="cls-1" d="m738.29,847.06c-.38.31-.01.7-.23,1.05-.25-.39.22-.79.23-1.05Z"/>
      <path class="cls-1" d="m826.34,1021.86c-.01-.39.22-.92.59-.55-.16.19-.8.38-.59.55Z"/>
      <path class="cls-1" d="m823.97,1022.17c.76-.34,1.52-.61,2.37-.31-.59.35-1.94.74-2.37.31Z"/>
      <path class="cls-1" d="m478.92,1039.68c.56.35,1.02,1.26,1.42,1.48-.47-.5-.98-.96-1.42-1.48Z"/>
      <path class="cls-1" d="m480.25,1041.23c.91-.51,2.02.11,2.89-.16-.93.86-1.94.19-2.89.16Z"/>
      <path class="cls-1" d="m789.7,506.44c.02.37.6.55.58.12-.18-.28-.73.09-.58-.12Z"/>
      <path class="cls-1" d="m799.61,501.05c2.19.19,2.37.24.06,0,0,0-.06,0-.06,0Z"/>
      <path class="cls-1" d="m802.5,499.75c-.34.42-.87.89-.79,1.49.1-.52.82-1.12.79-1.49Z"/>
      <path class="cls-1" d="m794.78,505.21c0-.08,0-.16,0-.24-.46.33.25-.03,0,.24Z"/>
      <path class="cls-1" d="m819.48,971.37c-1.99-.68-.3,2,.16-.08l-.16.08Z"/>
      <path class="cls-1" d="m818.66,972.13q.05,1.06-.93,1.1c.36.06,1.11-.66.93-1.1Z"/>
      <path class="cls-1" d="m798.72,502.55l-.12.2c.06-.07.3-.1.12-.2Z"/>
      <path class="cls-1" d="m801.8,636.77c.63.04,1.52-.12,1.88-.6-.63.19-1.3.46-1.88.6Z"/>
      <path class="cls-1" d="m798.8,502.63c.6-.38.75-1.01.87-1.59-.58.26-.98,1.08-.87,1.59Z"/>
      <path class="cls-1" d="m479.01,1039.8c-.06-.03-.12-.05-.18-.08.03.07.05.13.08.2.05-.12-.01-.32.11-.12Z"/>
      <path class="cls-1" d="m803.61,636.35c-.03-.09-.06-.18-.1-.27-.36.45.3-.09.1.27Z"/>
      <path class="cls-1" d="m791.32,530.8c.13.2.26.41.39.61-.11-.19-.24-.42-.39-.61Z"/>
      <path class="cls-1" d="m558.95,539.39c-.06-.09-.13-.19-.19-.28-.32.6.34-.12.19.28Z"/>
      <path class="cls-1" d="m812.93,605.45l-.08.29c0-.08.02-.23.08-.29Z"/>
      <path class="cls-1" d="m819.64,971.29c-.25.45.48.23-.16.09,0,0,.16-.09.16-.09Z"/>
      <path class="cls-1" d="m933.9,131.87c5.75,107.21-107.83,92.19-150.99,24.94-13.48-27.24,13.64-52.05,25.53-74.7,46.31-78.71,129.86-31.86,125.46,49.75Z"/>
      <path class="cls-1" d="m703.08,138.9c-11.04,1.71-26.02-3.65-22.05-17.2,7.59-23.01,47.39,12.23,22.05,17.2Z"/>
      <path class="cls-1" d="m708.76,167.75c4.44-.14,9.48,3.71,9.26,8.38-4.42,15.64-29.09-6.31-9.26-8.38Z"/>
      <path class="cls-1" d="m679.7,148.57c9.7.74,8.56,10.17,0,11.62-8.28-.43-8.67-11.86,0-11.62Z"/>
      <path class="cls-1" d="m699.67,558.41c-9.42,8.76-26.18,4.82-21.74-9.98,2.01,13.58,9.71,14.93,21.74,9.98Z"/>
      <path class="cls-1" d="m699.63,558.6l-.14-.25c-.28.5.3-.16.14.25Z"/>
      <path class="cls-1" d="m299.31,1246.99c-16.38-10.9-43.85,7.31-30.88-3.7,11.38-14.43,56.65,12.75,30.88,3.7Z"/>
      <path class="cls-1" d="m1002.51,1253.72c1.01-8.18,12.17-20.91,19.76-18.26-5.33,1.71-19.19,22.77-19.76,18.26Z"/>
      <path class="cls-1" d="m360.56,898.65c-1.07-.13-1.88-1.02-2.71-1.37,1.22-.01,1.78,1.08,2.82,1.43l-.11-.05Z"/>
      <path class="cls-1" d="m357.84,894.51c.29.88.46,1.98.04,2.73-.12-.81-.27-2.27-.04-2.73Z"/>
      <path class="cls-1" d="m360.67,898.7c-1.14.25.5,1-.12-.05,0,0,.12.05.12.05Z"/>
      <path class="cls-1" d="m1000.97,930.84c-.68.78-1.48.61-2.3.28.6-.04,1.95-.53,2.3-.28Z"/>
      <path class="cls-1" d="m998.67,931.12c.06.1.11.19.17.29-.02-.07-.13-.23-.17-.29Z"/>
    </g>
  </g>
</svg>