<svg width="62" height="62" viewBox="0 0 62 62" fill="none" xmlns="http://www.w3.org/2000/svg">
<g clip-path="url(#clip0_4736_208)">
<path d="M31 62C48.1208 62 62 48.1208 62 31C62 13.8792 48.1208 0 31 0C13.8792 0 0 13.8792 0 31C0 48.1208 13.8792 62 31 62Z" fill="#173F5F"/>
<path d="M31 13.5918C21.3734 13.5918 13.5704 21.416 13.5704 31.0001C13.5704 40.5843 21.3946 48.4085 31 48.4085C40.6053 48.4085 48.4507 40.6055 48.4507 31.0001C48.4507 21.3948 40.6265 13.5918 31 13.5918V13.5918ZM42.4713 21.8189C44.4644 24.2785 45.673 27.3955 45.7154 30.7881C45.0581 30.6609 42.2592 30.1308 38.909 30.1308C37.8276 30.1308 36.6826 30.1944 35.5588 30.3216C35.4528 30.0884 35.368 29.8551 35.262 29.6219C34.9651 28.9222 34.647 28.2436 34.3078 27.5651C39.4603 25.4447 41.9412 22.4974 42.4713 21.8189V21.8189ZM31 16.3271C34.7107 16.3271 38.1033 17.7053 40.7113 19.9742C40.3085 20.5254 38.0821 23.3244 33.0992 25.1903C30.7879 20.9919 28.2859 17.4933 27.671 16.6876C28.7312 16.4331 29.855 16.3059 31 16.3059V16.3271ZM24.6812 17.7477C25.1901 18.4475 27.7134 21.9673 30.067 26.1445C23.7271 27.8196 18.1081 27.9256 16.751 27.9256H16.6026C17.578 23.4304 20.6101 19.6985 24.6812 17.769V17.7477ZM16.2845 31.0426C16.2845 30.9153 16.2845 30.8093 16.2845 30.6821C16.3693 30.6821 16.4966 30.6821 16.6662 30.6821C18.4897 30.6821 24.8509 30.5337 31.3817 28.5829C31.7845 29.3674 32.1662 30.152 32.5055 30.9365C32.3358 30.9789 32.1874 31.0213 32.0178 31.085C24.66 33.4598 20.6101 39.7573 19.974 40.7963C17.6628 38.1882 16.2633 34.7744 16.2633 31.0426H16.2845ZM31.0212 45.758C27.6498 45.758 24.5328 44.613 22.0308 42.7047C22.4548 41.8777 25.5082 36.3859 33.5869 33.5658C35.6012 38.8244 36.4706 43.256 36.7038 44.6342C34.9439 45.3763 33.0355 45.7792 31.0212 45.7792V45.758ZM39.3755 43.1711C39.1847 42.0473 38.3789 37.8914 36.5554 32.8449C37.5732 32.6752 38.591 32.6116 39.5239 32.6116C42.5985 32.6116 45.0157 33.2902 45.567 33.4598C44.9097 37.4673 42.5985 40.9447 39.3755 43.1711Z" fill="#DDEEFC"/>
</g>
<defs>
<clipPath id="clip0_4736_208">
<rect width="62" height="62" fill="white"/>
</clipPath>
</defs>
</svg>
