<svg width="63" height="62" viewBox="0 0 63 62" fill="none" xmlns="http://www.w3.org/2000/svg">
<g clip-path="url(#clip0_1967_79)">
<path d="M31.5 62C48.897 62 63 48.1208 63 31C63 13.8792 48.897 0 31.5 0C14.103 0 0 13.8792 0 31C0 48.1208 14.103 62 31.5 62Z" fill="#DDEEFC"/>
<path d="M48.909 20.3772C47.8102 20.8649 46.6036 21.1618 45.4402 21.3526C46.0004 21.2678 46.8191 20.2712 47.1423 19.8683C47.6378 19.2534 48.0688 18.5537 48.3058 17.7904C48.3273 17.7267 48.3488 17.6631 48.3058 17.6207C48.2411 17.5995 48.1765 17.6207 48.1118 17.6207C46.7976 18.3205 45.4402 18.8081 43.9966 19.1686C43.8673 19.1898 43.7811 19.1686 43.7165 19.105C43.5872 18.9778 43.4795 18.8505 43.3502 18.7445C42.7469 18.2356 42.1006 17.8328 41.3465 17.5359C40.3769 17.1542 39.3211 16.9846 38.2869 17.0482C37.2743 17.1118 36.2832 17.3875 35.3783 17.854C34.4733 18.3205 33.6761 18.9566 33.0298 19.7411C32.3618 20.5469 31.8878 21.501 31.6293 22.4976C31.3923 23.473 31.4138 24.4272 31.5646 25.4025C31.5862 25.5722 31.5646 25.5934 31.4138 25.5722C25.7473 24.7452 21.0718 22.7521 17.2582 18.4901C17.0859 18.2992 16.9997 18.2992 16.8704 18.4901C15.2114 20.9497 16.0086 24.8936 18.0985 26.8444C18.3786 27.0988 18.6587 27.3533 18.9603 27.6077C18.8526 27.6289 17.4737 27.4805 16.224 26.8444C16.0517 26.7384 15.9655 26.802 15.9655 26.9928C15.9655 27.2685 15.9655 27.5017 16.0086 27.7986C16.3317 30.2794 18.077 32.5906 20.4901 33.5024C20.7702 33.6296 21.0934 33.7144 21.395 33.778C20.8564 33.9053 20.2746 33.9901 18.7233 33.8629C18.5294 33.8205 18.4432 33.9265 18.5294 34.0961C19.7144 37.2555 22.2569 38.2096 24.1529 38.7397C24.4114 38.7821 24.67 38.7821 24.9285 38.8458C24.9285 38.867 24.907 38.867 24.8854 38.8882C24.2606 39.8423 22.0629 40.5421 21.0503 40.9025C19.1973 41.5386 17.172 41.8355 15.2114 41.6447C14.8882 41.6023 14.8235 41.6023 14.7374 41.6447C14.6512 41.6871 14.7374 41.7719 14.8235 41.8567C15.2114 42.1111 15.6207 42.3444 16.0301 42.5564C17.2798 43.2137 18.5725 43.7226 19.9299 44.0831C26.9538 45.9915 34.8396 44.592 40.1183 39.4395C44.2551 35.3895 45.6987 29.8129 45.6987 24.2363C45.6987 24.0243 45.9573 23.8971 46.1081 23.791C47.1854 22.9853 48.0472 22.0523 48.8444 20.9709C49.0168 20.7377 49.0168 20.5257 49.0168 20.4408C49.0168 20.3136 49.0168 20.356 48.8659 20.4196L48.909 20.3772Z" fill="#173F5F"/>
</g>
<defs>
<clipPath id="clip0_1967_79">
<rect width="63" height="62" fill="white"/>
</clipPath>
</defs>
</svg>
