<svg width="62" height="62" viewBox="0 0 62 62" fill="none" xmlns="http://www.w3.org/2000/svg">
<g clip-path="url(#clip0_7893_1177)">
<path fill-rule="evenodd" clip-rule="evenodd" d="M31 62C48.1208 62 62 48.1208 62 31C62 13.8792 48.1208 0 31 0C13.8792 0 0 13.8792 0 31C0 48.1208 13.8792 62 31 62Z" fill="#20639B"/>
<path fill-rule="evenodd" clip-rule="evenodd" d="M47 46H40.6305V34.8013C40.6305 31.7309 39.5003 30.0151 37.146 30.0151C34.5849 30.0151 33.2468 31.8007 33.2468 34.8013V46H27.1083V24.6667H33.2468V27.5403C33.2468 27.5403 35.0924 24.0149 39.4781 24.0149C43.8617 24.0149 47 26.7781 47 32.4931V46ZM19.7852 21.8732C17.6943 21.8732 16 20.1106 16 17.9366C16 15.7627 17.6943 14 19.7852 14C21.8761 14 23.5694 15.7627 23.5694 17.9366C23.5694 20.1106 21.8761 21.8732 19.7852 21.8732ZM16.6156 46H23.0164V24.6667H16.6156V46Z" fill="#DDEEFC"/>
</g>
<defs>
<clipPath id="clip0_7893_1177">
<rect width="62" height="62" fill="white"/>
</clipPath>
</defs>
</svg>
