<svg width="62" height="62" viewBox="0 0 62 62" fill="none" xmlns="http://www.w3.org/2000/svg">
<g clip-path="url(#clip0_7893_1163)">
<path d="M31 62C48.1208 62 62 48.1208 62 31C62 13.8792 48.1208 0 31 0C13.8792 0 0 13.8792 0 31C0 48.1208 13.8792 62 31 62Z" fill="#20639B"/>
<path d="M30.9999 13.5918C21.3733 13.5918 13.5703 21.416 13.5703 31.0001C13.5703 40.5843 21.3945 48.4085 30.9999 48.4085C40.6052 48.4085 48.4506 40.6055 48.4506 31.0001C48.4506 21.3948 40.6264 13.5918 30.9999 13.5918V13.5918ZM42.4711 21.8189C44.4643 24.2785 45.6729 27.3955 45.7153 30.7881C45.058 30.6609 42.2591 30.1308 38.9089 30.1308C37.8275 30.1308 36.6825 30.1944 35.5587 30.3216C35.4527 30.0884 35.3678 29.8551 35.2618 29.6219C34.965 28.9222 34.6469 28.2436 34.3077 27.5651C39.4602 25.4447 41.941 22.4974 42.4711 21.8189V21.8189ZM30.9999 16.3271C34.7105 16.3271 38.1031 17.7053 40.7112 19.9742C40.3083 20.5254 38.0819 23.3244 33.099 25.1903C30.7878 20.9919 28.2858 17.4933 27.6709 16.6876C28.7311 16.4331 29.8549 16.3059 30.9999 16.3059V16.3271ZM24.6811 17.7477C25.19 18.4475 27.7133 21.9673 30.0669 26.1445C23.7269 27.8196 18.1079 27.9256 16.7509 27.9256H16.6025C17.5778 23.4304 20.61 19.6985 24.6811 17.769V17.7477ZM16.2844 31.0426C16.2844 30.9153 16.2844 30.8093 16.2844 30.6821C16.3692 30.6821 16.4964 30.6821 16.6661 30.6821C18.4896 30.6821 24.8507 30.5337 31.3815 28.5829C31.7844 29.3674 32.1661 30.152 32.5053 30.9365C32.3357 30.9789 32.1873 31.0213 32.0176 31.085C24.6599 33.4598 20.61 39.7573 19.9739 40.7963C17.6627 38.1882 16.2632 34.7744 16.2632 31.0426H16.2844ZM31.0211 45.758C27.6497 45.758 24.5327 44.613 22.0306 42.7047C22.4547 41.8777 25.5081 36.3859 33.5867 33.5658C35.6011 38.8244 36.4704 43.256 36.7037 44.6342C34.9438 45.3763 33.0354 45.7792 31.0211 45.7792V45.758ZM39.3754 43.1711C39.1845 42.0473 38.3788 37.8914 36.5553 32.8449C37.573 32.6752 38.5908 32.6116 39.5238 32.6116C42.5984 32.6116 45.0156 33.2902 45.5669 33.4598C44.9096 37.4673 42.5984 40.9447 39.3754 43.1711Z" fill="#DDEEFC"/>
</g>
<defs>
<clipPath id="clip0_7893_1163">
<rect width="62" height="62" fill="white"/>
</clipPath>
</defs>
</svg>
