<svg width="62" height="62" viewBox="0 0 62 62" fill="none" xmlns="http://www.w3.org/2000/svg">
<g clip-path="url(#clip0_7893_1186)">
<path fill-rule="evenodd" clip-rule="evenodd" d="M31 0C48.1208 0 62 13.8792 62 31C62 48.1208 48.1208 62 31 62C13.8792 62 0 48.1208 0 31C0 13.8792 13.8792 0 31 0Z" fill="#20639B"/>
<path d="M41.352 15H46.8719L34.8123 28.5551L49 47H37.8908L29.1902 35.813L19.2345 47H13.711L26.61 32.5015L13 15H24.3905L32.2553 25.2251L41.352 15ZM39.4145 43.7506H42.4735L22.7286 18.0787H19.4465L39.4145 43.7506Z" fill="#DDEEFC"/>
</g>
<defs>
<clipPath id="clip0_7893_1186">
<rect width="62" height="62" fill="white"/>
</clipPath>
</defs>
</svg>
