<svg width="62" height="62" viewBox="0 0 62 62" fill="none" xmlns="http://www.w3.org/2000/svg">
<g clip-path="url(#clip0_7893_1427)">
<path d="M31 62C48.1208 62 62 48.1208 62 31C62 13.8792 48.1208 0 31 0C13.8792 0 0 13.8792 0 31C0 48.1208 13.8792 62 31 62Z" fill="#4293D7"/>
<path d="M40.6262 19.2744C39.46 19.2744 38.5059 20.2286 38.5059 21.3948C38.5059 22.561 39.46 23.5364 40.6262 23.5364C41.7925 23.5364 42.7678 22.5822 42.7678 21.3948C42.7678 20.2074 41.8137 19.2744 40.6262 19.2744Z" fill="#DDEEFC"/>
<path d="M31.1482 22.0098C26.2077 22.0098 22.2002 26.0173 22.2002 30.9578C22.2002 35.8983 26.2077 39.9058 31.1482 39.9058C36.0887 39.9058 40.0962 35.8983 40.0962 30.9578C40.0962 26.0173 36.0887 22.0098 31.1482 22.0098V22.0098ZM31.1482 36.704C27.9888 36.704 25.4232 34.1384 25.4232 30.979C25.4232 27.8196 27.9888 25.254 31.1482 25.254C34.3076 25.254 36.8732 27.8196 36.8732 30.979C36.8732 34.1384 34.3076 36.704 31.1482 36.704V36.704Z" fill="#DDEEFC"/>
<path d="M38.2515 49.1295H23.7481C17.7262 49.1295 12.8281 44.2314 12.8281 38.2095V23.7061C12.8281 17.6842 17.7262 12.7861 23.7481 12.7861H38.2515C44.2734 12.7861 49.1715 17.6842 49.1715 23.7061V38.2095C49.1715 44.2314 44.2734 49.1295 38.2515 49.1295ZM23.7481 16.1999C19.6133 16.1999 16.2419 19.5714 16.2419 23.7061V38.2095C16.2419 42.3443 19.6133 45.7157 23.7481 45.7157H38.2515C42.3863 45.7157 45.7577 42.3443 45.7577 38.2095V23.7061C45.7577 19.5714 42.3863 16.1999 38.2515 16.1999H23.7481V16.1999Z" fill="#DDEEFC"/>
</g>
<defs>
<clipPath id="clip0_7893_1427">
<rect width="62" height="62" fill="white"/>
</clipPath>
</defs>
</svg>
