<svg width="62" height="62" viewBox="0 0 62 62" fill="none" xmlns="http://www.w3.org/2000/svg">
<g clip-path="url(#clip0_1985_107)">
<path d="M31 62C48.1208 62 62 48.1208 62 31C62 13.8792 48.1208 0 31 0C13.8792 0 0 13.8792 0 31C0 48.1208 13.8792 62 31 62Z" fill="#DDEEFC"/>
<path d="M40.6266 19.2744C39.4604 19.2744 38.5062 20.2286 38.5062 21.3948C38.5062 22.561 39.4604 23.5364 40.6266 23.5364C41.7928 23.5364 42.7682 22.5822 42.7682 21.3948C42.7682 20.2074 41.814 19.2744 40.6266 19.2744Z" fill="#173F5F"/>
<path d="M31.1485 22.0098C26.208 22.0098 22.2004 26.0173 22.2004 30.9578C22.2004 35.8983 26.208 39.9058 31.1485 39.9058C36.0889 39.9058 40.0965 35.8983 40.0965 30.9578C40.0965 26.0173 36.0889 22.0098 31.1485 22.0098ZM31.1485 36.704C27.9891 36.704 25.4234 34.1384 25.4234 30.979C25.4234 27.8196 27.9891 25.254 31.1485 25.254C34.3078 25.254 36.8735 27.8196 36.8735 30.979C36.8735 34.1384 34.3078 36.704 31.1485 36.704Z" fill="#173F5F"/>
<path d="M38.2518 49.1295H23.7483C17.7265 49.1295 12.8284 44.2314 12.8284 38.2095V23.7061C12.8284 17.6842 17.7265 12.7861 23.7483 12.7861H38.2518C44.2737 12.7861 49.1717 17.6842 49.1717 23.7061V38.2095C49.1717 44.2314 44.2737 49.1295 38.2518 49.1295ZM23.7483 16.1999C19.6136 16.1999 16.2422 19.5714 16.2422 23.7061V38.2095C16.2422 42.3443 19.6136 45.7157 23.7483 45.7157H38.2518C42.3865 45.7157 45.7579 42.3443 45.7579 38.2095V23.7061C45.7579 19.5714 42.3865 16.1999 38.2518 16.1999H23.7483Z" fill="#173F5F"/>
</g>
<defs>
<clipPath id="clip0_1985_107">
<rect width="62" height="62" fill="white"/>
</clipPath>
</defs>
</svg>
