<?xml version="1.0" encoding="UTF-8"?><svg id="Layer_2" xmlns="http://www.w3.org/2000/svg" viewBox="0 0 64.09 64.32"><defs><style>.cls-1{fill:#fff;}.cls-2{fill:#255069;}</style></defs><g id="Layer_2-2"><g><ellipse class="cls-2" cx="32.05" cy="32.16" rx="32.05" ry="32.16"/><g><path class="cls-1" d="M51.15,34.58c-.57,11.71-12.68,20.81-24.21,18.19-12.86-2.68-18.73-17.41-13.09-28.81,6.04-13.25,25.23-17.5,33.73-4.5,1.64,2.26-1.5,4.75-3.3,2.65-3.07-3.93-8.37-5.64-13.2-4.61-10.17,2-16.19,14.57-10.41,23.45,4.73,7.39,15.61,7.54,21.56,1.52,2.43-2.32,4.14-5.4,4.77-8.68,.62-2.72,4.55-1.93,4.15,.81h0Z"/><path class="cls-1" d="M29.91,33.73c5.21-2.73,10.98-3.83,16.8-3.98,1.96,.07,4,.56,5.78,2.28l.91,.88c1.15,1.04,.18,3.06-1.33,2.85-7.02-.67-14.43,.29-21.37,1.63-2.43,.33-3.08-2.83-.79-3.67h0Z"/></g></g></g></svg>