<?xml version="1.0" encoding="UTF-8"?><svg id="Layer_2" xmlns="http://www.w3.org/2000/svg" viewBox="0 0 62.26 62.48"><defs><style>.cls-1,.cls-2{fill:#fff;}.cls-3{fill:#255069;}.cls-2{stroke:#255069;stroke-miterlimit:10;stroke-width:1.9px;}</style></defs><g id="Layer_2-2"><g><ellipse class="cls-3" cx="31.13" cy="31.24" rx="31.13" ry="31.24"/><g><g><ellipse class="cls-2" cx="49.45" cy="36.58" rx="3.61" ry="5.03"/><g><path class="cls-1" d="M16.99,47.22s2.82,10.66,18.99,9.87c7.77-.79,14.85-13.75,13.11-20.65s-.79-13-3.41-16.09c1.82-4.52-1.58-11.57-1.58-11.57-1.82,2.85-3.8,4.99-3.8,4.99,1.51-4.68-1.27-9.83-1.27-9.83-1.74,2.85-6.42,5.71-6.42,5.71,.63-3.49-1.55-6.97-1.55-6.97,0,0-3.13,5.39-6.85,8.56,.16-3.33-.87-5.63-.87-5.63,0,0-12.72,9.37-14.5,18.3-.7,3.49,3.96,11.25,3.72,13.55-3.72,.32-3.57,4.84-2.3,8.08,.93,2.35,4.6,4.2,6.74,1.66Z"/><path class="cls-3" d="M17.2,46.29c.33,.04,.7,.47,.74,.77,.83,2.38,2.52,4.4,4.55,5.86,3.73,2.7,8.64,3.42,13.19,3.23,5.87-.74,9.85-6.68,11.89-11.86,.89-2.44,1.47-5.18,.9-7.73-.66-2.74-.91-5.53-1.24-8.27-.31-2.48-.55-5.49-2.28-7.31,0,0-.33-.33-.33-.33,1.08-2.7,.6-5.96-.35-8.77-.3-.91-.65-1.83-1.04-2.66l1.66,.1c-1.18,1.82-2.45,3.5-3.91,5.13,0,0-2.73,3.02-2.73,3.02l1.12-3.96c.91-2.99,.14-6.34-1.2-9.08,0,0,1.65,.05,1.65,.05-2.15,3.19-5.35,5.16-8.52,7.13,0,0,.35-2.1,.35-2.1,.36-2.1-.36-4.46-1.42-6.3,0,0,1.63-.03,1.63-.03-2.31,3.88-5.16,7.41-8.72,10.24,.15-2.4,.25-5.14-.69-7.4,0,0,1.43,.38,1.43,.38-4.8,3.75-9.53,8.19-12.53,13.53-.73,1.33-1.29,2.73-1.59,4.15-.28,2.71,1.39,5.89,2.35,8.53,.59,1.65,1.4,3.13,1.38,4.98,0,0-.06,.79-.06,.79l-.81,.06c-2.89,.25-2.41,4.01-1.73,6.11,.47,2.13,3.23,3.91,5.07,2.38,.29-.34,.82-.64,1.23-.62h0Zm-.42,1.86c.18,.15,.53,.12,.65-.01-.23,.22-.51,.46-.79,.63-2.92,1.8-6.84-.61-7.55-3.66-1.15-3.07-.91-8.33,3.39-8.59,0,0-.87,.85-.87,.85-.42-2.96-2.11-5.66-2.96-8.56-.51-1.67-1.06-3.27-.74-5.13,.36-1.67,.99-3.23,1.79-4.68,3.43-6.06,8.57-10.72,14.04-14.89,1.06,2.26,1.54,4.7,1.42,7.18,0,0-1.57-.77-1.57-.77,1.32-1.14,2.51-2.47,3.61-3.88,1.43-1.82,2.7-3.82,3.86-5.81,1.72,2.68,3.03,5.74,2.49,9,0,0-1.43-.98-1.43-.98,2.76-1.73,5.47-3.94,7-6.81,2.01,3.63,3.34,7.94,2.08,12.04,0,0-1.6-.94-1.6-.94,1.73-1.9,3.27-4.13,4.64-6.31,.65,1.42,1.42,2.99,1.86,4.46,.94,3.02,1.64,6.34,.48,9.44,0,0-.16-.97-.16-.97,1.84,2.55,1.78,5.53,2.15,8.41,.24,2.75,.62,5.45,1.34,8.04,.4,1.47,.44,2.99,.28,4.44-1.01,7.09-5.01,14.62-11.96,17.42-8.28,1.92-19.24-1.51-22.06-10.27-.02-.08-.06-.18-.07-.26,.03,.24,.41,.62,.7,.63h0Z"/></g></g><g><path class="cls-3" d="M25.61,38.57c2-.28,4.3-1.11,5.24-3.04,.21-.45,.93-.31,.96,.18,0,0,.03,.28,.03,.28,.15,2.25-2.21,3.68-4.18,3.85-.71,.07-1.43,0-2.15-.24-.54-.15-.46-.98,.09-1.03h0Z"/><path class="cls-3" d="M40.59,33.1c.4,1.85,2.05,3.35,3.99,3.27,.48,0,.62,.7,.19,.9,0,0-.19,.09-.19,.09-1.18,.63-2.68,.23-3.61-.68-.94-.89-1.45-2.1-1.35-3.39-.01-.31,.21-.6,.54-.57,.22,.02,.39,.18,.44,.38h0Z"/><path class="cls-3" d="M29.58,44.93c1.54,2.28,4.66,2.84,7.2,2.17,.6-.11,.81,.77,.24,.96-2.14,1.11-4.98,1.01-6.88-.57-.65-.58-1.19-1.25-1.43-2.14-.08-.26,.07-.53,.33-.61,.21-.06,.43,.02,.55,.2h0Z"/><path class="cls-3" d="M30.78,44.77c-.88,.12-1.93,.56-2.25,1.46-.12,.27-.13,.58-.14,.9,0,.58-.89,.65-.98,.08-.09-.44-.13-.92,.04-1.4,.43-1.38,1.93-2.12,3.3-2.02,.6,.03,.62,.92,.03,.98h0Z"/><path class="cls-3" d="M39.01,40.3c1.77-.21,4.66,1.21,2.94,3.22-.6,.72-3.57,1.91-3.72,.43,.02-1.21,1.58-.57,2.29-.97,2.11-.79-.37-1.96-1.51-1.92-.48,0-.47-.75,0-.76h0Z"/></g></g></g></g></svg>