<?xml version="1.0" encoding="UTF-8"?><svg id="Layer_2" xmlns="http://www.w3.org/2000/svg" viewBox="0 0 64.09 64.32"><defs><style>.cls-1,.cls-2{fill:#fff;}.cls-3{fill:#255069;}.cls-2{stroke:#255069;stroke-miterlimit:10;stroke-width:1.9px;}</style></defs><g id="Layer_2-2"><g><ellipse class="cls-3" cx="32.05" cy="32.16" rx="32.05" ry="32.16"/><g><ellipse class="cls-2" cx="50.46" cy="37.5" rx="3.61" ry="5.03"/><g><path class="cls-1" d="M18,48.13s2.82,10.66,18.99,9.87c7.77-.79,14.85-13.75,13.11-20.65s-.79-13-3.41-16.09c1.82-4.52-1.58-11.57-1.58-11.57-1.82,2.85-3.8,4.99-3.8,4.99,1.51-4.68-1.27-9.83-1.27-9.83-1.74,2.85-6.42,5.71-6.42,5.71,.63-3.49-1.55-6.97-1.55-6.97,0,0-3.13,5.39-6.85,8.56,.16-3.33-.87-5.63-.87-5.63,0,0-12.72,9.37-14.5,18.3-.7,3.49,3.96,11.25,3.72,13.55-3.72,.32-3.57,4.84-2.3,8.08,.93,2.35,4.6,4.2,6.74,1.66Z"/><path class="cls-3" d="M18.21,47.2c.33,.04,.7,.47,.74,.77,.83,2.38,2.52,4.4,4.55,5.86,3.73,2.7,8.64,3.42,13.19,3.23,5.87-.74,9.85-6.68,11.89-11.86,.89-2.44,1.47-5.18,.9-7.73-.66-2.74-.91-5.53-1.24-8.27-.31-2.48-.55-5.49-2.28-7.31,0,0-.33-.33-.33-.33,1.08-2.7,.6-5.96-.35-8.77-.3-.91-.65-1.83-1.04-2.66l1.66,.1c-1.18,1.82-2.45,3.5-3.91,5.13,0,0-2.73,3.02-2.73,3.02l1.12-3.96c.91-2.99,.13-6.34-1.2-9.08,0,0,1.65,.05,1.65,.05-2.15,3.19-5.35,5.16-8.52,7.13,0,0,.35-2.1,.35-2.1,.36-2.1-.36-4.46-1.42-6.3,0,0,1.63-.03,1.63-.03-2.31,3.88-5.16,7.41-8.72,10.24,.15-2.4,.25-5.14-.69-7.4,0,0,1.43,.38,1.43,.38-4.8,3.75-9.53,8.19-12.53,13.53-.73,1.33-1.29,2.73-1.59,4.15-.28,2.71,1.39,5.89,2.35,8.53,.59,1.65,1.4,3.13,1.38,4.98,0,0-.06,.79-.06,.79l-.81,.06c-2.89,.25-2.41,4.01-1.73,6.11,.47,2.13,3.23,3.91,5.07,2.38,.29-.34,.82-.64,1.23-.62h0Zm-.42,1.86c.18,.15,.53,.12,.65-.01-.23,.22-.51,.46-.79,.63-2.92,1.8-6.84-.61-7.55-3.66-1.15-3.07-.91-8.33,3.39-8.59,0,0-.87,.85-.87,.85-.61-3.76-2.93-7.15-3.61-10.97-1.33-8,9.9-17.89,15.74-22.29,1.06,2.26,1.54,4.7,1.42,7.18,0,0-1.57-.77-1.57-.77,1.32-1.14,2.51-2.47,3.61-3.88,1.43-1.82,2.7-3.82,3.86-5.81,1.72,2.68,3.03,5.74,2.49,9,0,0-1.43-.98-1.43-.98,2.76-1.73,5.47-3.94,7-6.81,2.01,3.63,3.34,7.94,2.08,12.04,0,0-1.6-.94-1.6-.94,1.73-1.9,3.27-4.13,4.64-6.31,.65,1.42,1.42,2.99,1.86,4.46,.94,3.02,1.64,6.34,.48,9.44,0,0-.16-.97-.16-.97,1.84,2.55,1.78,5.53,2.15,8.41,.24,2.75,.62,5.45,1.34,8.04,.4,1.47,.44,2.99,.28,4.44-1.01,7.09-5.01,14.62-11.96,17.42-8.28,1.92-19.24-1.51-22.06-10.27-.02-.08-.06-.18-.07-.26,.03,.24,.41,.62,.7,.63h0Z"/></g></g></g></g></svg>