<?xml version="1.0" encoding="UTF-8"?><svg id="Layer_2" xmlns="http://www.w3.org/2000/svg" xmlns:xlink="http://www.w3.org/1999/xlink" viewBox="0 0 241.9 66.97"><defs><style>.cls-1{fill:#fff;}.cls-2{stroke-width:.2px;}.cls-2,.cls-3{stroke:#255069;stroke-miterlimit:10;}.cls-2,.cls-4{fill:#255069;}.cls-5{filter:url(#drop-shadow-1);}.cls-6{opacity:.4;}.cls-3{fill:none;stroke-width:1.69px;}.cls-7{fill:#42b1de;}.cls-8{fill:url(#linear-gradient);}</style><filter id="drop-shadow-1" filterUnits="userSpaceOnUse"><feOffset dx="1.77" dy="1.77"/><feGaussianBlur result="blur" stdDeviation="2.66"/><feFlood flood-color="#255069" flood-opacity=".2"/><feComposite in2="blur" operator="in"/><feComposite in="SourceGraphic"/></filter><linearGradient id="linear-gradient" x1=".29" y1="20.5" x2="9.64" y2="52.97" gradientTransform="translate(67.33 27.24) rotate(89.93) scale(.96)" gradientUnits="userSpaceOnUse"><stop offset="0" stop-color="#34a1ea"/><stop offset="1" stop-color="#42b1de"/></linearGradient></defs><g id="Layer_2-2"><g><g><path class="cls-2" d="M182.4,13.85c1.77,3.15,2.64,6.93,3.15,10.69,.46,3.77,.5,7.66-.09,11.34-.25,1.43-.71,3.56-1.59,4.5-2.06-1.74-3.88-4.28-5.21-6.8-1.17-2.03-1.96-4.67-4.04-6.17-1.18-.68-2.57-.51-3.38,.76-.98,3.04-2.39,5.93-4.06,8.69-.7,1.12-1.56,2.67-2.45,3.21-.03-.02-.07-.06-.14-.14-.69-.91-1.1-2.13-1.46-3.33-1-3.6-1.46-7.52-1.8-11.4-.29-3.86-.51-7.81-.39-11.66,.03-1.9-2.75-2.06-2.95-.18-1.02,7.29-1.39,23.82,3.28,29.59,2.4,2.75,6.11,1.6,7.86-1.15,1.99-3.23,3.51-6.46,4.65-9.98,.58,1.08,1.07,2.39,1.6,3.4,1.38,2.84,3.22,5.63,5.6,7.81,1.36,1.42,3.96,1.79,5.52,.12,1.92-2.18,2.13-4.18,2.63-6.65,1.02-8.36,.3-16.81-3.78-24.35-1.15-1.93-4.06-.26-2.99,1.7Z"/><path class="cls-2" d="M111.09,31.12c1.05,.15,1.65-1.34,.75-1.95-2.95-2.46-6.68-1.85-10.11-1.46-3.18,.45-6.28,1.22-9.23,2.51-.58,.2-1.01,.74-.87,1.38,.13,.62,.74,1.02,1.36,.89,1.47-.3,2.99-.56,4.5-.78,3.1-.44,6.29-.77,9.45-.78-2.12,8.2-12.34,13.38-19.68,8.18-9.18-6.57-4.47-21.31,6.05-23.33,4.2-.9,8.81,.6,11.48,4.01,1.17,1.38,3.25-.27,2.16-1.73-7.01-10.3-22.47-6.78-27.29,3.88-6.71,14.2,7.21,28.87,21.52,21.48,4.64-2.49,7.94-7.21,8.62-12.4,.43,.03,.86,.06,1.28,.1Z"/><path class="cls-2" d="M125.17,43.51c6.41,.5,7.82-6.15,7.75-11.68,1.32-.84,3.16-1.76,4.51-1.45,1.57,.63,1.32,2.85,1.3,4.36-.03,.5,.28,.99,.78,1.15,.72,.24,1.39-.28,1.52-.99,.37-1.12,.62-2.32,.39-3.72-.86-4.79-5.57-4.67-8.7-2.46-.03-.26-.06-.52-.09-.77-.11-1.03-1.67-1.01-1.76,.02-.26,2.55-.54,5.1-1.1,7.53-.52,2.09-1.26,4.75-3.65,5-1.35,.08-1.57,.05-1.81-1.09-.25-3.58,1.3-7.35,2.56-10.71,.41-1.09-1.16-1.75-1.65-.69-.26,.55-.61,1.27-.98,2.08-1.69-4-6.98-3.19-9.86-.86-2.26,1.68-4.06,4.24-4.47,7.14-.65,3.75,1.98,7.39,6,7.03,2.18-.17,4.21-1.3,5.79-2.93,.33,1.59,1.34,2.75,3.47,3.03Zm-9.39-3.12c-1.29,.05-2.35-.55-2.7-1.72-1.03-3.87,2.86-8.63,6.74-8.97,1.29-.07,2.3,.55,2.69,1.75,1.05,3.87-2.84,8.64-6.73,8.95Z"/><path class="cls-2" d="M155.08,28.63s0,0,0,0c0-.03,0-.05,.01-.08,.09-.87-.56-1.65-1.43-1.71-1.06,0-1.49,.62-1.65,1.44,0,0,0,0,0,0-.54,3.63-1.25,7.66-3.26,10.72-.97,1.57-2.85,1.77-3.51-.12-.77-3.01,.77-7.19,3.13-9.18,.71-.51,.85-1.52,.32-2.21-1.99-2.1-4.3,1.98-5.11,3.38-1.64,3.41-2.93,8.29,.25,11.34,1.57,1.34,3.93,1.51,5.58,.41,1.7-1.13,2.66-2.91,3.39-4.68,.33,1.92,.72,3.83,1.15,5.72,1.05,4.52,.66,9.56-1.98,13.47-4.09,6.32-13.47,7.89-20.28,5.65-4.9-1.75-7.77-8.72-3.85-12.71,5.68-4.89,15.04,.18,20.52,3.54,1.54,.94,2.95-1.34,1.43-2.3-32.49-22.17-36.95,21.65-6.23,14.84,9.28-2.03,14.75-10.68,13.73-19.93-.75-5.81-2.63-11.68-2.21-17.58Z"/><path class="cls-2" d="M194.74,33.54c0-1.23-1.81-1.49-2.15-.29-.88,3.13-.31,6.45,.88,9.41,.3,.77,1.17,1.15,1.94,.86,.78-.3,1.17-1.17,.87-1.94-.96-2.51-1.48-5.34-1.54-8.03Z"/><path class="cls-2" d="M209.99,30.37c-2.31-2.46-6.83-2.97-9.09-.23,.04-.44,.08-.88,.13-1.32,.12-.68-.35-1.32-1.04-1.42-.67-.09-1.28,.37-1.37,1.04-.17,1.2-.24,2.32-.28,3.47-.11,3.46,.2,6.93,1.09,10.29,.38,1.46,2.57,1.05,2.39-.45-.15-2.34-.12-4.73,.39-6.83,.49-1.67,1.12-3.4,3-3.13,1.96,.36,2.74,1.19,2.95,3.28,.19,2.02-.24,4.39-.65,6.71-.14,.72,.27,1.45,.98,1.68,.77,.25,1.6-.17,1.86-.94,.79-2.39,1.45-4.86,1.35-7.73-.09-1.41-.47-3.1-1.7-4.44Z"/><path class="cls-2" d="M214.67,24.15c.79,.15,1.58,.35,2.36,.62,.58,.22,1.26-.02,1.55-.6,.3-.61,.06-1.35-.55-1.65-1.2-.6-2.47-1.05-3.78-1.35-.42-3.11-.83-6.22-1.28-9.3-.32-2.17-3.54-1.7-3.26,.45,.47,2.81,.9,5.62,1.35,8.43-3.88-.23-7.77,.46-11.32,2.08-1.34,.65-.57,2.7,.88,2.3,3.54-.79,7.28-1.49,10.94-1.34,1.15,6.92,2.49,13.8,4.83,20.49,.62,1.48,2.83,.62,2.3-.88-1.97-6.21-3.09-12.72-4.02-19.25Z"/><path class="cls-2" d="M224.19,12.23c.15-2.57-3.62-2.8-3.8-.25-.61,10.62-.34,21.56,1.68,32.02,.29,1.57,2.62,1.2,2.44-.36-1.55-10.5-1.36-20.87-.32-31.41Z"/><path class="cls-2" d="M241.61,39.27c-.41-.72-1.31-.97-2.03-.56-2.63,1.44-6.35,3.12-9.13,1.82-2.32-1.29-2.14-4.85-1.15-7.22,2.64,1.39,5.92,2.19,8.02-.37,2.69-3.69-1.38-6.42-4.9-5.54-1.82,.31-3.32,1.42-4.41,2.91-.97-.43-1.82,.93-.94,1.6-1.75,3.74-1.35,8.71,2.24,10.76,4.01,1.81,7.9,.06,11.56-1.29,.83-.32,1.19-1.34,.75-2.12Zm-6.72-9.09c.33,.18,.55,.22,.52,.53-.57,1.85-2.87,1.41-4.86,.68,1.15-1.09,2.87-1.67,4.33-1.21Z"/><path class="cls-2" d="M195.24,24.66c-1.23-.41-2.93,.35-3.65,2.37-.67,2.13,.22,3.27,1.19,3.59,.21,.07,.44,.11,.68,.11,1.11,0,2.38-.81,2.96-2.46v-.02c.68-2.13-.21-3.27-1.18-3.59Z"/></g><g class="cls-5"><g><ellipse class="cls-8" cx="31.93" cy="32.1" rx="30.23" ry="30.13" transform="translate(-.21 63.99) rotate(-89.93)"/><path class="cls-4" d="M64.04,32.1c.16,22.8-23.38,38.64-44.4,29.72-26.21-11.2-26.17-48.16,.05-59.32,20.91-8.85,44.41,6.95,44.35,29.6h0Zm-3.96,0c.29-15.26-12.85-28.59-28.15-28.38C16.59,3.45,3.4,16.79,3.67,32.1c-.24,15.21,13.04,28.55,28.26,28.24,15.16,.19,28.37-13.08,28.15-28.24h0Z"/></g><g><g><ellipse class="cls-1" cx="48.1" cy="35.86" rx="3.19" ry="4.45"/><g class="cls-6"><ellipse class="cls-7" cx="47.44" cy="35.86" rx="3.19" ry="4.45"/></g><ellipse class="cls-3" cx="48.1" cy="35.86" rx="3.19" ry="4.45"/><g><path class="cls-1" d="M19.37,45.27s2.5,9.44,16.81,8.73c6.87-.7,13.14-12.17,11.6-18.27-1.54-6.1-.7-11.5-3.02-14.23,1.61-4-1.4-10.24-1.4-10.24-1.61,2.52-3.37,4.42-3.37,4.42,1.33-4.14-1.12-8.7-1.12-8.7-1.54,2.52-5.68,5.05-5.68,5.05,.56-3.09-1.37-6.17-1.37-6.17,0,0-2.77,4.77-6.06,7.57,.14-2.95-.77-4.98-.77-4.98,0,0-11.26,8.29-12.83,16.2-.62,3.09,3.51,9.96,3.3,11.99-3.3,.28-3.16,4.29-2.03,7.15,.82,2.08,4.07,3.72,5.96,1.47Z"/><g class="cls-6"><path class="cls-7" d="M39.02,41.96s1.78,.3,2.72-.73c.28,1.4-.59,2.2-1.87,2.84s-2.29-2.58-.85-2.12Z"/></g><g class="cls-6"><path class="cls-7" d="M24.49,10.01s-6.67,14.06-6.8,15.18,6.54,8.34,4.95,13.25c-1.58,4.91,4.15,15.77,16.4,13.86-3.26,2.77-14.62,3.13-20.03-7.01-1.78,3.4-5.78-1.18-6.26-4.04-.35-1.94,3.81-2.94,5-2.14,1.06-.79-1.12-2.33-1.91-2.78-1.98-2.63-4.37-11.01-3.74-12.13,4.12-9.58,12.39-14.19,12.39-14.19Z"/></g><path class="cls-4" d="M48.5,35.51c-.64-2.29-.98-4.68-1.19-7.12-.31-2.39-.3-4.85-1.64-7.01,.82-2.62,.24-5.39-.55-7.92-.39-1.3-1.07-2.69-1.64-3.94-.7,1.12-1.45,2.24-2.26,3.32-.03-2.63-1-5.25-2.27-7.55-1.1,2.07-2.9,3.74-4.85,5.12-.12-2.22-1.08-4.31-2.29-6.19-1.02,1.76-2.15,3.53-3.42,5.14-.59,.75-1.21,1.47-1.86,2.15-.15-1.51-.55-2.99-1.21-4.38-4.84,3.69-9.39,7.81-12.43,13.18-.7,1.28-1.26,2.66-1.58,4.14-.28,1.64,.2,3.06,.65,4.54,.7,2.37,2.01,4.6,2.5,6.98-2.94,.85-3.04,4.95-2.11,7.44,.63,2.67,4.04,4.79,6.62,3.27,2.94,7.07,12.13,9.81,19.16,8.17,6.15-2.47,9.7-9.14,10.59-15.41,.14-1.28,.1-2.63-.25-3.93Zm-2.06,7.16c-1.81,4.59-5.33,9.85-10.53,10.5-4.02,.17-8.36-.47-11.67-2.86-1.8-1.3-3.29-3.08-4.03-5.19-.04-.26-.36-.64-.65-.68-.36-.02-.84,.25-1.09,.55-1.63,1.35-4.07-.22-4.48-2.11-.6-1.86-1.02-5.18,1.53-5.4l.72-.05s.05-.7,.05-.7c.02-1.64-.7-2.94-1.22-4.4-.85-2.34-2.33-5.15-2.08-7.55,.27-1.26,.76-2.5,1.41-3.67,2.46-4.38,6.24-8.07,10.17-11.23,.45,1.76,.38,3.72,.27,5.47,2.75-2.19,5.01-4.84,6.91-7.76,.56,1.36,.87,2.89,.63,4.29,0,0-.31,1.85-.31,1.86,2.38-1.49,4.78-2.97,6.61-5.11,.83,2.16,1.2,4.58,.53,6.79l-1,3.5,2.42-2.67c.93-1.04,1.78-2.1,2.57-3.22,.12,.32,.24,.64,.34,.96,.84,2.49,1.26,5.37,.31,7.76,0,0,.29,.3,.29,.3,1.53,1.61,1.75,4.28,2.02,6.47,.29,2.42,.51,4.89,1.09,7.32,.51,2.26-.01,4.68-.79,6.84Z"/></g></g><g><path class="cls-4" d="M27.01,37.62c1.77-.25,3.81-.98,4.64-2.69,.11-.22,.38-.31,.61-.2,.24,.11,.26,.38,.27,.6,.07,.67-.2,1.3-.58,1.82-1.17,1.4-3.12,1.93-4.85,1.43-.6-.07-.7-.84-.09-.96h0Z"/><path class="cls-4" d="M40.26,32.78c.35,1.63,1.81,2.96,3.53,2.89,.42,0,.55,.62,.17,.79,0,0-.17,.08-.17,.08-1.04,.56-2.37,.2-3.19-.6-.84-.79-1.28-1.86-1.2-3-.01-.27,.19-.53,.48-.5,.19,.02,.34,.16,.39,.33h0Z"/><path class="cls-4" d="M36.89,45.16c-2.2,.59-4.87,.11-6.26-1.79,.31-.14,.64-.23,.95-.27,.52-.06,.5-.85-.03-.87-1.22-.09-2.54,.57-2.92,1.79-.15,.42-.11,.85-.03,1.24,.08,.5,.87,.44,.87-.07,0-.28,.01-.56,.12-.79,.06-.17,.16-.32,.28-.46,.25,.63,.66,1.14,1.15,1.57,1.68,1.4,4.19,1.49,6.09,.51,.51-.17,.33-.95-.21-.85Z"/><path class="cls-4" d="M38.87,39.15c1.57-.19,4.13,1.07,2.61,2.85-.53,.64-3.16,1.69-3.3,.38,.02-1.07,1.4-.5,2.02-.86,1.87-.7-.33-1.74-1.33-1.7-.42,0-.42-.67,0-.67h0Z"/></g></g></g></g></g></svg>