<?xml version="1.0" encoding="UTF-8"?><svg id="Layer_2" xmlns="http://www.w3.org/2000/svg" viewBox="0 0 224.96 68.2"><defs><style>.cls-1,.cls-2{fill:#fff;}.cls-3{opacity:.18;}.cls-3,.cls-4{fill:#255069;}.cls-2{stroke:#255069;stroke-miterlimit:10;stroke-width:1.9px;}</style></defs><g id="Layer_2-2"><g><g><path class="cls-4" d="M165.56,15.17c1.77,3.15,2.64,6.93,3.14,10.69,.46,3.77,.5,7.66-.09,11.34-.25,1.43-.71,3.56-1.59,4.5-2.06-1.74-3.88-4.28-5.21-6.8-1.17-2.03-1.96-4.67-4.04-6.17-1.18-.68-2.57-.51-3.38,.76-.98,3.04-2.39,5.93-4.06,8.69-.7,1.12-1.56,2.67-2.45,3.21-.03-.02-.07-.06-.14-.14-.69-.91-1.1-2.13-1.46-3.34-1-3.6-1.46-7.53-1.8-11.4-.29-3.86-.51-7.81-.39-11.66,.03-1.9-2.75-2.06-2.95-.18-1.02,7.29-1.39,23.82,3.28,29.6,2.4,2.75,6.11,1.6,7.86-1.15,1.99-3.23,3.51-6.46,4.65-9.98,.58,1.08,1.07,2.4,1.6,3.4,1.38,2.84,3.22,5.63,5.6,7.81,1.36,1.42,3.96,1.79,5.52,.12,1.92-2.18,2.13-4.18,2.63-6.65,1.02-8.36,.3-16.81-3.78-24.36-1.15-1.93-4.06-.26-2.99,1.7Z"/><path class="cls-4" d="M94.25,32.44c1.05,.15,1.65-1.34,.75-1.95-2.95-2.46-6.68-1.85-10.11-1.46-3.18,.45-6.28,1.22-9.23,2.51-.58,.2-1.01,.74-.87,1.38,.13,.62,.74,1.02,1.36,.89,1.47-.3,2.99-.56,4.5-.78,3.1-.44,6.29-.77,9.45-.78-2.12,8.2-12.34,13.38-19.68,8.18-9.18-6.57-4.46-21.31,6.05-23.34,4.2-.9,8.81,.6,11.48,4.01,1.17,1.38,3.25-.27,2.16-1.73-7.01-10.31-22.47-6.79-27.28,3.88-6.7,14.2,7.21,28.87,21.52,21.49,4.64-2.49,7.94-7.21,8.62-12.41,.43,.03,.86,.06,1.28,.1Z"/><path class="cls-4" d="M108.33,44.83c6.41,.5,7.82-6.15,7.75-11.68,1.32-.84,3.16-1.76,4.51-1.45,1.57,.63,1.32,2.85,1.3,4.36-.03,.5,.28,.99,.78,1.15,.72,.24,1.39-.28,1.52-.99,.37-1.12,.62-2.32,.39-3.72-.86-4.79-5.57-4.67-8.7-2.46-.03-.26-.06-.52-.09-.77-.11-1.03-1.67-1.01-1.76,.02-.26,2.55-.54,5.1-1.1,7.53-.52,2.09-1.26,4.75-3.65,5.01-1.35,.08-1.57,.05-1.81-1.09-.25-3.58,1.3-7.35,2.56-10.71,.41-1.09-1.16-1.75-1.65-.69-.26,.55-.61,1.27-.98,2.08-1.69-4-6.98-3.19-9.86-.86-2.26,1.68-4.06,4.24-4.47,7.14-.65,3.75,1.98,7.39,6,7.03,2.18-.17,4.21-1.3,5.79-2.93,.33,1.59,1.34,2.75,3.47,3.03Zm-9.38-3.13c-1.29,.05-2.35-.55-2.7-1.72-1.03-3.87,2.86-8.63,6.74-8.97,1.29-.07,2.3,.55,2.68,1.75,1.05,3.87-2.84,8.64-6.73,8.95Z"/><path class="cls-4" d="M138.24,29.96s0,0,0,0c0-.03,0-.05,.01-.08,.09-.87-.56-1.65-1.43-1.71-1.06,0-1.49,.62-1.65,1.44,0,0,0,0,0,0-.54,3.63-1.25,7.66-3.26,10.72-.97,1.57-2.85,1.77-3.51-.12-.77-3.01,.77-7.19,3.13-9.18,.71-.51,.85-1.52,.32-2.21-1.99-2.1-4.3,1.98-5.1,3.38-1.64,3.41-2.93,8.29,.25,11.34,1.57,1.34,3.93,1.51,5.58,.41,1.7-1.13,2.66-2.91,3.39-4.68,.33,1.92,.72,3.83,1.15,5.72,1.05,4.52,.66,9.56-1.98,13.47-4.09,6.32-13.47,7.89-20.27,5.65-4.9-1.75-7.77-8.72-3.85-12.71,5.68-4.89,15.04,.18,20.52,3.54,1.54,.94,2.95-1.34,1.43-2.3-32.49-22.17-36.95,21.65-6.23,14.84,9.28-2.03,14.75-10.68,13.73-19.93-.75-5.81-2.63-11.68-2.21-17.58Z"/><path class="cls-4" d="M177.9,34.87c0-1.23-1.81-1.49-2.15-.29-.88,3.13-.31,6.45,.88,9.41,.3,.77,1.17,1.15,1.94,.86,.78-.3,1.16-1.17,.87-1.94-.96-2.51-1.48-5.34-1.54-8.03Z"/><path class="cls-4" d="M193.15,31.69c-2.31-2.46-6.83-2.97-9.09-.23,.04-.44,.08-.88,.13-1.32,.12-.68-.35-1.32-1.04-1.42-.67-.09-1.28,.37-1.37,1.04-.17,1.2-.24,2.32-.28,3.48-.11,3.46,.2,6.93,1.09,10.29,.38,1.46,2.57,1.05,2.39-.45-.15-2.34-.12-4.73,.39-6.83,.49-1.67,1.12-3.4,3-3.13,1.96,.36,2.74,1.19,2.95,3.28,.19,2.02-.24,4.39-.65,6.72-.14,.72,.27,1.45,.98,1.68,.77,.25,1.6-.17,1.86-.94,.79-2.39,1.45-4.86,1.35-7.73-.09-1.41-.47-3.1-1.7-4.44Z"/><path class="cls-4" d="M197.83,25.47c.79,.15,1.58,.35,2.36,.62,.58,.22,1.26-.02,1.55-.6,.3-.61,.06-1.35-.55-1.65-1.2-.6-2.47-1.05-3.78-1.35-.42-3.11-.83-6.22-1.28-9.3-.32-2.17-3.54-1.7-3.26,.45,.47,2.81,.9,5.62,1.35,8.43-3.88-.23-7.77,.46-11.32,2.08-1.34,.65-.57,2.7,.88,2.3,3.54-.79,7.28-1.49,10.94-1.34,1.15,6.92,2.49,13.8,4.83,20.49,.62,1.48,2.83,.62,2.3-.88-1.97-6.21-3.09-12.72-4.02-19.26Z"/><path class="cls-4" d="M207.35,13.55c.15-2.57-3.62-2.81-3.8-.25-.61,10.62-.34,21.56,1.68,32.02,.29,1.57,2.62,1.2,2.44-.36-1.55-10.5-1.36-20.87-.32-31.41Z"/><path class="cls-4" d="M224.77,40.59c-.41-.72-1.31-.97-2.03-.56-2.63,1.44-6.35,3.12-9.13,1.82-2.32-1.29-2.14-4.85-1.15-7.23,2.64,1.39,5.92,2.19,8.02-.37,2.69-3.69-1.38-6.43-4.9-5.54-1.82,.31-3.32,1.42-4.41,2.91-.97-.43-1.82,.93-.94,1.6-1.75,3.74-1.35,8.71,2.24,10.77,4.01,1.81,7.9,.06,11.56-1.29,.83-.32,1.19-1.34,.75-2.12Zm-6.72-9.09c.33,.18,.55,.22,.52,.53-.57,1.85-2.87,1.41-4.86,.68,1.15-1.09,2.87-1.67,4.33-1.21Z"/><path class="cls-4" d="M178.44,26.95c-1.1-.37-2.62,.32-3.26,2.12-.6,1.91,.2,2.92,1.06,3.21,.19,.06,.4,.1,.61,.1,1,0,2.12-.72,2.65-2.2v-.02c.6-1.91-.19-2.92-1.05-3.21Z"/></g><g><ellipse class="cls-4" cx="27.06" cy="34.1" rx="27.06" ry="27.15"/><g><g><ellipse class="cls-2" cx="45" cy="35.75" rx="3.61" ry="5.03"/><ellipse class="cls-3" cx="45" cy="35.75" rx="3.61" ry="5.03"/><g><path class="cls-1" d="M12.54,46.39s2.82,10.66,18.99,9.87c7.77-.79,14.85-13.75,13.11-20.65s-.79-13-3.41-16.09c1.82-4.52-1.58-11.57-1.58-11.57-1.82,2.85-3.8,4.99-3.8,4.99,1.51-4.68-1.27-9.83-1.27-9.83-1.74,2.85-6.42,5.71-6.42,5.71,.63-3.49-1.55-6.97-1.55-6.97,0,0-3.13,5.39-6.85,8.56,.16-3.33-.87-5.63-.87-5.63,0,0-12.72,9.37-14.5,18.3-.7,3.49,3.96,11.25,3.72,13.55-3.72,.32-3.57,4.84-2.3,8.08,.93,2.35,4.6,4.2,6.74,1.66Z"/><path class="cls-3" d="M18.33,6.54s-7.53,15.89-7.68,17.15,7.38,9.42,5.59,14.97c-1.79,5.54,4.69,17.83,18.53,15.66-3.69,3.13-16.52,3.53-22.63-7.92-2.01,3.84-6.53-1.33-7.07-4.56-.39-2.19,4.31-3.32,5.65-2.42,1.19-.89-1.27-2.63-2.16-3.14-2.24-2.97-4.94-12.44-4.22-13.71C8.99,11.75,18.33,6.54,18.33,6.54Z"/><path class="cls-4" d="M45.45,35.36c-.73-2.59-1.11-5.29-1.34-8.04-.35-2.7-.34-5.48-1.85-7.92,.93-2.96,.27-6.09-.62-8.95-.44-1.46-1.21-3.04-1.86-4.46-.79,1.26-1.64,2.53-2.55,3.75-.04-2.98-1.12-5.93-2.57-8.53-1.25,2.33-3.28,4.23-5.47,5.79-.13-2.51-1.22-4.87-2.58-6.99-1.16,1.99-2.43,3.99-3.86,5.81-.66,.85-1.36,1.66-2.1,2.43-.17-1.71-.62-3.38-1.36-4.95-5.47,4.17-10.6,8.83-14.04,14.89-.79,1.44-1.43,3.01-1.79,4.68-.32,1.86,.23,3.46,.74,5.13,.79,2.68,2.27,5.2,2.83,7.89-3.32,.96-3.44,5.6-2.39,8.41,.71,3.02,4.56,5.42,7.48,3.7,3.32,7.99,13.7,11.08,21.65,9.24,6.95-2.79,10.95-10.32,11.96-17.42,.16-1.45,.12-2.97-.28-4.44Zm-2.33,8.09c-2.04,5.18-6.02,11.13-11.89,11.86-4.55,.19-9.45-.53-13.19-3.23-2.03-1.46-3.72-3.48-4.55-5.86-.04-.29-.4-.73-.74-.77-.41-.02-.95,.28-1.23,.62-1.84,1.53-4.6-.25-5.07-2.38-.68-2.1-1.15-5.86,1.73-6.11l.81-.06s.06-.79,.06-.79c.02-1.85-.79-3.33-1.38-4.98-.96-2.65-2.63-5.82-2.35-8.53,.31-1.42,.86-2.82,1.59-4.15,2.78-4.95,7.05-9.12,11.49-12.69,.51,1.98,.43,4.2,.3,6.19,3.1-2.47,5.67-5.47,7.8-8.77,.64,1.54,.98,3.27,.71,4.85,0,0-.35,2.1-.35,2.1,2.69-1.68,5.4-3.35,7.47-5.77,.93,2.44,1.36,5.18,.6,7.68l-1.12,3.96,2.73-3.02c1.05-1.17,2.01-2.38,2.9-3.64,.13,.36,.27,.72,.39,1.08,.95,2.81,1.43,6.07,.35,8.77,0,0,.33,.33,.33,.33,1.73,1.82,1.97,4.83,2.28,7.31,.32,2.73,.57,5.53,1.24,8.27,.58,2.55-.01,5.29-.9,7.73Z"/></g></g><g><path class="cls-4" d="M21.17,37.75c2-.28,4.3-1.11,5.24-3.04,.13-.25,.43-.35,.68-.23,.27,.12,.29,.43,.31,.68,.08,.75-.22,1.47-.65,2.05-1.32,1.58-3.53,2.18-5.48,1.61-.68-.08-.79-.95-.1-1.09h0Z"/><path class="cls-4" d="M36.15,32.28c.4,1.85,2.05,3.35,3.99,3.27,.48,0,.62,.7,.19,.9,0,0-.19,.09-.19,.09-1.18,.63-2.68,.23-3.61-.68-.94-.89-1.45-2.1-1.35-3.39-.01-.31,.21-.6,.54-.57,.22,.02,.39,.18,.44,.38h0Z"/><path class="cls-4" d="M32.34,46.27c-2.48,.66-5.5,.12-7.08-2.02,.35-.16,.72-.26,1.07-.31,.59-.06,.56-.96-.03-.98-1.38-.1-2.87,.64-3.3,2.02-.17,.48-.12,.96-.04,1.4,.09,.57,.99,.5,.98-.08,0-.31,.02-.63,.14-.9,.07-.2,.18-.37,.31-.52,.28,.71,.74,1.28,1.3,1.78,1.9,1.58,4.74,1.68,6.88,.57,.57-.19,.37-1.07-.24-.96Z"/><path class="cls-4" d="M34.57,39.48c1.77-.21,4.66,1.21,2.94,3.22-.6,.72-3.57,1.91-3.72,.43,.02-1.21,1.58-.57,2.29-.97,2.11-.79-.37-1.96-1.51-1.92-.48,0-.47-.75,0-.76h0Z"/><path class="cls-3" d="M34.74,42.65s2.01,.34,3.07-.82c.32,1.58-.66,2.48-2.11,3.21s-2.59-2.91-.96-2.39Z"/></g></g></g></g></g></svg>